<?xml version="1.0" standalone="no"?>
<!DOCTYPE svg PUBLIC "-//W3C//DTD SVG 1.1//EN" "http://www.w3.org/Graphics/SVG/1.1/DTD/svg11.dtd" >
<svg xmlns="http://www.w3.org/2000/svg">
<metadata>
Created by FontPrep 20130207 at Wed Jan 27 12:29:39 2016
 By Alexander Larson
Copyright (c) 2013 Monotype Imaging Inc. All rights reserved.
</metadata>
<defs>
<font id="bc299400a5fdbd24a8aaddec4b346470" horiz-adv-x='1024' >
  <font-face 
    font-family="NHaasGroteskTXStd-75Bd"
    font-weight="700"
    font-stretch="normal"
    units-per-em="2048"
    panose-1="2 11 8 4 2 2 2 2 2 4"
    ascent="1597"
    descent="-451"
    x-height="1090"
    cap-height="1524"
    bbox="-561 -539 2814 2042"
    underline-thickness="102"
    underline-position="255"
    unicode-range="U+0020-FB04"
  />
<missing-glyph 
 />
    <glyph glyph-name="f_f" unicode="ff" horiz-adv-x="1495" 
d="M891 0v881h-365v-881h-321v881h-164v209h164v79q0 190 127 267q117 100 416 69v-229q-130 4 -176 -19t-46 -110v-57h365v92q0 190 127 266q123 102 422 68v-230q-131 4 -179 -18t-49 -109v-69h228v-209h-228v-881h-321z" />
    <glyph glyph-name="fi" unicode="fi" horiz-adv-x="1318" 
d="M889 1243v281h323v-281h-323zM891 0v1090h319v-1090h-319zM41 881v209h164v92q0 190 127 266q123 102 422 68v-230q-131 4 -180 -17q-48 -22 -48 -110v-69h228v-209h-228v-881h-321v881h-164z" />
    <glyph glyph-name="fl" unicode="fl" horiz-adv-x="1325" 
d="M891 0v1524h323v-1524h-323zM41 881v209h164v92q0 190 127 266q123 102 422 68v-230q-131 4 -180 -17q-48 -22 -48 -110v-69h228v-209h-228v-881h-321v881h-164z" />
    <glyph glyph-name="f_f_i" unicode="ffi" horiz-adv-x="2004" 
d="M1575 1243v281h323v-281h-323zM1577 0v1090h319v-1090h-319zM891 0v881h-365v-881h-321v881h-164v209h164v79q0 190 127 267q117 100 416 69v-229q-130 4 -176 -19t-46 -110v-57h365v92q0 190 127 266q123 102 422 68v-230q-131 4 -179 -18t-49 -109v-69h228v-209h-228
v-881h-321z" />
    <glyph glyph-name="f_f_l" unicode="ffl" horiz-adv-x="2011" 
d="M1577 0v1524h324v-1524h-324zM891 0v881h-365v-881h-321v881h-164v209h164v79q0 190 127 267q117 100 416 69v-229q-130 4 -176 -19t-46 -110v-57h365v92q0 190 127 266q123 102 422 68v-230q-131 4 -179 -18t-49 -109v-69h228v-209h-228v-881h-321z" />
    <glyph glyph-name=".notdef" 
 />
    <glyph glyph-name=".null" horiz-adv-x="0" 
 />
    <glyph glyph-name=".null" horiz-adv-x="0" 
 />
    <glyph glyph-name="nonmarkingreturn" horiz-adv-x="681" 
 />
    <glyph glyph-name="space" unicode=" " horiz-adv-x="493" 
 />
    <glyph glyph-name="exclam" unicode="!" horiz-adv-x="591" 
d="M125 0v336h342v-336h-342zM129 1524h334v-381l-84 -613h-166l-84 613v381z" />
    <glyph glyph-name="quotedbl" unicode="&#x22;" horiz-adv-x="923" 
d="M106 938v586h281v-586h-281zM541 938v586h276v-586h-276z" />
    <glyph glyph-name="numbersign" unicode="#" horiz-adv-x="1308" 
d="M555 864l-39 -246h236l39 246h-236zM147 864l43 242h199l57 354h205l-57 -354h235l58 354h203l-58 -354h205l-41 -242h-203l-39 -246h203l-41 -239h-201l-59 -379h-205l62 379h-236l-59 -379h-205l59 379h-202l43 239h198l39 246h-203z" />
    <glyph glyph-name="dollar" unicode="$" horiz-adv-x="1355" 
d="M430 1076q0 -62 43 -96t150 -65v318q-90 -8 -142 -51q-51 -44 -51 -106zM952 410q0 70 -46 106t-152 66v-342q86 12 142 56t56 114zM623 -254v240q-268 16 -415 143q-146 127 -155 338h334q25 -201 236 -227v376q-18 0 -126 33q-233 71 -302 146q-97 102 -97 278t146 285
t379 119v161h131v-163q225 -16 356 -127t143 -299h-315q-23 147 -184 178v-344l26 -6q123 -31 202 -60q209 -77 268 -205q36 -76 36 -180q0 -204 -148 -320t-384 -126v-240h-131z" />
    <glyph glyph-name="percent" unicode="%" horiz-adv-x="1906" 
d="M1323 391q0 -250 136 -250t136 250q-1 113 -35 183t-102 71q-68 0 -102 -70t-33 -184zM446 815q68 0 103 68q35 67 35 181t-35 184t-103 69q-135 0 -135 -251t135 -251zM1462 817q168 0 274 -117q106 -118 107 -310t-107 -310t-277 -117q-169 0 -277 118t-107 309
q0 191 109 309q110 118 278 118zM459 0l794 1458h193l-795 -1458h-192zM446 639q-168 0 -276 117t-107 308q0 191 108 308q109 117 277 117t274 -116q106 -117 105 -309t-107 -308t-274 -117z" />
    <glyph glyph-name="ampersand" unicode="&#x26;" horiz-adv-x="1482" 
d="M573 1180q0 -94 117 -205q131 76 131 203q0 57 -35 94t-90 37t-89 -35t-34 -94zM391 422q1 -84 63 -138t172 -53q110 0 212 70l-293 377q-154 -98 -154 -256zM604 -29q-254 0 -399 120t-146 325q1 164 91 266t251 180q-125 145 -125 307q0 161 116 263t300 102t299 -95
t115 -259q0 -131 -75 -218t-208 -155l60 -74q57 -74 143 -194q41 92 57 221h281q-23 -236 -158 -432l260 -328h-393l-31 37l-49 69q-184 -135 -389 -135z" />
    <glyph glyph-name="quotesingle" unicode="'" horiz-adv-x="493" 
d="M106 938v586h281v-586h-281z" />
    <glyph glyph-name="parenleft" unicode="(" horiz-adv-x="749" 
d="M125 648q0 278 93 534t239 424h266q-268 -428 -268 -941t266 -954h-264q-147 180 -240 419q-92 240 -92 518z" />
    <glyph glyph-name="parenright" unicode=")" horiz-adv-x="749" 
d="M297 641q0 541 -270 965h268q145 -168 239 -424t93 -534q0 -278 -92 -518q-92 -239 -240 -419h-266q268 444 268 930z" />
    <glyph glyph-name="asterisk" unicode="*" horiz-adv-x="970" 
d="M389 1524h193v-273l237 82l64 -168l-248 -82l160 -215l-150 -108l-158 225l-159 -225l-150 108l158 215l-252 82l70 168l235 -82v273z" />
    <glyph glyph-name="plus" unicode="+" horiz-adv-x="1241" 
d="M109 571v258h374v396h275v-396h375v-258h-375v-399h-275v399h-374z" />
    <glyph glyph-name="comma" unicode="," horiz-adv-x="520" 
d="M250 -4v4h-160v336h340v-316q0 -184 -93 -282t-245 -109v144q158 41 158 223z" />
    <glyph glyph-name="hyphen" unicode="-" horiz-adv-x="743" 
d="M82 403v279h580v-279h-580z" />
    <glyph glyph-name="period" unicode="." horiz-adv-x="520" 
d="M90 0v336h340v-336h-340z" />
    <glyph glyph-name="slash" unicode="/" horiz-adv-x="954" 
d="M-39 -289l684 1895h293l-684 -1895h-293z" />
    <glyph glyph-name="zero" unicode="0" horiz-adv-x="1417" 
d="M709 229q291 0 291 500t-291 500q-147 0 -219 -133q-72 -134 -72 -368t71 -367q73 -132 220 -132zM711 1489q287 0 459 -206t173 -555t-173 -556t-460 -207t-461 208t-175 554t175 554t462 208z" />
    <glyph glyph-name="one" unicode="1" horiz-adv-x="894" 
d="M403 0v952h-337v224q168 4 276 78t131 219h264v-1473h-334z" />
    <glyph glyph-name="two" unicode="2" horiz-adv-x="1249" 
d="M842 1014q0 94 -54 149t-158 55t-159 -67q-68 -74 -68 -213h-317q0 211 98 348q139 203 467 203q248 0 388 -131q141 -131 141 -340t-183 -363q-61 -55 -242 -174t-245 -196v-6h668v-279h-1115q2 236 154 406q72 81 175 158q104 77 186 134t114 80q150 106 150 236z" />
    <glyph glyph-name="three" unicode="3" horiz-adv-x="1300" 
d="M1235 418q-1 -221 -163 -337t-420 -116t-425 127q-172 137 -176 387h316q7 -115 77 -185t197 -71t192 57t64 160q0 205 -268 205h-88v234h80q113 0 177 47t64 132t-57 134t-163 49q-106 -1 -168 -65t-68 -158h-312q4 205 155 338t399 133t394 -110q148 -109 148 -309
t-248 -284v-4q293 -82 293 -364z" />
    <glyph glyph-name="four" unicode="4" horiz-adv-x="1339" 
d="M541 575h252v353l10 223h-4q-82 -127 -144 -203l-155 -194q-41 -51 -140 -156l-28 -31v-4q127 12 209 12zM793 0v330h-684v297l686 848h319v-900h217v-245h-217v-330h-321z" />
    <glyph glyph-name="five" unicode="5" horiz-adv-x="1290" 
d="M645 -35q-254 0 -419 121t-181 328h330q16 -82 84 -131q69 -49 177 -49t180 71t71 185q0 114 -72 183t-180 68q-150 0 -227 -96h-314l152 813h887v-268h-648l-65 -322h4q108 119 308 119t345 -138t145 -368t-161 -373q-162 -143 -416 -143z" />
    <glyph glyph-name="six" unicode="6" horiz-adv-x="1337" 
d="M418 481q0 -117 78 -191t193 -75q114 0 190 76q75 77 75 191t-74 190q-75 76 -193 76q-117 0 -193 -75t-76 -192zM705 -35q-297 0 -461 201q-166 196 -168 564t165 563t461 196q220 -1 356 -105t171 -272h-320q-41 137 -200 137q-291 0 -316 -434h4q131 182 351 182
t370 -145q152 -146 153 -372t-159 -370t-407 -145z" />
    <glyph glyph-name="seven" unicode="7" horiz-adv-x="1179" 
d="M451 1176h-394v282h1071v-256q-217 -213 -362 -527t-158 -675h-352q16 367 177 682t370 502v4q-186 -12 -352 -12z" />
    <glyph glyph-name="eight" unicode="8" horiz-adv-x="1325" 
d="M664 215q120 0 192 60q72 59 72 163t-70 166t-192 62t-195 -62q-72 -62 -72 -166t72 -164t193 -59zM663 885q105 0 163 50t58 135t-58 136t-163 51t-165 -51t-60 -136t60 -135t165 -50zM666 -35q-266 0 -436 121q-169 121 -169 330q0 131 75 227t214 139v6
q-227 80 -227 297q0 182 147 293q146 111 394 111q248 -1 392 -107t144 -290q0 -215 -225 -295v-6q141 -39 216 -137t75 -230q0 -213 -167 -336t-433 -123z" />
    <glyph glyph-name="nine" unicode="9" horiz-adv-x="1339" 
d="M924 973q0 117 -77 193t-196 75q-119 0 -193 -76q-74 -75 -75 -191t73 -192t194 -75t197 75t77 191zM655 -35q-227 0 -372 109t-170 274h319q16 -57 70 -99t145 -42q150 0 223 119q63 100 76 305h-4q-135 -172 -353 -172t-370 143q-151 142 -151 370t162 373
q163 144 415 144t410 -141q205 -184 205 -604t-170 -605q-156 -174 -435 -174z" />
    <glyph glyph-name="colon" unicode=":" horiz-adv-x="534" 
d="M96 0v336h340v-336h-340zM96 657v336h340v-336h-340z" />
    <glyph glyph-name="semicolon" unicode=";" horiz-adv-x="534" 
d="M256 -4v4h-160v336h340v-316q0 -184 -93 -282t-245 -109v144q158 41 158 223zM96 657v336h340v-336h-340z" />
    <glyph glyph-name="less" unicode="&#x3c;" horiz-adv-x="1107" 
d="M985 143l-872 369v293l872 369v-285l-348 -135q-105 -41 -248 -82l-47 -15v-4q180 -47 295 -88l348 -129v-293z" />
    <glyph glyph-name="equal" unicode="=" horiz-adv-x="1234" 
d="M125 315v252h995v-252h-995zM125 754v252h995v-252h-995z" />
    <glyph glyph-name="greater" unicode="&#x3e;" horiz-adv-x="1107" 
d="M123 1174l872 -369v-293l-872 -369v283l350 137l293 96v5q-178 47 -293 88l-350 129v293z" />
    <glyph glyph-name="question" unicode="?" horiz-adv-x="1187" 
d="M418 530q0 127 35 202t120 147q23 18 71 54q48 37 75 59t49 60q23 38 23 78q-1 70 -55 112t-148 42t-159 -63t-67 -160h-319q6 213 157 351q150 138 398 138t389 -112t141 -301q0 -188 -151 -310q-47 -37 -126 -90t-111 -89t-35 -118h-287zM387 0v336h340v-336h-340z" />
    <glyph glyph-name="at" unicode="@" horiz-adv-x="1943" 
d="M944 410q86 0 136 76t50 200q0 188 -137 188q-84 0 -131 -76t-47 -198q0 -190 129 -190zM856 201q-150 0 -239 106t-89 305t110 335t284 136t233 -157h2l17 135h272l-68 -549q-8 -78 12 -113t72 -34q84 0 147 81q62 82 62 273q0 305 -179 465t-487 160t-512 -200
t-204 -540q0 -297 175 -480t488 -183q190 0 381 77l64 -157q-193 -96 -447 -97q-380 0 -624 232t-244 606q0 215 77 392q146 336 498 468q164 61 344 62q369 0 617 -215t248 -592q0 -254 -119 -391t-301 -138q-256 0 -307 185h-4q-91 -172 -279 -172z" />
    <glyph glyph-name="A" unicode="A" horiz-adv-x="1507" 
d="M641 825l-94 -284h391l-92 284q-58 185 -88 351l-10 55h-5q-53 -256 -102 -406zM20 0l549 1524h363l551 -1524h-369l-96 291h-553l-94 -291h-351z" />
    <glyph glyph-name="B" unicode="B" horiz-adv-x="1454" 
d="M475 274h356q101 0 159 54t58 145q0 92 -60 143q-62 51 -163 52h-350v-394zM475 911h326q92 0 145 44t53 126t-52 127t-142 45h-330v-342zM129 0v1524h721q236 0 360 -109t125 -287q0 -227 -245 -305v-8q147 -35 226 -132t79 -239q0 -215 -150 -331q-137 -113 -377 -113
h-739z" />
    <glyph glyph-name="C" unicode="C" horiz-adv-x="1533" 
d="M800 -35q-320 0 -527 223q-207 222 -207 568t205 570q206 224 542 224q258 0 418 -118q207 -152 235 -422h-348q-16 110 -98 180t-209 70q-189 0 -289 -140t-100 -362q0 -224 106 -364t285 -140q135 0 220 78t97 200h351q-17 -229 -189 -398t-492 -169z" />
    <glyph glyph-name="D" unicode="D" horiz-adv-x="1531" 
d="M483 295h238q197 0 295 118t98 339t-99 349t-288 128h-244v-934zM133 0v1524h635q318 0 510 -211t192 -559t-189 -551t-533 -203h-615z" />
    <glyph glyph-name="E" unicode="E" horiz-adv-x="1372" 
d="M129 0v1524h1143v-291h-795v-303h688v-277h-688v-354h809v-299h-1157z" />
    <glyph glyph-name="F" unicode="F" horiz-adv-x="1310" 
d="M129 0v1524h1118v-297h-770v-332h643v-285h-643v-610h-348z" />
    <glyph glyph-name="G" unicode="G" horiz-adv-x="1605" 
d="M787 -35q-313 0 -515 213q-203 219 -202 578q0 196 68 360t196 270q194 164 478 164t455 -135t214 -360h-348q-31 92 -108 149t-200 58q-195 0 -298 -140t-103 -365q0 -223 111 -365t281 -142t263 89q94 89 97 210v6h-308v260h637v-815h-241l-29 205h-6
q-129 -240 -442 -240z" />
    <glyph glyph-name="H" unicode="H" horiz-adv-x="1529" 
d="M129 0v1524h348v-588h576v588h348v-1524h-348v645h-576v-645h-348z" />
    <glyph glyph-name="I" unicode="I" horiz-adv-x="610" 
d="M129 0v1524h350v-1524h-350z" />
    <glyph glyph-name="J" unicode="J" horiz-adv-x="1185" 
d="M580 -29q-263 0 -396 129t-133 361v117h322v-109q0 -209 180 -209q170 0 170 193v1071h350v-1080q0 -193 -96 -307q-134 -166 -397 -166z" />
    <glyph glyph-name="K" unicode="K" horiz-adv-x="1507" 
d="M129 0v1524h348v-250q0 -115 -12 -361l569 611h418l-588 -613l625 -911h-408l-465 690l-139 -145v-545h-348z" />
    <glyph glyph-name="L" unicode="L" horiz-adv-x="1236" 
d="M129 0v1524h348v-1225h703v-299h-1051z" />
    <glyph glyph-name="M" unicode="M" horiz-adv-x="1810" 
d="M129 0v1524h469l190 -635q53 -178 99 -451l16 -92h6q57 352 113 543l186 635h475v-1524h-321v682q0 170 18 455l6 94h-4q-66 -326 -118 -506l-217 -725h-287l-219 725q-46 146 -103 420l-16 86h-4q25 -356 24 -549v-682h-313z" />
    <glyph glyph-name="N" unicode="N" horiz-adv-x="1542" 
d="M129 0v1524h356l402 -662q64 -107 178 -334l31 -67h4q-18 272 -19 446v617h334v-1524h-358l-398 653q-67 111 -178 340l-32 68h-5q18 -274 19 -449v-612h-334z" />
    <glyph glyph-name="O" unicode="O" horiz-adv-x="1636" 
d="M422 757q0 -223 103 -365t295 -142t293 140t101 366t-101 369t-291 143t-296 -144q-104 -144 -104 -367zM1571 757q0 -347 -206 -571t-547 -223q-341 0 -547 223q-205 222 -205 570t205 571q206 223 547 223t547 -223t206 -570z" />
    <glyph glyph-name="P" unicode="P" horiz-adv-x="1404" 
d="M483 1227v-422h297q109 0 168 57q60 56 60 156t-58 154t-168 55h-299zM129 0v1524h678q266 0 409 -144q144 -144 144 -362q0 -219 -139 -354t-373 -136h-365v-528h-354z" />
    <glyph glyph-name="Q" unicode="Q" horiz-adv-x="1634" 
d="M819 244q90 0 162 30l-184 170l151 164l195 -180q69 127 69 341t-101 356q-101 143 -291 143t-294 -144t-104 -368q0 -225 103 -369q104 -143 294 -143zM817 -37q-342 0 -547 223q-204 222 -204 570t204 571q205 223 547 223t546 -223t204 -563t-187 -557l189 -172
l-152 -164l-209 192q-172 -100 -391 -100z" />
    <glyph glyph-name="R" unicode="R" horiz-adv-x="1464" 
d="M477 1247v-407h309q115 0 178 54q62 54 62 148t-58 150t-171 55h-320zM129 0v1524h725q228 0 374 -117t146 -320q0 -279 -282 -370v-6q208 -65 236 -270q12 -97 20 -208t17 -159t32 -58v-16h-344q-28 14 -40 161q-3 38 -7 94t-9 97q-14 117 -76 173t-186 57h-258v-582
h-348z" />
    <glyph glyph-name="S" unicode="S" horiz-adv-x="1413" 
d="M708 -37q-288 0 -468 136t-189 382h352q27 -240 324 -239q111 0 187 45t75 123q0 78 -47 118t-132 62t-233 57q-280 67 -378 171q-99 103 -99 274q0 227 164 343q164 115 426 115t423 -118t177 -336h-342q-14 90 -83 139t-179 49t-176 -43t-66 -122t115 -124
q57 -25 216 -59t241 -65q82 -29 163 -81q162 -103 162 -334q0 -230 -172 -362q-173 -132 -461 -131z" />
    <glyph glyph-name="T" unicode="T" horiz-adv-x="1368" 
d="M55 1227v297h1258v-297h-455v-1227h-350v1227h-453z" />
    <glyph glyph-name="U" unicode="U" horiz-adv-x="1482" 
d="M1372 530q0 -268 -162 -414t-468 -145t-468 145t-161 414v994h348v-1002q0 -268 284 -268q133 0 205 74t72 200v996h350v-994z" />
    <glyph glyph-name="V" unicode="V" horiz-adv-x="1413" 
d="M522 0l-504 1524h363l225 -733q48 -155 90 -373l15 -76h4q53 281 102 449l223 733h353l-504 -1524h-367z" />
    <glyph glyph-name="W" unicode="W" horiz-adv-x="2045" 
d="M432 0l-414 1524h355l145 -596q47 -184 78 -486l10 -96h4q55 381 101 594l135 584h330l135 -582q45 -211 84 -496l14 -100h4q43 367 96 584l142 594h354l-418 -1524h-342l-147 639q-42 196 -74 436l-10 90h-4q-43 -338 -84 -526l-150 -639h-344z" />
    <glyph glyph-name="X" unicode="X" horiz-adv-x="1495" 
d="M31 0l512 797l-469 727h399l123 -207q71 -117 131 -256l23 -51h4q86 190 155 307l125 207h381l-461 -725l508 -799h-413l-154 268q-57 97 -127 260l-23 52h-4q-84 -190 -155 -312l-158 -268h-397z" />
    <glyph glyph-name="Y" unicode="Y" horiz-adv-x="1437" 
d="M545 0v569l-522 955h383l163 -320q71 -140 129 -303l23 -59h4q86 223 156 362l166 320h368l-522 -951v-573h-348z" />
    <glyph glyph-name="Z" unicode="Z" horiz-adv-x="1409" 
d="M74 0v283l563 684q86 103 211 225l41 41v6q-203 -10 -322 -10h-438v295h1171v-275l-542 -663q-117 -138 -230 -246l-47 -47v-6q213 12 340 12h508v-299h-1255z" />
    <glyph glyph-name="bracketleft" unicode="[" horiz-adv-x="874" 
d="M145 -289v1895h639v-250h-331v-1397h331v-248h-639z" />
    <glyph glyph-name="backslash" unicode="\" horiz-adv-x="954" 
d="M993 -289h-293l-682 1895h293z" />
    <glyph glyph-name="bracketright" unicode="]" horiz-adv-x="874" 
d="M88 -289v248h332v1397h-332v250h641v-1895h-641z" />
    <glyph glyph-name="asciicircum" unicode="^" horiz-adv-x="1030" 
d="M29 897l358 627h256l358 -627h-299l-186 334h-4l-188 -334h-295z" />
    <glyph glyph-name="underscore" unicode="_" horiz-adv-x="911" 
d="M-4 -360v202h919v-202h-919z" />
    <glyph glyph-name="grave" unicode="`" horiz-adv-x="1101" 
d="M461 1253l-246 330h375l108 -330h-237z" />
    <glyph glyph-name="a" unicode="a" horiz-adv-x="1187" 
d="M535 182q106 0 172 60t65 149v141q-49 -30 -175 -58t-174 -62t-48 -101q0 -129 160 -129zM598 1120q479 0 479 -391v-559q0 -125 41 -152v-18h-313q-29 41 -37 133h-4q-115 -162 -330 -162q-166 0 -269 86t-103 248t110 233q111 71 290 93t240 52q62 30 62 90t-41 95
t-121 35q-176 0 -190 -143h-297q6 152 130 256t353 104z" />
    <glyph glyph-name="b" unicode="b" horiz-adv-x="1271" 
d="M664 223q113 0 170 86t57 238q0 153 -58 241t-174 88q-117 0 -179 -90q-62 -92 -62 -239t66 -236q67 -88 180 -88zM752 -35q-240 0 -332 195h-4v-160h-310v1524h322v-334q0 -88 -10 -252h6q121 182 329 182t337 -162t129 -422t-127 -415q-127 -156 -340 -156z" />
    <glyph glyph-name="c" unicode="c" horiz-adv-x="1181" 
d="M612 -35q-240 0 -398 165q-159 165 -159 414q0 248 157 412t409 164q213 0 346 -110t163 -293h-311q-37 164 -194 164q-119 0 -181 -90t-63 -246q0 -156 62 -246t182 -90q88 0 141 51t63 146h310q-7 -190 -147 -316t-380 -125z" />
    <glyph glyph-name="d" unicode="d" horiz-adv-x="1273" 
d="M610 223q113 0 180 88q66 88 66 236q0 149 -62 239t-178 90t-175 -88q-58 -90 -58 -242t57 -237q57 -86 170 -86zM522 -35q-213 0 -340 156t-127 416q0 259 130 421t338 162t327 -182h4q-8 135 -8 252v334h321v-1524h-309v160h-4q-92 -195 -332 -195z" />
    <glyph glyph-name="e" unicode="e" horiz-adv-x="1220" 
d="M614 893q-209 0 -241 -244h465q-8 113 -68 179t-156 65zM631 -33q-262 0 -419 163t-157 412q0 250 157 414t391 164t386 -139q180 -174 176 -518h-794q16 -125 83 -194t181 -68q143 0 199 106h311q-43 -152 -177 -246t-337 -94z" />
    <glyph glyph-name="f" unicode="f" horiz-adv-x="808" 
d="M41 881v209h164v92q0 172 96 259t320 83q74 0 133 -8v-230q-131 4 -180 -17q-48 -22 -48 -110v-69h228v-209h-228v-881h-321v881h-164z" />
    <glyph glyph-name="g" unicode="g" horiz-adv-x="1255" 
d="M612 877q-110 0 -172 -77t-61 -207t63 -207t174 -77t170 78q60 78 60 206t-62 206t-172 78zM1147 96q1 -231 -139 -353t-380 -122t-377 89q-138 89 -163 251h313q35 -111 207 -111q113 0 170 56t58 155v23q0 88 6 143h-8q-96 -159 -295 -159t-337 139t-139 377
q0 238 128 388t343 148q215 0 302 -170h4v140h307v-994z" />
    <glyph glyph-name="h" unicode="h" horiz-adv-x="1236" 
d="M428 1104q0 -98 -2 -170h6q104 186 328 186q178 0 278 -110t101 -293v-717h-320v655q0 91 -47 145t-137 54q-91 0 -149 -68t-58 -172v-614h-322v1524h322v-420z" />
    <glyph glyph-name="i" unicode="i" horiz-adv-x="534" 
d="M106 0v1090h322v-1090h-322zM104 1243v281h326v-281h-326z" />
    <glyph glyph-name="j" unicode="j" horiz-adv-x="534" 
d="M104 1243v281h326v-281h-326zM106 -371q-104 0 -182 17v227h13q53 0 89 3q82 7 80 110v1104h322v-1117q0 -184 -82 -264t-240 -80z" />
    <glyph glyph-name="k" unicode="k" horiz-adv-x="1208" 
d="M424 0h-318v1524h318v-475q0 -176 -10 -351l358 392h373l-389 -404l434 -686h-373l-285 475l-108 -113v-362z" />
    <glyph glyph-name="l" unicode="l" horiz-adv-x="542" 
d="M111 0v1524h323v-1524h-323z" />
    <glyph glyph-name="m" unicode="m" horiz-adv-x="1863" 
d="M106 0v1090h310v-170h6q109 200 326 200t301 -207h4q129 207 346 207q178 0 272 -108t94 -293v-719h-319v666q0 90 -42 140t-124 50t-132 -66t-50 -169v-621h-322v666q0 190 -160 190q-84 0 -136 -66t-52 -169v-621h-322z" />
    <glyph glyph-name="n" unicode="n" horiz-adv-x="1236" 
d="M418 1090v-166h6q100 197 336 196q178 0 278 -110t101 -293v-717h-320v655q0 91 -47 145t-137 54q-91 0 -149 -68t-58 -172v-614h-322v1090h312z" />
    <glyph glyph-name="o" unicode="o" horiz-adv-x="1261" 
d="M630 199q120 0 186 94t65 251q0 157 -66 252q-65 95 -185 95t-185 -94t-65 -253t66 -252q64 -93 184 -93zM632 -35q-257 0 -417 165t-160 414q0 248 160 412t417 164t416 -164q158 -164 158 -412t-158 -414q-158 -165 -416 -165z" />
    <glyph glyph-name="p" unicode="p" horiz-adv-x="1277" 
d="M663 215q114 0 174 86t60 236q0 151 -59 239t-176 88q-116 0 -180 -92t-64 -236t65 -233q66 -88 180 -88zM106 -362v1452h310v-156h6q111 186 328 186t345 -161t128 -421t-130 -416q-131 -157 -351 -157t-320 170h-4q10 -102 10 -237v-260h-322z" />
    <glyph glyph-name="q" unicode="q" horiz-adv-x="1277" 
d="M618 215q114 0 179 88q65 89 65 233t-63 236t-181 92t-177 -89q-58 -89 -58 -238t60 -236q61 -86 175 -86zM852 -362v260q0 147 8 237h-4q-104 -170 -321 -170t-348 157q-130 157 -130 417q0 261 129 421t346 160t326 -184h6v154h307v-1452h-319z" />
    <glyph glyph-name="r" unicode="r" horiz-adv-x="839" 
d="M416 1090v-195h6q98 213 303 213q49 0 68 -8v-281h-9q-35 6 -67 6q-133 2 -211 -81t-78 -238v-506h-322v1090h310z" />
    <glyph glyph-name="s" unicode="s" horiz-adv-x="1103" 
d="M552 -35q-226 -1 -364 101t-151 270h303q29 -160 221 -160q86 0 133 33t47 79t-16 68q-34 46 -235 79q-5 1 -14 2q-117 13 -205 52q-88 41 -121 73q-82 81 -80 218q0 162 129 251t339 89t330 -86q121 -86 144 -235h-299q-31 117 -185 116q-74 1 -118 -29t-43 -81
q0 -51 55 -73q54 -22 118 -32t68 -11t12 -2q158 -19 295 -94q136 -75 136 -258q-1 -183 -137 -277t-362 -93z" />
    <glyph glyph-name="t" unicode="t" horiz-adv-x="796" 
d="M522 344q0 -106 107 -104q47 0 88 4h16v-240q-92 -16 -186 -16q-164 0 -252 64t-88 222v611h-164v205h164v348h315v-348h213v-205h-213v-541z" />
    <glyph glyph-name="u" unicode="u" horiz-adv-x="1226" 
d="M1120 0h-305v156h-6q-117 -186 -328 -187q-182 0 -282 109t-101 291v721h322v-660q0 -190 174 -190q96 0 152 66t57 167v617h317v-1090z" />
    <glyph glyph-name="v" unicode="v" horiz-adv-x="1124" 
d="M387 0l-377 1090h332l133 -439q49 -162 74 -319l12 -62h6q41 236 86 381l138 439h323l-381 -1090h-346z" />
    <glyph glyph-name="w" unicode="w" horiz-adv-x="1683" 
d="M350 0l-336 1090h328l115 -424q21 -74 55 -283l8 -55h4q35 211 70 342l111 420h272l115 -420q18 -64 61 -287l10 -57h4q29 209 66 340l117 424h317l-338 -1090h-303l-115 444q-17 66 -59 277l-8 57h-4q-39 -209 -72 -334l-119 -444h-299z" />
    <glyph glyph-name="x" unicode="x" horiz-adv-x="1214" 
d="M35 0l383 571l-346 519h366l64 -103q51 -84 98 -192l16 -39h5q61 141 110 231l60 103h339l-333 -512l383 -578h-373l-84 139l-119 242h-4q-70 -150 -127 -242l-88 -139h-350z" />
    <glyph glyph-name="y" unicode="y" horiz-adv-x="1140" 
d="M320 -365q-180 0 -191 5v251h16q4 -2 105 -2q147 0 156 111q0 74 -58 219l-338 871h338l139 -418q50 -144 78 -316l13 -63h4q49 233 96 379l133 418h319l-389 -1117q-65 -188 -153 -263t-268 -75z" />
    <glyph glyph-name="z" unicode="z" horiz-adv-x="1101" 
d="M74 0v240l389 440q45 51 151 143l31 27v6q-143 -16 -235 -16h-289v250h885v-232l-375 -426q-84 -89 -172 -158l-35 -30v-6q156 14 254 14h356v-252h-960z" />
    <glyph glyph-name="braceleft" unicode="{" horiz-adv-x="868" 
d="M727 -289q-249 0 -359 88t-110 316v270q0 80 -44 117t-153 41v239q106 4 152 42q45 38 45 116v266q0 228 111 314t358 86h57v-250h-45q-96 0 -135 -30t-39 -120v-305q0 -101 -41 -155t-131 -80v-7q90 -27 131 -79t41 -154v-313q0 -88 40 -121t134 -33h45v-248h-57z" />
    <glyph glyph-name="bar" unicode="|" horiz-adv-x="495" 
d="M145 -289v1895h205v-1895h-205z" />
    <glyph glyph-name="braceright" unicode="}" horiz-adv-x="868" 
d="M88 -289v248h43q94 0 134 32t40 122v311q0 100 41 154t131 79v7q-90 28 -131 82t-41 153v307q0 90 -39 120t-135 30h-43v250h55q248 0 359 -87t110 -315v-266q0 -78 45 -116t150 -42v-237q-107 -4 -151 -42t-44 -116v-270q0 -227 -110 -316q-111 -88 -359 -88h-55z" />
    <glyph glyph-name="asciitilde" unicode="~" horiz-adv-x="964" 
d="M662 526q-72 0 -175 43q-98 45 -131 45q-68 0 -77 -94h-207q2 174 72 264q71 90 184 90q76 0 170 -45t129 -45t51 22t20 68h205q0 -164 -61 -256t-180 -92z" />
    <glyph glyph-name="uni00A0" unicode="&#xa0;" horiz-adv-x="485" 
 />
    <glyph glyph-name="exclamdown" unicode="&#xa1;" horiz-adv-x="591" 
d="M467 1253v-335h-342v335h342zM463 -270h-334v381l84 612h166l84 -612v-381z" />
    <glyph glyph-name="cent" unicode="&#xa2;" horiz-adv-x="1187" 
d="M377 543q0 -131 46 -217t136 -111v657q-182 -48 -182 -329zM559 -264v233q-229 25 -366 184t-138 390t137 393t367 182v182h129v-182q190 -16 309 -127t142 -282h-305q-27 133 -146 165v-661q135 33 154 197h303q-8 -182 -131 -304t-326 -139v-231h-129z" />
    <glyph glyph-name="sterling" unicode="&#xa3;" horiz-adv-x="1284" 
d="M897 266q109 0 199 90l141 -258q-147 -129 -336 -129q-111 1 -239 53t-215 52q-88 0 -216 -92l-163 243q207 133 206 299q0 41 -14 94h-180v189h94q-63 119 -63 231q0 197 146 324q145 127 399 127t397 -117q164 -135 170 -397h-324q0 127 -61 190q-62 63 -166 63
t-158 -52q-54 -54 -53 -138q0 -84 63 -231h295v-189h-241l2 -47q0 -164 -189 -301l4 -6q113 58 199 58t168 -28t135 -28z" />
    <glyph glyph-name="currency" unicode="&#xa4;" horiz-adv-x="1103" 
d="M550 475q91 0 142 66q51 67 51 177t-51 178t-141 67q-90 0 -143 -68q-54 -69 -54 -179t52 -176t144 -65zM119 716q0 130 59 230l-139 144l162 157l141 -145q92 51 209 51t209 -51l143 145l162 -157l-143 -144q59 -94 59 -225t-57 -234l141 -141l-162 -160l-143 146
q-88 -49 -207 -49t-209 49l-143 -146l-162 160l139 139q-59 101 -59 231z" />
    <glyph glyph-name="yen" unicode="&#xa5;" horiz-adv-x="1386" 
d="M168 549v131h305l-448 780h368l148 -280q48 -85 131 -299l20 -60h4q84 223 154 359l145 280h363l-451 -780h307v-131h-362v-148h362v-133h-362v-268h-322v268h-362v133h362v148h-362z" />
    <glyph glyph-name="brokenbar" unicode="&#xa6;" horiz-adv-x="495" 
d="M145 -289v828h205v-828h-205zM145 809v797h205v-797h-205z" />
    <glyph glyph-name="section" unicode="&#xa7;" horiz-adv-x="1353" 
d="M373 680q0 -55 53 -93t225 -118l199 -92q129 31 129 121q0 59 -59 101q-60 41 -214 107t-208 93q-125 -27 -125 -119zM694 -387q-222 0 -362 118q-139 118 -146 298h297q1 -72 57 -120t143 -48t132 37t45 88t-24 71q-58 50 -122 75q-65 25 -119 48t-95 39
q-219 92 -320 182q-100 90 -100 240q0 111 71 187t195 106q-61 51 -90 101t-29 132q0 156 128 253q128 98 334 98t334 -104t138 -281h-282q-13 143 -177 143t-163 -113q0 -53 56 -89t218 -100q293 -116 381 -211t88 -216q0 -233 -256 -295q148 -104 148 -272t-129 -268
t-351 -99z" />
    <glyph glyph-name="dieresis" unicode="&#xa8;" 
d="M111 1243v281h305v-281h-305zM608 1243v281h303v-281h-303z" />
    <glyph glyph-name="copyright" unicode="&#xa9;" horiz-adv-x="1775" 
d="M888 299q-188 0 -310 130t-123 333q0 203 123 335t321 132q143 0 244 -70q131 -90 147 -258h-233q-10 55 -52 91t-108 36q-96 0 -146 -74q-51 -74 -51 -192t54 -190t136 -72q81 0 125 41t52 102h231q-10 -152 -116 -248t-294 -96zM888 66q284 0 472 196t188 494t-188 494
t-472 196t-473 -197t-189 -493t188 -494q190 -196 474 -196zM1671 756q0 -340 -226 -566t-557 -227q-331 0 -557 227q-227 226 -227 566t226 567t558 227q331 0 557 -227t226 -567z" />
    <glyph glyph-name="ordfeminine" unicode="&#xaa;" horiz-adv-x="1112" 
d="M498 668q92 0 149 50t58 130v121q-57 -33 -161 -53t-144 -49q-40 -30 -40 -87q1 -112 138 -112zM555 1489q432 0 430 -344v-494q0 -111 35 -133v-16h-285q-27 41 -35 121h-2q-92 -143 -288 -144q-145 0 -240 77q-94 78 -94 220t99 208t262 85q163 20 213 42t50 73
q0 112 -144 112t-165 -125h-272q8 133 121 225t315 93z" />
    <glyph glyph-name="guillemotleft" unicode="&#xab;" horiz-adv-x="1046" 
d="M463 82l-342 311v299l342 312v-277l-197 -186v-4l197 -187v-268zM926 82l-344 311v299l344 312v-277l-197 -186v-4l197 -187v-268z" />
    <glyph glyph-name="logicalnot" unicode="&#xac;" horiz-adv-x="1114" 
d="M109 647v264h874v-587h-281v323h-593z" />
    <glyph glyph-name="uni00AD" unicode="&#xad;" horiz-adv-x="743" 
d="M82 403v279h580v-279h-580z" />
    <glyph glyph-name="registered" unicode="&#xae;" horiz-adv-x="1347" 
d="M596 1135v-140h104q86 0 86 70t-84 70h-106zM432 653v607h297q97 0 159 -46t62 -129q0 -111 -116 -147v-4q51 -14 71 -37q29 -33 35 -128q7 -94 25 -99v-17h-162q-12 6 -18 66q-7 61 -9 76q-10 80 -92 79h-88v-221h-164zM675 440q210 0 349 146t139 365q0 221 -139 365
t-350 144t-349 -144q-139 -144 -139 -364t140 -366t349 -146zM675 352q-249 0 -421 171t-172 428t172 428t422 171t420 -171t170 -428t-171 -428t-420 -171z" />
    <glyph glyph-name="macron" unicode="&#xaf;" 
d="M197 1260v227h639v-227h-639z" />
    <glyph glyph-name="degree" unicode="&#xb0;" horiz-adv-x="897" 
d="M450 969q76 0 120 50t44 124t-45 127t-119 53t-121 -52q-46 -52 -46 -127t46 -125t121 -50zM450 803q-146 0 -253 99q-107 98 -107 242t106 244t254 101q146 0 251 -100q105 -99 105 -243t-104 -244q-106 -100 -252 -99z" />
    <glyph glyph-name="plusminus" unicode="&#xb1;" horiz-adv-x="1241" 
d="M109 0v246h1024v-246h-1024zM109 717v254h374v336h275v-336h375v-254h-375v-340h-275v340h-374z" />
    <glyph glyph-name="twosuperior" unicode="&#xb2;" horiz-adv-x="892" 
d="M452 1346q-62 0 -99 -43q-38 -43 -38 -117h-245q0 170 106 263t280 93t273 -85q98 -85 98 -210q-1 -92 -37 -149q-36 -58 -94 -104t-164 -107t-139 -94h436v-203h-772q2 127 59 214q77 120 271 234q69 41 101 63q32 23 59 57t27 80t-30 77t-92 31z" />
    <glyph glyph-name="threesuperior" unicode="&#xb3;" horiz-adv-x="909" 
d="M850 860q0 -143 -108 -219t-292 -76t-294 92t-111 234h248q11 -133 153 -133t142 114t-158 115h-53v172h45q147 0 147 101q-1 46 -33 74t-90 28t-92 -34t-37 -83h-245q8 127 111 213t271 86t267 -72q98 -72 98 -196q0 -125 -164 -184v-2q195 -55 195 -230z" />
    <glyph glyph-name="acute" unicode="&#xb4;" 
d="M362 1253l109 330h375l-244 -330h-240z" />
    <glyph glyph-name="mu" unicode="&#xb5;" horiz-adv-x="1234" 
d="M106 -362v1452h322v-660q0 -190 174 -190q96 0 153 65q56 66 56 168v617h317v-1090h-305v156h-6q-96 -172 -297 -172q-66 0 -96 30h-4q8 -109 8 -204v-172h-322z" />
    <glyph glyph-name="paragraph" unicode="&#xb6;" horiz-adv-x="1236" 
d="M571 719h-88q-186 -1 -298 109q-111 110 -111 290t118 293t324 113h594v-1811h-188v1614h-162v-1614h-189v1006z" />
    <glyph glyph-name="periodcentered" unicode="&#xb7;" horiz-adv-x="526" 
d="M92 506v338h342v-338h-342z" />
    <glyph glyph-name="cedilla" unicode="&#xb8;" 
d="M727 -259q-1 -79 -73 -125t-197 -46t-224 61l41 80q74 -33 142 -33q100 0 100 68q0 59 -72 59q-31 0 -67 -14l-37 53l145 156h138l-127 -113v-4q96 13 164 -25t67 -117z" />
    <glyph glyph-name="onesuperior" unicode="&#xb9;" horiz-adv-x="700" 
d="M295 590v565h-236v178q252 6 291 201h209v-944h-264z" />
    <glyph glyph-name="ordmasculine" unicode="&#xba;" horiz-adv-x="1140" 
d="M569 682q102 0 157 82q54 82 54 218t-54 218t-156 82t-156 -82t-54 -219t54 -218t155 -81zM571 475q-227 0 -368 143q-141 142 -141 362t140 364q142 144 370 145q228 0 368 -143q140 -144 139 -364q0 -220 -140 -364q-141 -143 -368 -143z" />
    <glyph glyph-name="guillemotright" unicode="&#xbb;" horiz-adv-x="1046" 
d="M582 1004l344 -314v-299l-344 -309v274l198 187v4l-198 186v271zM121 1004l342 -314v-299l-342 -309v274l196 187v4l-196 186v271z" />
    <glyph glyph-name="onequarter" unicode="&#xbc;" horiz-adv-x="1859" 
d="M1415 154v196l15 142h-5q-49 -76 -84 -119l-94 -117q-21 -26 -98 -96l-21 -17v-4q98 14 160 15h127zM301 590v565h-235v178q252 6 290 201h209v-944h-264zM158 -266l1284 1790h213l-1286 -1790h-211zM1415 -225v196h-448v211l448 537h262v-565h138v-183h-138v-196h-262z
" />
    <glyph glyph-name="onehalf" unicode="&#xbd;" horiz-adv-x="1933" 
d="M1608 423q0 46 -30 77q-30 30 -92 30t-98 -43q-38 -43 -38 -116h-246q0 170 106 263t280 93t273 -85q98 -85 99 -210q0 -92 -37 -149t-95 -103t-164 -108q-105 -61 -139 -95h437v-202h-772q2 127 58 214q75 117 271 234q68 41 101 63q34 22 60 56t26 81zM139 -266
l1284 1790h213l-1286 -1790h-211zM301 590v565h-235v178q252 6 290 201h209v-944h-264z" />
    <glyph glyph-name="threequarters" unicode="&#xbe;" horiz-adv-x="2039" 
d="M1595 154v196l15 142h-4q-49 -76 -84 -119l-95 -117q-21 -26 -98 -96l-20 -17v-4q98 14 159 15h127zM319 -266l1285 1790h213l-1287 -1790h-211zM456 565q-184 0 -294 92t-111 234h248q11 -133 153 -133t142 114t-158 115h-53v172h45q147 0 147 101q-1 46 -33 74t-90 28
t-92 -34t-36 -83h-246q8 127 111 213t271 86t267 -72q98 -72 98 -196q0 -125 -163 -184v-2q195 -55 194 -230q0 -143 -108 -219t-292 -76zM1595 -225v196h-448v211l448 537h263v-565h137v-183h-137v-196h-263z" />
    <glyph glyph-name="questiondown" unicode="&#xbf;" horiz-adv-x="1187" 
d="M770 723q0 -127 -35 -202t-121 -146q-22 -18 -70 -54t-75 -59q-27 -22 -49 -60t-23 -79q1 -70 55 -112t149 -42q95 -1 159 63t67 161h318q-6 -213 -157 -351q-150 -138 -398 -139q-248 0 -389 113t-141 300t153 310q43 35 125 91t102 79q43 49 43 127h287zM801 1253v-335
h-340v335h340z" />
    <glyph glyph-name="Agrave" unicode="&#xc0;" horiz-adv-x="1507" 
d="M621 1608l-226 268h387l88 -268h-249zM641 825l-94 -284h391l-92 284q-58 185 -88 351l-10 55h-5q-53 -256 -102 -406zM20 0l549 1524h363l551 -1524h-369l-96 291h-553l-94 -291h-351z" />
    <glyph glyph-name="Aacute" unicode="&#xc1;" horiz-adv-x="1507" 
d="M610 1608l88 268h387l-223 -268h-252zM641 825l-94 -284h391l-92 284q-58 185 -88 351l-10 55h-5q-53 -256 -102 -406zM20 0l549 1524h363l551 -1524h-369l-96 291h-553l-94 -291h-351z" />
    <glyph glyph-name="Acircumflex" unicode="&#xc2;" horiz-adv-x="1507" 
d="M641 825l-94 -284h391l-92 284q-58 185 -88 351l-10 55h-5q-53 -256 -102 -406zM367 1608l221 268h313l223 -268h-278l-94 116h-4l-99 -116h-282zM20 0l549 1524h363l551 -1524h-369l-96 291h-553l-94 -291h-351z" />
    <glyph glyph-name="Atilde" unicode="&#xc3;" horiz-adv-x="1507" 
d="M641 825l-94 -284h391l-92 284q-58 185 -88 351l-10 55h-5q-53 -256 -102 -406zM901 1610q-70 0 -157 41t-109 41q-63 0 -70 -84h-176q-1 137 63 213q64 75 147 75t164 -41t107 -40q61 0 70 77h176q0 -130 -58 -206t-157 -76zM20 0l549 1524h363l551 -1524h-369l-96 291
h-553l-94 -291h-351z" />
    <glyph glyph-name="Adieresis" unicode="&#xc4;" horiz-adv-x="1507" 
d="M848 1608v274h311v-274h-311zM346 1608v274h313v-274h-313zM641 825l-94 -284h391l-92 284q-58 185 -88 351l-10 55h-5q-53 -256 -102 -406zM20 0l549 1524h363l551 -1524h-369l-96 291h-553l-94 -291h-351z" />
    <glyph glyph-name="Aring" unicode="&#xc5;" horiz-adv-x="1507" 
d="M753 1706q47 0 77 31t30 78t-30 79t-76 33q-46 0 -78 -33q-31 -34 -31 -80t30 -77t78 -31zM641 825l-94 -284h391l-92 284q-58 185 -88 351l-10 55h-5q-53 -256 -102 -406zM753 1589q-97 0 -166 65t-69 160q0 96 70 162t166 66t165 -67t69 -161t-70 -160
q-68 -65 -165 -65zM20 0l549 1524h363l551 -1524h-369l-96 291h-553l-94 -291h-351z" />
    <glyph glyph-name="AE" unicode="&#xc6;" horiz-adv-x="2140" 
d="M938 545v686h-166l-225 -686h391zM2034 1524v-293h-744v-305h637v-275h-637v-344h768v-307h-1120v297h-473l-98 -297h-347l523 1524h1491z" />
    <glyph glyph-name="Ccedilla" unicode="&#xc7;" horiz-adv-x="1533" 
d="M727 -430q-125 0 -223 61l41 80q74 -33 141 -33q100 0 100 68q0 59 -71 59q-31 0 -68 -14l-37 53l117 125q-297 31 -479 249t-182 551t205 557q206 224 542 224q258 0 418 -118q207 -152 235 -422h-348q-16 110 -98 180t-209 70q-189 0 -289 -140t-100 -362
q0 -224 106 -364t285 -140q135 0 220 78t97 200h351q-17 -229 -183 -393t-444 -172l-88 -80v-4q96 13 164 -25t68 -117t-74 -125q-72 -46 -197 -46z" />
    <glyph glyph-name="Egrave" unicode="&#xc8;" horiz-adv-x="1372" 
d="M590 1608l-225 268h387l88 -268h-250zM129 0v1524h1143v-291h-795v-303h688v-277h-688v-354h809v-299h-1157z" />
    <glyph glyph-name="Eacute" unicode="&#xc9;" horiz-adv-x="1372" 
d="M580 1608l88 268h387l-224 -268h-251zM129 0v1524h1143v-291h-795v-303h688v-277h-688v-354h809v-299h-1157z" />
    <glyph glyph-name="Ecircumflex" unicode="&#xca;" horiz-adv-x="1372" 
d="M336 1608l221 268h313l224 -268h-279l-94 116h-4l-99 -116h-282zM129 0v1524h1143v-291h-795v-303h688v-277h-688v-354h809v-299h-1157z" />
    <glyph glyph-name="Edieresis" unicode="&#xcb;" horiz-adv-x="1372" 
d="M817 1608v274h311v-274h-311zM315 1608v274h314v-274h-314zM129 0v1524h1143v-291h-795v-303h688v-277h-688v-354h809v-299h-1157z" />
    <glyph glyph-name="Igrave" unicode="&#xcc;" horiz-adv-x="610" 
d="M172 1608l-225 268h387l88 -268h-250zM129 0v1524h350v-1524h-350z" />
    <glyph glyph-name="Iacute" unicode="&#xcd;" horiz-adv-x="610" 
d="M162 1608l88 268h387l-223 -268h-252zM129 0v1524h350v-1524h-350z" />
    <glyph glyph-name="Icircumflex" unicode="&#xce;" horiz-adv-x="610" 
d="M-82 1608l221 268h314l223 -268h-279l-94 116h-4l-98 -116h-283zM129 0v1524h350v-1524h-350z" />
    <glyph glyph-name="Idieresis" unicode="&#xcf;" horiz-adv-x="610" 
d="M-61 1608v274h292v-274h-292zM379 1608v274h291v-274h-291zM129 0v1524h350v-1524h-350z" />
    <glyph glyph-name="Eth" unicode="&#xd0;" horiz-adv-x="1540" 
d="M487 295h242q197 0 295 118t98 339t-99 349t-288 128h-248v-320h351v-272h-351v-342zM18 637v272h123v615h635q318 0 510 -211t192 -559t-188 -551q-190 -203 -534 -203h-615v637h-123z" />
    <glyph glyph-name="Ntilde" unicode="&#xd1;" horiz-adv-x="1542" 
d="M936 1610q-70 0 -157 41t-109 41q-63 0 -70 -84h-176q0 137 63 213q63 75 147 75t164 -41q81 -41 107 -40q61 0 70 77h176q1 -130 -57 -206t-158 -76zM129 0v1524h356l402 -662q64 -107 178 -334l31 -67h4q-18 272 -19 446v617h334v-1524h-358l-398 653q-67 111 -178 340
l-32 68h-5q18 -274 19 -449v-612h-334z" />
    <glyph glyph-name="Ograve" unicode="&#xd2;" horiz-adv-x="1636" 
d="M686 1608l-225 268h387l88 -268h-250zM422 757q0 -223 103 -365t295 -142t293 140t101 366t-101 369t-291 143t-296 -144q-104 -144 -104 -367zM1571 757q0 -347 -206 -571t-547 -223q-341 0 -547 223q-205 222 -205 570t205 571q206 223 547 223t547 -223t206 -570z" />
    <glyph glyph-name="Oacute" unicode="&#xd3;" horiz-adv-x="1636" 
d="M676 1608l88 268h387l-223 -268h-252zM422 757q0 -223 103 -365t295 -142t293 140t101 366t-101 369t-291 143t-296 -144q-104 -144 -104 -367zM1571 757q0 -347 -206 -571t-547 -223q-341 0 -547 223q-205 222 -205 570t205 571q206 223 547 223t547 -223t206 -570z" />
    <glyph glyph-name="Ocircumflex" unicode="&#xd4;" horiz-adv-x="1636" 
d="M432 1608l221 268h314l223 -268h-279l-94 116h-4l-98 -116h-283zM422 757q0 -223 103 -365t295 -142t293 140t101 366t-101 369t-291 143t-296 -144q-104 -144 -104 -367zM1571 757q0 -347 -206 -571t-547 -223q-341 0 -547 223q-205 222 -205 570t205 571
q206 223 547 223t547 -223t206 -570z" />
    <glyph glyph-name="Otilde" unicode="&#xd5;" horiz-adv-x="1636" 
d="M967 1610q-70 0 -157 41t-110 41q-63 0 -69 -84h-176q0 137 63 213q62 75 146 75t164 -41t108 -40q61 0 70 77h176q0 -130 -58 -206t-157 -76zM422 757q0 -223 103 -365t295 -142t293 140t101 366t-101 369t-291 143t-296 -144q-104 -144 -104 -367zM1571 757
q0 -347 -206 -571t-547 -223q-341 0 -547 223q-205 222 -205 570t205 571q206 223 547 223t547 -223t206 -570z" />
    <glyph glyph-name="Odieresis" unicode="&#xd6;" horiz-adv-x="1636" 
d="M412 1608v274h313v-274h-313zM913 1608v274h312v-274h-312zM422 757q0 -223 103 -365t295 -142t293 140t101 366t-101 369t-291 143t-296 -144q-104 -144 -104 -367zM1571 757q0 -347 -206 -571t-547 -223q-341 0 -547 223q-205 222 -205 570t205 571q206 223 547 223
t547 -223t206 -570z" />
    <glyph glyph-name="multiply" unicode="&#xd7;" horiz-adv-x="1239" 
d="M291 186l-178 179l327 329l-325 328l178 180l325 -328l328 328l180 -180l-327 -328l327 -327l-180 -181l-328 328z" />
    <glyph glyph-name="Oslash" unicode="&#xd8;" horiz-adv-x="1636" 
d="M835 250q176 0 279 141q102 141 103 365q0 158 -46 272l-610 -686q98 -92 274 -92zM422 756q0 -158 45 -273l614 686q-102 99 -276 99q-175 0 -279 -144t-104 -368zM66 771q0 333 205 556q206 223 548 223q274 0 467 -151l176 198l123 -104l-184 -209q170 -214 170 -544
t-206 -554t-546 -223q-272 0 -465 148l-182 -203l-123 106l189 211q-172 213 -172 546z" />
    <glyph glyph-name="Ugrave" unicode="&#xd9;" horiz-adv-x="1482" 
d="M625 1608l-226 268h387l88 -268h-249zM1372 530q0 -268 -162 -414t-468 -145t-468 145t-161 414v994h348v-1002q0 -268 284 -268q133 0 205 74t72 200v996h350v-994z" />
    <glyph glyph-name="Uacute" unicode="&#xda;" horiz-adv-x="1482" 
d="M612 1608l88 268h387l-223 -268h-252zM1372 530q0 -268 -162 -414t-468 -145t-468 145t-161 414v994h348v-1002q0 -268 284 -268q133 0 205 74t72 200v996h350v-994z" />
    <glyph glyph-name="Ucircumflex" unicode="&#xdb;" horiz-adv-x="1482" 
d="M356 1608l222 268h313l223 -268h-278l-95 116h-4l-98 -116h-283zM1372 530q0 -268 -162 -414t-468 -145t-468 145t-161 414v994h348v-1002q0 -268 284 -268q133 0 205 74t72 200v996h350v-994z" />
    <glyph glyph-name="Udieresis" unicode="&#xdc;" horiz-adv-x="1482" 
d="M336 1608v274h313v-274h-313zM838 1608v274h311v-274h-311zM1372 530q0 -268 -162 -414t-468 -145t-468 145t-161 414v994h348v-1002q0 -268 284 -268q133 0 205 74t72 200v996h350v-994z" />
    <glyph glyph-name="Yacute" unicode="&#xdd;" horiz-adv-x="1437" 
d="M578 1608l88 268h387l-224 -268h-251zM545 0v569l-522 955h383l163 -320q71 -140 129 -303l23 -59h4q86 223 156 362l166 320h368l-522 -951v-573h-348z" />
    <glyph glyph-name="Thorn" unicode="&#xde;" horiz-adv-x="1404" 
d="M782 1008h-299v-424h297q109 0 168 58q60 58 60 156t-60 154t-166 56zM129 0v1524h354v-219h324q262 0 407 -146q146 -141 146 -361t-139 -356t-373 -135h-365v-307h-354z" />
    <glyph glyph-name="germandbls" unicode="&#xdf;" horiz-adv-x="1241" 
d="M698 -18q-86 0 -139 16v238q4 -2 10 -3q143 -16 221 53q76 69 76 204q-1 270 -258 270h-43v188h21q102 0 162 47q59 47 59 131t-47 131t-136 47q-88 0 -142 -54t-54 -156v-1094h-322v1104q0 207 138 326q138 118 370 118q230 0 362 -106t132 -285q0 -211 -221 -285v-6
q297 -80 297 -393q0 -233 -136 -362t-350 -129z" />
    <glyph glyph-name="agrave" unicode="&#xe0;" horiz-adv-x="1187" 
d="M535 182q106 0 172 60t65 149v141q-49 -30 -175 -58t-174 -62t-48 -101q0 -129 160 -129zM498 1253l-246 330h375l108 -330h-237zM598 1120q479 0 479 -391v-559q0 -125 41 -152v-18h-313q-29 41 -37 133h-4q-115 -162 -330 -162q-166 0 -269 86t-103 248t110 233
q111 71 290 93t240 52q62 30 62 90t-41 95t-121 35q-176 0 -190 -143h-297q6 152 130 256t353 104z" />
    <glyph glyph-name="aacute" unicode="&#xe1;" horiz-adv-x="1187" 
d="M535 182q106 0 172 60t65 149v141q-49 -30 -175 -58t-174 -62t-48 -101q0 -129 160 -129zM475 1253l109 330h374l-243 -330h-240zM598 1120q479 0 479 -391v-559q0 -125 41 -152v-18h-313q-29 41 -37 133h-4q-115 -162 -330 -162q-166 0 -269 86t-103 248t110 233
q111 71 290 93t240 52q62 30 62 90t-41 95t-121 35q-176 0 -190 -143h-297q6 152 130 256t353 104z" />
    <glyph glyph-name="acircumflex" unicode="&#xe2;" horiz-adv-x="1187" 
d="M535 182q106 0 172 60t65 149v141q-49 -30 -175 -58t-174 -62t-48 -101q0 -129 160 -129zM217 1257l221 304h314l223 -304h-277l-96 160h-4l-100 -160h-281zM598 1120q479 0 479 -391v-559q0 -125 41 -152v-18h-313q-29 41 -37 133h-4q-115 -162 -330 -162
q-166 0 -269 86t-103 248t110 233q111 71 290 93t240 52q62 30 62 90t-41 95t-121 35q-176 0 -190 -143h-297q6 152 130 256t353 104z" />
    <glyph glyph-name="atilde" unicode="&#xe3;" horiz-adv-x="1187" 
d="M535 182q106 0 172 60t65 149v141q-49 -30 -175 -58t-174 -62t-48 -101q0 -129 160 -129zM750 1255q-70 0 -158 42t-114 42q-26 -1 -46 -23t-22 -63h-172q0 137 63 213t147 76t166 -42t109 -42q61 0 70 80h172q1 -129 -57 -206t-158 -77zM598 1120q479 0 479 -391v-559
q0 -125 41 -152v-18h-313q-29 41 -37 133h-4q-115 -162 -330 -162q-166 0 -269 86t-103 248t110 233q111 71 290 93t240 52q62 30 62 90t-41 95t-121 35q-176 0 -190 -143h-297q6 152 130 256t353 104z" />
    <glyph glyph-name="adieresis" unicode="&#xe4;" horiz-adv-x="1187" 
d="M698 1243v281h303v-281h-303zM201 1243v281h305v-281h-305zM535 182q106 0 172 60t65 149v141q-49 -30 -175 -58t-174 -62t-48 -101q0 -129 160 -129zM598 1120q479 0 479 -391v-559q0 -125 41 -152v-18h-313q-29 41 -37 133h-4q-115 -162 -330 -162q-166 0 -269 86
t-103 248t110 233q111 71 290 93t240 52q62 30 62 90t-41 95t-121 35q-176 0 -190 -143h-297q6 152 130 256t353 104z" />
    <glyph glyph-name="aring" unicode="&#xe5;" horiz-adv-x="1187" 
d="M601 1337q48 0 78 31t30 78t-30 80t-77 33t-78 -33q-30 -33 -30 -80t30 -78t77 -31zM535 182q106 0 172 60t65 149v141q-49 -30 -175 -58t-174 -62t-48 -101q0 -129 160 -129zM836 1445q0 -95 -69 -159t-166 -65q-97 1 -166 65t-69 159t70 162t166 67t165 -68
q69 -66 69 -161zM598 1120q479 0 479 -391v-559q0 -125 41 -152v-18h-313q-29 41 -37 133h-4q-115 -162 -330 -162q-166 0 -269 86t-103 248t110 233q111 71 290 93t240 52q62 30 62 90t-41 95t-121 35q-176 0 -190 -143h-297q6 152 130 256t353 104z" />
    <glyph glyph-name="ae" unicode="&#xe6;" horiz-adv-x="1910" 
d="M1315 893q-201 0 -234 -244h447q-8 115 -64 179t-149 65zM535 182q106 0 172 60t65 149v141q-49 -30 -175 -58t-174 -62t-48 -101q0 -129 160 -129zM454 -31q-176 0 -284 86t-109 249q0 163 111 234t290 93t240 52q62 30 62 90t-41 95t-121 35q-176 0 -190 -143h-297
q6 152 130 256q123 104 369 104t355 -135q135 135 353 135t359 -135q178 -164 174 -522h-776q29 -262 256 -262q133 0 189 106h313q-43 -152 -173 -246t-331 -94q-291 0 -424 209q-80 -109 -180 -158q-99 -49 -275 -49z" />
    <glyph glyph-name="ccedilla" unicode="&#xe7;" horiz-adv-x="1181" 
d="M545 -430q-125 0 -223 61l40 80q74 -33 142 -33q100 0 100 68q0 59 -72 59q-31 0 -67 -14l-37 53l117 127q-221 27 -356 186q-134 159 -134 397t157 402t409 164q213 0 346 -110t163 -293h-311q-37 164 -194 164q-119 0 -181 -90t-63 -246q0 -156 62 -246t182 -90
q88 0 141 51t63 146h310q-8 -180 -135 -304t-332 -135l-88 -80v-4q96 13 164 -25t68 -117t-74 -125q-72 -46 -197 -46z" />
    <glyph glyph-name="egrave" unicode="&#xe8;" horiz-adv-x="1220" 
d="M614 893q-209 0 -241 -244h465q-8 113 -68 179t-156 65zM512 1253l-246 330h375l109 -330h-238zM631 -33q-262 0 -419 163t-157 412q0 250 157 414t391 164t386 -139q180 -174 176 -518h-794q16 -125 83 -194t181 -68q143 0 199 106h311q-43 -152 -177 -246t-337 -94z
" />
    <glyph glyph-name="eacute" unicode="&#xe9;" horiz-adv-x="1220" 
d="M614 893q-209 0 -241 -244h465q-8 113 -68 179t-156 65zM489 1253l109 330h375l-244 -330h-240zM631 -33q-262 0 -419 163t-157 412q0 250 157 414t391 164t386 -139q180 -174 176 -518h-794q16 -125 83 -194t181 -68q143 0 199 106h311q-43 -152 -177 -246t-337 -94z
" />
    <glyph glyph-name="ecircumflex" unicode="&#xea;" horiz-adv-x="1220" 
d="M614 893q-209 0 -241 -244h465q-8 113 -68 179t-156 65zM231 1257l222 304h313l223 -304h-276l-97 160h-4l-100 -160h-281zM631 -33q-262 0 -419 163t-157 412q0 250 157 414t391 164t386 -139q180 -174 176 -518h-794q16 -125 83 -194t181 -68q143 0 199 106h311
q-43 -152 -177 -246t-337 -94z" />
    <glyph glyph-name="edieresis" unicode="&#xeb;" horiz-adv-x="1220" 
d="M713 1243v281h303v-281h-303zM215 1243v281h305v-281h-305zM614 893q-209 0 -241 -244h465q-8 113 -68 179t-156 65zM631 -33q-262 0 -419 163t-157 412q0 250 157 414t391 164t386 -139q180 -174 176 -518h-794q16 -125 83 -194t181 -68q143 0 199 106h311
q-43 -152 -177 -246t-337 -94z" />
    <glyph glyph-name="igrave" unicode="&#xec;" horiz-adv-x="534" 
d="M164 1253l-246 330h375l108 -330h-237zM106 0v1090h322v-1090h-322z" />
    <glyph glyph-name="iacute" unicode="&#xed;" horiz-adv-x="534" 
d="M141 1253l109 330h375l-244 -330h-240zM106 0v1090h322v-1090h-322z" />
    <glyph glyph-name="icircumflex" unicode="&#xee;" horiz-adv-x="534" 
d="M-117 1257l221 304h314l223 -304h-276l-97 160h-4l-100 -160h-281zM106 0v1090h322v-1090h-322z" />
    <glyph glyph-name="idieresis" unicode="&#xef;" horiz-adv-x="534" 
d="M-51 1243v281h264v-281h-264zM324 1243v281h262v-281h-262zM106 0v1090h322v-1090h-322z" />
    <glyph glyph-name="eth" unicode="&#xf0;" horiz-adv-x="1261" 
d="M630 199q120 0 184 93t65 250q0 156 -66 246q-67 90 -185 90t-183 -90q-65 -92 -65 -248t66 -249q64 -92 184 -92zM311 1524h408q68 -49 108 -84l207 63l60 -127l-156 -49q268 -313 268 -702q0 -297 -140 -479t-416 -181q-276 0 -435 165q-160 165 -160 412
q0 248 136 400t362 152q164 0 258 -105h6q-51 123 -170 248l-305 -96l-59 131l245 76q-84 70 -217 161v15z" />
    <glyph glyph-name="ntilde" unicode="&#xf1;" horiz-adv-x="1236" 
d="M776 1255q-70 0 -158 42t-114 42q-26 -1 -45 -23q-20 -22 -23 -63h-172q0 137 64 213t146 76q83 0 166 -42t110 -42q61 0 69 80h172q1 -129 -57 -206t-158 -77zM418 1090v-166h6q100 197 336 196q178 0 278 -110t101 -293v-717h-320v655q0 91 -47 145t-137 54
q-91 0 -149 -68t-58 -172v-614h-322v1090h312z" />
    <glyph glyph-name="ograve" unicode="&#xf2;" horiz-adv-x="1261" 
d="M528 1253l-245 330h374l109 -330h-238zM630 199q120 0 186 94t65 251q0 157 -66 252q-65 95 -185 95t-185 -94t-65 -253t66 -252q64 -93 184 -93zM632 -35q-257 0 -417 165t-160 414q0 248 160 412t417 164t416 -164q158 -164 158 -412t-158 -414q-158 -165 -416 -165z
" />
    <glyph glyph-name="oacute" unicode="&#xf3;" horiz-adv-x="1261" 
d="M506 1253l108 330h375l-244 -330h-239zM630 199q120 0 186 94t65 251q0 157 -66 252q-65 95 -185 95t-185 -94t-65 -253t66 -252q64 -93 184 -93zM632 -35q-257 0 -417 165t-160 414q0 248 160 412t417 164t416 -164q158 -164 158 -412t-158 -414q-158 -165 -416 -165z
" />
    <glyph glyph-name="ocircumflex" unicode="&#xf4;" horiz-adv-x="1261" 
d="M248 1257l221 304h313l224 -304h-277l-96 160h-4l-101 -160h-280zM630 199q120 0 186 94t65 251q0 157 -66 252q-65 95 -185 95t-185 -94t-65 -253t66 -252q64 -93 184 -93zM632 -35q-257 0 -417 165t-160 414q0 248 160 412t417 164t416 -164q158 -164 158 -412
t-158 -414q-158 -165 -416 -165z" />
    <glyph glyph-name="otilde" unicode="&#xf5;" horiz-adv-x="1261" 
d="M780 1255q-70 0 -158 42t-113 42q-26 -1 -46 -23t-23 -63h-172q0 137 64 213t146 76q83 0 166 -42t110 -42q61 0 69 80h172q1 -129 -57 -206t-158 -77zM630 199q120 0 186 94t65 251q0 157 -66 252q-65 95 -185 95t-185 -94t-65 -253t66 -252q64 -93 184 -93zM632 -35
q-257 0 -417 165t-160 414q0 248 160 412t417 164t416 -164q158 -164 158 -412t-158 -414q-158 -165 -416 -165z" />
    <glyph glyph-name="odieresis" unicode="&#xf6;" horiz-adv-x="1261" 
d="M231 1243v281h306v-281h-306zM729 1243v281h303v-281h-303zM630 199q120 0 186 94t65 251q0 157 -66 252q-65 95 -185 95t-185 -94t-65 -253t66 -252q64 -93 184 -93zM632 -35q-257 0 -417 165t-160 414q0 248 160 412t417 164t416 -164q158 -164 158 -412t-158 -414
q-158 -165 -416 -165z" />
    <glyph glyph-name="divide" unicode="&#xf7;" horiz-adv-x="1234" 
d="M449 123v301h339v-301h-339zM121 571v260h995v-260h-995zM449 977v301h339v-301h-339z" />
    <glyph glyph-name="oslash" unicode="&#xf8;" horiz-adv-x="1261" 
d="M640 197q110 0 178 95t67 251q0 80 -17 151l-399 -442q61 -55 171 -55zM375 543q0 -102 22 -170l406 450q-65 70 -179 70t-182 -96t-67 -254zM633 1120q197 0 344 -104l145 162l101 -91l-148 -163q131 -156 131 -392t-158 -402q-158 -165 -415 -165q-193 0 -334 96
l-160 -178l-100 90l158 177q-141 160 -141 402t159 404q160 164 418 164z" />
    <glyph glyph-name="ugrave" unicode="&#xf9;" horiz-adv-x="1226" 
d="M504 1253l-246 330h375l108 -330h-237zM1120 0h-305v156h-6q-117 -186 -328 -187q-182 0 -282 109t-101 291v721h322v-660q0 -190 174 -190q96 0 152 66t57 167v617h317v-1090z" />
    <glyph glyph-name="uacute" unicode="&#xfa;" horiz-adv-x="1226" 
d="M481 1253l109 330h375l-244 -330h-240zM1120 0h-305v156h-6q-117 -186 -328 -187q-182 0 -282 109t-101 291v721h322v-660q0 -190 174 -190q96 0 152 66t57 167v617h317v-1090z" />
    <glyph glyph-name="ucircumflex" unicode="&#xfb;" horiz-adv-x="1226" 
d="M223 1257l221 304h314l223 -304h-276l-97 160h-4l-100 -160h-281zM1120 0h-305v156h-6q-117 -186 -328 -187q-182 0 -282 109t-101 291v721h322v-660q0 -190 174 -190q96 0 152 66t57 167v617h317v-1090z" />
    <glyph glyph-name="udieresis" unicode="&#xfc;" horiz-adv-x="1226" 
d="M705 1243v281h303v-281h-303zM207 1243v281h305v-281h-305zM1120 0h-305v156h-6q-117 -186 -328 -187q-182 0 -282 109t-101 291v721h322v-660q0 -190 174 -190q96 0 152 66t57 167v617h317v-1090z" />
    <glyph glyph-name="yacute" unicode="&#xfd;" horiz-adv-x="1140" 
d="M453 1253l108 330h375l-244 -330h-239zM320 -365q-180 0 -191 5v251h16q4 -2 105 -2q147 0 156 111q0 74 -58 219l-338 871h338l139 -418q50 -144 78 -316l13 -63h4q49 233 96 379l133 418h319l-389 -1117q-65 -188 -153 -263t-268 -75z" />
    <glyph glyph-name="thorn" unicode="&#xfe;" horiz-adv-x="1273" 
d="M663 215q114 0 174 86t60 236q0 151 -59 239t-176 88q-116 0 -180 -92t-64 -236t65 -233q66 -88 180 -88zM752 -35q-109 0 -196 45t-134 125h-4q10 -102 10 -237v-258h-322v1884h322v-334q0 -88 -10 -252h6q121 182 332 182t339 -161t128 -419t-129 -417
q-129 -158 -342 -158z" />
    <glyph glyph-name="ydieresis" unicode="&#xff;" horiz-adv-x="1140" 
d="M178 1243v281h305v-281h-305zM676 1243v281h303v-281h-303zM320 -365q-180 0 -191 5v251h16q4 -2 105 -2q147 0 156 111q0 74 -58 219l-338 871h338l139 -418q50 -144 78 -316l13 -63h4q49 233 96 379l133 418h319l-389 -1117q-65 -188 -153 -263t-268 -75z" />
    <glyph glyph-name="dotlessi" unicode="&#x131;" horiz-adv-x="534" 
d="M106 0v1090h322v-1090h-322z" />
    <glyph glyph-name="IJ" unicode="&#x132;" horiz-adv-x="1761" 
d="M1156 -29q-263 0 -396 129t-133 361v117h321v-109q0 -209 180 -209q170 0 170 193v1071h351v-1080q0 -193 -97 -307q-133 -166 -396 -166zM129 0v1524h350v-1524h-350z" />
    <glyph glyph-name="ij" unicode="&#x133;" horiz-adv-x="1069" 
d="M104 1243v281h326v-281h-326zM639 1243v281h326v-281h-326zM106 0v1090h322v-1090h-322zM641 -371q-104 0 -182 17v227h12q53 0 89 3q81 7 81 110v1104h322v-1117q0 -184 -82 -264t-240 -80z" />
    <glyph glyph-name="Lslash" unicode="&#x141;" horiz-adv-x="1249" 
d="M141 1524h348v-635l429 225v-237l-429 -226v-352h703v-299h-1051v467l-131 -68v238l131 68v819z" />
    <glyph glyph-name="lslash" unicode="&#x142;" horiz-adv-x="645" 
d="M160 1524h323v-537l156 115v-238l-156 -114v-750h-323v514l-140 -102v235l140 103v774z" />
    <glyph glyph-name="napostrophe" unicode="&#x149;" horiz-adv-x="1236" 
d="M-72 1327v197h269v-131q0 -135 -68 -198t-201 -69v103q117 12 121 98h-121zM418 1090v-166h6q100 197 336 196q178 0 278 -110t101 -293v-717h-320v655q0 91 -47 145t-137 54q-91 0 -149 -68t-58 -172v-614h-322v1090h312z" />
    <glyph glyph-name="OE" unicode="&#x152;" horiz-adv-x="2328" 
d="M800 250q173 0 261 121t88 334v100q0 215 -88 339t-261 124q-174 0 -276 -144t-102 -367q0 -224 102 -366q103 -141 276 -141zM791 -37q-319 0 -523 224q-202 223 -202 569t202 570q203 224 523 224q242 0 380 -182v156h1049v-293h-739v-305h630v-275h-630v-344h762v-307
h-1072v139q-136 -176 -380 -176z" />
    <glyph glyph-name="oe" unicode="&#x153;" horiz-adv-x="2002" 
d="M1407 893q-203 0 -236 -244h449q-8 115 -64 179t-149 65zM381 543q-1 -160 61 -252t180 -92t180 93t62 252t-62 253t-180 94t-180 -94t-61 -254zM1423 -33q-260 0 -399 189q-136 -190 -398 -190t-416 163q-154 164 -155 414q0 249 155 413q154 164 414 164t398 -190
q138 190 372 190t378 -137q182 -172 178 -520h-781q16 -125 83 -194t173 -68q135 0 191 106h313q-45 -152 -176 -246t-330 -94z" />
    <glyph glyph-name="Scaron" unicode="&#x160;" horiz-adv-x="1413" 
d="M1065 1876l-221 -268h-314l-223 268h279l94 -117h4l98 117h283zM708 -37q-288 0 -468 136t-189 382h352q27 -240 324 -239q111 0 187 45t75 123q0 78 -47 118t-132 62t-233 57q-280 67 -378 171q-99 103 -99 274q0 227 164 343q164 115 426 115t423 -118t177 -336h-342
q-14 90 -83 139t-179 49t-176 -43t-66 -122t115 -124q57 -25 216 -59t241 -65q82 -29 163 -81q162 -103 162 -334q0 -230 -172 -362q-173 -132 -461 -131z" />
    <glyph glyph-name="scaron" unicode="&#x161;" horiz-adv-x="1103" 
d="M920 1556l-222 -303h-313l-223 303h276l97 -159h4l100 159h281zM552 -35q-226 -1 -364 101t-151 270h303q29 -160 221 -160q86 0 133 33t47 79t-16 68q-34 46 -235 79q-5 1 -14 2q-117 13 -205 52q-88 41 -121 73q-82 81 -80 218q0 162 129 251t339 89t330 -86
q121 -86 144 -235h-299q-31 117 -185 116q-74 1 -118 -29t-43 -81q0 -51 55 -73q54 -22 118 -32t68 -11t12 -2q158 -19 295 -94q136 -75 136 -258q-1 -183 -137 -277t-362 -93z" />
    <glyph glyph-name="Ydieresis" unicode="&#x178;" horiz-adv-x="1437" 
d="M815 1608v274h311v-274h-311zM313 1608v274h314v-274h-314zM545 0v569l-522 955h383l163 -320q71 -140 129 -303l23 -59h4q86 223 156 362l166 320h368l-522 -951v-573h-348z" />
    <glyph glyph-name="Zcaron" unicode="&#x17d;" horiz-adv-x="1409" 
d="M1098 1876l-221 -268h-314l-223 268h278l95 -117h4l98 117h283zM74 0v283l563 684q86 103 211 225l41 41v6q-203 -10 -322 -10h-438v295h1171v-275l-542 -663q-117 -138 -230 -246l-47 -47v-6q213 12 340 12h508v-299h-1255z" />
    <glyph glyph-name="zcaron" unicode="&#x17e;" horiz-adv-x="1101" 
d="M948 1556l-221 -303h-313l-224 303h277l96 -159h4l101 159h280zM74 0v240l389 440q45 51 151 143l31 27v6q-143 -16 -235 -16h-289v250h885v-232l-375 -426q-84 -89 -172 -158l-35 -30v-6q156 14 254 14h356v-252h-960z" />
    <glyph glyph-name="florin" unicode="&#x192;" horiz-adv-x="954" 
d="M86 678v207h215l43 289q27 168 115 239q125 100 440 64v-230q-80 4 -121 0q-95 -9 -110 -110l-37 -252h229v-207h-260l-100 -707q-27 -166 -105 -233q-104 -94 -389 -60v213q84 -5 120 15t48 98l98 674h-186z" />
    <glyph glyph-name="circumflex" unicode="&#x2c6;" 
d="M133 1257l221 304h314l223 -304h-277l-96 160h-4l-100 -160h-281z" />
    <glyph glyph-name="caron" unicode="&#x2c7;" 
d="M891 1556l-221 -303h-314l-223 303h277l96 -159h4l100 159h281z" />
    <glyph glyph-name="uni02C9" unicode="&#x2c9;" 
d="M197 1260v227h639v-227h-639z" />
    <glyph glyph-name="breve" unicode="&#x2d8;" 
d="M556 1241q-144 0 -239 87q-94 87 -100 231h186q16 -119 152 -119q61 0 100 33t47 86h183q-4 -141 -94 -230q-91 -88 -235 -88z" />
    <glyph glyph-name="dotaccent" unicode="&#x2d9;" 
d="M348 1243v281h326v-281h-326z" />
    <glyph glyph-name="ring" unicode="&#x2da;" 
d="M513 1337q48 0 78 31t30 78t-30 80t-77 33t-78 -33q-30 -33 -30 -80t30 -78t77 -31zM748 1445q0 -95 -69 -159t-166 -65q-97 1 -166 65t-69 159t70 162t166 67t165 -68q69 -66 69 -161z" />
    <glyph glyph-name="ogonek" unicode="&#x2db;" 
d="M448 -377q-108 0 -172 46q-63 46 -63 126q0 133 162 205h198q-100 -80 -100 -150q0 -55 68 -55q27 0 59 8h4v-161q-48 -19 -156 -19z" />
    <glyph glyph-name="tilde" unicode="&#x2dc;" 
d="M668 1255q-70 0 -158 42t-114 42q-26 -1 -46 -23t-22 -63h-172q0 137 63 213t147 76t166 -42t109 -42q61 0 70 80h172q1 -129 -57 -206t-158 -77z" />
    <glyph glyph-name="hungarumlaut" unicode="&#x2dd;" 
d="M195 1253l100 330h313l-211 -330h-202zM592 1253l98 330h314l-209 -330h-203z" />
    <glyph glyph-name="uni0394" unicode="&#x394;" horiz-adv-x="1480" 
d="M416 270h631l-211 580q-64 178 -93 334l-10 55h-4q-35 -197 -104 -389zM55 0v229l492 1295h385l493 -1295v-229h-1370z" />
    <glyph glyph-name="uni03A9" unicode="&#x3a9;" horiz-adv-x="1597" 
d="M82 0v266h231v4q-248 166 -247 539q0 329 204 535t529 206t529 -207t204 -534q0 -371 -250 -539v-4h234v-266h-646v256q156 25 232 166t76 365q0 225 -100 353t-279 128t-279 -128t-100 -352t76 -366q76 -141 231 -166v-256h-645z" />
    <glyph glyph-name="uni03BC" unicode="&#x3bc;" horiz-adv-x="1234" 
d="M106 -362v1452h322v-660q0 -190 174 -190q96 0 153 65q56 66 56 168v617h317v-1090h-305v156h-6q-96 -172 -297 -172q-66 0 -96 30h-4q8 -109 8 -204v-172h-322z" />
    <glyph glyph-name="pi" unicode="&#x3c0;" horiz-adv-x="1386" 
d="M197 0v885h-154v205h1282v-205h-166v-568q-1 -49 19 -67t44 -18t78 6h7v-232q-72 -20 -160 -20q-307 0 -307 282v617h-322v-885h-321z" />
    <glyph glyph-name="uni2009" unicode="&#x2009;" horiz-adv-x="225" 
 />
    <glyph glyph-name="endash" unicode="&#x2013;" 
d="M0 403v277h1024v-277h-1024z" />
    <glyph glyph-name="emdash" unicode="&#x2014;" horiz-adv-x="2048" 
d="M410 403v277h1228v-277h-1228z" />
    <glyph glyph-name="quoteleft" unicode="&#x2018;" horiz-adv-x="466" 
d="M84 903v271q0 168 86 254t219 102v-123q-61 -17 -102 -69t-41 -130v-4h137v-301h-299z" />
    <glyph glyph-name="quoteright" unicode="&#x2019;" horiz-adv-x="466" 
d="M383 1524v-271q0 -168 -86 -255t-219 -101v121q63 18 103 69t40 132v4h-137v301h299z" />
    <glyph glyph-name="quotesinglbase" unicode="&#x201a;" horiz-adv-x="466" 
d="M383 301v-270q0 -168 -86 -255t-219 -102v121q63 17 103 69t40 132v4h-137v301h299z" />
    <glyph glyph-name="quotedblleft" unicode="&#x201c;" horiz-adv-x="899" 
d="M84 903v271q0 168 86 254t219 102v-123q-61 -17 -102 -69t-41 -130v-4h137v-301h-299zM516 903v271q0 168 86 254t217 102v-123q-61 -17 -101 -69t-40 -130v-4h137v-301h-299z" />
    <glyph glyph-name="quotedblright" unicode="&#x201d;" horiz-adv-x="899" 
d="M815 1524v-271q0 -168 -86 -255t-219 -101v121q63 18 103 70t40 131v4h-137v301h299zM383 1524v-271q0 -168 -86 -255t-219 -101v121q63 18 103 69t40 132v4h-137v301h299z" />
    <glyph glyph-name="quotedblbase" unicode="&#x201e;" horiz-adv-x="899" 
d="M815 301v-270q0 -168 -86 -255t-219 -102v121q63 19 103 71t40 130v4h-137v301h299zM383 301v-270q0 -168 -86 -255t-219 -102v121q63 17 103 69t40 132v4h-137v301h299z" />
    <glyph glyph-name="dagger" unicode="&#x2020;" horiz-adv-x="1286" 
d="M90 834v266h381v424h340v-424h383v-266h-383v-1127h-340v1127h-381z" />
    <glyph glyph-name="daggerdbl" unicode="&#x2021;" horiz-adv-x="1286" 
d="M90 834v266h381v424h340v-424h383v-266h-383v-437h383v-268h-383v-422h-340v422h-381v268h381v437h-381z" />
    <glyph glyph-name="bullet" unicode="&#x2022;" horiz-adv-x="811" 
d="M406 375q-127 0 -219 90q-91 90 -91 217t91 219t219 92t218 -92q91 -92 91 -219t-91 -217t-218 -90z" />
    <glyph glyph-name="ellipsis" unicode="&#x2026;" horiz-adv-x="1685" 
d="M1255 0v336h340v-336h-340zM672 0v336h342v-336h-342zM90 0v336h340v-336h-340z" />
    <glyph glyph-name="perthousand" unicode="&#x2030;" horiz-adv-x="2756" 
d="M2310 141q68 0 103 68q35 69 35 183t-36 184q-34 70 -102 69q-135 0 -135 -252t135 -252zM2310 -37q-170 0 -278 118t-107 309q0 191 109 309q110 118 278 118t274 -117q106 -118 107 -310q-1 -192 -107 -310t-276 -117zM1446 141q137 0 137 250q0 115 -35 185
q-36 70 -102 69q-66 0 -100 -70q-34 -71 -35 -185t33 -182t102 -67zM446 815q68 0 103 68q35 67 35 181t-35 184t-103 69q-135 0 -135 -251t135 -251zM1448 -37q-168 0 -276 118t-108 309t108 309t277 118t275 -117q106 -118 106 -310t-106 -310q-108 -118 -276 -117z
M446 639q-168 0 -276 117t-107 308q0 191 108 308q109 117 277 117t274 -116q106 -117 105 -309t-107 -308t-274 -117zM453 0l794 1458h193l-795 -1458h-192z" />
    <glyph glyph-name="uni2032" unicode="&#x2032;" horiz-adv-x="493" 
d="M63 963l87 561h280l-84 -561h-283z" />
    <glyph glyph-name="uni2033" unicode="&#x2033;" horiz-adv-x="907" 
d="M63 963l87 561h280l-84 -561h-283zM477 963l86 561h281l-84 -561h-283z" />
    <glyph glyph-name="guilsinglleft" unicode="&#x2039;" horiz-adv-x="616" 
d="M496 51l-375 336v309l375 334v-291l-213 -198v-4l213 -195v-291z" />
    <glyph glyph-name="guilsinglright" unicode="&#x203a;" horiz-adv-x="616" 
d="M121 1030l375 -336v-307l-375 -336v293l215 197v4l-215 196v289z" />
    <glyph glyph-name="fraction" unicode="&#x2044;" horiz-adv-x="604" 
d="M-561 -266l1284 1790h213l-1286 -1790h-211z" />
    <glyph glyph-name="zero.superior" unicode="&#x2070;" horiz-adv-x="1003" 
d="M505 1544q193 0 313 -134t120 -356t-122 -356t-312 -133q-192 0 -316 134q-122 133 -122 355t122 356q123 134 317 134zM502 762q164 0 164 295t-164 295t-164 -295t164 -295z" />
    <glyph glyph-name="four.superior" unicode="&#x2074;" horiz-adv-x="954" 
d="M516 969v196l14 142h-4q-49 -76 -84 -119l-94 -117q-21 -26 -98 -96l-21 -17v-4q98 14 160 15h127zM516 590v196h-448v211l448 537h262v-565h137v-183h-137v-196h-262z" />
    <glyph glyph-name="five.superior" unicode="&#x2075;" horiz-adv-x="890" 
d="M829 904q-1 -149 -109 -245t-278 -96t-278 78t-123 207h238q10 -39 51 -65q41 -25 103 -25t103 41q40 41 40 109q-1 139 -158 139q-80 0 -125 -56h-223l98 533h598v-195h-424l-35 -182h4q63 70 199 70t228 -82q91 -82 91 -231z" />
    <glyph glyph-name="six.superior" unicode="&#x2076;" horiz-adv-x="944" 
d="M485 756q68 0 109 41t41 105t-41 107q-41 42 -109 42q-69 0 -111 -42q-42 -43 -42 -107t42 -105t111 -41zM487 567q-181 0 -301 120q-120 121 -120 359t110 369t324 131q145 0 239 -68t123 -190h-254q-24 82 -106 82q-167 0 -185 -233h2q77 96 221 96t244 -92t100 -241
t-108 -241t-289 -92z" />
    <glyph glyph-name="seven.superior" unicode="&#x2077;" horiz-adv-x="825" 
d="M313 1311h-262v213h727v-193q-131 -129 -214 -321t-89 -420h-282q10 432 346 727v4q-80 -10 -226 -10z" />
    <glyph glyph-name="eight.superior" unicode="&#x2078;" horiz-adv-x="933" 
d="M468 743q69 0 111 35t42 93q0 59 -41 97t-110 38t-112 -38t-43 -96t42 -94q42 -35 111 -35zM467 1161q61 0 95 30t34 80t-34 80q-34 29 -94 29t-94 -30t-34 -79q0 -50 33 -80t94 -30zM468 565q-189 0 -301 78t-112 209q0 80 51 141t148 90v7q-156 57 -156 182
q0 124 102 198t269 74q168 0 268 -70q101 -70 101 -195q0 -124 -154 -183v-6q96 -28 146 -90t51 -142q0 -137 -112 -215t-301 -78z" />
    <glyph glyph-name="nine.superior" unicode="&#x2079;" horiz-adv-x="937" 
d="M459 1057q67 0 109 43t42 107q0 63 -42 107t-110 44t-110 -43q-43 -43 -43 -108t43 -107t111 -43zM457 565q-152 0 -254 71t-125 189h246q31 -82 116 -82t125 54q45 55 51 172h-4q-84 -95 -218 -95t-234 92t-100 244q0 150 110 242q111 92 279 92t282 -92
q141 -113 141 -397q0 -240 -110 -369q-108 -121 -305 -121z" />
    <glyph glyph-name="zero.inferior" unicode="&#x2080;" horiz-adv-x="1003" 
d="M505 627q193 0 313 -134q120 -135 120 -357t-122 -355t-312 -133q-192 0 -316 134q-123 134 -122 355q0 221 122 356q123 134 317 134zM502 -156q164 0 164 295t-164 295t-164 -295t164 -295z" />
    <glyph glyph-name="one.inferior" unicode="&#x2081;" horiz-adv-x="700" 
d="M295 -328v566h-236v178q252 6 291 200h209v-944h-264z" />
    <glyph glyph-name="two.inferior" unicode="&#x2082;" horiz-adv-x="892" 
d="M452 428q-62 0 -99 -43q-38 -43 -38 -117h-245q0 170 106 263t280 93t273 -84q98 -85 98 -210q-1 -92 -37 -150t-94 -103t-164 -107t-139 -95h436v-203h-772q2 127 59 214q56 87 158 161q45 33 113 74q69 41 101 63t59 56t27 80t-30 77t-92 31z" />
    <glyph glyph-name="three.inferior" unicode="&#x2083;" horiz-adv-x="909" 
d="M850 -57q0 -143 -108 -219t-292 -76t-294 92t-111 233h248q11 -133 153 -133t142 115t-158 115h-53v172h45q147 0 147 100q0 47 -32 75q-33 27 -91 27t-92 -33q-33 -34 -37 -83h-245q8 127 111 213t271 86t267 -72q98 -72 98 -197t-164 -184v-2q195 -55 195 -229z" />
    <glyph glyph-name="four.inferior" unicode="&#x2084;" horiz-adv-x="954" 
d="M389 51h127v197l14 141h-4q-49 -76 -84 -119l-94 -116q-23 -30 -98 -97l-21 -16v-4q98 14 160 14zM516 -328v197h-448v211l448 536h262v-565h137v-182h-137v-197h-262z" />
    <glyph glyph-name="five.inferior" unicode="&#x2085;" horiz-adv-x="890" 
d="M829 -14q-1 -148 -109 -244t-278 -96t-278 78t-123 206h238q10 -38 51 -64t103 -26t103 41q40 41 40 109t-40 104q-38 36 -118 35q-80 0 -125 -55h-223l98 532h598v-194h-424l-35 -183h4q63 70 199 70t228 -82q91 -83 91 -231z" />
    <glyph glyph-name="six.inferior" unicode="&#x2086;" horiz-adv-x="944" 
d="M485 -162q68 0 109 41t41 106t-41 107t-109 41q-69 0 -111 -42t-42 -106q0 -63 42 -105t111 -42zM487 -350q-181 0 -301 120t-120 358t110 370t324 131q145 0 239 -68t123 -190h-254q-24 82 -106 82q-167 0 -185 -234h2q77 96 221 96t244 -92q100 -93 100 -241t-108 -240
t-289 -92z" />
    <glyph glyph-name="seven.inferior" unicode="&#x2087;" horiz-adv-x="825" 
d="M313 393h-262v213h727v-192q-131 -129 -214 -321t-89 -421h-282q10 432 346 727v4q-80 -10 -226 -10z" />
    <glyph glyph-name="eight.inferior" unicode="&#x2088;" horiz-adv-x="933" 
d="M468 -174q69 0 111 35t42 93t-41 96t-110 38t-112 -38t-43 -96t42 -93t111 -35zM467 244q61 0 95 30t34 79q0 50 -34 80t-94 30t-94 -30t-34 -80q0 -49 33 -79t94 -30zM468 -352q-189 0 -301 78t-112 208q0 80 51 142t148 90v6q-156 57 -156 182t102 199t269 74
q168 0 268 -71q101 -70 101 -194t-154 -184v-6q96 -27 146 -89t51 -142q0 -137 -112 -215t-301 -78z" />
    <glyph glyph-name="nine.inferior" unicode="&#x2089;" horiz-adv-x="937" 
d="M459 139q67 0 109 43q42 44 42 108t-42 107t-110 43t-110 -43q-43 -43 -43 -107t43 -108q43 -43 111 -43zM457 -352q-152 0 -254 70t-125 190h246q31 -82 116 -82t125 53q45 55 51 172h-4q-84 -94 -218 -94t-234 92t-100 243t110 243q111 92 279 92t282 -92
q141 -113 141 -398q0 -240 -110 -368q-108 -121 -305 -121z" />
    <glyph glyph-name="Euro" unicode="&#x20ac;" horiz-adv-x="1406" 
d="M55 795v133h109q49 254 216 408q168 154 412 153q244 0 390 -138t164 -368h-328q-37 244 -238 244q-219 0 -276 -299h342v-133h-357q-2 -23 -2 -74t2 -76h357v-133h-338q59 -276 285 -276q111 0 172 76t73 198h320q-12 -244 -160 -394t-398 -151q-249 -1 -415 147
t-219 400h-111v133h92q-2 27 -2 77t2 73h-92z" />
    <glyph glyph-name="afii61289" unicode="&#x2113;" horiz-adv-x="890" 
d="M614 1190q0 80 -20 112t-60 32t-68 -30q-26 -30 -26 -94v-493q174 135 174 473zM139 1194q-1 176 97 261t263 85t247 -85t83 -306q0 -437 -389 -651v-107q0 -84 32 -115q56 -55 239 -10h6v-246q-98 -33 -221 -32q-174 0 -266 75q-91 76 -91 267v45q-98 -31 -114 -35v186
q65 19 114 39v629z" />
    <glyph glyph-name="trademark" unicode="&#x2122;" horiz-adv-x="1976" 
d="M104 1335v189h684v-189h-227v-594h-229v594h-228zM922 741v783h309l72 -240l67 -289h4q35 178 68 289l71 240h314v-783h-205v232l6 332h-6q-43 -188 -84 -312l-78 -252h-180l-78 252l-82 312h-4q6 -203 6 -332v-232h-200z" />
    <glyph glyph-name="Omega" unicode="&#x2126;" horiz-adv-x="1597" 
d="M82 0v266h231v4q-248 166 -247 539q0 329 204 535t529 206t529 -207t204 -534q0 -371 -250 -539v-4h234v-266h-646v256q156 25 232 166t76 365q0 225 -100 353t-279 128t-279 -128t-100 -352t76 -366q76 -141 231 -166v-256h-645z" />
    <glyph glyph-name="estimated" unicode="&#x212e;" horiz-adv-x="1538" 
d="M778 1452q-190 0 -336 -106v-500h658v528q-132 78 -322 78zM442 745v-563q141 -102 367 -102q416 0 541 381h118q-53 -221 -223 -355t-436 -135q-348 0 -549 219q-201 220 -201 570t208 571t530 221q272 0 442 -147q242 -203 238 -660h-1035z" />
    <glyph glyph-name="onethird" unicode="&#x2153;" horiz-adv-x="1976" 
d="M1911 45q1 -143 -107 -219t-292 -76t-294 92t-112 234h248q12 -133 153 -133t142 116q0 113 -158 113h-53v172h45q147 0 147 100q0 47 -33 75t-91 28t-91 -34t-37 -83h-245q8 127 111 213q104 86 272 86t266 -72q98 -73 98 -197t-164 -184v-2q195 -55 195 -229zM137 -266
l1284 1790h213l-1286 -1790h-211zM301 590v565h-235v178q252 6 290 201h209v-944h-264z" />
    <glyph glyph-name="twothirds" unicode="&#x2154;" horiz-adv-x="2156" 
d="M2091 45q1 -143 -107 -219t-292 -76t-294 92t-112 234h248q12 -133 154 -133q142 1 141 115q0 114 -158 114h-53v172h45q147 0 147 100q0 47 -32 75q-33 28 -91 28q-57 0 -91 -34t-37 -83h-246q8 127 111 213q104 86 272 86t266 -72q98 -73 98 -197t-164 -184v-2
q195 -55 195 -229zM350 -266l1284 1790h213l-1286 -1790h-211zM580 1238q0 46 -30 77t-92 31t-99 -43q-38 -43 -37 -117h-246q0 170 106 263t280 93t273 -85q98 -85 99 -210q0 -92 -37 -149q-37 -58 -95 -104t-164 -107q-105 -61 -139 -94h437v-203h-773q2 127 59 214
q75 117 271 234q68 41 101 63q34 23 60 57t26 80z" />
    <glyph glyph-name="oneeighth" unicode="&#x215b;" horiz-adv-x="1931" 
d="M1612 56q0 58 -41 96t-110 38t-111 -38t-43 -96t41 -93t111 -35t111 35t42 93zM1458 346q61 0 95 30t34 80t-34 80t-94 30t-94 -30t-34 -80t33 -80t94 -30zM1459 -250q-189 0 -301 78t-111 209q0 80 51 141t147 90v6q-156 57 -155 191q0 117 101 191t269 73
q168 0 268 -71q100 -70 101 -194q0 -124 -154 -183v-7q97 -27 147 -89t50 -142q0 -137 -112 -215t-301 -78zM117 -266l1284 1790h213l-1286 -1790h-211zM301 590v565h-235v178q252 6 290 201h209v-944h-264z" />
    <glyph glyph-name="threeeighths" unicode="&#x215c;" horiz-adv-x="2093" 
d="M1621 -72q69 0 111 35t42 93t-41 96t-110 38t-112 -38t-43 -96t42 -93t111 -35zM1620 346q61 0 95 30t34 80t-34 80t-94 30t-94 -30t-34 -80t33 -80t94 -30zM1621 -250q-189 0 -301 78t-112 209q0 80 52 141t147 90v6q-156 56 -156 182q-1 126 101 200t270 73
q168 0 268 -71q100 -70 100 -194t-153 -183v-7q96 -27 146 -89t51 -142q0 -137 -112 -215t-301 -78zM281 -266l1284 1790h213l-1286 -1790h-211zM456 565q-184 0 -294 92t-111 234h248q11 -133 153 -133t142 114t-158 115h-53v172h45q147 0 147 101q-1 46 -33 74t-90 28
t-92 -34t-36 -83h-246q8 127 111 213t271 86t267 -72q98 -72 98 -196q0 -125 -163 -184v-2q195 -55 194 -230q0 -143 -108 -219t-292 -76z" />
    <glyph glyph-name="fiveeighths" unicode="&#x215d;" horiz-adv-x="2045" 
d="M1574 -72q68 0 110 35t42 93t-40 97q-41 37 -110 37t-112 -38t-43 -96t42 -93t111 -35zM1573 346q61 0 95 30t34 80t-34 80t-94 30t-94 -30t-34 -80t33 -80t94 -30zM1574 -250q-189 0 -301 78t-112 209q0 80 51 141t148 90v6q-156 56 -156 182t102 200t269 73
q168 0 268 -71q101 -70 101 -194t-154 -183v-7q96 -27 146 -89t51 -142q0 -137 -112 -215t-301 -78zM248 -266l1284 1790h213l-1286 -1790h-211zM582 908q0 140 -158 139q-80 0 -125 -56h-223l98 533h598v-195h-424l-35 -182h4q63 70 199 70t228 -82t92 -231t-109 -245
t-279 -96t-278 78t-123 207h238q10 -39 51 -65q41 -25 103 -25t103 41q40 41 40 109z" />
    <glyph glyph-name="seveneighths" unicode="&#x215e;" horiz-adv-x="1984" 
d="M1511 346q61 0 96 30q33 30 33 80t-33 80q-35 30 -95 30t-94 -30t-34 -80t33 -80t94 -30zM1665 56q0 58 -41 96t-110 38q-70 0 -112 -38t-42 -96t42 -93t110 -35q69 0 111 35t42 93zM319 1311h-262v213h727v-193q-131 -129 -214 -321t-89 -420h-282q10 432 346 727v4
q-80 -10 -226 -10zM127 -266l1284 1790h213l-1286 -1790h-211zM1925 43q0 -137 -112 -215t-301 -78t-301 78t-111 209q0 80 51 141t147 90v6q-156 57 -155 191q0 117 101 191t269 73q169 0 269 -71q100 -70 100 -194t-153 -183v-7q96 -27 146 -89t50 -142z" />
    <glyph glyph-name="partialdiff" unicode="&#x2202;" horiz-adv-x="1261" 
d="M385 446q-1 -253 215 -253q110 0 180 105q68 104 68 232q0 252 -201 252q-119 0 -191 -93t-71 -243zM1188 659q0 -315 -153 -503t-451 -189q-242 0 -381 133t-140 342q0 244 150 403t389 159q168 -1 250 -91q-35 154 -156 239t-342 116v270q430 -33 632 -253t202 -626z
" />
    <glyph glyph-name="Delta" unicode="&#x2206;" horiz-adv-x="1480" 
d="M416 270h631l-211 580q-64 178 -93 334l-10 55h-4q-35 -197 -104 -389zM55 0v229l492 1295h385l493 -1295v-229h-1370z" />
    <glyph glyph-name="product" unicode="&#x220f;" horiz-adv-x="1564" 
d="M141 1524h1282v-1737h-352v1440h-579v-1440h-351v1737z" />
    <glyph glyph-name="summation" unicode="&#x2211;" horiz-adv-x="1376" 
d="M1290 -213h-1190v293l525 592v4l-525 571v277h1170v-275h-770v-4l467 -497v-138l-482 -532v-4h805v-287z" />
    <glyph glyph-name="minus" unicode="&#x2212;" horiz-adv-x="1241" 
d="M109 571v258h1024v-258h-1024z" />
    <glyph glyph-name="uni2215" unicode="&#x2215;" horiz-adv-x="604" 
d="M-561 -266l1284 1790h213l-1286 -1790h-211z" />
    <glyph glyph-name="uni2219" unicode="&#x2219;" horiz-adv-x="526" 
d="M92 506v338h342v-338h-342z" />
    <glyph glyph-name="radical" unicode="&#x221a;" horiz-adv-x="1398" 
d="M37 432v275h379l114 -293q50 -123 84 -242l11 -41h4q33 143 76 283l348 1110h327l-569 -1737h-344l-274 645h-156z" />
    <glyph glyph-name="infinity" unicode="&#x221e;" horiz-adv-x="1533" 
d="M1119 487q58 1 91 47t33 116t-33 114q-33 45 -96 45q-90 0 -186 -162q47 -76 90 -118t101 -42zM420 809q-63 0 -94 -44t-31 -116t31 -117t94 -45q98 0 194 160q-92 162 -194 162zM397 260q-160 0 -251 112t-91 278t91 277q91 112 251 111q121 0 208 -60t169 -171
q78 111 162 171t201 60q153 0 247 -106t94 -282t-94 -283q-96 -107 -231 -107t-219 60t-160 174q-80 -114 -167 -174t-210 -60z" />
    <glyph glyph-name="integral" unicode="&#x222b;" horiz-adv-x="792" 
d="M-2 -111h6q54 -8 108 -8q119 0 117 123v1198q0 186 89 274t274 87q113 0 190 -23v-244h-4q-30 10 -94 10t-98 -26q-34 -27 -33 -96v-1200q0 -184 -89 -272t-271 -89q-99 1 -195 21v245z" />
    <glyph glyph-name="approxequal" unicode="&#x2248;" horiz-adv-x="1241" 
d="M864 279q-86 -1 -248 35t-206 36q-74 0 -86 -86h-211q2 180 74 265q73 85 200 85q86 0 245 -36q158 -36 200 -37q42 0 61 18q18 18 22 59h213q0 -339 -264 -339zM864 729q-86 0 -248 36t-206 36q-74 0 -86 -86h-211q2 178 74 264q73 86 200 86q86 0 245 -38
q158 -38 200 -38q42 -1 60 19t23 61h213q0 -340 -264 -340z" />
    <glyph glyph-name="notequal" unicode="&#x2260;" horiz-adv-x="1234" 
d="M125 762v244h567l109 213h211l-109 -213h217v-244h-340l-104 -203h444v-244h-567l-109 -213h-211l109 213h-217v244h340l104 203h-444z" />
    <glyph glyph-name="lessequal" unicode="&#x2264;" horiz-adv-x="1107" 
d="M985 299l-872 295v313l872 295v-268l-360 -107l-303 -77v-5q188 -37 303 -69l360 -103v-274zM113 0v246h872v-246h-872z" />
    <glyph glyph-name="greaterequal" unicode="&#x2265;" horiz-adv-x="1107" 
d="M123 1202l872 -295v-313l-872 -295v268l360 107l303 78v4q-188 37 -303 69l-360 103v274zM995 246v-246h-872v246h872z" />
    <glyph glyph-name="uni24C5" unicode="&#x24c5;" horiz-adv-x="1775" 
d="M795 1010v-217h149q57 -1 89 27t32 80t-33 81t-90 29h-147zM571 336v856h396q147 0 233 -80t86 -207t-80 -207t-209 -80h-202v-282h-224zM888 66q284 0 472 196t188 494t-188 494t-472 196t-473 -197t-189 -493t188 -494q190 -196 474 -196zM1671 756q0 -340 -226 -566
t-557 -227q-331 0 -557 227q-227 226 -227 566t226 567t558 227q331 0 557 -227t226 -567z" />
    <glyph glyph-name="lozenge" unicode="&#x25ca;" horiz-adv-x="1296" 
d="M379 766l170 -324q59 -112 90 -190l8 -25h4q27 82 97 215l163 312l-168 323l-98 213h-4q-27 -80 -96 -213zM819 1524l430 -764l-428 -760h-344l-430 762l428 762h344z" />
    <glyph glyph-name="f_i" unicode="&#xf001;" horiz-adv-x="1318" 
d="M889 1243v281h323v-281h-323zM891 0v1090h319v-1090h-319zM41 881v209h164v92q0 190 127 266q123 102 422 68v-230q-131 4 -180 -17q-48 -22 -48 -110v-69h228v-209h-228v-881h-321v881h-164z" />
    <glyph glyph-name="f_l" unicode="&#xf002;" horiz-adv-x="1325" 
d="M891 0v1524h323v-1524h-323zM41 881v209h164v92q0 190 127 266q123 102 422 68v-230q-131 4 -180 -17q-48 -22 -48 -110v-69h228v-209h-228v-881h-321v881h-164z" />
    <glyph glyph-name="uniF8FF" unicode="&#xf8ff;" horiz-adv-x="1802" 
d="M389 918v-306h359v-360h307v360h358v306h-358v348h-307v-348h-359zM139 0v1526h1526v-1526h-1526z" />
    <glyph glyph-name="commaaccent" 
d="M362 -315v211h310v-146q0 -137 -88 -208t-230 -81v109q145 29 146 115h-138z" />
    <glyph glyph-name="zero.denominator" horiz-adv-x="1003" 
d="M505 729q193 0 313 -134t120 -356q0 -221 -122 -355t-312 -134q-192 0 -316 134q-122 134 -122 356t122 355q123 134 317 134zM502 -53q164 0 164 295t-164 295t-164 -295t164 -295z" />
    <glyph glyph-name="one.denominator" horiz-adv-x="700" 
d="M295 -225v565h-236v178q252 6 291 201h209v-944h-264z" />
    <glyph glyph-name="two.denominator" horiz-adv-x="892" 
d="M315 371h-245q0 170 106 263t280 93t273 -85q98 -85 98 -210q-1 -92 -37 -149t-94 -103t-164 -108q-106 -61 -139 -95h436v-202h-772q2 127 59 214q77 120 271 234q69 41 101 63t59 56t27 81q0 46 -30 77q-30 30 -92 30t-99 -43q-38 -43 -38 -116z" />
    <glyph glyph-name="three.denominator" horiz-adv-x="909" 
d="M850 45q0 -143 -108 -219t-292 -76t-294 92t-111 234h248q11 -133 153 -133q142 1 142 115t-158 114h-53v172h45q147 0 147 100q0 47 -32 75q-33 28 -91 28t-92 -34t-37 -83h-245q8 127 111 213t271 86t267 -72q98 -73 98 -197t-164 -184v-2q195 -55 195 -229z" />
    <glyph glyph-name="four.denominator" horiz-adv-x="954" 
d="M516 154v196l14 142h-4q-49 -76 -84 -119l-94 -117q-21 -26 -98 -96l-21 -17v-4q98 14 160 15h127zM516 -225v196h-448v211l448 537h262v-565h137v-183h-137v-196h-262z" />
    <glyph glyph-name="five.denominator" horiz-adv-x="890" 
d="M829 88q-1 -148 -109 -244t-278 -96t-278 78t-123 207h238q10 -39 51 -65t103 -26t103 42q40 40 40 108q-1 140 -158 140q-80 0 -125 -56h-223l98 533h598v-195h-424l-35 -182h4q63 70 199 70t228 -83q91 -83 91 -231z" />
    <glyph glyph-name="six.denominator" horiz-adv-x="944" 
d="M485 -59q68 0 109 41q41 42 41 106t-41 106t-109 42q-69 0 -111 -42t-42 -106t42 -106q42 -41 111 -41zM487 -248q-181 0 -301 120t-120 358t110 370q110 131 324 131q145 1 239 -67t123 -191h-254q-24 82 -106 82q-167 0 -185 -233h2q77 96 221 96t244 -92t100 -241
t-108 -241t-289 -92z" />
    <glyph glyph-name="seven.denominator" horiz-adv-x="825" 
d="M313 496h-262v213h727v-193q-131 -128 -214 -320t-89 -421h-282q10 432 346 727v4q-80 -10 -226 -10z" />
    <glyph glyph-name="eight.denominator" horiz-adv-x="933" 
d="M468 -72q69 0 111 35t42 93t-41 96t-110 38t-112 -38t-43 -96t42 -93t111 -35zM467 346q61 0 95 30t34 80t-34 80t-94 30t-94 -30t-34 -80t33 -80t94 -30zM468 -250q-189 0 -301 78t-112 209q0 80 51 141t148 90v6q-156 56 -156 182t102 200t269 73q168 0 268 -71
q101 -70 101 -194t-154 -183v-7q96 -27 146 -89t51 -142q0 -137 -112 -215t-301 -78z" />
    <glyph glyph-name="nine.denominator" horiz-adv-x="937" 
d="M459 242q67 0 109 43t42 107t-42 108t-110 43q-68 0 -110 -43q-43 -43 -43 -108q0 -66 43 -108t111 -42zM457 -250q-152 0 -254 71t-125 189h246q31 -82 116 -82t125 54q45 55 51 172h-4q-84 -94 -218 -94t-234 92t-100 242t110 243q111 92 279 92t282 -92
q141 -113 141 -397q0 -240 -110 -369q-108 -121 -305 -121z" />
    <glyph glyph-name="zero.numerator" horiz-adv-x="1003" 
d="M505 1544q193 0 313 -134t120 -356t-122 -356t-312 -133q-192 0 -316 134q-122 133 -122 355t122 356q123 134 317 134zM502 762q164 0 164 295t-164 295t-164 -295t164 -295z" />
    <glyph glyph-name="one.numerator" horiz-adv-x="700" 
d="M295 590v565h-236v178q252 6 291 201h209v-944h-264z" />
    <glyph glyph-name="two.numerator" horiz-adv-x="892" 
d="M452 1346q-62 0 -99 -43q-38 -43 -38 -117h-245q0 170 106 263t280 93t273 -85q98 -85 98 -210q-1 -92 -37 -149q-36 -58 -94 -104t-164 -107t-139 -94h436v-203h-772q2 127 59 214q77 120 271 234q69 41 101 63q32 23 59 57t27 80t-30 77t-92 31z" />
    <glyph glyph-name="three.numerator" horiz-adv-x="909" 
d="M850 860q0 -143 -108 -219t-292 -76t-294 92t-111 234h248q11 -133 153 -133t142 114t-158 115h-53v172h45q147 0 147 101q-1 46 -33 74t-90 28t-92 -34t-37 -83h-245q8 127 111 213t271 86t267 -72q98 -72 98 -196q0 -125 -164 -184v-2q195 -55 195 -230z" />
    <glyph glyph-name="four.numerator" horiz-adv-x="954" 
d="M516 969v196l14 142h-4q-49 -76 -84 -119l-94 -117q-21 -26 -98 -96l-21 -17v-4q98 14 160 15h127zM516 590v196h-448v211l448 537h262v-565h137v-183h-137v-196h-262z" />
    <glyph glyph-name="five.numerator" horiz-adv-x="890" 
d="M829 904q-1 -149 -109 -245t-278 -96t-278 78t-123 207h238q10 -39 51 -65q41 -25 103 -25t103 41q40 41 40 109q-1 139 -158 139q-80 0 -125 -56h-223l98 533h598v-195h-424l-35 -182h4q63 70 199 70t228 -82q91 -82 91 -231z" />
    <glyph glyph-name="six.numerator" horiz-adv-x="944" 
d="M485 756q68 0 109 41t41 105t-41 107q-41 42 -109 42q-69 0 -111 -42q-42 -43 -42 -107t42 -105t111 -41zM487 567q-181 0 -301 120q-120 121 -120 359t110 369t324 131q145 0 239 -68t123 -190h-254q-24 82 -106 82q-167 0 -185 -233h2q77 96 221 96t244 -92t100 -241
t-108 -241t-289 -92z" />
    <glyph glyph-name="seven.numerator" horiz-adv-x="825" 
d="M313 1311h-262v213h727v-193q-131 -129 -214 -321t-89 -420h-282q10 432 346 727v4q-80 -10 -226 -10z" />
    <glyph glyph-name="eight.numerator" horiz-adv-x="933" 
d="M468 743q69 0 111 35t42 93q0 59 -41 97t-110 38t-112 -38t-43 -96t42 -94q42 -35 111 -35zM467 1161q61 0 95 30t34 80t-34 80q-34 29 -94 29t-94 -30t-34 -79q0 -50 33 -80t94 -30zM468 565q-189 0 -301 78t-112 209q0 80 51 141t148 90v7q-156 57 -156 182
q0 124 102 198t269 74q168 0 268 -70q101 -70 101 -195q0 -124 -154 -183v-6q96 -28 146 -90t51 -142q0 -137 -112 -215t-301 -78z" />
    <glyph glyph-name="nine.numerator" horiz-adv-x="937" 
d="M459 1057q67 0 109 43t42 107q0 63 -42 107t-110 44t-110 -43q-43 -43 -43 -108t43 -107t111 -43zM457 565q-152 0 -254 71t-125 189h246q31 -82 116 -82t125 54q45 55 51 172h-4q-84 -95 -218 -95t-234 92t-100 244q0 150 110 242q111 92 279 92t282 -92
q141 -113 141 -397q0 -240 -110 -369q-108 -121 -305 -121z" />
    <glyph glyph-name="acute.cap" 
d="M356 1608l88 268h387l-223 -268h-252z" />
    <glyph glyph-name="breve.cap" 
d="M557 1595q-143 0 -236 82t-100 209h187q27 -92 147 -92q57 0 94 28t49 64h183q-5 -125 -93 -208t-231 -83z" />
    <glyph glyph-name="caron.alt" 
d="M360 1327v197h269v-131q0 -135 -68 -198t-201 -69v103q117 12 121 98h-121z" />
    <glyph glyph-name="caron.cap" 
d="M891 1876l-221 -268h-314l-223 268h279l94 -117h4l98 117h283z" />
    <glyph glyph-name="circumflex.cap" 
d="M133 1608l221 268h314l223 -268h-279l-94 116h-4l-98 -116h-283z" />
    <glyph glyph-name="commaaccent.alt" 
d="M362 -315v211h310v-146q0 -137 -88 -208t-230 -81v109q145 29 146 115h-138z" />
    <glyph glyph-name="dieresis.cap" 
d="M104 1608v274h314v-274h-314zM606 1608v274h312v-274h-312z" />
    <glyph glyph-name="dotaccent.cap" 
d="M348 1608v276h326v-276h-326z" />
    <glyph glyph-name="grave.cap" 
d="M416 1608l-226 268h388l88 -268h-250z" />
    <glyph glyph-name="hungarumlaut.cap" 
d="M188 1608l74 268h320l-185 -268h-209zM592 1608l72 268h319l-182 -268h-209z" />
    <glyph glyph-name="macron.cap" 
d="M197 1616v227h639v-227h-639z" />
    <glyph glyph-name="ring.cap" 
d="M513 1686q48 0 78 30t30 78q0 47 -30 80t-77 33t-78 -33q-30 -33 -30 -80t29 -78q30 -30 78 -30zM748 1793q0 -95 -69 -159t-166 -65q-97 1 -166 65t-69 159t70 162t166 67t165 -68q69 -66 69 -161z" />
    <glyph glyph-name="tilde.cap" 
d="M668 1610q-70 0 -157 41t-110 41q-63 0 -69 -84h-176q0 137 63 213q63 75 147 75t164 -41t107 -40q61 0 70 77h176q1 -130 -57 -206t-158 -76z" />
    <glyph glyph-name="space_uni0326" 
d="M360 -315v211h310v-146q0 -137 -88 -208t-230 -81v109q145 29 146 115h-138z" />
    <glyph glyph-name="space_uni0326.alt" 
d="M702 1454v-211h-309v146q-1 137 87 207t231 81v-108q-145 -29 -146 -115h137z" />
    <glyph glyph-name="R.alt" horiz-adv-x="1466" 
d="M483 1227v-398h314q109 -1 168 51t59 148t-59 148t-168 51h-314zM483 553v-553h-354v1524h690q270 0 410 -142q145 -141 145 -354q0 -150 -77 -262t-212 -166l357 -600h-393l-312 553h-254z" />
    <glyph glyph-name="Ccedilla.alt" horiz-adv-x="1533" 
d="M770 -170h-137v156q-258 57 -413 267t-154 503q0 346 205 570q206 224 542 224q258 0 418 -118q207 -152 235 -422h-348q-16 110 -98 180t-209 70q-189 0 -289 -140t-100 -362q0 -224 106 -364t285 -140q135 0 220 78t97 200h351q-16 -229 -185 -395q-137 -133 -354 -164
v-98q0 -135 -76 -189t-241 -59v109q145 10 145 94z" />
    <glyph glyph-name="ccedilla.alt" horiz-adv-x="1181" 
d="M449 -170v160q-182 51 -288 201q-105 151 -106 352q0 249 157 413t409 164q213 0 346 -110t163 -293h-311q-37 164 -194 164q-119 0 -181 -90t-63 -246q0 -156 62 -246t182 -90q88 0 141 51t63 146h310q-7 -160 -109 -278t-272 -151v-102q0 -135 -77 -189t-241 -59v109
q145 10 146 94h-137z" />
    <glyph glyph-name="hyphen.cap" horiz-adv-x="770" 
d="M72 520v309h626v-309h-626z" />
    <glyph glyph-name="endash.cap" 
d="M0 537v276h1024v-276h-1024z" />
    <glyph glyph-name="emdash.cap" horiz-adv-x="2048" 
d="M410 539v276h1228v-276h-1228z" />
    <glyph glyph-name="questiondown.cap" horiz-adv-x="1187" 
d="M770 993q0 -127 -35 -201t-121 -147q-22 -18 -70 -54t-75 -59q-27 -22 -49 -60t-23 -79q1 -69 55 -111t149 -42t159 63q63 63 67 160h318q-6 -213 -157 -351q-150 -138 -398 -138t-389 112q-141 113 -141 300t153 310q43 35 125 91t102 79q43 49 43 127h287zM801 1524
v-336h-340v336h340z" />
    <glyph glyph-name="exclamdown.cap" horiz-adv-x="591" 
d="M467 1524v-336h-342v336h342zM463 0h-334v381l84 612h166l84 -612v-381z" />
    <glyph glyph-name="parenleft.cap" horiz-adv-x="749" 
d="M125 726q0 278 93 534t239 423h266q-268 -429 -268 -941t266 -953h-264q-147 180 -240 419q-92 240 -92 518z" />
    <glyph glyph-name="parenright.cap" horiz-adv-x="749" 
d="M297 719q0 541 -270 964h268q145 -167 239 -423t93 -534q0 -278 -92 -518q-92 -239 -240 -419h-266q268 444 268 930z" />
    <glyph glyph-name="bracketleft.cap" horiz-adv-x="874" 
d="M145 -211v1894h639v-249h-331v-1397h331v-248h-639z" />
    <glyph glyph-name="bracketright.cap" horiz-adv-x="874" 
d="M88 -211v248h332v1397h-332v249h641v-1894h-641z" />
    <glyph glyph-name="braceleft.cap" horiz-adv-x="868" 
d="M727 -211q-249 0 -359 88t-110 316v270q0 80 -44 117t-153 41v239q106 4 152 42q45 38 45 116v266q0 227 111 313t358 86h57v-249h-45q-96 0 -135 -30t-39 -120v-305q0 -101 -41 -155t-131 -81v-6q90 -27 131 -80t41 -153v-314q0 -88 40 -120t134 -33h45v-248h-57z" />
    <glyph glyph-name="braceright.cap" horiz-adv-x="868" 
d="M88 -211v248h43q94 0 134 32t40 121v312q0 100 41 153t131 80v6q-90 29 -131 83t-41 153v307q0 90 -39 120t-135 30h-43v249h55q248 0 359 -87t110 -314v-266q0 -78 45 -116t150 -42v-237q-107 -4 -151 -42t-44 -116v-270q0 -227 -110 -316q-111 -88 -359 -88h-55z" />
    <glyph glyph-name="guillemotleft.cap" horiz-adv-x="1044" 
d="M924 213l-342 311v299l342 312v-295l-176 -168v-4l176 -168v-287zM463 213l-342 311v299l342 312v-295l-176 -168v-4l176 -168v-287z" />
    <glyph glyph-name="guillemotright.cap" horiz-adv-x="1044" 
d="M463 524l-342 -311v287l176 168v4l-176 168v295l342 -312v-299zM924 524l-342 -311v287l176 168v4l-176 168v295l342 -312v-299z" />
    <glyph glyph-name="guilsinglleft.cap" horiz-adv-x="616" 
d="M496 182l-375 336v309l375 334v-311l-193 -178v-4l193 -174v-312z" />
    <glyph glyph-name="guilsinglright.cap" horiz-adv-x="616" 
d="M496 518l-375 -336v312l192 174v4l-192 178v311l375 -334v-309z" />
    <glyph glyph-name="registered.alt" horiz-adv-x="1775" 
d="M770 1020v-207h152q123 0 122 100q0 106 -116 107h-158zM547 336v858h416q133 0 219 -66t86 -184q0 -154 -154 -207v-4q113 -35 131 -153q6 -40 10 -102q5 -62 9 -93t16 -35v-14h-217q-16 9 -21 90q-6 80 -12 111q-16 115 -135 114h-125v-315h-223zM888 66q284 0 472 196
t188 494t-188 494t-472 196t-473 -197t-189 -493t188 -494q190 -196 474 -196zM1671 756q0 -340 -226 -566t-557 -227q-331 0 -557 227q-227 226 -227 566t226 567t558 227q331 0 557 -227t226 -567z" />
    <glyph glyph-name="dollar.cap" horiz-adv-x="1417" 
d="M449 1126q0 -66 46 -101q46 -36 156 -69v332q-96 -8 -149 -52t-53 -110zM995 427q0 73 -48 111t-159 68v-356q90 12 149 58q58 46 58 119zM651 -266v252q-281 16 -435 149t-161 352h348q25 -207 248 -237v393l-184 51q-61 18 -142 56t-122 80q-101 107 -101 276
q0 198 153 312t396 124v170h137v-172q236 -18 372 -132t151 -312h-330q-25 152 -193 186v-360l27 -7q201 -51 293 -97t136 -92q101 -106 99 -275q1 -211 -153 -333t-402 -132v-252h-137z" />
    <glyph glyph-name="Euro.cap" horiz-adv-x="1470" 
d="M57 829v140h113q53 266 227 427q174 160 430 160t408 -145t172 -383h-344q-17 118 -79 186t-169 68q-225 0 -287 -313h357v-140h-373q-2 -23 -2 -75t2 -80h373v-139h-355q63 -289 297 -289q115 0 181 79t77 207h334q-14 -256 -169 -412t-415 -157q-260 0 -434 154
t-227 418h-117v139h97q-2 29 -2 81t2 74h-97z" />
    <glyph glyph-name="sterling.cap" horiz-adv-x="1341" 
d="M84 647v197h96q-66 131 -65 241q0 205 153 338q154 133 418 133t414 -122q172 -143 178 -416h-338q0 133 -64 200q-66 66 -174 66t-164 -56t-56 -144t65 -240h309v-197h-252q2 -16 2 -49q0 -172 -196 -315l4 -7q113 60 205 60t177 -29t142 -28q113 0 207 94l147 -271
q-158 -135 -350 -135q-115 -1 -250 55t-225 56t-225 -96l-172 254q217 139 217 313q0 45 -15 98h-188z" />
    <glyph glyph-name="yen.cap" horiz-adv-x="1447" 
d="M176 573v138h318l-467 815h385l153 -293q51 -97 135 -311l23 -64h4q88 233 162 375l151 293h379l-471 -815h322v-138h-379v-153h379v-139h-379v-281h-336v281h-379v139h379v153h-379z" />
    <glyph glyph-name="zero.cap" horiz-adv-x="1480" 
d="M741 240q305 0 306 520q0 246 -75 385t-231 139q-155 0 -231 -139t-76 -384t76 -383t231 -138zM741 -37q-299 0 -481 217q-182 218 -182 580t182 579t482 217t480 -216t181 -579q0 -363 -181 -581q-182 -217 -481 -217z" />
    <glyph glyph-name="one.cap" horiz-adv-x="935" 
d="M422 0v995h-354v234q174 4 288 81t138 228h276v-1538h-348z" />
    <glyph glyph-name="two.cap" horiz-adv-x="1304" 
d="M879 1070q1 87 -55 145q-56 59 -164 59t-168 -72q-70 -76 -70 -221h-332q0 217 103 362q145 213 487 213q258 0 405 -137t147 -355t-190 -380q-66 -59 -254 -182t-256 -205v-6h699v-291h-1165q2 246 161 424q111 125 377 306q88 60 119 83q80 57 118 113t38 144z" />
    <glyph glyph-name="three.cap" horiz-adv-x="1359" 
d="M670 233q132 1 200 61t68 167q0 213 -281 213h-92v244h84q119 0 186 49t67 138t-60 140q-59 51 -170 51q-110 0 -176 -68t-72 -165h-326q4 215 162 354t417 139t413 -114t153 -314q0 -219 -258 -307v-4q305 -84 305 -381q0 -156 -84 -266q-159 -207 -512 -207
q-284 0 -460 137t-181 402h330q8 -121 81 -195t206 -74z" />
    <glyph glyph-name="four.cap" horiz-adv-x="1398" 
d="M565 602h262v367l13 233h-4q-86 -133 -152 -211l-162 -203q-46 -60 -145 -165l-31 -31v-4q133 14 219 14zM827 0v344h-714v311l716 885h334v-938h228v-258h-228v-344h-336z" />
    <glyph glyph-name="five.cap" horiz-adv-x="1347" 
d="M765 1032q209 0 361 -144t152 -385t-169 -391t-435 -149q-266 0 -438 127t-189 342h344q18 -86 89 -137q72 -51 184 -51t187 74t75 195t-75 191t-187 70q-156 0 -238 -100h-328l158 850h928v-281h-676l-70 -336h4q115 125 323 125z" />
    <glyph glyph-name="six.cap" horiz-adv-x="1396" 
d="M720 225q120 0 199 79t79 199q0 121 -80 199q-78 78 -200 78t-202 -78t-80 -198t82 -200q82 -79 202 -79zM735 -37q-307 0 -480 208t-175 591t178 598q172 197 475 196q229 0 373 -109q143 -110 178 -286h-334q-18 61 -69 103t-140 41q-305 0 -329 -453h4
q137 190 366 190t387 -152t159 -388t-167 -388t-426 -151z" />
    <glyph glyph-name="seven.cap" horiz-adv-x="1232" 
d="M471 1229h-412v295h1121v-269q-225 -221 -379 -549t-166 -706h-367q16 383 185 713q168 330 387 524v4q-195 -12 -369 -12z" />
    <glyph glyph-name="eight.cap" horiz-adv-x="1384" 
d="M693 225q126 -1 201 63t75 172t-73 172t-201 64q-129 0 -203 -64t-74 -173q0 -108 74 -171t201 -63zM692 924q111 0 171 52q61 52 61 141t-60 143t-172 55q-111 0 -172 -54q-61 -53 -61 -143t61 -142t172 -52zM696 -37q-280 0 -456 127t-177 344q0 138 79 238t225 145v6
q-238 86 -238 312q0 190 155 306q156 115 412 115t407 -112t150 -303q0 -105 -59 -187t-176 -123v-6q150 -41 228 -142t77 -241q0 -223 -174 -351t-453 -128z" />
    <glyph glyph-name="nine.cap" horiz-adv-x="1398" 
d="M680 739q125 0 205 78t80 200t-80 201q-80 78 -204 78t-203 -78t-79 -200q0 -121 78 -200t203 -79zM684 -37q-236 0 -390 114t-177 288h334q18 -61 74 -105t151 -43q158 0 233 123q68 109 80 319h-4q-143 -180 -369 -180t-387 150q-159 149 -159 387t171 390t434 150
q263 0 427 -147q215 -195 215 -633t-178 -631q-164 -182 -455 -182z" />
    <glyph glyph-name="percent.cap" horiz-adv-x="1992" 
d="M1525 147q142 0 142 263q0 120 -37 192q-36 72 -106 72t-106 -72t-36 -192q1 -263 143 -263zM326 1114q0 -262 141 -262q71 0 107 70t36 190t-36 192q-36 73 -107 72q-141 0 -141 -262zM1525 -39q-177 0 -289 123t-112 324q0 202 113 324t289 122t288 -122t112 -324
t-112 -324q-112 -123 -289 -123zM479 0l832 1524h200l-831 -1524h-201zM467 668q-176 0 -289 122q-112 122 -112 322t112 323q113 121 290 121t287 -120q109 -120 109 -323q0 -201 -110 -323t-287 -122z" />
    <glyph glyph-name="perthousand.cap" horiz-adv-x="2879" 
d="M2415 147q71 0 107 71t36 191q0 121 -37 193t-106 72q-141 0 -141 -264t141 -263zM2011 408q0 202 114 324t291 122q178 0 288 -122t110 -324t-112 -324q-112 -123 -288 -123q-177 0 -290 123t-113 324zM1511 147q143 0 144 263q0 120 -36 192t-107 72q-70 0 -106 -73
t-36 -193t36 -190q36 -71 105 -71zM326 1114q0 -262 141 -262q71 0 107 70t36 190t-36 192q-36 73 -107 72q-141 0 -141 -262zM1513 -39q-177 0 -289 124t-112 324q0 201 113 323t289 122t287 -122q112 -122 112 -324t-112 -324q-112 -123 -288 -123zM467 668
q-176 0 -289 122q-112 122 -112 322t112 323q113 121 290 121t287 -120q109 -120 109 -323q0 -201 -110 -323t-287 -122zM473 0l830 1524h202l-831 -1524h-201z" />
    <glyph glyph-name="dollar.tab" horiz-adv-x="1331" 
d="M438 1074q0 -64 40 -98t132 -61v318q-82 -7 -127 -51t-45 -108zM920 412q0 70 -42 106t-137 64v-342q79 12 129 57t50 115zM610 -254v240q-256 16 -398 143t-151 338h334q23 -201 215 -227v376q-135 35 -214 64q-78 29 -152 78t-106 122t-32 179q0 190 142 299t362 119
v161h131v-163q215 -18 341 -128t139 -298h-316q-23 145 -164 176v-342q269 -68 391 -162t122 -292q0 -199 -144 -315q-143 -116 -369 -128v-240h-131z" />
    <glyph glyph-name="Euro.tab" horiz-adv-x="1331" 
d="M758 236q197 0 225 274h320q-13 -244 -157 -394t-382 -151t-399 147q-162 148 -213 400h-111v133h92q-2 27 -2 77t2 73h-92v133h109q48 254 210 408t396 153q234 0 374 -139t160 -367h-327q-37 244 -218 244q-205 0 -258 -299h304v-133h-318v-68l2 -82h316v-133h-299
q53 -276 266 -276z" />
    <glyph glyph-name="sterling.tab" horiz-adv-x="1331" 
d="M913 266q109 0 199 90l141 -258q-147 -129 -335 -129q-111 1 -236 53t-212 52t-214 -92l-164 243q207 133 207 299q0 41 -14 94h-181v189h95q-63 119 -64 231q-1 199 145 325t396 126t393 -117q164 -135 170 -397h-324q0 127 -60 190q-59 63 -163 63t-155 -52
q-51 -54 -51 -138t63 -231h287v-189h-234l2 -47q0 -164 -188 -301l4 -6q113 58 199 58q85 0 163 -28t131 -28z" />
    <glyph glyph-name="yen.tab" horiz-adv-x="1331" 
d="M141 549v131h340l-418 780h355l129 -266q55 -120 102 -279l17 -53h4q63 197 125 332l127 266h344l-422 -780h344v-131h-363v-148h363v-133h-363v-268h-321v268h-363v133h363v148h-363z" />
    <glyph glyph-name="cent.tab" horiz-adv-x="1331" 
d="M449 543q0 -131 46 -217t136 -111v657q-182 -48 -182 -329zM631 -264v233q-229 25 -367 184q-137 159 -137 390t137 393t367 182v182h129v-182q190 -16 309 -127t141 -282h-305q-27 133 -145 165v-661q135 33 153 197h304q-7 -182 -131 -304t-326 -139v-231h-129z" />
    <glyph glyph-name="florin.tab" horiz-adv-x="1331" 
d="M244 678v207h245l43 289q27 168 115 239q125 100 440 64v-230q-81 4 -121 0q-96 -9 -110 -110l-37 -252h260v-207h-291l-100 -707q-27 -166 -104 -233q-104 -94 -389 -60v213q83 -5 119 15t48 98l99 674h-217z" />
    <glyph glyph-name="currency.tab" horiz-adv-x="1331" 
d="M666 963q-90 0 -144 -68q-54 -69 -53 -179t53 -176t143 -65q91 0 142 66q51 67 51 177t-51 178t-141 67zM666 1153q117 0 208 -51l144 145l162 -157l-144 -144q60 -94 60 -225t-58 -234l142 -141l-162 -160l-144 146q-88 -49 -206 -49t-209 49l-144 -146l-161 160
l139 139q-59 101 -59 231t59 230l-139 144l161 157l142 -145q92 51 209 51z" />
    <glyph glyph-name="zero.tab" horiz-adv-x="1331" 
d="M666 229q244 0 244 500t-244 500t-244 -500t244 -500zM667 -35q-261 0 -425 206t-164 556t164 556t426 206t424 -205t162 -557t-164 -557q-162 -205 -423 -205z" />
    <glyph glyph-name="one.tab" horiz-adv-x="1331" 
d="M623 0v936h-373v223q391 10 442 314h264v-1473h-333z" />
    <glyph glyph-name="two.tab" horiz-adv-x="1331" 
d="M883 1014q1 94 -53 149t-158 55t-160 -67q-68 -74 -68 -213h-317q0 211 98 348q139 203 467 203q248 0 388 -131t140 -340t-182 -363q-61 -55 -242 -174t-245 -196v-6h668v-279h-1115q2 236 154 406q72 81 175 158t185 134t115 80q150 106 150 236z" />
    <glyph glyph-name="three.tab" horiz-adv-x="1331" 
d="M1247 418q-1 -221 -161 -337t-414 -116t-420 127q-172 137 -176 387h315q18 -256 279 -256q115 -1 177 57t62 160q0 205 -262 205h-88v234h80q113 0 174 47t61 132t-54 134t-158 49q-104 -1 -165 -65q-60 -64 -67 -158h-311q4 207 151 339q148 132 396 132t392 -110
t144 -300q0 -209 -248 -293v-4q293 -82 293 -364z" />
    <glyph glyph-name="four.tab" horiz-adv-x="1331" 
d="M524 575h252v353l10 223h-4q-82 -127 -143 -203l-156 -194q-48 -59 -139 -156l-29 -31v-4q127 12 209 12zM776 0v330h-684v297l686 848h320v-900h176v-245h-176v-330h-322z" />
    <glyph glyph-name="five.tab" horiz-adv-x="1331" 
d="M752 987q200 0 346 -138t145 -368q1 -230 -161 -373t-416 -143t-419 121t-181 328h329q16 -82 84 -131q69 -49 177 -49t180 71t72 185t-72 183t-181 68q-150 0 -227 -96h-313l151 813h887v-268h-647l-66 -322h4q108 119 308 119z" />
    <glyph glyph-name="six.tab" horiz-adv-x="1331" 
d="M680 748q-116 0 -186 -74q-72 -74 -72 -192t74 -192t187 -75q113 0 183 75q70 74 70 190t-70 192t-186 76zM698 -35q-287 0 -450 201q-166 196 -168 564t165 563t451 196q220 -1 356 -105t171 -272h-320q-41 137 -201 137q-281 0 -305 -434h4q131 182 345 182t360 -144
q145 -143 146 -371q0 -228 -156 -372t-398 -145z" />
    <glyph glyph-name="seven.tab" horiz-adv-x="1331" 
d="M526 1176h-393v282h1071v-256q-217 -213 -362 -527t-158 -675h-352q16 367 177 682t370 502v4q-186 -12 -353 -12z" />
    <glyph glyph-name="eight.tab" horiz-adv-x="1331" 
d="M667 215q117 0 185 60q68 59 68 163t-67 166t-185 62t-185 -62t-67 -166t67 -164q68 -59 184 -59zM667 885q103 0 160 50t57 135t-56 136q-58 51 -161 51t-161 -51t-60 -136q0 -85 59 -135t162 -50zM670 -35q-262 0 -427 121t-165 330q0 131 73 227t209 139v6
q-229 82 -229 297q-1 182 147 293t391 111q243 -1 387 -107t144 -290q0 -100 -58 -178t-169 -117v-6q141 -39 213 -137t71 -230q-1 -213 -163 -336t-424 -123z" />
    <glyph glyph-name="nine.tab" horiz-adv-x="1331" 
d="M654 707q118 -1 190 73t72 192t-72 194t-189 75q-117 0 -189 -76q-72 -75 -71 -191t71 -192t188 -75zM659 -35q-227 0 -372 109t-170 274h319q16 -57 70 -99t145 -42q147 0 217 112q57 88 70 312h-4q-135 -172 -346 -172t-360 143q-148 142 -148 370t161 372t409 145
q248 0 405 -141q197 -176 197 -604t-165 -607q-154 -172 -428 -172z" />
    <glyph glyph-name="percent.tab" horiz-adv-x="1843" 
d="M1403 139q69 0 103 66q34 65 34 175t-35 178t-103 67q-68 0 -100 -66q-34 -65 -34 -177t34 -178t101 -65zM1403 -37q-164 0 -270 116q-107 116 -107 301t106 301t272 116q165 0 269 -115q105 -115 105 -301t-106 -302t-269 -116zM442 831q68 0 103 66q35 65 35 175
t-35 178t-103 67q-68 0 -102 -66q-34 -65 -33 -177q-1 -112 33 -178t102 -65zM428 0l795 1458h192l-794 -1458h-193zM442 655q-164 0 -270 116t-106 301t106 301t271 116t269 -115t105 -301t-105 -302t-270 -116z" />
    <glyph glyph-name="perthousand.tab" horiz-adv-x="2457" 
d="M2058 137q55 1 85 63t30 168t-30 170q-30 65 -85 64q-113 0 -112 -233q0 -106 28 -169t84 -63zM2057 -37q-155 0 -255 112t-100 294t100 293q100 110 257 110t255 -110t98 -292q0 -183 -100 -295t-255 -112zM1280 137q55 1 85 63t30 168t-30 170q-30 65 -85 64
q-113 0 -113 -233q0 -106 29 -169t84 -63zM1279 -37q-155 0 -255 112t-100 294t100 293q100 110 257 110t255 -110t98 -292q0 -183 -100 -295t-255 -112zM401 854q55 0 85 62t30 168t-30 170q-30 65 -85 65q-113 0 -112 -234q0 -106 28 -169q29 -62 84 -62zM400 680
q-155 0 -255 112t-100 294t100 292q100 111 257 111t255 -110q99 -110 99 -293q0 -182 -100 -294t-256 -112zM346 0l795 1458h192l-794 -1458h-193z" />
    <glyph glyph-name="minus.tab" horiz-adv-x="1331" 
d="M154 571v258h1024v-258h-1024z" />
    <glyph glyph-name="multiply.tab" horiz-adv-x="1331" 
d="M338 186l-178 179l327 329l-325 328l178 180l326 -328l327 328l181 -180l-328 -328l328 -327l-181 -181l-327 328z" />
    <glyph glyph-name="divide.tab" horiz-adv-x="1331" 
d="M498 123v301h340v-301h-340zM170 571v260h995v-260h-995zM498 977v301h340v-301h-340z" />
    <glyph glyph-name="plusminus.tab" horiz-adv-x="1331" 
d="M154 0v246h1024v-246h-1024zM154 717v254h374v336h275v-336h375v-254h-375v-340h-275v340h-374z" />
    <glyph glyph-name="notequal.tab" horiz-adv-x="1331" 
d="M174 762v244h567l109 213h211l-109 -213h217v-244h-340l-104 -203h444v-244h-567l-108 -213h-211l108 213h-217v244h340l104 203h-444z" />
    <glyph glyph-name="approxequal.tab" horiz-adv-x="1331" 
d="M909 279q-85 -1 -247 35t-207 36q-74 0 -86 -86h-211q2 180 74 265q73 85 200 85q86 0 245 -36t201 -37q42 0 60 18t23 59h213q-1 -339 -265 -339zM909 729q-85 0 -247 36t-207 36q-74 0 -86 -86h-211q2 178 74 264q73 86 200 86q86 0 245 -38t201 -38q42 -1 60 19t23 61
h213q-1 -340 -265 -340z" />
    <glyph glyph-name="lessequal.tab" horiz-adv-x="1331" 
d="M1139 299l-955 287v329l955 287v-268l-402 -109q-155 -40 -307 -67l-57 -8v-5q209 -27 364 -67l402 -105v-274zM184 0v246h955v-246h-955z" />
    <glyph glyph-name="greaterequal.tab" horiz-adv-x="1331" 
d="M1147 586l-954 -287v274l401 105q128 33 307 59l57 8v5q-209 33 -364 75l-401 109v268l954 -287v-329zM1147 246v-246h-954v246h954z" />
    <glyph glyph-name="less.tab" horiz-adv-x="1331" 
d="M1139 143l-955 367v297l955 367v-285l-424 -137l-316 -95v-4q199 -51 316 -86l424 -131v-293z" />
    <glyph glyph-name="equal.tab" horiz-adv-x="1331" 
d="M174 315v252h995v-252h-995zM174 754v252h995v-252h-995z" />
    <glyph glyph-name="greater.tab" horiz-adv-x="1331" 
d="M193 1174l954 -367v-297l-954 -367v285l423 137l316 94v5q-199 51 -316 86l-423 131v293z" />
    <glyph glyph-name="space.tab" horiz-adv-x="665" 
 />
    <glyph glyph-name="comma.tab" horiz-adv-x="665" 
d="M324 -4v4h-160v336h340v-316q0 -184 -93 -282t-245 -109v144q158 41 158 223z" />
    <glyph glyph-name="period.tab" horiz-adv-x="665" 
d="M164 0v336h340v-336h-340z" />
    <glyph glyph-name="colon.tab" horiz-adv-x="665" 
d="M162 0v336h340v-336h-340zM162 657v336h340v-336h-340z" />
    <glyph glyph-name="semicolon.tab" horiz-adv-x="665" 
d="M322 -4v4h-160v336h340v-316q0 -184 -93 -282t-245 -109v144q158 41 158 223zM162 657v336h340v-336h-340z" />
    </font>
</defs>
</svg>
