<?xml version="1.0" standalone="no"?>
<!DOCTYPE svg PUBLIC "-//W3C//DTD SVG 1.1//EN" "http://www.w3.org/Graphics/SVG/1.1/DTD/svg11.dtd" >
<svg xmlns="http://www.w3.org/2000/svg">
<metadata>
Created by FontPrep 20130207 at Wed Jan 27 12:32:22 2016
 By Alexander Larson
Copyright (c) 2013 Monotype Imaging Inc. All rights reserved.
</metadata>
<defs>
<font id="8cae22e77d75dc987716fb47bc633b42" horiz-adv-x='1024' >
  <font-face 
    font-family="NHaasGroteskDSStd-65Md"
    font-weight="500"
    font-stretch="normal"
    units-per-em="2048"
    panose-1="2 11 6 4 2 2 2 2 2 4"
    ascent="1579"
    descent="-469"
    x-height="1051"
    cap-height="1464"
    bbox="-350 -539 2482 1904"
    underline-thickness="102"
    underline-position="255"
    unicode-range="U+0020-FB04"
  />
<missing-glyph 
 />
    <glyph glyph-name="f_f" unicode="ff" horiz-adv-x="1267" 
d="M29 858v193h143v86q0 184 126 262t331 55v-215q-96 3 -137 -19t-41 -100v-69h313v94q0 184 127 262t340 55v-215q-104 4 -147 -18q-42 -23 -42 -101v-77h189v-193h-189v-858h-278v858h-313v-858h-279v858h-143z" />
    <glyph glyph-name="fi" unicode="fi" horiz-adv-x="1126" 
d="M758 1214v250h278v-250h-278zM758 0v1051h278v-1051h-278zM23 858v193h143v94q0 184 127 262t340 55v-215q-104 4 -147 -18q-42 -23 -42 -101v-77h189v-193h-189v-858h-278v858h-143z" />
    <glyph glyph-name="fl" unicode="fl" horiz-adv-x="1136" 
d="M764 0v1464h278v-1464h-278zM29 858v193h143v94q0 184 127 262t340 55v-215q-104 3 -146 -19t-42 -100v-77h188v-193h-188v-858h-279v858h-143z" />
    <glyph glyph-name="f_f_i" unicode="ffi" horiz-adv-x="1724" 
d="M1356 1214v250h278v-250h-278zM1356 0v1051h278v-1051h-278zM29 858v193h143v86q0 184 126 262t331 55v-215q-96 3 -137 -19t-41 -100v-69h313v94q0 184 127 262t340 55v-215q-104 4 -147 -18q-42 -23 -42 -101v-77h189v-193h-189v-858h-278v858h-313v-858h-279v858h-143
z" />
    <glyph glyph-name="f_f_l" unicode="ffl" horiz-adv-x="1732" 
d="M1360 0v1464h278v-1464h-278zM29 858v193h143v86q0 184 126 262t331 55v-215q-96 3 -137 -19t-41 -100v-69h313v94q0 184 127 262t340 55v-215q-104 4 -147 -18q-42 -23 -42 -101v-77h189v-193h-189v-858h-278v858h-313v-858h-279v858h-143z" />
    <glyph glyph-name=".notdef" 
 />
    <glyph glyph-name=".null" horiz-adv-x="0" 
 />
    <glyph glyph-name=".null" horiz-adv-x="0" 
 />
    <glyph glyph-name="nonmarkingreturn" horiz-adv-x="681" 
 />
    <glyph glyph-name="space" unicode=" " horiz-adv-x="344" 
 />
    <glyph glyph-name="exclam" unicode="!" horiz-adv-x="520" 
d="M111 0v297h299v-297h-299zM115 1464h291v-323l-78 -713h-135l-78 713v323z" />
    <glyph glyph-name="quotedbl" unicode="&#x22;" horiz-adv-x="782" 
d="M84 950v514h244v-514h-244zM455 950v514h243v-514h-243z" />
    <glyph glyph-name="numbersign" unicode="#" horiz-adv-x="1214" 
d="M514 834l-37 -242h221l37 242h-221zM125 834l37 217h196l56 354h190l-55 -354h221l55 354h191l-55 -354h198l-35 -217h-198l-37 -242h196l-34 -217h-197l-57 -375h-191l58 375h-222l-57 -375h-190l57 375h-199l37 217h197l37 242h-199z" />
    <glyph glyph-name="dollar" unicode="$" horiz-adv-x="1257" 
d="M369 1044q0 -68 48 -106t158 -66v334q-96 -10 -151 -52t-55 -110zM913 380q0 77 -52 116t-163 67v-358q96 10 156 54q59 44 59 121zM575 -199v176q-250 15 -387 135t-143 326h279q14 -109 74 -165t177 -68v389q-26 0 -120 28q-199 58 -285 144t-86 264t134 286t357 118
v120h123v-122q209 -18 331 -130t136 -305h-272q-20 168 -195 203v-354q4 -2 65 -14t139 -38q201 -69 261 -196q37 -76 37 -180q0 -201 -138 -317t-364 -126v-174h-123z" />
    <glyph glyph-name="percent" unicode="%" horiz-adv-x="1714" 
d="M399 774q70 0 106 68t36 182t-37 184t-106 70q-68 0 -104 -69t-36 -185t36 -182q36 -68 105 -68zM1317 125q69 0 105 68q36 69 36 183t-37 184t-105 69q-68 0 -105 -69q-35 -68 -35 -184t36 -184t105 -67zM412 0l718 1405h175l-719 -1405h-174zM1318 -33q-159 0 -260 112
t-102 296q0 184 102 297q102 112 260 112q159 0 258 -112t99 -296q0 -185 -99 -297t-258 -112zM400 616q-159 0 -260 112t-101 296t101 297t260 113t258 -112q100 -112 100 -297t-100 -297t-258 -112z" />
    <glyph glyph-name="ampersand" unicode="&#x26;" horiz-adv-x="1343" 
d="M508 1112q0 -86 106 -188q123 74 123 190q0 51 -34 84q-33 33 -81 33t-81 -34t-33 -85zM537 199q131 0 233 86l-268 350q-168 -102 -168 -250q0 -82 58 -134t145 -52zM518 -31q-225 0 -352 114t-127 294q0 272 323 436q-122 150 -122 299q0 150 105 246t273 96t276 -93
t108 -231t-66 -218q-66 -79 -197 -146l195 -252q45 115 57 238h248q-18 -256 -139 -453l231 -299h-340l-76 96q-172 -127 -397 -127z" />
    <glyph glyph-name="quotesingle" unicode="'" horiz-adv-x="411" 
d="M84 950v514h244v-514h-244z" />
    <glyph glyph-name="parenleft" unicode="(" horiz-adv-x="708" 
d="M428 656q0 -486 254 -924h-233q-311 426 -311 914t308 898h238q-256 -402 -256 -888z" />
    <glyph glyph-name="parenright" unicode=")" horiz-adv-x="708" 
d="M281 656q0 486 -256 888h237q309 -412 309 -899t-311 -913h-233q254 438 254 924z" />
    <glyph glyph-name="asterisk" unicode="*" horiz-adv-x="823" 
d="M334 1464h158v-241l210 71l56 -141l-217 -72l137 -188l-125 -92l-139 198l-140 -198l-127 92l140 188l-221 72l55 141l213 -71v241z" />
    <glyph glyph-name="plus" unicode="+" horiz-adv-x="1165" 
d="M72 569v205h403v416h213v-416h406v-205h-406v-415h-213v415h-403z" />
    <glyph glyph-name="comma" unicode="," horiz-adv-x="446" 
d="M223 0h-149v297h299v-281q0 -147 -85 -240t-212 -116v100q147 76 147 240z" />
    <glyph glyph-name="hyphen" unicode="-" horiz-adv-x="694" 
d="M70 387v240h555v-240h-555z" />
    <glyph glyph-name="period" unicode="." horiz-adv-x="446" 
d="M74 0v297h299v-297h-299z" />
    <glyph glyph-name="slash" unicode="/" horiz-adv-x="847" 
d="M27 0l573 1464h221l-573 -1464h-221z" />
    <glyph glyph-name="zero" unicode="0" horiz-adv-x="1294" 
d="M649 205q293 0 293 495q0 232 -72 364t-222 132t-224 -131q-72 -131 -72 -365t72 -364q72 -131 225 -131zM1233 701q0 -337 -157 -535t-427 -199q-270 0 -429 199q-159 198 -159 534t160 535t429 199t426 -198t157 -535z" />
    <glyph glyph-name="one" unicode="1" horiz-adv-x="802" 
d="M373 0v979h-318v184q315 12 355 250h243v-1413h-280z" />
    <glyph glyph-name="two" unicode="2" horiz-adv-x="1120" 
d="M558 1194q-100 0 -160 -74t-62 -211h-262q0 246 126 384q126 139 359 139t361 -129t129 -319q0 -190 -115 -312q-58 -62 -106 -100t-132 -93q-229 -147 -282 -250h647v-229h-1008q4 125 60 237q55 111 119 179q91 95 283 233q191 137 226 229q18 46 19 97q0 99 -51 159
t-151 60z" />
    <glyph glyph-name="three" unicode="3" horiz-adv-x="1161" 
d="M1112 401q0 -209 -150 -321t-396 -111q-248 0 -390 136q-141 136 -145 372h266q16 -285 276 -284q117 0 183 60q66 61 66 165t-66 162q-66 57 -193 57h-86v211h80q102 0 165 49q62 49 62 135t-53 136t-157 50t-165 -67q-62 -68 -67 -182h-266q8 213 139 338t361 125
t361 -102q130 -102 130 -277q0 -217 -240 -295v-4q285 -70 285 -353z" />
    <glyph glyph-name="four" unicode="4" horiz-adv-x="1218" 
d="M274 528h422v545h-4l-418 -538v-7zM696 0v305h-647v301l637 813h283v-891h213v-223h-213v-305h-273z" />
    <glyph glyph-name="five" unicode="5" horiz-adv-x="1183" 
d="M590 -31q-234 0 -388 117t-175 320h274q18 -100 95 -152t192 -51q114 0 186 75q72 74 72 192t-73 186t-187 69q-154 0 -230 -88h-268l135 766h828v-232h-633l-53 -303h4q101 88 293 88t332 -135t140 -353t-154 -358q-156 -140 -390 -141z" />
    <glyph glyph-name="six" unicode="6" horiz-adv-x="1216" 
d="M632 188q116 0 192 77t77 195q0 118 -76 198q-75 80 -195 79q-120 0 -193 -77q-73 -76 -73 -198t76 -198t192 -76zM645 -31q-285 0 -431 202t-151 509q-4 391 173 590q143 162 403 162q205 0 331 -100t152 -263h-268q-35 150 -195 150q-161 1 -237 -105t-76 -297h4
q125 145 328 145t346 -140q143 -142 143 -359q-1 -217 -151 -355t-371 -139z" />
    <glyph glyph-name="seven" unicode="7" horiz-adv-x="1085" 
d="M735 1163h-696v240h999v-229q-209 -212 -350 -514t-156 -660h-303q7 242 93 480t190 398q104 159 223 281v4z" />
    <glyph glyph-name="eight" unicode="8" horiz-adv-x="1222" 
d="M610 848q108 0 171 52q62 52 63 136q0 84 -62 134t-170 50q-109 0 -171 -50t-62 -134t62 -136q61 -52 169 -52zM889 420q0 106 -73 170t-201 64q-127 0 -203 -66q-76 -64 -76 -169t74 -165t200 -59q125 0 202 60t77 165zM617 -31q-247 0 -409 116t-161 321q0 129 70 226
t186 142v6q-197 90 -197 272t140 281t369 99t365 -98t136 -278q0 -181 -194 -274v-6q118 -41 186 -136t68 -222q0 -211 -156 -330t-403 -119z" />
    <glyph glyph-name="nine" unicode="9" horiz-adv-x="1222" 
d="M317 941q0 -117 74 -193t198 -76t205 74t80 194q0 119 -79 196q-80 76 -201 76t-199 -76t-78 -195zM600 -31q-213 -1 -340 101t-151 266h270q41 -154 213 -154q284 0 291 418h-4q-131 -154 -337 -154t-348 136t-142 355q0 218 150 356q151 138 378 139q282 0 432 -180
t149 -531q0 -752 -561 -752z" />
    <glyph glyph-name="colon" unicode=":" horiz-adv-x="458" 
d="M80 0v297h299v-297h-299zM80 616v297h299v-297h-299z" />
    <glyph glyph-name="semicolon" unicode=";" horiz-adv-x="458" 
d="M80 616v297h299v-297h-299zM229 0h-149v297h299v-281q0 -147 -85 -240t-212 -116v100q147 76 147 240z" />
    <glyph glyph-name="less" unicode="&#x3c;" 
d="M932 162l-840 354v238l840 354v-234l-445 -174l-194 -67v-4q127 -37 194 -62l445 -168v-237z" />
    <glyph glyph-name="equal" unicode="=" horiz-adv-x="1150" 
d="M115 338v201h950v-201h-950zM115 733v201h950v-201h-950z" />
    <glyph glyph-name="greater" unicode="&#x3e;" 
d="M92 162v233l445 174l194 68v4q-127 37 -194 61l-445 168v238l840 -354v-238z" />
    <glyph glyph-name="question" unicode="?" horiz-adv-x="1101" 
d="M371 0v297h299v-297h-299zM395 428q0 171 63 253q36 46 62 69q27 24 89 68t86 64t51 66q28 47 28 123t-60 130t-166 54q-106 -1 -176 -69t-71 -187h-264q4 213 140 353q135 140 371 139q236 0 370 -121t135 -307q0 -144 -62 -223q-62 -78 -180 -165t-128 -106
q-29 -54 -34 -82q-4 -29 -4 -59h-250z" />
    <glyph glyph-name="at" unicode="@" horiz-adv-x="1845" 
d="M922 866q-84 0 -136 -85t-53 -195q0 -110 37 -170q37 -58 121 -58t139 84t55 196q0 228 -163 228zM821 160q-170 0 -262 108t-92 312t113 344q114 140 290 139q176 0 240 -152h4l14 129h256l-69 -561q-23 -164 88 -164q80 1 139 97t60 286q0 297 -176 452t-474 155
q-296 0 -496 -196t-200 -527q0 -291 169 -471t476 -181q193 0 371 76l57 -135q-188 -94 -424 -94q-367 0 -599 222t-232 583q0 204 74 374t197 279q124 109 282 168q159 59 325 59t312 -50q317 -108 441 -383q67 -146 67 -327q0 -252 -104 -396t-286 -144q-227 0 -288 162
h-7q-96 -164 -266 -164z" />
    <glyph glyph-name="A" unicode="A" horiz-adv-x="1349" 
d="M604 961l-131 -422h387l-131 422l-59 225h-4q-37 -147 -62 -225zM6 0l510 1464h307l516 -1464h-309l-98 311h-529l-96 -311h-301z" />
    <glyph glyph-name="B" unicode="B" horiz-adv-x="1343" 
d="M410 874h321q97 0 157 46t60 130q0 83 -56 128t-155 45h-327v-349zM410 655v-409h342q106 0 168 54q61 54 61 149t-67 151t-171 55h-333zM113 0v1464h655q236 0 354 -105t117 -276q0 -215 -229 -292v-7q124 -37 198 -133t74 -229q0 -194 -131 -308t-367 -114h-671z" />
    <glyph glyph-name="C" unicode="C" horiz-adv-x="1400" 
d="M739 -31q-294 0 -492 214t-198 545t193 548t510 217q262 0 420 -138t184 -356h-295q-19 113 -101 179t-208 65q-195 0 -297 -143q-103 -144 -103 -372t110 -372t292 -143q129 0 215 71t100 187h291q-12 -207 -162 -346q-165 -156 -459 -156z" />
    <glyph glyph-name="D" unicode="D" horiz-adv-x="1376" 
d="M410 256h229q203 0 295 118t92 343t-97 359t-282 134h-237v-954zM113 0v1464h571q291 0 467 -210t176 -537q0 -379 -233 -576q-170 -141 -435 -141h-546z" />
    <glyph glyph-name="E" unicode="E" horiz-adv-x="1267" 
d="M113 0v1464h1077v-250h-780v-327h684v-244h-684v-395h786v-248h-1083z" />
    <glyph glyph-name="F" unicode="F" horiz-adv-x="1216" 
d="M113 0v1464h1048v-252h-751v-352h637v-254h-637v-606h-297z" />
    <glyph glyph-name="G" unicode="G" horiz-adv-x="1503" 
d="M756 1493q278 0 439 -133t198 -356h-291q-27 112 -111 178t-219 65q-198 0 -306 -145q-108 -146 -108 -374t112 -374t287 -145q175 0 281 101t107 231v8h-352v229h616v-778h-223l-10 197h-5q-135 -227 -411 -228q-322 0 -514 213q-190 213 -191 545q0 377 240 598
q183 168 461 168z" />
    <glyph glyph-name="H" unicode="H" horiz-adv-x="1394" 
d="M113 0v1464h297v-573h575v573h297v-1464h-297v645h-575v-645h-297z" />
    <glyph glyph-name="I" unicode="I" horiz-adv-x="526" 
d="M115 0v1464h297v-1464h-297z" />
    <glyph glyph-name="J" unicode="J" horiz-adv-x="1056" 
d="M508 -27q-225 0 -349 108t-124 318v146h266v-127q0 -205 188 -205q176 0 177 201v1050h297v-1052q0 -197 -115 -318t-340 -121z" />
    <glyph glyph-name="K" unicode="K" horiz-adv-x="1380" 
d="M113 0v1464h297v-583l563 583h368l-573 -585l610 -879h-348l-471 684l-149 -152v-532h-297z" />
    <glyph glyph-name="L" unicode="L" horiz-adv-x="1144" 
d="M113 0v1464h297v-1216h688v-248h-985z" />
    <glyph glyph-name="M" unicode="M" horiz-adv-x="1667" 
d="M113 0v1464h417l207 -735q46 -164 82 -338l10 -57h5q39 211 90 395l206 735h424v-1464h-276v840l12 303h-4q-33 -172 -63 -279l-252 -864h-285l-246 864l-63 279h-4q12 -184 12 -303v-840h-272z" />
    <glyph glyph-name="N" unicode="N" horiz-adv-x="1404" 
d="M113 0v1464h301l487 -817q57 -100 86 -172l17 -33h4q-8 152 -9 254v768h293v-1464h-286l-500 809q-67 117 -88 170l-17 33h-4q8 -154 9 -256v-756h-293z" />
    <glyph glyph-name="O" unicode="O" horiz-adv-x="1509" 
d="M758 211q195 0 297 144q102 143 102 373t-102 376t-297 145q-195 0 -300 -145q-106 -146 -106 -374t106 -374t300 -145zM756 -33q-319 0 -513 214t-194 548t194 549t513 215t512 -215q192 -215 192 -549t-192 -548t-512 -214z" />
    <glyph glyph-name="P" unicode="P" horiz-adv-x="1304" 
d="M420 1206v-434h307q115 0 176 58t61 160t-60 160q-62 56 -173 56h-311zM113 0v1464h643q250 0 382 -136t132 -340t-131 -331t-359 -127h-360v-530h-307z" />
    <glyph glyph-name="Q" unicode="Q" horiz-adv-x="1501" 
d="M754 211q100 0 172 39l-129 119l151 163l133 -122q68 134 68 342t-101 352t-295 145q-194 0 -297 -145q-104 -144 -104 -374t104 -374t298 -145zM752 1493q320 0 510 -215q190 -216 190 -534t-160 -525l156 -139l-152 -166l-170 154q-166 -100 -374 -101q-319 0 -511 214
q-191 214 -192 548t191 549t512 215z" />
    <glyph glyph-name="R" unicode="R" horiz-adv-x="1333" 
d="M410 1225v-408h315q117 0 179 55q62 54 62 146t-58 149q-60 57 -175 58h-323zM113 0v1464h671q211 0 341 -112t130 -295q0 -281 -268 -355v-6q104 -31 157 -97q52 -67 66 -198q4 -49 10 -115t11 -139q9 -119 43 -133v-14h-285q-29 15 -40 164t-13 174q-18 250 -287 250
h-239v-588h-297z" />
    <glyph glyph-name="S" unicode="S" horiz-adv-x="1314" 
d="M658 -33q-276 0 -439 126q-164 126 -172 360h291q14 -131 93 -189t221 -57q300 0 300 188q0 78 -47 112q-29 22 -49 35t-95 33t-170 43t-155 39q-60 15 -134 51q-73 36 -115 78t-70 110q-29 69 -29 157q0 211 155 325t405 113q250 0 401 -119q150 -119 165 -338h-284
q-12 106 -89 164t-196 57q-119 0 -191 -47t-71 -128q0 -82 71 -120q70 -38 212 -69t210 -50t148 -55q78 -36 122 -80q44 -42 74 -113t29 -163q1 -217 -157 -340t-434 -123z" />
    <glyph glyph-name="T" unicode="T" horiz-adv-x="1251" 
d="M37 1214v250h1177v-250h-440v-1214h-297v1214h-440z" />
    <glyph glyph-name="U" unicode="U" horiz-adv-x="1345" 
d="M676 -25q-281 0 -428 128t-148 368v993h297v-993q0 -258 275 -258q137 0 207 72t69 190v989h297v-993q0 -238 -144 -367t-425 -129z" />
    <glyph glyph-name="V" unicode="V" horiz-adv-x="1265" 
d="M498 0l-494 1464h311l258 -848l64 -233h4q35 139 64 233l256 848h301l-494 -1464h-270z" />
    <glyph glyph-name="W" unicode="W" horiz-adv-x="1875" 
d="M436 0l-426 1464h303l191 -727l63 -319h4q37 182 68 311l160 735h286l228 -1046h4q43 195 72 321l184 725h293l-418 -1464h-277l-178 784l-51 260h-4q-23 -154 -47 -260l-180 -784h-275z" />
    <glyph glyph-name="X" unicode="X" horiz-adv-x="1325" 
d="M16 0l473 766l-438 698h334l270 -463h4l271 463h323l-430 -696l486 -768h-346l-299 535h-5l-303 -535h-340z" />
    <glyph glyph-name="Y" unicode="Y" horiz-adv-x="1288" 
d="M496 0v565l-488 899h324l221 -434l96 -209h4q55 121 99 209l217 434h311l-487 -899v-565h-297z" />
    <glyph glyph-name="Z" unicode="Z" horiz-adv-x="1282" 
d="M55 0v223l799 987v7h-748v247h1100v-247l-772 -959v-6h787v-252h-1166z" />
    <glyph glyph-name="bracketleft" unicode="[" horiz-adv-x="782" 
d="M131 -268v1812h586v-217h-318v-1378h318v-217h-586z" />
    <glyph glyph-name="backslash" unicode="\" horiz-adv-x="847" 
d="M600 0l-573 1464h221l573 -1464h-221z" />
    <glyph glyph-name="bracketright" unicode="]" horiz-adv-x="782" 
d="M66 -268v217h317v1378h-317v217h585v-1812h-585z" />
    <glyph glyph-name="asciicircum" unicode="^" horiz-adv-x="915" 
d="M16 877l324 587h235l324 -587h-254l-184 346h-4l-191 -346h-250z" />
    <glyph glyph-name="underscore" unicode="_" horiz-adv-x="866" 
d="M-6 -344v174h876v-174h-876z" />
    <glyph glyph-name="grave" unicode="`" 
d="M430 1182l-221 288h326l112 -288h-217z" />
    <glyph glyph-name="a" unicode="a" horiz-adv-x="1069" 
d="M473 170q115 0 181 59t67 142v157q-45 -28 -179 -58t-184 -64q-49 -34 -49 -103q0 -133 164 -133zM385 -25q-145 0 -246 84q-100 84 -100 241q0 158 111 232q110 74 284 98t228 47q53 22 53 78t-45 90t-131 34q-190 0 -203 -148h-248q6 150 121 248t332 98
q442 0 442 -387v-534q0 -119 37 -146v-10h-268q-20 27 -33 117h-4q-45 -68 -115 -105t-215 -37z" />
    <glyph glyph-name="b" unicode="b" horiz-adv-x="1159" 
d="M362 518q0 -145 68 -230t178 -85q112 0 171 84q59 85 59 237t-60 241t-174 89q-242 0 -242 -336zM1120 520q0 -250 -122 -400t-329 -151q-206 0 -307 162h-4v-131h-268v1464h279v-540h6q100 156 296 156q197 0 323 -156q126 -154 126 -404z" />
    <glyph glyph-name="c" unicode="c" horiz-adv-x="1081" 
d="M578 -31q-244 0 -392 158q-147 157 -147 397t144 398t380 157q199 0 324 -104t153 -281h-272q-14 72 -66 117t-127 45q-123 0 -189 -88t-64 -243q0 -155 63 -243t186 -89q182 0 211 178h269q-14 -174 -141 -288t-332 -114z" />
    <glyph glyph-name="d" unicode="d" horiz-adv-x="1159" 
d="M322 522q0 -152 58 -236t174 -83q114 0 178 84t65 231q0 336 -244 336q-113 0 -172 -90t-59 -242zM489 -31q-205 0 -327 151q-122 150 -123 400q0 250 126 405q127 155 323 155t296 -156h7v540h278v-1464h-268v137h-4q-103 -168 -308 -168z" />
    <glyph glyph-name="e" unicode="e" horiz-adv-x="1114" 
d="M561 864q-203 0 -244 -225h467q-6 100 -67 163q-62 62 -156 62zM584 -31q-254 0 -400 157q-145 156 -145 396t145 399t383 159t373 -173q135 -172 135 -461h-762q16 -126 84 -194t185 -68q154 0 202 129h275q-31 -147 -155 -245t-320 -99z" />
    <glyph glyph-name="f" unicode="f" horiz-adv-x="675" 
d="M29 858v193h143v94q0 184 127 262t340 55v-215q-104 3 -146 -19t-42 -100v-77h188v-193h-188v-858h-279v858h-143z" />
    <glyph glyph-name="g" unicode="g" horiz-adv-x="1146" 
d="M311 568q1 -132 65 -206t181 -75q117 0 178 80q61 79 61 203t-64 205q-65 81 -178 81t-178 -78t-65 -210zM1057 80q0 -206 -126 -322q-127 -116 -359 -116t-360 86t-151 241h277q41 -117 211 -116q233 0 233 219v114h-6q-108 -123 -284 -123q-176 -1 -314 137t-139 368
q0 230 127 370q126 140 322 141q196 0 296 -139h4v111h269v-971z" />
    <glyph glyph-name="h" unicode="h" horiz-adv-x="1124" 
d="M369 1464v-551h6q59 86 130 126t175 40q162 1 262 -109t100 -284v-686h-278v645q0 86 -48 139q-48 54 -137 54t-149 -68t-61 -174v-596h-279v1464h279z" />
    <glyph glyph-name="i" unicode="i" horiz-adv-x="458" 
d="M90 1214v250h279v-250h-279zM90 0v1051h279v-1051h-279z" />
    <glyph glyph-name="j" unicode="j" horiz-adv-x="458" 
d="M90 1214v250h279v-250h-279zM74 -346q-94 0 -158 12v199q94 2 134 21t40 87v1078h279v-1092q1 -161 -71 -233t-224 -72z" />
    <glyph glyph-name="k" unicode="k" horiz-adv-x="1118" 
d="M367 0h-277v1464h277v-811l372 398h334l-387 -400l434 -651h-338l-295 479l-120 -125v-354z" />
    <glyph glyph-name="l" unicode="l" horiz-adv-x="466" 
d="M94 0v1464h279v-1464h-279z" />
    <glyph glyph-name="m" unicode="m" horiz-adv-x="1708" 
d="M90 0v1051h268v-142h7q100 170 305 170q98 0 175 -50t116 -134h4q115 184 315 184q164 0 255 -99t91 -273v-707h-278v659q0 180 -162 181q-88 0 -138 -62t-51 -168v-610h-278v659q0 180 -162 181q-84 0 -136 -62t-52 -168v-610h-279z" />
    <glyph glyph-name="n" unicode="n" horiz-adv-x="1124" 
d="M362 1051v-144h7q109 172 311 172q162 1 262 -109t100 -284v-686h-278v645q0 86 -48 139q-48 54 -137 54t-149 -68t-61 -174v-596h-279v1051h272z" />
    <glyph glyph-name="o" unicode="o" horiz-adv-x="1175" 
d="M587 182q127 0 197 93t70 249t-71 250t-197 94t-195 -93t-69 -250t70 -250t195 -93zM588 -31q-242 0 -396 159q-154 158 -153 396q0 238 154 397q153 159 395 159t396 -160q154 -158 153 -396q1 -238 -153 -396t-396 -159z" />
    <glyph glyph-name="p" unicode="p" horiz-adv-x="1169" 
d="M608 201q114 0 177 84q63 85 63 237t-60 242t-183 90q-124 0 -183 -93q-60 -93 -60 -241t66 -234q66 -85 180 -85zM90 -344v1395h268v-131h7q117 160 317 160t324 -154t124 -405t-124 -401t-330 -151q-205 0 -303 150h-4v-463h-279z" />
    <glyph glyph-name="q" unicode="q" horiz-adv-x="1169" 
d="M569 207q111 0 174 83q63 84 63 232t-57 242q-58 94 -178 94q-233 0 -233 -342q0 -150 60 -230t171 -79zM801 -344v463h-4q-92 -150 -287 -150t-325 153q-130 154 -130 402t124 402t325 154t301 -160h6v131h268v-1395h-278z" />
    <glyph glyph-name="r" unicode="r" horiz-adv-x="718" 
d="M358 1051v-168h7q49 92 108 136t150 44q43 0 65 -8v-244h-6q-141 15 -227 -61t-86 -238v-512h-279v1051h268z" />
    <glyph glyph-name="s" unicode="s" horiz-adv-x="993" 
d="M503 -31q-212 -1 -339 99t-139 272h258q27 -174 229 -174q92 0 142 33t50 81t-24 67t-38 27q-27 17 -157 41q-130 23 -191 42q-161 52 -209 146q-30 58 -30 140q0 164 120 250q119 86 315 86t312 -93t132 -255h-252q-16 154 -203 154q-84 0 -132 -31t-48 -79
q1 -48 25 -63q43 -27 98 -39t141 -30q86 -17 130 -29q127 -35 187 -95q80 -80 78 -212q0 -156 -122 -247t-333 -91z" />
    <glyph glyph-name="t" unicode="t" horiz-adv-x="679" 
d="M29 866v185h145v327h272v-327h181v-185h-181v-557q0 -104 105 -104l82 2v-205q-63 -4 -179 -4t-198 58t-82 194v616h-145z" />
    <glyph glyph-name="u" unicode="u" horiz-adv-x="1112" 
d="M1022 0h-268v123h-6q-57 -78 -126 -115t-176 -37q-172 1 -268 103t-96 276v701h276v-654q0 -190 174 -190q96 0 154 65q57 66 57 172v607h279v-1051z" />
    <glyph glyph-name="v" unicode="v" horiz-adv-x="1005" 
d="M369 0l-365 1051h283l168 -545l47 -168h4q14 68 45 168l172 545h278l-366 -1051h-266z" />
    <glyph glyph-name="w" unicode="w" horiz-adv-x="1525" 
d="M315 0l-307 1051h277l127 -488l47 -196h4q23 113 45 198l131 486h238l137 -486l49 -198h4q25 111 47 196l133 488h271l-314 -1051h-254l-186 698h-4q-27 -98 -49 -182l-144 -516h-252z" />
    <glyph glyph-name="x" unicode="x" horiz-adv-x="1095" 
d="M16 0l383 557l-342 494h318l186 -301h4l176 301h289l-325 -492l374 -559h-331l-195 348h-4l-227 -348h-306z" />
    <glyph glyph-name="y" unicode="y" horiz-adv-x="1017" 
d="M113 -344v219h98q156 0 156 143q0 70 -80 285l-283 748h293l156 -473l67 -230h4q29 133 62 230l147 473h281l-367 -1078q-61 -181 -138 -249t-233 -68h-163z" />
    <glyph glyph-name="z" unicode="z" horiz-adv-x="993" 
d="M55 0v213l541 612v6h-479v220h803v-224l-529 -598v-6h555v-223h-891z" />
    <glyph glyph-name="braceleft" unicode="{" horiz-adv-x="782" 
d="M651 -268q-223 0 -326 83t-104 296v270q0 80 -38 118t-132 40v204q94 4 132 42t38 116v266q-1 213 103 295t327 82h66v-217h-55q-92 0 -132 -33t-41 -127v-311q-1 -92 -29 -139t-93 -72v-6q67 -25 95 -73t27 -138v-317q0 -94 40 -128t133 -34h55v-217h-66z" />
    <glyph glyph-name="bar" unicode="|" horiz-adv-x="430" 
d="M131 -268v1812h170v-1812h-170z" />
    <glyph glyph-name="braceright" unicode="}" horiz-adv-x="782" 
d="M66 -268v217h55q92 0 132 33t40 127v317q0 92 29 139t94 72v6q-66 25 -94 73t-29 138v311q0 94 -40 128t-132 34h-55v217h65q223 0 327 -83t103 -296v-264q0 -80 38 -118t132 -40v-204q-94 -4 -132 -42t-38 -116v-272q0 -213 -103 -295t-327 -82h-65z" />
    <glyph glyph-name="asciitilde" unicode="~" horiz-adv-x="872" 
d="M584 756q33 0 49 16t18 57h185q-4 -311 -224 -311q-66 0 -165 37t-125 37q-63 0 -72 -80h-184q2 160 65 240t168 79q63 1 157 -37t128 -38z" />
    <glyph glyph-name="uni00A0" unicode="&#xa0;" horiz-adv-x="344" 
 />
    <glyph glyph-name="exclamdown" unicode="&#xa1;" horiz-adv-x="520" 
d="M111 907v297h299v-297h-299zM115 -260v323l78 713h135l78 -713v-323h-291z" />
    <glyph glyph-name="cent" unicode="&#xa2;" horiz-adv-x="1075" 
d="M322 524q0 -281 186 -325v649q-90 -23 -138 -108t-48 -216zM508 -205v178q-215 23 -342 177t-127 376t128 376q128 153 341 173v139h123v-139q170 -19 276 -121t133 -260h-272q-12 56 -48 98t-89 56v-649q127 29 151 172h269q-14 -162 -126 -273t-294 -127v-176h-123z
" />
    <glyph glyph-name="sterling" unicode="&#xa3;" horiz-adv-x="1185" 
d="M63 594v178h93q-63 123 -64 236q0 186 138 305t376 119t382 -124q142 -124 149 -378h-279q-2 141 -67 208q-67 66 -175 66t-166 -55t-58 -141t71 -236h301v-178h-240q4 -37 4 -55q0 -160 -161 -281l4 -4q107 37 171 37t151 -31t138 -31q100 0 201 88l127 -219
q-145 -127 -325 -127q-104 0 -228 48q-124 49 -202 49q-80 0 -205 -84l-144 213q197 131 197 299q0 45 -14 98h-175z" />
    <glyph glyph-name="currency" unicode="&#xa4;" horiz-adv-x="1048" 
d="M523 487q85 -1 131 61t46 166t-46 168q-46 62 -131 62t-133 -62t-48 -166t48 -167q48 -62 133 -62zM520 299q-104 0 -184 39l-135 -137l-172 168l131 131q-51 96 -51 214t51 214l-131 135l172 168l133 -139q86 41 189 41t190 -41l135 139l172 -168l-135 -135
q53 -94 53 -212t-51 -214l133 -133l-172 -168l-135 137q-89 -39 -193 -39z" />
    <glyph glyph-name="yen" unicode="&#xa5;" horiz-adv-x="1265" 
d="M139 539v120h301l-432 746h320l221 -414l84 -174h4q45 98 84 174l219 414h311l-434 -746h307v-120h-356v-129h356v-121h-356v-289h-272v289h-357v121h357v129h-357z" />
    <glyph glyph-name="brokenbar" unicode="&#xa6;" horiz-adv-x="430" 
d="M131 768v776h170v-776h-170zM131 -268v803h170v-803h-170z" />
    <glyph glyph-name="section" unicode="&#xa7;" horiz-adv-x="1210" 
d="M891 497q0 41 -39 77q-72 65 -234 120q-135 53 -182 74q-115 -29 -114 -123q0 -51 48 -84t136 -73l154 -70q66 -31 104 -47q59 14 93 49t34 77zM1073 3q1 -171 -123 -262t-342 -91t-348 121q-131 121 -135 303h270q5 -96 63 -150t143 -55q85 0 131 38t46 82t-12 60
l-20 25t-28 21q-18 11 -32 19q-15 9 -87 38q-72 28 -132 53q-221 90 -320 178q-98 88 -98 229q1 92 63 164t183 107q-123 88 -123 234q0 147 119 231t313 84t310 -98q114 -98 126 -263h-252q-20 152 -180 152t-159 -105q0 -47 47 -77q48 -30 116 -56t80 -32t71 -29
q246 -95 312 -167q86 -94 84 -210q0 -211 -229 -281q143 -92 143 -263z" />
    <glyph glyph-name="dieresis" unicode="&#xa8;" 
d="M152 1190v233h262v-233h-262zM608 1190v233h262v-233h-262z" />
    <glyph glyph-name="copyright" unicode="&#xa9;" horiz-adv-x="1669" 
d="M838 272q-190 0 -313 130q-122 130 -122 332t121 333q122 131 304 131t284 -90t119 -234h-221q-10 58 -54 96t-114 38q-100 0 -154 -77t-53 -197q0 -120 57 -196q56 -76 142 -77q86 0 131 42t53 107h221q-11 -142 -111 -240t-290 -98zM201 727q-1 -285 181 -473t453 -188
t452 188t181 473t-181 473t-452 188t-453 -188t-181 -473zM835 -35q-318 0 -536 218q-217 218 -217 545t218 545t536 218t534 -218q217 -218 217 -546t-217 -545t-535 -217z" />
    <glyph glyph-name="ordfeminine" unicode="&#xaa;" horiz-adv-x="1017" 
d="M451 639q96 0 153 50t58 120v139q-44 -25 -152 -49t-152 -55t-43 -88q1 -117 136 -117zM389 463q-143 0 -235 76t-92 213q0 136 96 202q98 66 252 86t199 40q46 20 46 67q-1 104 -153 104t-164 -125h-234q6 130 110 218t296 88q399 0 399 -340v-471q0 -104 31 -125v-13
h-250q-18 25 -31 103h-4q-84 -123 -266 -123z" />
    <glyph glyph-name="guillemotleft" unicode="&#xab;" horiz-adv-x="915" 
d="M406 121l-295 272v271l295 272v-262l-164 -146v-4l164 -145v-258zM795 121l-295 272v271l295 272v-262l-164 -146v-4l164 -145v-258z" />
    <glyph glyph-name="logicalnot" unicode="&#xac;" horiz-adv-x="1050" 
d="M72 651v205h866v-559h-213v354h-653z" />
    <glyph glyph-name="uni00AD" unicode="&#xad;" horiz-adv-x="694" 
d="M70 387v240h555v-240h-555z" />
    <glyph glyph-name="registered" unicode="&#xae;" horiz-adv-x="1085" 
d="M475 1149v-119h88q74 0 74 60t-74 59h-88zM334 737v525h254q80 0 134 -41t54 -113q0 -94 -90 -125v-4q61 -18 78 -94q4 -25 7 -77t17 -60v-11h-139q-8 4 -22 121q-6 70 -82 70h-70v-191h-141zM544 575q174 0 286 119t112 300t-113 300t-285 119t-287 -119
q-114 -119 -114 -299t114 -300t287 -120zM543 500q-207 0 -348 141t-142 354t141 355t349 141q207 0 348 -141q141 -140 141 -354t-141 -355t-348 -141z" />
    <glyph glyph-name="macron" unicode="&#xaf;" 
d="M231 1212v199h582v-199h-582z" />
    <glyph glyph-name="degree" unicode="&#xb0;" horiz-adv-x="729" 
d="M365 985q67 0 109 45t42 113q0 69 -42 115t-110 46t-108 -46q-41 -48 -41 -116t41 -112q41 -45 109 -45zM365 856q-123 0 -211 83t-88 204t88 206t211 85t211 -85t88 -206t-88 -204t-211 -83z" />
    <glyph glyph-name="plusminus" unicode="&#xb1;" horiz-adv-x="1165" 
d="M72 0v205h1022v-205h-1022zM72 651v205h403v334h213v-334h406v-205h-406v-334h-213v334h-403z" />
    <glyph glyph-name="twosuperior" unicode="&#xb2;" horiz-adv-x="761" 
d="M489 1212q0 100 -100 101q-57 0 -91 -39t-34 -111h-198q0 152 88 235t235 83t229 -75t82 -172q0 -96 -38 -150t-90 -92t-131 -86q-79 -49 -107 -87h371v-168h-652q2 197 197 332q162 105 201 139q38 35 38 90z" />
    <glyph glyph-name="threesuperior" unicode="&#xb3;" horiz-adv-x="765" 
d="M372 633q-158 0 -245 79q-86 79 -88 216h211q4 -139 131 -140q57 0 87 29t30 78q0 104 -129 104h-50v148h43q117 0 117 90t-96 90q-106 0 -115 -117h-205q5 121 91 196t229 75q143 1 227 -61t84 -171t-125 -157v-5q152 -49 152 -200q0 -125 -95 -190q-96 -64 -254 -64z
" />
    <glyph glyph-name="acute" unicode="&#xb4;" 
d="M813 1470l-221 -288h-217l112 288h326z" />
    <glyph glyph-name="mu" unicode="&#xb5;" horiz-adv-x="1120" 
d="M90 -344v1395h277v-654q0 -190 174 -190q96 -1 153 65t58 172v607h278v-1051h-268v123h-6q-106 -152 -264 -152q-72 0 -119 33h-6v-348h-277z" />
    <glyph glyph-name="paragraph" unicode="&#xb6;" horiz-adv-x="1183" 
d="M561 698h-108q-185 0 -291 104t-107 277q1 173 111 279t309 106h596v-1464h-184v1298h-142v-1298h-184v698z" />
    <glyph glyph-name="periodcentered" unicode="&#xb7;" horiz-adv-x="446" 
d="M74 498v297h299v-297h-299z" />
    <glyph glyph-name="cedilla" unicode="&#xb8;" 
d="M705 -235q1 -75 -69 -117t-188 -41q-118 0 -208 59l36 66q68 -31 130 -31q130 0 131 63q0 28 -25 44q-24 16 -60 16t-75 -14l-33 45l145 145h121l-123 -102v-4q88 12 153 -21t65 -108z" />
    <glyph glyph-name="onesuperior" unicode="&#xb9;" horiz-adv-x="546" 
d="M231 651v510h-186v146q90 4 151 45q60 41 74 118h174v-819h-213z" />
    <glyph glyph-name="ordmasculine" unicode="&#xba;" horiz-adv-x="1071" 
d="M536 649q108 0 164 80q57 80 58 213q0 133 -58 214t-164 81q-108 0 -165 -81t-57 -214t56 -213q58 -80 166 -80zM536 455q-216 0 -352 139q-135 139 -135 349t135 349q136 140 352 140t351 -140t135 -349q0 -210 -135 -349t-351 -139z" />
    <glyph glyph-name="guillemotright" unicode="&#xbb;" horiz-adv-x="915" 
d="M510 936l295 -272v-271l-295 -272v262l164 145v4l-164 146v258zM121 936l295 -272v-271l-295 -272v262l164 145v4l-164 146v258z" />
    <glyph glyph-name="onequarter" unicode="&#xbc;" horiz-adv-x="1681" 
d="M1073 328h225v272h-2l-223 -270v-2zM1298 0v172h-387v186l385 465h211v-495h121v-156h-121v-172h-209zM215 0l1016 1464h184l-1018 -1464h-182zM238 651v510h-187v146q90 4 151 45q60 41 74 118h175v-819h-213z" />
    <glyph glyph-name="onehalf" unicode="&#xbd;" horiz-adv-x="1693" 
d="M1415 561q0 100 -100 101q-57 0 -91 -39t-34 -111h-199q0 152 88 234q87 82 235 83q148 -1 230 -75t82 -185q0 -143 -147 -250q-29 -20 -108 -68t-107 -83h366v-168h-651q2 197 197 332q30 20 76 50t90 59q73 47 73 120zM180 0l1016 1464h184l-1018 -1464h-182zM238 651
v510h-187v146q90 4 151 45q60 41 74 118h175v-819h-213z" />
    <glyph glyph-name="threequarters" unicode="&#xbe;" horiz-adv-x="1769" 
d="M1161 328h225v272h-2l-223 -270v-2zM1386 0v172h-387v186l385 465h211v-495h121v-156h-121v-172h-209zM346 0l1016 1464h184l-1018 -1464h-182zM378 633q-158 0 -245 79q-86 79 -88 216h211q4 -139 131 -140q57 0 87 29t30 78q0 104 -129 104h-49v148h43q117 0 116 92
q0 88 -96 88q-106 0 -115 -117h-204q4 121 90 196t229 75q143 1 227 -61t84 -171t-125 -157v-5q152 -49 152 -200q0 -125 -95 -190q-96 -64 -254 -64z" />
    <glyph glyph-name="questiondown" unicode="&#xbf;" horiz-adv-x="1075" 
d="M416 907v297h299v-297h-299zM536 -287q-236 0 -369 121q-134 120 -134 306t125 296q66 61 129 105q105 74 120 101q26 48 29 76q4 28 4 58h250q0 -172 -62 -253q-36 -47 -63 -69t-89 -67t-86 -64t-52 -67t-27 -122q1 -76 61 -130t166 -55q106 1 175 69q70 68 71 187h265
q-5 -213 -141 -353t-372 -139z" />
    <glyph glyph-name="Agrave" unicode="&#xc0;" horiz-adv-x="1349" 
d="M571 1542l-194 256h325l86 -256h-217zM604 961l-131 -422h387l-131 422l-59 225h-4q-37 -147 -62 -225zM6 0l510 1464h307l516 -1464h-309l-98 311h-529l-96 -311h-301z" />
    <glyph glyph-name="Aacute" unicode="&#xc1;" horiz-adv-x="1349" 
d="M971 1798l-195 -256h-217l86 256h326zM604 961l-131 -422h387l-131 422l-59 225h-4q-37 -147 -62 -225zM6 0l510 1464h307l516 -1464h-309l-98 311h-529l-96 -311h-301z" />
    <glyph glyph-name="Acircumflex" unicode="&#xc2;" horiz-adv-x="1349" 
d="M326 1542l192 234h299l197 -234h-242l-98 117h-4l-101 -117h-243zM604 961l-131 -422h387l-131 422l-59 225h-4q-37 -147 -62 -225zM6 0l510 1464h307l516 -1464h-309l-98 311h-529l-96 -311h-301z" />
    <glyph glyph-name="Atilde" unicode="&#xc3;" horiz-adv-x="1349" 
d="M788 1546q-55 0 -128 34t-95 34q-45 0 -55 -64h-148q0 114 52 178t120 64t141 -36t95 -36q45 0 59 64h148q-1 -106 -51 -172t-138 -66zM604 961l-131 -422h387l-131 422l-59 225h-4q-37 -147 -62 -225zM6 0l510 1464h307l516 -1464h-309l-98 311h-529l-96 -311h-301z" />
    <glyph glyph-name="Adieresis" unicode="&#xc4;" horiz-adv-x="1349" 
d="M332 1542v234h262v-234h-262zM748 1542v234h262v-234h-262zM604 961l-131 -422h387l-131 422l-59 225h-4q-37 -147 -62 -225zM6 0l510 1464h307l516 -1464h-309l-98 311h-529l-96 -311h-301z" />
    <glyph glyph-name="Aring" unicode="&#xc5;" horiz-adv-x="1349" 
d="M670 1616q40 0 66 28t26 68t-27 69q-27 27 -65 27t-66 -28q-26 -28 -26 -68t26 -68t66 -28zM670 1520q-82 0 -141 56q-58 56 -58 136t58 136q59 56 141 56t140 -56t58 -136t-58 -136t-140 -56zM604 961l-131 -422h387l-131 422l-59 225h-4q-37 -147 -62 -225zM6 0
l510 1464h307l516 -1464h-309l-98 311h-529l-96 -311h-301z" />
    <glyph glyph-name="AE" unicode="&#xc6;" horiz-adv-x="1990" 
d="M872 530v678h-157l-228 -678h385zM1903 1464v-256h-725v-329h626v-240h-626v-371h747v-268h-1053v311h-458l-105 -311h-301l508 1464h1387z" />
    <glyph glyph-name="Ccedilla" unicode="&#xc7;" horiz-adv-x="1400" 
d="M926 -235q0 -75 -70 -117t-187 -41q-118 0 -208 59l37 66q68 -31 130 -31q130 0 130 63q0 28 -25 44t-61 16t-74 -14l-33 45l117 118q-281 25 -457 234t-176 531t193 538q193 217 510 217q262 0 420 -138t184 -356h-295q-19 113 -101 179t-208 65q-195 0 -297 -143
q-103 -144 -103 -372t110 -372t292 -143q129 0 215 71t100 187h291q-12 -207 -163 -347t-402 -153l-86 -73v-4q89 12 153 -21t64 -108z" />
    <glyph glyph-name="Egrave" unicode="&#xc8;" horiz-adv-x="1267" 
d="M567 1542l-194 256h325l86 -256h-217zM113 0v1464h1077v-250h-780v-327h684v-244h-684v-395h786v-248h-1083z" />
    <glyph glyph-name="Eacute" unicode="&#xc9;" horiz-adv-x="1267" 
d="M967 1798l-195 -256h-217l86 256h326zM113 0v1464h1077v-250h-780v-327h684v-244h-684v-395h786v-248h-1083z" />
    <glyph glyph-name="Ecircumflex" unicode="&#xca;" horiz-adv-x="1267" 
d="M322 1542l192 234h299l197 -234h-242l-98 117h-4l-101 -117h-243zM113 0v1464h1077v-250h-780v-327h684v-244h-684v-395h786v-248h-1083z" />
    <glyph glyph-name="Edieresis" unicode="&#xcb;" horiz-adv-x="1267" 
d="M328 1542v234h262v-234h-262zM743 1542v234h263v-234h-263zM113 0v1464h1077v-250h-780v-327h684v-244h-684v-395h786v-248h-1083z" />
    <glyph glyph-name="Igrave" unicode="&#xcc;" horiz-adv-x="526" 
d="M164 1542l-195 256h326l86 -256h-217zM115 0v1464h297v-1464h-297z" />
    <glyph glyph-name="Iacute" unicode="&#xcd;" horiz-adv-x="526" 
d="M563 1798l-194 -256h-217l86 256h325zM115 0v1464h297v-1464h-297z" />
    <glyph glyph-name="Icircumflex" unicode="&#xce;" horiz-adv-x="526" 
d="M-82 1542l193 234h299l196 -234h-241l-99 117h-4l-100 -117h-244zM115 0v1464h297v-1464h-297z" />
    <glyph glyph-name="Idieresis" unicode="&#xcf;" horiz-adv-x="526" 
d="M-76 1542v234h262v-234h-262zM340 1542v234h262v-234h-262zM115 0v1464h297v-1464h-297z" />
    <glyph glyph-name="Eth" unicode="&#xd0;" horiz-adv-x="1396" 
d="M430 256h229q203 0 295 118t93 343t-97 359t-282 134h-238v-348h338v-239h-338v-367zM2 623v239h131v602h572q291 0 467 -210t176 -537q0 -379 -234 -576q-170 -141 -434 -141h-547v623h-131z" />
    <glyph glyph-name="Ntilde" unicode="&#xd1;" horiz-adv-x="1404" 
d="M836 1546q-55 0 -128 34t-96 34q-45 0 -55 -64h-147q0 114 52 178t120 64t140 -36q73 -36 95 -36q45 0 60 64h147q0 -106 -50 -172t-138 -66zM113 0v1464h301l487 -817q57 -100 86 -172l17 -33h4q-8 152 -9 254v768h293v-1464h-286l-500 809q-67 117 -88 170l-17 33h-4
q8 -154 9 -256v-756h-293z" />
    <glyph glyph-name="Ograve" unicode="&#xd2;" horiz-adv-x="1509" 
d="M655 1542l-194 256h325l86 -256h-217zM758 211q195 0 297 144q102 143 102 373t-102 376t-297 145q-195 0 -300 -145q-106 -146 -106 -374t106 -374t300 -145zM756 -33q-319 0 -513 214t-194 548t194 549t513 215t512 -215q192 -215 192 -549t-192 -548t-512 -214z" />
    <glyph glyph-name="Oacute" unicode="&#xd3;" horiz-adv-x="1509" 
d="M1055 1798l-195 -256h-217l86 256h326zM758 211q195 0 297 144q102 143 102 373t-102 376t-297 145q-195 0 -300 -145q-106 -146 -106 -374t106 -374t300 -145zM756 -33q-319 0 -513 214t-194 548t194 549t513 215t512 -215q192 -215 192 -549t-192 -548t-512 -214z" />
    <glyph glyph-name="Ocircumflex" unicode="&#xd4;" horiz-adv-x="1509" 
d="M410 1542l192 234h299l197 -234h-242l-98 117h-4l-101 -117h-243zM758 211q195 0 297 144q102 143 102 373t-102 376t-297 145q-195 0 -300 -145q-106 -146 -106 -374t106 -374t300 -145zM756 -33q-319 0 -513 214t-194 548t194 549t513 215t512 -215q192 -215 192 -549
t-192 -548t-512 -214z" />
    <glyph glyph-name="Otilde" unicode="&#xd5;" horiz-adv-x="1509" 
d="M872 1546q-55 0 -128 34t-95 34q-45 0 -55 -64h-148q0 114 52 178t120 64t141 -36t95 -36q45 0 59 64h148q-1 -106 -51 -172t-138 -66zM758 211q195 0 297 144q102 143 102 373t-102 376t-297 145q-195 0 -300 -145q-106 -146 -106 -374t106 -374t300 -145zM756 -33
q-319 0 -513 214t-194 548t194 549t513 215t512 -215q192 -215 192 -549t-192 -548t-512 -214z" />
    <glyph glyph-name="Odieresis" unicode="&#xd6;" horiz-adv-x="1509" 
d="M416 1542v234h262v-234h-262zM831 1542v234h263v-234h-263zM758 211q195 0 297 144q102 143 102 373t-102 376t-297 145q-195 0 -300 -145q-106 -146 -106 -374t106 -374t300 -145zM756 -33q-319 0 -513 214t-194 548t194 549t513 215t512 -215q192 -215 192 -549
t-192 -548t-512 -214z" />
    <glyph glyph-name="multiply" unicode="&#xd7;" horiz-adv-x="1163" 
d="M248 174l-144 135l340 350l-340 351l144 135l334 -344l333 344l144 -135l-340 -351l340 -350l-144 -135l-333 344z" />
    <glyph glyph-name="Oslash" unicode="&#xd8;" horiz-adv-x="1509" 
d="M772 211q180 0 283 144q102 144 102 374q0 162 -53 287l-617 -694q105 -111 285 -111zM352 729q0 -172 58 -295l622 699q-104 117 -286 117t-288 -146t-106 -375zM49 742q0 322 194 536q194 215 513 215q268 0 454 -160l136 152l100 -86l-146 -162q160 -207 160 -525
t-192 -531q-192 -214 -512 -214q-264 0 -449 152l-145 -162l-101 86l152 172q-164 205 -164 527z" />
    <glyph glyph-name="Ugrave" unicode="&#xd9;" horiz-adv-x="1345" 
d="M571 1542l-194 256h325l86 -256h-217zM676 -25q-281 0 -428 128t-148 368v993h297v-993q0 -258 275 -258q137 0 207 72t69 190v989h297v-993q0 -238 -144 -367t-425 -129z" />
    <glyph glyph-name="Uacute" unicode="&#xda;" horiz-adv-x="1345" 
d="M971 1798l-195 -256h-217l86 256h326zM676 -25q-281 0 -428 128t-148 368v993h297v-993q0 -258 275 -258q137 0 207 72t69 190v989h297v-993q0 -238 -144 -367t-425 -129z" />
    <glyph glyph-name="Ucircumflex" unicode="&#xdb;" horiz-adv-x="1345" 
d="M326 1542l192 234h299l197 -234h-242l-98 117h-4l-101 -117h-243zM676 -25q-281 0 -428 128t-148 368v993h297v-993q0 -258 275 -258q137 0 207 72t69 190v989h297v-993q0 -238 -144 -367t-425 -129z" />
    <glyph glyph-name="Udieresis" unicode="&#xdc;" horiz-adv-x="1345" 
d="M332 1542v234h262v-234h-262zM748 1542v234h262v-234h-262zM676 -25q-281 0 -428 128t-148 368v993h297v-993q0 -258 275 -258q137 0 207 72t69 190v989h297v-993q0 -238 -144 -367t-425 -129z" />
    <glyph glyph-name="Yacute" unicode="&#xdd;" horiz-adv-x="1288" 
d="M944 1798l-194 -256h-218l86 256h326zM496 0v565l-488 899h324l221 -434l96 -209h4q55 121 99 209l217 434h311l-487 -899v-565h-297z" />
    <glyph glyph-name="Thorn" unicode="&#xde;" horiz-adv-x="1296" 
d="M731 983h-311v-434h307q115 0 176 58q61 59 61 161t-60 158q-62 56 -173 57zM113 0v1464h307v-223h336q252 -2 383 -137t131 -339t-131 -331t-359 -127h-360v-307h-307z" />
    <glyph glyph-name="germandbls" unicode="&#xdf;" horiz-adv-x="1122" 
d="M610 -18q-74 0 -131 14v201h4q324 -39 324 282q0 283 -262 283h-64v170h54q98 0 154 46t56 130t-45 131t-135 47t-143 -55t-53 -162v-1069h-279v1073q0 193 129 307t340 113q211 0 331 -100q120 -101 120 -279t-189 -252v-6q129 -39 196 -142t66 -243q0 -237 -131 -363
t-342 -126z" />
    <glyph glyph-name="agrave" unicode="&#xe0;" horiz-adv-x="1069" 
d="M444 1182l-221 288h326l113 -288h-218zM473 170q115 0 181 59t67 142v157q-45 -28 -179 -58t-184 -64q-49 -34 -49 -103q0 -133 164 -133zM385 -25q-145 0 -246 84q-100 84 -100 241q0 158 111 232q110 74 284 98t228 47q53 22 53 78t-45 90t-131 34q-190 0 -203 -148
h-248q6 150 121 248t332 98q442 0 442 -387v-534q0 -119 37 -146v-10h-268q-20 27 -33 117h-4q-45 -68 -115 -105t-215 -37z" />
    <glyph glyph-name="aacute" unicode="&#xe1;" horiz-adv-x="1069" 
d="M870 1470l-221 -288h-217l113 288h325zM473 170q115 0 181 59t67 142v157q-45 -28 -179 -58t-184 -64q-49 -34 -49 -103q0 -133 164 -133zM385 -25q-145 0 -246 84q-100 84 -100 241q0 158 111 232q110 74 284 98t228 47q53 22 53 78t-45 90t-131 34q-190 0 -203 -148
h-248q6 150 121 248t332 98q442 0 442 -387v-534q0 -119 37 -146v-10h-268q-20 27 -33 117h-4q-45 -68 -115 -105t-215 -37z" />
    <glyph glyph-name="acircumflex" unicode="&#xe2;" horiz-adv-x="1069" 
d="M199 1190l192 258h299l197 -258h-242l-98 141h-4l-101 -141h-243zM473 170q115 0 181 59t67 142v157q-45 -28 -179 -58t-184 -64q-49 -34 -49 -103q0 -133 164 -133zM385 -25q-145 0 -246 84q-100 84 -100 241q0 158 111 232q110 74 284 98t228 47q53 22 53 78t-45 90
t-131 34q-190 0 -203 -148h-248q6 150 121 248t332 98q442 0 442 -387v-534q0 -119 37 -146v-10h-268q-20 27 -33 117h-4q-45 -68 -115 -105t-215 -37z" />
    <glyph glyph-name="atilde" unicode="&#xe3;" horiz-adv-x="1069" 
d="M662 1178q-55 0 -128 34t-96 33q-45 0 -55 -63h-147q0 115 52 178t120 63q68 1 140 -35q73 -36 95 -36q45 0 59 63h148q0 -105 -50 -171t-138 -66zM473 170q115 0 181 59t67 142v157q-45 -28 -179 -58t-184 -64q-49 -34 -49 -103q0 -133 164 -133zM385 -25
q-145 0 -246 84q-100 84 -100 241q0 158 111 232q110 74 284 98t228 47q53 22 53 78t-45 90t-131 34q-190 0 -203 -148h-248q6 150 121 248t332 98q442 0 442 -387v-534q0 -119 37 -146v-10h-268q-20 27 -33 117h-4q-45 -68 -115 -105t-215 -37z" />
    <glyph glyph-name="adieresis" unicode="&#xe4;" horiz-adv-x="1069" 
d="M184 1190v233h262v-233h-262zM641 1190v233h262v-233h-262zM473 170q115 0 181 59t67 142v157q-45 -28 -179 -58t-184 -64q-49 -34 -49 -103q0 -133 164 -133zM385 -25q-145 0 -246 84q-100 84 -100 241q0 158 111 232q110 74 284 98t228 47q53 22 53 78t-45 90t-131 34
q-190 0 -203 -148h-248q6 150 121 248t332 98q442 0 442 -387v-534q0 -119 37 -146v-10h-268q-20 27 -33 117h-4q-45 -68 -115 -105t-215 -37z" />
    <glyph glyph-name="aring" unicode="&#xe5;" horiz-adv-x="1069" 
d="M543 1245q39 0 65 28q26 29 27 69q0 40 -27 68q-28 28 -66 28t-65 -28t-27 -69t28 -69q26 -28 65 -27zM543 1149q-82 0 -141 56q-58 56 -58 136q0 81 58 137t140 56t141 -56q58 -56 58 -136t-58 -137q-58 -56 -140 -56zM473 170q115 0 181 59t67 142v157
q-45 -28 -179 -58t-184 -64q-49 -34 -49 -103q0 -133 164 -133zM385 -25q-145 0 -246 84q-100 84 -100 241q0 158 111 232q110 74 284 98t228 47q53 22 53 78t-45 90t-131 34q-190 0 -203 -148h-248q6 150 121 248t332 98q442 0 442 -387v-534q0 -119 37 -146v-10h-268
q-20 27 -33 117h-4q-45 -68 -115 -105t-215 -37z" />
    <glyph glyph-name="ae" unicode="&#xe6;" horiz-adv-x="1785" 
d="M473 170q115 0 181 59t67 142v157q-45 -28 -179 -58t-184 -64q-49 -34 -49 -103q0 -133 164 -133zM1233 864q-203 0 -244 -225h467q-6 100 -67 163q-62 62 -156 62zM1255 -31q-266 0 -411 178h-6q-90 -94 -180 -133t-250 -39t-265 84q-104 84 -104 241q0 158 111 232
q110 74 284 98t228 47q53 22 53 78t-45 90t-131 34q-190 0 -203 -148h-248q6 150 121 248t347 98t341 -121q135 123 332 123q248 0 383 -172t135 -461h-762q16 -126 84 -194t184 -68q154 0 203 129h275q-31 -147 -156 -245t-320 -99z" />
    <glyph glyph-name="ccedilla" unicode="&#xe7;" horiz-adv-x="1081" 
d="M756 -235q0 -75 -70 -117t-187 -41q-118 0 -208 59l37 66q68 -31 130 -31q130 0 130 63q0 28 -25 44t-61 16t-74 -14l-33 45l117 118q-217 20 -345 174q-128 153 -128 385t144 390t380 157q199 0 324 -104t153 -281h-272q-14 72 -66 117t-127 45q-123 0 -189 -88
t-64 -243q0 -155 63 -243t186 -89q182 0 211 178h269q-14 -164 -127 -275t-297 -125l-88 -73v-4q89 12 153 -21t64 -108z" />
    <glyph glyph-name="egrave" unicode="&#xe8;" horiz-adv-x="1114" 
d="M459 1182l-221 288h325l113 -288h-217zM561 864q-203 0 -244 -225h467q-6 100 -67 163q-62 62 -156 62zM584 -31q-254 0 -400 157q-145 156 -145 396t145 399t383 159t373 -173q135 -172 135 -461h-762q16 -126 84 -194t185 -68q154 0 202 129h275q-31 -147 -155 -245
t-320 -99z" />
    <glyph glyph-name="eacute" unicode="&#xe9;" horiz-adv-x="1114" 
d="M885 1470l-221 -288h-218l113 288h326zM561 864q-203 0 -244 -225h467q-6 100 -67 163q-62 62 -156 62zM584 -31q-254 0 -400 157q-145 156 -145 396t145 399t383 159t373 -173q135 -172 135 -461h-762q16 -126 84 -194t185 -68q154 0 202 129h275q-31 -147 -155 -245
t-320 -99z" />
    <glyph glyph-name="ecircumflex" unicode="&#xea;" horiz-adv-x="1114" 
d="M213 1190l193 258h299l196 -258h-242l-98 141h-4l-100 -141h-244zM561 864q-203 0 -244 -225h467q-6 100 -67 163q-62 62 -156 62zM584 -31q-254 0 -400 157q-145 156 -145 396t145 399t383 159t373 -173q135 -172 135 -461h-762q16 -126 84 -194t185 -68q154 0 202 129
h275q-31 -147 -155 -245t-320 -99z" />
    <glyph glyph-name="edieresis" unicode="&#xeb;" horiz-adv-x="1114" 
d="M199 1190v233h262v-233h-262zM655 1190v233h263v-233h-263zM561 864q-203 0 -244 -225h467q-6 100 -67 163q-62 62 -156 62zM584 -31q-254 0 -400 157q-145 156 -145 396t145 399t383 159t373 -173q135 -172 135 -461h-762q16 -126 84 -194t185 -68q154 0 202 129h275
q-31 -147 -155 -245t-320 -99z" />
    <glyph glyph-name="igrave" unicode="&#xec;" horiz-adv-x="458" 
d="M131 1182l-221 288h326l112 -288h-217zM90 0v1051h279v-1051h-279z" />
    <glyph glyph-name="iacute" unicode="&#xed;" horiz-adv-x="458" 
d="M557 1470l-221 -288h-217l112 288h326zM90 0v1051h279v-1051h-279z" />
    <glyph glyph-name="icircumflex" unicode="&#xee;" horiz-adv-x="458" 
d="M-61 1190l145 258h285l149 -258h-219l-66 135h-4l-69 -135h-221zM90 0v1051h279v-1051h-279z" />
    <glyph glyph-name="idieresis" unicode="&#xef;" horiz-adv-x="458" 
d="M-27 1190v233h222v-233h-222zM266 1190v233h221v-233h-221zM90 0v1051h279v-1051h-279z" />
    <glyph glyph-name="eth" unicode="&#xf0;" horiz-adv-x="1169" 
d="M587 182q127 0 197 93t70 249t-71 248t-197 92t-195 -92t-69 -248t70 -249t195 -93zM1126 557q0 -347 -233 -504q-125 -84 -305 -84q-242 0 -396 159q-154 158 -153 396q0 238 133 388t354 151q156 0 258 -115h4q-57 129 -167 250l-283 -88l-43 102l237 74
q-78 74 -225 178h336q82 -55 133 -102l217 68l45 -103l-172 -53q260 -297 260 -717z" />
    <glyph glyph-name="ntilde" unicode="&#xf1;" horiz-adv-x="1124" 
d="M684 1178q-55 0 -128 34t-95 33q-45 0 -55 -63h-148q0 115 52 178t120 63q68 1 140 -35q73 -36 96 -36q45 0 59 63h147q0 -105 -50 -171t-138 -66zM362 1051v-144h7q109 172 311 172q162 1 262 -109t100 -284v-686h-278v645q0 86 -48 139q-48 54 -137 54t-149 -68
t-61 -174v-596h-279v1051h272z" />
    <glyph glyph-name="ograve" unicode="&#xf2;" horiz-adv-x="1175" 
d="M489 1182l-221 288h326l113 -288h-218zM587 182q127 0 197 93t70 249t-71 250t-197 94t-195 -93t-69 -250t70 -250t195 -93zM588 -31q-242 0 -396 159q-154 158 -153 396q0 238 154 397q153 159 395 159t396 -160q154 -158 153 -396q1 -238 -153 -396t-396 -159z" />
    <glyph glyph-name="oacute" unicode="&#xf3;" horiz-adv-x="1175" 
d="M915 1470l-221 -288h-217l113 288h325zM587 182q127 0 197 93t70 249t-71 250t-197 94t-195 -93t-69 -250t70 -250t195 -93zM588 -31q-242 0 -396 159q-154 158 -153 396q0 238 154 397q153 159 395 159t396 -160q154 -158 153 -396q1 -238 -153 -396t-396 -159z" />
    <glyph glyph-name="ocircumflex" unicode="&#xf4;" horiz-adv-x="1175" 
d="M244 1190l192 258h299l197 -258h-242l-98 141h-4l-101 -141h-243zM587 182q127 0 197 93t70 249t-71 250t-197 94t-195 -93t-69 -250t70 -250t195 -93zM588 -31q-242 0 -396 159q-154 158 -153 396q0 238 154 397q153 159 395 159t396 -160q154 -158 153 -396
q1 -238 -153 -396t-396 -159z" />
    <glyph glyph-name="otilde" unicode="&#xf5;" horiz-adv-x="1175" 
d="M707 1178q-55 0 -128 34t-96 33q-45 0 -55 -63h-147q0 115 52 178q51 63 119 63q68 1 141 -35t95 -36q45 0 60 63h147q0 -105 -50 -171t-138 -66zM587 182q127 0 197 93t70 249t-71 250t-197 94t-195 -93t-69 -250t70 -250t195 -93zM588 -31q-242 0 -396 159
q-154 158 -153 396q0 238 154 397q153 159 395 159t396 -160q154 -158 153 -396q1 -238 -153 -396t-396 -159z" />
    <glyph glyph-name="odieresis" unicode="&#xf6;" horiz-adv-x="1175" 
d="M229 1190v233h263v-233h-263zM686 1190v233h262v-233h-262zM587 182q127 0 197 93t70 249t-71 250t-197 94t-195 -93t-69 -250t70 -250t195 -93zM588 -31q-242 0 -396 159q-154 158 -153 396q0 238 154 397q153 159 395 159t396 -160q154 -158 153 -396q1 -238 -153 -396
t-396 -159z" />
    <glyph glyph-name="divide" unicode="&#xf7;" horiz-adv-x="1165" 
d="M72 569v205h1022v-205h-1022zM432 922v270h299v-270h-299zM432 152v272h299v-272h-299z" />
    <glyph glyph-name="oslash" unicode="&#xf8;" horiz-adv-x="1175" 
d="M600 182q114 0 184 93t70 249q0 96 -29 172l-407 -450q68 -64 182 -64zM322 524q0 -106 30 -184l414 455q-70 73 -188 73t-186 -93q-70 -93 -70 -251zM39 530q0 232 154 391t395 158q190 0 336 -108l125 137l79 -76l-122 -137q131 -153 131 -381t-154 -386t-395 -159
q-188 0 -328 101l-131 -144l-82 76l129 143q-137 153 -137 385z" />
    <glyph glyph-name="ugrave" unicode="&#xf9;" horiz-adv-x="1112" 
d="M457 1182l-221 288h325l113 -288h-217zM1022 0h-268v123h-6q-57 -78 -126 -115t-176 -37q-172 1 -268 103t-96 276v701h276v-654q0 -190 174 -190q96 0 154 65q57 66 57 172v607h279v-1051z" />
    <glyph glyph-name="uacute" unicode="&#xfa;" horiz-adv-x="1112" 
d="M883 1470l-221 -288h-218l113 288h326zM1022 0h-268v123h-6q-57 -78 -126 -115t-176 -37q-172 1 -268 103t-96 276v701h276v-654q0 -190 174 -190q96 0 154 65q57 66 57 172v607h279v-1051z" />
    <glyph glyph-name="ucircumflex" unicode="&#xfb;" horiz-adv-x="1112" 
d="M211 1190l192 258h299l197 -258h-242l-98 141h-4l-100 -141h-244zM1022 0h-268v123h-6q-57 -78 -126 -115t-176 -37q-172 1 -268 103t-96 276v701h276v-654q0 -190 174 -190q96 0 154 65q57 66 57 172v607h279v-1051z" />
    <glyph glyph-name="udieresis" unicode="&#xfc;" horiz-adv-x="1112" 
d="M197 1190v233h262v-233h-262zM653 1190v233h262v-233h-262zM1022 0h-268v123h-6q-57 -78 -126 -115t-176 -37q-172 1 -268 103t-96 276v701h276v-654q0 -190 174 -190q96 0 154 65q57 66 57 172v607h279v-1051z" />
    <glyph glyph-name="yacute" unicode="&#xfd;" horiz-adv-x="1017" 
d="M836 1470l-222 -288h-217l113 288h326zM113 -344v219h98q156 0 156 143q0 70 -80 285l-283 748h293l156 -473l67 -230h4q29 133 62 230l147 473h281l-367 -1078q-61 -181 -138 -249t-233 -68h-163z" />
    <glyph glyph-name="thorn" unicode="&#xfe;" horiz-adv-x="1169" 
d="M608 201q114 0 177 84q63 85 63 237t-60 242t-183 90q-124 0 -183 -93q-60 -93 -60 -241t66 -234q66 -85 180 -85zM673 -31q-208 0 -300 150h-4v-463h-279v1810h279v-542h6q100 156 303 156t328 -154q124 -154 124 -405t-124 -401t-333 -151z" />
    <glyph glyph-name="ydieresis" unicode="&#xff;" horiz-adv-x="1017" 
d="M150 1190v233h262v-233h-262zM606 1190v233h262v-233h-262zM113 -344v219h98q156 0 156 143q0 70 -80 285l-283 748h293l156 -473l67 -230h4q29 133 62 230l147 473h281l-367 -1078q-61 -181 -138 -249t-233 -68h-163z" />
    <glyph glyph-name="dotlessi" unicode="&#x131;" horiz-adv-x="458" 
d="M90 0v1051h279v-1051h-279z" />
    <glyph glyph-name="IJ" unicode="&#x132;" horiz-adv-x="1583" 
d="M1034 -27q-225 0 -349 108t-124 318v146h266v-127q0 -205 189 -205q176 0 176 201v1050h297v-1052q0 -197 -115 -318t-340 -121zM115 0v1464h297v-1464h-297z" />
    <glyph glyph-name="ij" unicode="&#x133;" horiz-adv-x="917" 
d="M549 1214v250h278v-250h-278zM532 -346q-94 0 -157 12v199q94 2 134 21t40 87v1078h278v-1092q1 -161 -71 -233t-224 -72zM90 1214v250h279v-250h-279zM90 0v1051h279v-1051h-279z" />
    <glyph glyph-name="Lslash" unicode="&#x141;" horiz-adv-x="1155" 
d="M123 1464h297v-657l409 211v-199l-409 -211v-360h688v-248h-985v457l-131 -66v199l131 65v809z" />
    <glyph glyph-name="lslash" unicode="&#x142;" horiz-adv-x="532" 
d="M125 1464h278v-528l136 104v-198l-136 -105v-737h-278v526l-119 -90v199l119 90v739z" />
    <glyph glyph-name="napostrophe" unicode="&#x149;" horiz-adv-x="1124" 
d="M39 1257h-123v207h254v-174q0 -109 -74 -163t-184 -58v90q127 14 127 98zM362 1051v-144h7q109 172 311 172q162 1 262 -109t100 -284v-686h-278v645q0 86 -48 139q-48 54 -137 54t-149 -68t-61 -174v-596h-279v1051h272z" />
    <glyph glyph-name="OE" unicode="&#x152;" horiz-adv-x="2156" 
d="M739 211q211 0 305 147v736q-98 156 -305 155q-180 0 -283 -146q-104 -147 -104 -373t104 -372t283 -147zM727 -33q-293 0 -485 217t-193 546q0 329 194 546t484 217q180 0 317 -115v86h1018v-256h-725v-329h627v-240h-627v-371h748v-268h-1041v88q-143 -121 -317 -121z
" />
    <glyph glyph-name="oe" unicode="&#x153;" horiz-adv-x="1931" 
d="M1378 864q-203 0 -243 -225h467q-6 101 -68 163t-156 62zM587 182q127 0 197 93t70 249t-71 250t-197 94t-195 -93t-69 -250t70 -250t195 -93zM593 -31q-247 0 -401 159q-154 158 -153 396q0 238 154 397q155 159 403 159t395 -179q145 178 388 178t378 -172t135 -461
h-762q16 -126 84 -194t185 -68q154 0 203 129h274q-31 -147 -156 -245t-319 -99q-266 0 -412 176q-149 -176 -396 -176z" />
    <glyph glyph-name="Scaron" unicode="&#x160;" horiz-adv-x="1314" 
d="M999 1776l-192 -234h-299l-197 234h242l98 -117h4l101 117h243zM658 -33q-276 0 -439 126q-164 126 -172 360h291q14 -131 93 -189t221 -57q300 0 300 188q0 78 -47 112q-29 22 -49 35t-95 33t-170 43t-155 39q-60 15 -134 51q-73 36 -115 78t-70 110q-29 69 -29 157
q0 211 155 325t405 113q250 0 401 -119q150 -119 165 -338h-284q-12 106 -89 164t-196 57q-119 0 -191 -47t-71 -128q0 -82 71 -120q70 -38 212 -69t210 -50t148 -55q78 -36 122 -80q44 -42 74 -113t29 -163q1 -217 -157 -340t-434 -123z" />
    <glyph glyph-name="scaron" unicode="&#x161;" horiz-adv-x="993" 
d="M350 1180l-196 258h241l99 -142h4l100 142h244l-193 -258h-299zM503 -31q-212 -1 -339 99t-139 272h258q27 -174 229 -174q92 0 142 33t50 81t-24 67t-38 27q-27 17 -157 41q-130 23 -191 42q-161 52 -209 146q-30 58 -30 140q0 164 120 250q119 86 315 86t312 -93
t132 -255h-252q-16 154 -203 154q-84 0 -132 -31t-48 -79q1 -48 25 -63q43 -27 98 -39t141 -30q86 -17 130 -29q127 -35 187 -95q80 -80 78 -212q0 -156 -122 -247t-333 -91z" />
    <glyph glyph-name="Ydieresis" unicode="&#x178;" horiz-adv-x="1288" 
d="M305 1542v234h262v-234h-262zM721 1542v234h262v-234h-262zM496 0v565l-488 899h324l221 -434l96 -209h4q55 121 99 209l217 434h311l-487 -899v-565h-297z" />
    <glyph glyph-name="Zcaron" unicode="&#x17d;" horiz-adv-x="1282" 
d="M989 1776l-192 -234h-299l-197 234h242l98 -117h4l100 117h244zM55 0v223l799 987v7h-748v247h1100v-247l-772 -959v-6h787v-252h-1166z" />
    <glyph glyph-name="zcaron" unicode="&#x17e;" horiz-adv-x="993" 
d="M391 1180l-196 258h241l99 -142h4l100 142h244l-193 -258h-299zM55 0v213l541 612v6h-479v220h803v-224l-529 -598v-6h555v-223h-891z" />
    <glyph glyph-name="florin" unicode="&#x192;" horiz-adv-x="815" 
d="M61 662v184h187l43 293q27 190 147 250q121 59 330 32v-202q-98 7 -141 -13t-56 -96l-39 -264h205v-184h-231l-100 -699q-28 -185 -134 -243t-303 -27v190q76 -7 111 13t45 96l96 670h-160z" />
    <glyph glyph-name="circumflex" unicode="&#x2c6;" 
d="M168 1190l192 258h299l197 -258h-242l-98 141h-4l-100 -141h-244z" />
    <glyph glyph-name="caron" unicode="&#x2c7;" 
d="M365 1180l-197 258h242l98 -142h4l100 142h244l-192 -258h-299z" />
    <glyph glyph-name="uni02C9" unicode="&#x2c9;" 
d="M231 1212v199h582v-199h-582z" />
    <glyph glyph-name="breve" unicode="&#x2d8;" 
d="M554 1174q-128 0 -212 76t-92 196h160q14 -98 141 -98q59 0 97 28t44 70h160q-10 -120 -90 -196t-208 -76z" />
    <glyph glyph-name="dotaccent" unicode="&#x2d9;" 
d="M373 1214v250h278v-250h-278z" />
    <glyph glyph-name="ring" unicode="&#x2da;" 
d="M512 1245q39 0 66 28q26 29 26 69t-26 68q-27 28 -66 28t-66 -28q-26 -28 -26 -69t26 -69t66 -27zM512 1149q-82 0 -140 56t-59 136q1 81 59 137t140 56t140 -56t58 -136t-58 -137q-58 -56 -140 -56z" />
    <glyph glyph-name="ogonek" unicode="&#x2db;" 
d="M510 -356q-238 0 -238 166q0 119 131 190h177q-96 -84 -96 -139t63 -56q33 0 65 15h4v-158q-45 -18 -106 -18z" />
    <glyph glyph-name="tilde" unicode="&#x2dc;" 
d="M631 1178q-55 0 -128 34t-95 33q-45 0 -56 -63h-147q0 115 52 178q51 63 119 63q68 1 141 -35t95 -36q45 0 60 63h147q0 -105 -50 -171t-138 -66z" />
    <glyph glyph-name="hungarumlaut" unicode="&#x2dd;" 
d="M233 1182l82 288h265l-177 -288h-170zM590 1182l82 288h264l-176 -288h-170z" />
    <glyph glyph-name="uni0394" unicode="&#x394;" horiz-adv-x="1359" 
d="M602 944l-260 -713h668l-262 713q-12 33 -30 95q-17 62 -30 108l-10 45h-4q-43 -172 -72 -248zM43 0v201l481 1263h307l486 -1261v-203h-1274z" />
    <glyph glyph-name="uni03A9" unicode="&#x3a9;" horiz-adv-x="1509" 
d="M756 1249q-199 0 -301 -134t-103 -374q0 -449 318 -522v-219h-607v227h232v4q-123 71 -184 217t-62 320q0 322 193 524q192 202 514 201q322 0 513 -202t191 -523q0 -174 -61 -319t-182 -218v-4h229v-227h-604v219q315 74 315 522q0 240 -101 374t-300 134z" />
    <glyph glyph-name="uni03BC" unicode="&#x3bc;" horiz-adv-x="1120" 
d="M90 -344v1395h277v-654q0 -190 174 -190q96 -1 153 65t58 172v607h278v-1051h-268v123h-6q-106 -152 -264 -152q-72 0 -119 33h-6v-348h-277z" />
    <glyph glyph-name="pi" unicode="&#x3c0;" horiz-adv-x="1251" 
d="M1044 299q0 -97 66 -95q30 0 44 1h24l8 2v-205q-49 -4 -117 -4q-297 0 -297 252v616h-311v-866h-273v866h-157v185h1177v-185h-164v-567z" />
    <glyph glyph-name="uni2009" unicode="&#x2009;" horiz-adv-x="112" 
 />
    <glyph glyph-name="endash" unicode="&#x2013;" 
d="M0 401v240h1024v-240h-1024z" />
    <glyph glyph-name="emdash" unicode="&#x2014;" horiz-adv-x="2048" 
d="M205 401v240h1638v-240h-1638z" />
    <glyph glyph-name="quoteleft" unicode="&#x2018;" horiz-adv-x="411" 
d="M66 922v241q0 131 82 210q83 79 198 97v-96q-55 -18 -97 -67t-42 -119h135v-266h-276z" />
    <glyph glyph-name="quoteright" unicode="&#x2019;" horiz-adv-x="411" 
d="M205 1198h-135v266h276v-241q0 -131 -82 -211t-198 -97v97q55 18 97 67t42 119z" />
    <glyph glyph-name="quotesinglbase" unicode="&#x201a;" horiz-adv-x="411" 
d="M205 0h-135v266h276v-241q0 -131 -82 -211t-198 -97v97q55 18 97 67t42 119z" />
    <glyph glyph-name="quotedblleft" unicode="&#x201c;" horiz-adv-x="817" 
d="M66 922v241q0 131 82 210q83 79 198 97v-96q-55 -18 -97 -67t-42 -119h135v-266h-276zM471 922v241q0 131 83 210t198 97v-96q-56 -18 -98 -67t-42 -119h136v-266h-277z" />
    <glyph glyph-name="quotedblright" unicode="&#x201d;" horiz-adv-x="817" 
d="M205 1198h-135v266h276v-241q0 -131 -82 -211t-198 -97v97q55 18 97 67t42 119zM610 1198h-135v266h277v-241q0 -131 -83 -211t-198 -97v97q55 18 97 67t42 119z" />
    <glyph glyph-name="quotedblbase" unicode="&#x201e;" horiz-adv-x="817" 
d="M205 0h-135v266h276v-241q0 -131 -82 -211t-198 -97v97q55 18 97 67t42 119zM610 0h-135v266h277v-241q0 -131 -83 -211t-198 -97v97q55 18 97 67t42 119z" />
    <glyph glyph-name="dagger" unicode="&#x2020;" horiz-adv-x="1157" 
d="M70 844v219h374v401h269v-401h374v-219h-374v-1084h-269v1084h-374z" />
    <glyph glyph-name="daggerdbl" unicode="&#x2021;" horiz-adv-x="1157" 
d="M70 844v219h374v401h269v-401h374v-219h-374v-463h374v-219h-374v-402h-269v402h-374v219h374v463h-374z" />
    <glyph glyph-name="bullet" unicode="&#x2022;" horiz-adv-x="718" 
d="M645 658q0 -118 -84 -202t-202 -83q-117 0 -201 84q-84 83 -84 201t84 202t202 84t201 -84q84 -84 84 -202z" />
    <glyph glyph-name="ellipsis" unicode="&#x2026;" horiz-adv-x="1478" 
d="M590 0v297h299v-297h-299zM74 0v297h299v-297h-299zM1106 0v297h299v-297h-299z" />
    <glyph glyph-name="perthousand" unicode="&#x2030;" horiz-adv-x="2500" 
d="M2103 125q70 0 106 68q36 69 36 183t-37 184t-106 69q-68 0 -104 -69q-36 -68 -36 -184t36 -184t105 -67zM1298 125q70 0 106 68q36 69 36 183t-37 184t-106 69q-69 0 -105 -69q-36 -68 -35 -184q-1 -116 35 -184t106 -67zM399 774q70 0 106 68t36 182t-37 184t-106 70
q-68 0 -104 -69t-36 -185t36 -182q36 -68 105 -68zM401 0l719 1405h174l-719 -1405h-174zM2104 -33q-159 0 -260 112t-101 296t101 297q101 112 260 112t258 -112q100 -112 100 -296q0 -185 -100 -297t-258 -112zM1657 376q1 -185 -99 -297t-259 -112t-260 112t-101 296
t101 297q101 112 260 112t259 -111q99 -112 99 -297zM400 616q-159 0 -260 112t-101 296t101 297t260 113t258 -112q100 -112 100 -297t-100 -297t-258 -112z" />
    <glyph glyph-name="uni2032" unicode="&#x2032;" horiz-adv-x="411" 
d="M45 950l78 514h244l-78 -514h-244z" />
    <glyph glyph-name="uni2033" unicode="&#x2033;" horiz-adv-x="782" 
d="M45 950l78 514h244l-78 -514h-244zM416 950l78 514h243l-78 -514h-243z" />
    <glyph glyph-name="guilsinglleft" unicode="&#x2039;" horiz-adv-x="567" 
d="M446 113l-335 286v258l335 287v-268l-180 -148v-4l180 -147v-264z" />
    <glyph glyph-name="guilsinglright" unicode="&#x203a;" horiz-adv-x="567" 
d="M121 944l336 -287v-258l-336 -286v268l180 147v4l-180 148v264z" />
    <glyph glyph-name="fraction" unicode="&#x2044;" horiz-adv-x="499" 
d="M-350 0l1016 1464h184l-1018 -1464h-182z" />
    <glyph glyph-name="zero.superior" unicode="&#x2070;" horiz-adv-x="856" 
d="M428 801q148 0 150 257q0 257 -149 257t-149 -257t148 -257zM430 633q-168 0 -273 116t-105 307t106 308t273 117t270 -116q103 -117 103 -309t-102 -308q-104 -116 -272 -115z" />
    <glyph glyph-name="four.superior" unicode="&#x2074;" horiz-adv-x="817" 
d="M215 979h225v272h-2l-223 -270v-2zM440 651v172h-387v187l385 465h211v-496h121v-156h-121v-172h-209z" />
    <glyph glyph-name="five.superior" unicode="&#x2075;" horiz-adv-x="780" 
d="M390 633q-148 0 -244 68q-95 69 -105 190h205q18 -90 137 -90q55 0 87 34t32 93t-32 93t-98 34t-104 -47h-194l82 456h514v-168h-369l-27 -137h5q59 51 173 51t193 -78q78 -78 78 -207q0 -130 -92 -211q-93 -81 -241 -81z" />
    <glyph glyph-name="six.superior" unicode="&#x2076;" horiz-adv-x="792" 
d="M408 1055q-58 0 -96 -37t-38 -93t38 -92t95 -36q56 0 92 36t36 92t-35 93t-92 37zM750 922q0 -128 -94 -208q-94 -81 -254 -81t-255 113q-94 114 -95 311t104 319q92 104 264 105q127 1 206 -59t99 -162h-213q-20 63 -90 63t-108 -52q-40 -52 -46 -147h2q66 76 188 76
t207 -75t85 -203z" />
    <glyph glyph-name="seven.superior" unicode="&#x2077;" horiz-adv-x="720" 
d="M444 1288h-399v176h619v-159q-117 -117 -191 -285t-80 -369h-231q6 197 87 360t195 275v2z" />
    <glyph glyph-name="eight.superior" unicode="&#x2078;" horiz-adv-x="796" 
d="M397 1147q53 0 83 27q30 26 30 70t-30 71t-83 27t-83 -28q-30 -26 -30 -70t30 -70t83 -27zM397 782q61 0 99 31q36 31 36 84t-35 86t-97 33t-99 -33t-37 -86t36 -84t97 -31zM399 633q-162 1 -257 67t-95 183q0 70 40 123t110 81q-2 2 0 5q-115 51 -115 158q0 106 87 168
t231 62t228 -58q84 -60 85 -166q0 -106 -111 -160v-4q70 -25 109 -79t39 -124q0 -121 -94 -189t-257 -67z" />
    <glyph glyph-name="nine.superior" unicode="&#x2079;" horiz-adv-x="790" 
d="M382 1319q-56 0 -93 -39t-37 -95t36 -94t93 -38t94 38t37 95t-37 95t-93 38zM390 1481q162 0 255 -113q92 -112 94 -312t-100 -319q-94 -106 -262 -106q-131 0 -216 60t-106 163h213q20 -63 105 -63q137 0 149 190h-2q-66 -76 -186 -76t-206 77q-85 77 -85 206t92 211
q93 82 255 82z" />
    <glyph glyph-name="zero.inferior" unicode="&#x2080;" horiz-adv-x="856" 
d="M274 99q0 -127 40 -197t115 -70t115 71t40 195t-40 197q-40 72 -115 72t-115 -71t-40 -197zM430 -326q-168 0 -273 116t-105 307t106 309t273 116q167 0 270 -116t103 -308t-102 -308q-104 -116 -272 -116z" />
    <glyph glyph-name="one.inferior" unicode="&#x2081;" horiz-adv-x="546" 
d="M231 -307v510h-186v145q90 4 151 45q60 41 74 119h174v-819h-213z" />
    <glyph glyph-name="two.inferior" unicode="&#x2082;" horiz-adv-x="761" 
d="M489 254q0 100 -100 100q-57 0 -91 -39t-34 -110h-198q0 153 88 235t235 82t229 -75t82 -185q0 -143 -147 -250q-29 -20 -108 -68t-107 -83h367v-168h-652q2 197 197 332q162 105 201 139q38 35 38 90z" />
    <glyph glyph-name="three.inferior" unicode="&#x2083;" horiz-adv-x="765" 
d="M721 -72q1 -126 -95 -190t-254 -64t-245 79q-86 79 -88 216h211q4 -139 131 -139q57 0 87 29t30 78q0 104 -129 104h-50v147h43q117 0 117 93q0 88 -96 88q-106 0 -115 -117h-205q5 122 91 196t229 74t227 -61t84 -170t-125 -158v-4q152 -49 152 -201z" />
    <glyph glyph-name="four.inferior" unicode="&#x2084;" horiz-adv-x="817" 
d="M215 20h225v273h-2l-223 -270v-3zM440 -307v172h-387v186l385 465h211v-496h121v-155h-121v-172h-209z" />
    <glyph glyph-name="five.inferior" unicode="&#x2085;" horiz-adv-x="780" 
d="M390 -326q-148 0 -244 69q-95 69 -105 189h197q18 -98 145 -98q57 0 93 37t36 97t-37 95t-105 35t-108 -49h-188l82 457h514v-162h-369l-29 -149h4q59 51 173 51t194 -76t80 -205t-93 -210q-92 -81 -240 -81z" />
    <glyph glyph-name="six.inferior" unicode="&#x2086;" horiz-adv-x="788" 
d="M398 -172q58 0 96 38q37 38 36 97q0 59 -35 97q-37 38 -97 38t-97 -38t-37 -97t38 -97t96 -38zM396 -326q-160 0 -254 114q-93 114 -95 312t96 310t271 112q128 0 204 -58t97 -163h-199q-18 72 -94 72q-151 0 -164 -207h2q72 76 192 76t203 -76q84 -76 84 -204t-91 -208
q-92 -80 -252 -80z" />
    <glyph glyph-name="seven.inferior" unicode="&#x2087;" horiz-adv-x="720" 
d="M444 330h-399v176h619v-160q-117 -117 -191 -285t-80 -368h-231q6 197 87 359t195 276v2z" />
    <glyph glyph-name="eight.inferior" unicode="&#x2088;" horiz-adv-x="796" 
d="M397 188q53 0 83 27t30 71t-30 70t-83 27q-53 0 -83 -27q-30 -26 -30 -70t30 -71t83 -27zM397 -176q61 0 99 31q36 31 36 84t-35 86t-97 33t-99 -34q-37 -32 -37 -85t36 -84t97 -31zM399 -326q-162 0 -257 67t-95 183q0 70 40 123t110 82q-2 2 0 4q-115 51 -115 159
t87 168q87 62 231 62t228 -59t85 -166q0 -107 -111 -160v-4q70 -25 109 -79t39 -124q0 -120 -94 -188t-257 -68z" />
    <glyph glyph-name="nine.inferior" unicode="&#x2089;" horiz-adv-x="786" 
d="M385 96q61 0 99 37t38 96t-38 99t-98 39q-60 0 -98 -39q-38 -40 -38 -98t37 -96t98 -38zM735 108q0 -228 -92 -332q-91 -104 -239 -104t-233 62t-101 162h200q25 -72 113 -72q137 0 145 194h-2q-72 -76 -190 -76t-203 81q-86 81 -86 209t94 209q93 81 239 81t238 -82
q117 -104 117 -332z" />
    <glyph glyph-name="Euro" unicode="&#x20ac;" horiz-adv-x="1290" 
d="M37 756v121h108q43 253 199 405t386 152t366 -130t157 -346h-278q-37 242 -244 242q-117 0 -191 -85t-102 -238h363v-121h-375q-2 -18 -2 -62t2 -67h375v-121h-361q59 -303 301 -303q113 0 177 77q63 77 77 207h271q-12 -233 -152 -376t-372 -143q-234 0 -391 144
t-204 394h-110v121h96q-2 23 -2 67t2 62h-96z" />
    <glyph glyph-name="afii61289" unicode="&#x2113;" horiz-adv-x="784" 
d="M412 1165v-407l14 20q14 18 23 29q96 143 96 364q-1 119 -67 119t-66 -125zM139 1165q0 164 86 240q85 76 231 76q290 0 289 -312q0 -430 -333 -655v-192q0 -66 26 -92t90 -25l129 6v-205q-123 -8 -202 -8q-158 0 -237 59t-79 215v111q-37 -12 -110 -33v182q68 25 110 46
v587z" />
    <glyph glyph-name="trademark" unicode="&#x2122;" horiz-adv-x="1390" 
d="M63 1333v131h496v-131h-168v-440h-160v440h-168zM643 893v571h221l101 -360h4l102 360h221v-571h-147v371h-4l-113 -371h-125l-110 371h-5v-371h-145z" />
    <glyph glyph-name="Omega" unicode="&#x2126;" horiz-adv-x="1509" 
d="M756 1249q-199 0 -301 -134t-103 -374q0 -449 318 -522v-219h-607v227h232v4q-123 71 -184 217t-62 320q0 322 193 524q192 202 514 201q322 0 513 -202t191 -523q0 -174 -61 -319t-182 -218v-4h229v-227h-604v219q315 74 315 522q0 240 -101 374t-300 134z" />
    <glyph glyph-name="estimated" unicode="&#x212e;" horiz-adv-x="1271" 
d="M642 1192q-178 0 -294 -107v-378h580v403q-108 82 -286 82zM348 616v-436q116 -104 306 -104t291 78t153 227h104q-41 -182 -178 -293t-354 -111q-287 1 -449 181t-162 471t168 473t432 182q211 0 355 -121q200 -170 196 -547h-862z" />
    <glyph glyph-name="onethird" unicode="&#x2153;" horiz-adv-x="1726" 
d="M1326 -18q-158 0 -245 78q-86 78 -88 216h211q4 -139 131 -139q57 0 87 29t30 78q0 104 -129 104h-49v148h43q117 0 117 90t-97 90q-106 0 -114 -117h-205q4 121 90 196t229 75t227 -62q84 -61 85 -170q0 -109 -125 -158v-4q152 -49 151 -200q0 -125 -95 -190
q-96 -64 -254 -64zM199 0l1015 1464h185l-1018 -1464h-182zM238 651v510h-187v146q90 4 151 45q60 41 74 118h175v-819h-213z" />
    <glyph glyph-name="twothirds" unicode="&#x2154;" horiz-adv-x="1869" 
d="M1819 236q1 -126 -95 -190t-254 -64t-245 78q-86 78 -88 216h211q4 -139 131 -139q57 0 87 29t29 78q0 104 -129 104h-49v148h43q117 0 117 90t-96 90q-106 0 -115 -117h-205q4 121 90 196q85 75 229 75t228 -62q84 -61 84 -170t-125 -158v-4q152 -49 152 -200zM367 0
l1015 1464h185l-1018 -1464h-182zM270 1163h-198q0 152 88 235t235 83t229 -75t83 -172q0 -96 -39 -150q-38 -54 -90 -92t-131 -86q-79 -49 -107 -87h371v-168h-652q2 197 197 332q161 104 200 138q38 34 40 91q0 100 -101 101q-57 0 -91 -39t-34 -111z" />
    <glyph glyph-name="oneeighth" unicode="&#x215b;" horiz-adv-x="1751" 
d="M1346 496q52 0 82 26t30 71q0 44 -30 71q-30 26 -82 26t-83 -26q-30 -26 -30 -71t30 -71t83 -26zM1346 131q61 0 98 31t37 84t-36 86t-97 33q-60 0 -98 -33t-38 -86t36 -84t98 -31zM1348 -18q-162 0 -257 66t-96 183q0 70 40 123t110 82q-2 2 0 4q-115 50 -115 158
t87 170t231 61q144 0 229 -59q84 -59 84 -166t-111 -160v-4q70 -25 109 -79t39 -123q0 -120 -94 -188t-256 -68zM199 0l1015 1464h185l-1018 -1464h-182zM238 651v510h-187v146q90 4 151 45q60 41 74 118h175v-819h-213z" />
    <glyph glyph-name="threeeighths" unicode="&#x215c;" horiz-adv-x="1843" 
d="M1438 496q53 0 83 26q29 26 29 71q0 44 -29 71q-30 26 -83 26t-83 -26t-30 -71t30 -71t83 -26zM1438 131q61 0 98 31t37 84t-36 86t-97 33q-60 0 -98 -33t-38 -86t37 -84q36 -31 97 -31zM1440 -18q-162 0 -257 66t-96 183q0 70 40 123t110 82q-2 2 0 4q-115 50 -115 158
t87 170t231 61q144 0 229 -59q84 -59 84 -166t-111 -160v-4q70 -25 109 -79t39 -123q0 -120 -94 -188t-256 -68zM322 0l1015 1464h185l-1018 -1464h-182zM378 633q-158 0 -245 79q-86 79 -88 216h211q4 -139 131 -140q57 0 87 29t30 78q0 104 -129 104h-49v148h43
q117 0 116 92q0 88 -96 88q-106 0 -115 -117h-204q4 121 90 196t229 75q143 1 227 -61t84 -171t-125 -157v-5q152 -49 152 -200q0 -125 -95 -190q-96 -64 -254 -64z" />
    <glyph glyph-name="fiveeighths" unicode="&#x215d;" horiz-adv-x="1826" 
d="M1421 496q53 0 83 26t30 71q0 44 -30 71q-30 26 -83 26t-83 -26t-30 -71q0 -44 30 -71q30 -26 83 -26zM1421 131q61 0 99 31q36 31 36 84t-35 86t-97 33t-99 -33t-37 -86t36 -84t97 -31zM1423 -18q-162 0 -257 66t-95 183q0 70 40 123t110 82q-2 2 0 4q-115 50 -115 158
t87 170t231 61q144 0 228 -59t85 -166q0 -107 -111 -160v-4q70 -25 109 -79t39 -123q0 -120 -94 -188t-257 -68zM307 0l1016 1464h184l-1018 -1464h-182zM396 633q-148 1 -243 69t-106 189h205q18 -90 137 -90q55 0 87 34t32 93t-32 93t-98 34t-104 -47h-194l82 456h514
v-168h-369l-26 -137h4q59 51 174 51t193 -78t77 -207q0 -130 -92 -211q-93 -81 -241 -81z" />
    <glyph glyph-name="seveneighths" unicode="&#x215e;" horiz-adv-x="1675" 
d="M1270 496q53 0 83 26q29 26 29 71q0 44 -29 71q-30 26 -83 26t-83 -26t-30 -71t30 -71t83 -26zM1270 131q61 0 98 31t37 84t-36 86t-97 33t-98 -33t-37 -86t36 -84t97 -31zM920 231q0 143 149 205q-2 2 0 4q-115 50 -115 158t87 170t231 61q144 0 229 -59q84 -59 84 -166
t-110 -160v-4q71 -25 109 -79t38 -123q0 -120 -94 -188t-256 -68t-257 66t-95 183zM127 0l1016 1464h184l-1018 -1464h-182zM451 1288h-400v176h619v-159q-117 -117 -191 -285t-80 -369h-231q6 197 87 360t196 275v2z" />
    <glyph glyph-name="partialdiff" unicode="&#x2202;" horiz-adv-x="1171" 
d="M336 436q0 -248 230 -248q112 0 180 92t69 215q0 124 -59 183t-167 59q-109 0 -181 -78t-72 -223zM1104 623q0 -305 -139 -479t-397 -173q-258 0 -383 127q-126 127 -126 347q1 219 137 361t345 142q172 0 260 -94q-61 326 -516 381v244q387 -21 603 -245t216 -611z" />
    <glyph glyph-name="Delta" unicode="&#x2206;" horiz-adv-x="1359" 
d="M602 944l-260 -713h668l-262 713q-12 33 -30 95q-17 62 -30 108l-10 45h-4q-43 -172 -72 -248zM43 0v201l481 1263h307l486 -1261v-203h-1274z" />
    <glyph glyph-name="product" unicode="&#x220f;" horiz-adv-x="1435" 
d="M119 1464h1198v-1669h-297v1419h-604v-1419h-297v1669z" />
    <glyph glyph-name="summation" unicode="&#x2211;" horiz-adv-x="1245" 
d="M1163 -205h-1093v256l577 594v4l-577 559v256h1073v-241h-742v-4l537 -504v-123l-551 -553v-4h776v-240z" />
    <glyph glyph-name="minus" unicode="&#x2212;" horiz-adv-x="1165" 
d="M72 569v205h1022v-205h-1022z" />
    <glyph glyph-name="uni2215" unicode="&#x2215;" horiz-adv-x="499" 
d="M-350 0l1016 1464h184l-1018 -1464h-182z" />
    <glyph glyph-name="uni2219" unicode="&#x2219;" horiz-adv-x="446" 
d="M74 498v297h299v-297h-299z" />
    <glyph glyph-name="radical" unicode="&#x221a;" horiz-adv-x="1273" 
d="M35 440v242h356l113 -285l82 -231h4q25 115 63 233l342 1065h267l-541 -1669h-244l-268 645h-174z" />
    <glyph glyph-name="infinity" unicode="&#x221e;" horiz-adv-x="1484" 
d="M1087 459q59 0 93 46q32 46 32 119q0 72 -32 118t-97 46q-94 0 -190 -165q47 -78 91 -121t103 -43zM401 788q-63 0 -95 -46t-32 -118t32 -119q32 -46 95 -46q98 0 199 164q-97 165 -199 165zM377 254q-154 0 -238 106t-84 264t85 263q85 106 237 106q119 0 207 -61
t164 -176q78 115 160 176q83 61 213 61t219 -102q90 -102 90 -267q0 -166 -90 -268t-219 -102q-130 0 -213 61t-160 177q-76 -114 -164 -176t-207 -62z" />
    <glyph glyph-name="integral" unicode="&#x222b;" horiz-adv-x="690" 
d="M209 -35v1254q0 143 67 215q84 84 273 84q98 0 178 -23v-209h-6q-45 16 -110 16t-95 -24q-30 -25 -29 -86v-1253q0 -143 -67 -215q-84 -84 -273 -84q-98 0 -178 22v209h6q45 -16 110 -16q65 1 95 25t29 85z" />
    <glyph glyph-name="approxequal" unicode="&#x2248;" horiz-adv-x="1150" 
d="M377 588q71 0 233 -34t201 -34q66 0 72 66h194q-2 -129 -65 -206t-191 -77q-86 0 -249 33t-197 33q-61 0 -72 -72h-194q2 141 73 216q72 75 195 75zM377 985q71 0 233 -34t201 -33q66 0 72 65h194q-2 -129 -65 -206t-191 -77q-86 0 -249 33t-197 33q-61 0 -72 -72h-194
q2 141 73 216q72 75 195 75z" />
    <glyph glyph-name="notequal" unicode="&#x2260;" horiz-adv-x="1150" 
d="M115 733v201h518l84 178h188l-84 -178h244v-201h-336l-90 -194h426v-201h-520l-82 -178h-189l82 178h-241v201h336l90 194h-426z" />
    <glyph glyph-name="lessequal" unicode="&#x2264;" 
d="M92 0v201h840v-201h-840zM932 254l-840 301v252l840 301v-223l-445 -148l-194 -57v-4q127 -31 194 -53l445 -142v-227z" />
    <glyph glyph-name="greaterequal" unicode="&#x2265;" 
d="M932 201v-201h-840v201h840zM92 1108l840 -301v-252l-840 -301v223l445 148l194 57v4q-127 31 -194 53l-445 142v227z" />
    <glyph glyph-name="uni24C5" unicode="&#x24c5;" horiz-adv-x="1669" 
d="M750 967v-224h151q121 0 121 112t-121 112h-151zM537 295v846h385q147 0 230 -78t83 -204t-78 -203t-207 -76h-200v-285h-213zM201 727q-1 -285 181 -473t453 -188t452 188t181 473t-181 473t-452 188t-453 -188t-181 -473zM835 -35q-318 0 -536 218q-217 218 -217 545
t218 545t536 218t534 -218q217 -218 217 -546t-217 -545t-535 -217z" />
    <glyph glyph-name="lozenge" unicode="&#x25ca;" horiz-adv-x="1146" 
d="M569 1214l-250 -477l254 -487h5l247 475l-252 489h-4zM696 1464l414 -733l-412 -731h-247l-414 733l412 731h247z" />
    <glyph glyph-name="f_i" unicode="&#xf001;" horiz-adv-x="1126" 
d="M758 1214v250h278v-250h-278zM758 0v1051h278v-1051h-278zM23 858v193h143v94q0 184 127 262t340 55v-215q-104 4 -147 -18q-42 -23 -42 -101v-77h189v-193h-189v-858h-278v858h-143z" />
    <glyph glyph-name="f_l" unicode="&#xf002;" horiz-adv-x="1136" 
d="M764 0v1464h278v-1464h-278zM29 858v193h143v94q0 184 127 262t340 55v-215q-104 3 -146 -19t-42 -100v-77h188v-193h-188v-858h-279v858h-143z" />
    <glyph glyph-name="uniF8FF" unicode="&#xf8ff;" horiz-adv-x="1732" 
d="M375 883v-295h344v-346h295v346h344v295h-344v334h-295v-334h-344zM133 0v1466h1466v-1466h-1466z" />
    <glyph glyph-name="commaaccent" 
d="M510 -317h-123v219h254v-199q1 -111 -73 -171t-185 -71v90q127 31 127 132z" />
    <glyph glyph-name="zero.denominator" horiz-adv-x="856" 
d="M429 139q75 0 115 71t40 196q0 124 -40 196t-115 72t-115 -71t-40 -197t40 -196q40 -71 115 -71zM430 -18q-168 0 -273 116t-105 306q0 192 106 309t273 117t270 -116t103 -308t-102 -308q-104 -116 -272 -116z" />
    <glyph glyph-name="one.denominator" horiz-adv-x="546" 
d="M231 0v510h-186v145q90 4 151 45q60 41 74 119h174v-819h-213z" />
    <glyph glyph-name="two.denominator" horiz-adv-x="761" 
d="M489 561q0 100 -100 101q-57 0 -91 -39t-34 -111h-198q0 152 88 234t235 83q147 -1 229 -75t82 -185q0 -143 -147 -250q-29 -20 -108 -68t-107 -83h367v-168h-652q2 197 197 332q162 105 201 139q38 35 38 90z" />
    <glyph glyph-name="three.denominator" horiz-adv-x="765" 
d="M372 -18q-158 0 -245 78q-86 78 -88 216h211q4 -139 131 -139q57 0 87 29t30 78q0 104 -129 104h-50v148h43q117 0 117 90t-96 90q-106 0 -115 -117h-205q5 121 91 196t229 75t227 -62q84 -61 84 -170t-125 -158v-4q152 -49 152 -200q0 -125 -95 -190q-96 -64 -254 -64z
" />
    <glyph glyph-name="four.denominator" horiz-adv-x="817" 
d="M215 328h225v272h-2l-223 -270v-2zM440 0v172h-387v186l385 465h211v-495h121v-156h-121v-172h-209z" />
    <glyph glyph-name="five.denominator" horiz-adv-x="780" 
d="M723 272q0 -128 -93 -209q-92 -81 -240 -81t-244 68q-95 69 -105 190h197q18 -98 145 -99q57 0 93 37t36 97q0 59 -37 95t-105 36t-108 -50h-188l82 457h514v-162h-369l-29 -149h4q59 51 173 51t194 -76q80 -77 80 -205z" />
    <glyph glyph-name="six.denominator" horiz-adv-x="788" 
d="M398 135q58 0 96 38q37 38 36 97q0 59 -35 98q-37 38 -97 38t-97 -38t-37 -98t38 -97q38 -38 96 -38zM739 269q0 -127 -91 -207q-92 -80 -252 -80t-254 113q-93 115 -95 313t96 310t271 111q128 0 204 -58t97 -163h-199q-18 72 -94 72q-151 0 -164 -207h2q72 76 192 76
t203 -76q84 -76 84 -204z" />
    <glyph glyph-name="seven.denominator" horiz-adv-x="720" 
d="M444 637h-399v176h619v-160q-117 -117 -191 -285t-80 -368h-231q6 198 87 360t195 275v2z" />
    <glyph glyph-name="eight.denominator" horiz-adv-x="796" 
d="M397 496q53 0 83 26t30 71q0 44 -30 71q-30 26 -83 26t-83 -26t-30 -71q0 -44 30 -71q30 -26 83 -26zM397 131q61 0 99 31q36 31 36 84t-35 86t-97 33t-99 -33t-37 -86t36 -84t97 -31zM399 -18q-162 0 -257 66t-95 183q0 70 40 123t110 82q-2 2 0 4q-115 50 -115 158
t87 170t231 61q144 0 228 -59t85 -166q0 -107 -111 -160v-4q70 -25 109 -79t39 -123q0 -120 -94 -188t-257 -68z" />
    <glyph glyph-name="nine.denominator" horiz-adv-x="786" 
d="M385 403q61 0 99 37q38 36 38 96t-38 99t-98 39t-98 -39t-38 -97t37 -96t98 -39zM735 416q0 -228 -92 -332q-91 -104 -239 -104t-233 61t-101 162h200q25 -72 113 -72q137 0 145 195h-2q-72 -76 -190 -76t-203 80q-86 80 -86 209t94 210q93 81 239 81t238 -82
q117 -104 117 -332z" />
    <glyph glyph-name="zero.numerator" horiz-adv-x="856" 
d="M428 801q148 0 150 257q0 257 -149 257t-149 -257t148 -257zM430 633q-168 0 -273 116t-105 307t106 308t273 117t270 -116q103 -117 103 -309t-102 -308q-104 -116 -272 -115z" />
    <glyph glyph-name="one.numerator" horiz-adv-x="546" 
d="M231 651v510h-186v146q90 4 151 45q60 41 74 118h174v-819h-213z" />
    <glyph glyph-name="two.numerator" horiz-adv-x="761" 
d="M489 1212q0 100 -100 101q-57 0 -91 -39t-34 -111h-198q0 152 88 235t235 83t229 -75t82 -172q0 -96 -38 -150t-90 -92t-131 -86q-79 -49 -107 -87h371v-168h-652q2 197 197 332q162 105 201 139q38 35 38 90z" />
    <glyph glyph-name="three.numerator" horiz-adv-x="765" 
d="M372 633q-158 0 -245 79q-86 79 -88 216h211q4 -139 131 -140q57 0 87 29t30 78q0 104 -129 104h-50v148h43q117 0 117 90t-96 90q-106 0 -115 -117h-205q5 121 91 196t229 75q143 1 227 -61t84 -171t-125 -157v-5q152 -49 152 -200q0 -125 -95 -190q-96 -64 -254 -64z
" />
    <glyph glyph-name="four.numerator" horiz-adv-x="817" 
d="M215 979h225v272h-2l-223 -270v-2zM440 651v172h-387v187l385 465h211v-496h121v-156h-121v-172h-209z" />
    <glyph glyph-name="five.numerator" horiz-adv-x="780" 
d="M390 633q-148 0 -244 68q-95 69 -105 190h205q18 -90 137 -90q55 0 87 34t32 93t-32 93t-98 34t-104 -47h-194l82 456h514v-168h-369l-27 -137h5q59 51 173 51t193 -78q78 -78 78 -207q0 -130 -92 -211q-93 -81 -241 -81z" />
    <glyph glyph-name="six.numerator" horiz-adv-x="792" 
d="M408 1055q-58 0 -96 -37t-38 -93t38 -92t95 -36q56 0 92 36t36 92t-35 93t-92 37zM750 922q0 -128 -94 -208q-94 -81 -254 -81t-255 113q-94 114 -95 311t104 319q92 104 264 105q127 1 206 -59t99 -162h-213q-20 63 -90 63t-108 -52q-40 -52 -46 -147h2q66 76 188 76
t207 -75t85 -203z" />
    <glyph glyph-name="seven.numerator" horiz-adv-x="720" 
d="M444 1288h-399v176h619v-159q-117 -117 -191 -285t-80 -369h-231q6 197 87 360t195 275v2z" />
    <glyph glyph-name="eight.numerator" horiz-adv-x="796" 
d="M397 1147q53 0 83 27q30 26 30 70t-30 71t-83 27t-83 -28q-30 -26 -30 -70t30 -70t83 -27zM397 782q61 0 99 31q36 31 36 84t-35 86t-97 33t-99 -33t-37 -86t36 -84t97 -31zM399 633q-162 1 -257 67t-95 183q0 70 40 123t110 81q-2 2 0 5q-115 51 -115 158q0 106 87 168
t231 62t228 -58q84 -60 85 -166q0 -106 -111 -160v-4q70 -25 109 -79t39 -124q0 -121 -94 -189t-257 -67z" />
    <glyph glyph-name="nine.numerator" horiz-adv-x="790" 
d="M382 1319q-56 0 -93 -39t-37 -95t36 -94t93 -38t94 38t37 95t-37 95t-93 38zM390 1481q162 0 255 -113q92 -112 94 -312t-100 -319q-94 -106 -262 -106q-131 0 -216 60t-106 163h213q20 -63 105 -63q137 0 149 190h-2q-66 -76 -186 -76t-206 77q-85 77 -85 206t92 211
q93 82 255 82z" />
    <glyph glyph-name="acute.cap" 
d="M786 1798l-194 -256h-217l86 256h325z" />
    <glyph glyph-name="breve.cap" 
d="M554 1534q-128 0 -212 77t-92 195h160q14 -98 141 -98q59 0 97 28t44 70h160q-10 -120 -90 -196t-208 -76z" />
    <glyph glyph-name="caron.alt" 
d="M510 1257h-123v207h254v-174q1 -109 -73 -163t-185 -58v90q127 14 127 98z" />
    <glyph glyph-name="caron.cap" 
d="M856 1776l-192 -234h-299l-197 234h242l98 -117h4l100 117h244z" />
    <glyph glyph-name="circumflex.cap" 
d="M168 1542l192 234h299l197 -234h-242l-98 117h-4l-100 -117h-244z" />
    <glyph glyph-name="commaaccent.alt" 
d="M510 -317h-123v219h254v-199q1 -111 -73 -171t-185 -71v90q127 31 127 132z" />
    <glyph glyph-name="dieresis.cap" 
d="M172 1542v234h262v-234h-262zM588 1542v234h262v-234h-262z" />
    <glyph glyph-name="dotaccent.cap" 
d="M373 1542v242h278v-242h-278z" />
    <glyph glyph-name="grave.cap" 
d="M430 1542l-194 256h325l86 -256h-217z" />
    <glyph glyph-name="hungarumlaut.cap" 
d="M233 1542l68 256h264l-162 -256h-170zM590 1542l67 256h265l-162 -256h-170z" />
    <glyph glyph-name="macron.cap" 
d="M231 1561v198h582v-198h-582z" />
    <glyph glyph-name="ring.cap" 
d="M512 1616q39 0 66 28q26 28 26 68t-26 69q-27 27 -66 27t-66 -28q-26 -28 -26 -68t26 -68t66 -28zM512 1520q-82 0 -140 56t-59 136q1 80 59 136t140 56t140 -56t58 -136t-58 -136t-140 -56z" />
    <glyph glyph-name="tilde.cap" 
d="M631 1546q-55 0 -128 34t-95 34q-45 0 -56 -64h-147q0 114 52 178q51 64 119 64t141 -36t95 -36q45 0 60 64h147q0 -106 -50 -172t-138 -66z" />
    <glyph glyph-name="R.alt" horiz-adv-x="1341" 
d="M420 1206v-399h307q117 0 177 52t61 149q0 199 -234 198h-311zM420 565v-565h-307v1464h643q250 0 382 -136t132 -303q0 -325 -291 -425l367 -600h-345l-339 565h-242z" />
    <glyph glyph-name="space_uni0326" 
d="M510 -317h-123v219h254v-199q1 -111 -73 -171t-185 -71v90q127 31 127 132z" />
    <glyph glyph-name="space_uni0326.alt" 
d="M516 1450h123v-219h-254v199q-1 111 73 170t185 71v-90q-127 -31 -127 -131z" />
    <glyph glyph-name="a.alt" horiz-adv-x="1071" 
d="M473 170q115 0 181 59t67 142v155q-45 -28 -179 -58t-184 -62q-49 -32 -49 -103q0 -133 164 -133zM929 -16q-176 0 -208 141q-104 -150 -320 -150q-166 0 -264 83t-98 240q0 156 112 232q113 76 285 100t226 47q53 22 53 78t-48 90t-139 34q-190 0 -198 -148h-248
q4 150 118 248t332 98q451 0 451 -387v-430q0 -54 14 -72t60 -10h6v-170q-49 -24 -134 -24z" />
    <glyph glyph-name="agrave.alt" horiz-adv-x="1071" 
d="M446 1182l-221 288h326l113 -288h-218zM473 170q115 0 181 59t67 142v155q-45 -28 -179 -58t-184 -62q-49 -32 -49 -103q0 -133 164 -133zM929 -16q-176 0 -208 141q-104 -150 -320 -150q-166 0 -264 83t-98 240q0 156 112 232q113 76 285 100t226 47q53 22 53 78t-48 90
t-139 34q-190 0 -198 -148h-248q4 150 118 248t332 98q451 0 451 -387v-430q0 -54 14 -72t60 -10h6v-170q-49 -24 -134 -24z" />
    <glyph glyph-name="aacute.alt" horiz-adv-x="1071" 
d="M872 1470l-221 -288h-217l113 288h325zM473 170q115 0 181 59t67 142v155q-45 -28 -179 -58t-184 -62q-49 -32 -49 -103q0 -133 164 -133zM929 -16q-176 0 -208 141q-104 -150 -320 -150q-166 0 -264 83t-98 240q0 156 112 232q113 76 285 100t226 47q53 22 53 78t-48 90
t-139 34q-190 0 -198 -148h-248q4 150 118 248t332 98q451 0 451 -387v-430q0 -54 14 -72t60 -10h6v-170q-49 -24 -134 -24z" />
    <glyph glyph-name="acircumflex.alt" horiz-adv-x="1071" 
d="M201 1190l192 258h299l197 -258h-242l-98 141h-4l-101 -141h-243zM473 170q115 0 181 59t67 142v155q-45 -28 -179 -58t-184 -62q-49 -32 -49 -103q0 -133 164 -133zM929 -16q-176 0 -208 141q-104 -150 -320 -150q-166 0 -264 83t-98 240q0 156 112 232q113 76 285 100
t226 47q53 22 53 78t-48 90t-139 34q-190 0 -198 -148h-248q4 150 118 248t332 98q451 0 451 -387v-430q0 -54 14 -72t60 -10h6v-170q-49 -24 -134 -24z" />
    <glyph glyph-name="atilde.alt" horiz-adv-x="1071" 
d="M664 1178q-55 0 -128 34t-96 33q-45 0 -55 -63h-147q0 115 52 178t120 63q68 1 140 -35q73 -36 95 -36q45 0 60 63h147q0 -105 -50 -171t-138 -66zM473 170q115 0 181 59t67 142v155q-45 -28 -179 -58t-184 -62q-49 -32 -49 -103q0 -133 164 -133zM929 -16
q-176 0 -208 141q-104 -150 -320 -150q-166 0 -264 83t-98 240q0 156 112 232q113 76 285 100t226 47q53 22 53 78t-48 90t-139 34q-190 0 -198 -148h-248q4 150 118 248t332 98q451 0 451 -387v-430q0 -54 14 -72t60 -10h6v-170q-49 -24 -134 -24z" />
    <glyph glyph-name="adieresis.alt" horiz-adv-x="1071" 
d="M186 1190v233h263v-233h-263zM643 1190v233h262v-233h-262zM473 170q115 0 181 59t67 142v155q-45 -28 -179 -58t-184 -62q-49 -32 -49 -103q0 -133 164 -133zM929 -16q-176 0 -208 141q-104 -150 -320 -150q-166 0 -264 83t-98 240q0 156 112 232q113 76 285 100t226 47
q53 22 53 78t-48 90t-139 34q-190 0 -198 -148h-248q4 150 118 248t332 98q451 0 451 -387v-430q0 -54 14 -72t60 -10h6v-170q-49 -24 -134 -24z" />
    <glyph glyph-name="amacron.alt" horiz-adv-x="1071" 
d="M254 1212v199h582v-199h-582zM473 170q115 0 181 59t67 142v155q-45 -28 -179 -58t-184 -62q-49 -32 -49 -103q0 -133 164 -133zM929 -16q-176 0 -208 141q-104 -150 -320 -150q-166 0 -264 83t-98 240q0 156 112 232q113 76 285 100t226 47q53 22 53 78t-48 90t-139 34
q-190 0 -198 -148h-248q4 150 118 248t332 98q451 0 451 -387v-430q0 -54 14 -72t60 -10h6v-170q-49 -24 -134 -24z" />
    <glyph glyph-name="abreve.alt" horiz-adv-x="1071" 
d="M548 1174q-128 0 -212 76t-92 196h159q14 -98 142 -98q59 0 97 28t44 70h160q-10 -120 -90 -196t-208 -76zM473 170q115 0 181 59t67 142v155q-45 -28 -179 -58t-184 -62q-49 -32 -49 -103q0 -133 164 -133zM929 -16q-176 0 -208 141q-104 -150 -320 -150q-166 0 -264 83
t-98 240q0 156 112 232q113 76 285 100t226 47q53 22 53 78t-48 90t-139 34q-190 0 -198 -148h-248q4 150 118 248t332 98q451 0 451 -387v-430q0 -54 14 -72t60 -10h6v-170q-49 -24 -134 -24z" />
    <glyph glyph-name="aring.alt" horiz-adv-x="1071" 
d="M545 1245q39 0 65 28q26 29 27 69q0 40 -27 68q-28 28 -66 28t-65 -28t-27 -69t28 -69q26 -28 65 -27zM545 1149q-82 0 -141 56q-58 56 -58 136q0 81 58 137t140 56t141 -56q58 -56 58 -136t-58 -137q-58 -56 -140 -56zM473 170q115 0 181 59t67 142v155
q-45 -28 -179 -58t-184 -62q-49 -32 -49 -103q0 -133 164 -133zM929 -16q-176 0 -208 141q-104 -150 -320 -150q-166 0 -264 83t-98 240q0 156 112 232q113 76 285 100t226 47q53 22 53 78t-48 90t-139 34q-190 0 -198 -148h-248q4 150 118 248t332 98q451 0 451 -387v-430
q0 -54 14 -72t60 -10h6v-170q-49 -24 -134 -24z" />
    <glyph glyph-name="aogonek.alt" horiz-adv-x="1071" 
d="M473 170q115 0 181 59t67 142v155q-45 -28 -179 -58t-184 -62q-49 -32 -49 -103q0 -133 164 -133zM940 -356q-221 0 -221 166q0 109 121 190q-98 25 -119 125q-104 -150 -320 -150q-166 0 -264 83t-98 240q0 156 112 232q113 76 285 100t226 47q53 22 53 78t-48 90
t-139 34q-190 0 -198 -148h-248q4 150 118 248t332 98q451 0 451 -387v-430q0 -54 14 -72t60 -10h6v-170q-57 -24 -95 -64t-38 -81q0 -57 63 -58q33 0 66 15h4v-158q-45 -18 -123 -18z" />
    <glyph glyph-name="Ccedilla.alt" horiz-adv-x="1400" 
d="M739 -31q-294 0 -492 214t-198 545t193 548t510 217q262 0 420 -138t184 -356h-295q-19 113 -101 179t-208 65q-195 0 -297 -143q-103 -144 -103 -372t110 -372t292 -143q129 0 215 71t100 187h291q-12 -207 -162 -346q-165 -156 -459 -156zM606 -344v57q109 8 109 86
h-105v150h219v-105q-1 -106 -59 -147t-164 -41z" />
    <glyph glyph-name="Scedilla.alt" horiz-adv-x="1314" 
d="M658 -33q-276 0 -439 126q-164 126 -172 360h291q14 -131 93 -189t221 -57q300 0 300 188q0 78 -47 112q-29 22 -49 35t-95 33t-170 43t-155 39q-60 15 -134 51q-73 36 -115 78t-70 110q-29 69 -29 157q0 211 155 325t405 113q250 0 401 -119q150 -119 165 -338h-284
q-12 106 -89 164t-196 57q-119 0 -191 -47t-71 -128q0 -82 71 -120q70 -38 212 -69t210 -50t148 -55q78 -36 122 -80q44 -42 74 -113t29 -163q1 -217 -157 -340t-434 -123zM543 -344v57q109 8 108 86h-104v150h219v-105q0 -106 -58 -147t-165 -41z" />
    <glyph glyph-name="ccedilla.alt" horiz-adv-x="1081" 
d="M578 -31q-244 0 -392 158q-147 157 -147 397t144 398t380 157q199 0 324 -104t153 -281h-272q-14 72 -66 117t-127 45q-123 0 -189 -88t-64 -243q0 -155 63 -243t186 -89q182 0 211 178h269q-14 -174 -141 -288t-332 -114zM451 -344v57q109 8 108 86h-104v150h219v-105
q0 -106 -58 -147t-165 -41z" />
    <glyph glyph-name="scedilla.alt" horiz-adv-x="993" 
d="M503 -31q-212 -1 -339 99t-139 272h258q27 -174 229 -174q92 0 142 33t50 81t-24 67t-38 27q-27 17 -157 41q-130 23 -191 42q-161 52 -209 146q-30 58 -30 140q0 164 120 250q119 86 315 86t312 -93t132 -255h-252q-16 154 -203 154q-84 0 -132 -31t-48 -79
q1 -48 25 -63q43 -27 98 -39t141 -30q86 -17 130 -29q127 -35 187 -95q80 -80 78 -212q0 -156 -122 -247t-333 -91zM385 -344v57q109 8 109 86h-105v150h219v-105q0 -106 -58 -147t-165 -41z" />
    <glyph glyph-name="hyphen.cap" horiz-adv-x="700" 
d="M57 516v260h586v-260h-586z" />
    <glyph glyph-name="endash.cap" 
d="M0 541v239h1024v-239h-1024z" />
    <glyph glyph-name="emdash.cap" horiz-adv-x="2048" 
d="M205 541v239h1638v-239h-1638z" />
    <glyph glyph-name="questiondown.cap" horiz-adv-x="1075" 
d="M416 1167v297h299v-297h-299zM536 -27q-236 0 -369 121q-134 120 -134 306t125 296q50 46 142 113t103 86q29 54 33 83q4 28 4 58h250q0 -172 -62 -253q-36 -47 -63 -69t-89 -67t-86 -64t-52 -67t-27 -122q1 -76 61 -130t166 -55q106 0 175 69q70 69 71 187h265
q-5 -213 -141 -353t-372 -139z" />
    <glyph glyph-name="exclamdown.cap" horiz-adv-x="520" 
d="M111 1167v297h299v-297h-299zM115 0v324l78 712h135l78 -712v-324h-291z" />
    <glyph glyph-name="parenleft.cap" horiz-adv-x="708" 
d="M428 717q0 -486 254 -924h-233q-311 425 -311 913t308 900h238q-256 -403 -256 -889z" />
    <glyph glyph-name="parenright.cap" horiz-adv-x="708" 
d="M281 716q0 486 -256 890h237q309 -412 309 -900t-311 -913h-233q254 437 254 923z" />
    <glyph glyph-name="bracketleft.cap" horiz-adv-x="782" 
d="M131 -207v1813h586v-217h-318v-1379h318v-217h-586z" />
    <glyph glyph-name="bracketright.cap" horiz-adv-x="782" 
d="M66 -207v217h317v1379h-317v217h585v-1813h-585z" />
    <glyph glyph-name="braceleft.cap" horiz-adv-x="782" 
d="M651 -207q-223 0 -326 83t-104 296v270q0 80 -38 118t-132 40v205q94 4 132 42t38 116v266q-1 213 103 295t327 82h66v-217h-55q-92 0 -132 -33t-41 -127v-311q0 -92 -28 -140q-29 -47 -94 -71v-7q67 -24 95 -72t27 -139v-317q0 -94 40 -128t133 -34h55v-217h-66z" />
    <glyph glyph-name="braceright.cap" horiz-adv-x="782" 
d="M66 -207v217h55q92 0 132 33t40 127v317q0 91 29 139t94 72v7q-66 25 -94 73t-29 137v312q0 94 -40 128t-132 34h-55v217h65q223 0 327 -83t103 -296v-264q0 -80 38 -118t132 -40v-205q-94 -4 -132 -42t-38 -116v-272q0 -213 -103 -295t-327 -82h-65z" />
    <glyph glyph-name="guillemotleft.cap" horiz-adv-x="915" 
d="M406 233l-295 273v270l295 273v-263l-164 -145v-4l164 -145v-259zM795 233l-295 273v270l295 273v-263l-164 -145v-4l164 -145v-259z" />
    <glyph glyph-name="guillemotright.cap" horiz-adv-x="915" 
d="M510 1049l295 -273v-270l-295 -273v263l164 145v4l-164 146v258zM121 1049l295 -273v-270l-295 -273v263l164 145v4l-164 146v258z" />
    <glyph glyph-name="guilsinglleft.cap" horiz-adv-x="567" 
d="M446 225l-335 287v258l335 287v-269l-180 -147v-4l180 -148v-264z" />
    <glyph glyph-name="guilsinglright.cap" horiz-adv-x="567" 
d="M121 1057l336 -287v-258l-336 -287v269l180 147v4l-180 148v264z" />
    <glyph glyph-name="registered.alt" horiz-adv-x="1669" 
d="M715 981v-205h153q129 0 129 102t-125 103h-157zM506 311v834h403q129 1 214 -63t85 -179q0 -147 -145 -201v-4q102 -33 121 -159q6 -37 12 -120t27 -91v-17h-209q-14 8 -21 84q-8 76 -14 123q-13 103 -133 103h-131v-310h-209zM201 727q-1 -285 181 -473t453 -188
t452 188t181 473t-181 473t-452 188t-453 -188t-181 -473zM835 -35q-318 0 -536 218q-217 218 -217 545t218 545t536 218t534 -218q217 -218 217 -546t-217 -545t-535 -217z" />
    <glyph glyph-name="dollar.cap" horiz-adv-x="1296" 
d="M377 1085q0 -69 50 -107t167 -69v344q-100 -10 -158 -54t-59 -114zM942 404q0 80 -54 120t-169 72v-375q99 11 161 57t62 126zM594 -207v191q-258 14 -400 138t-149 339h289q12 -117 74 -173t186 -67v404q-319 73 -413 170q-95 97 -95 260q0 199 138 311t370 121v135h125
v-137q213 -18 340 -134t141 -313h-280q-10 86 -64 140t-137 69v-366q125 -27 204 -54t157 -75q154 -95 155 -307q0 -211 -142 -331t-374 -130v-191h-125z" />
    <glyph glyph-name="Euro.cap" horiz-adv-x="1339" 
d="M35 788v125h115q43 264 205 422q163 158 404 158t380 -135t161 -359h-286q-39 252 -254 252q-125 0 -204 -89t-107 -249h382v-125h-395q-2 -18 -2 -64t2 -71h395v-125h-380q63 -319 319 -319q118 0 184 81t80 218h279q-11 -244 -155 -392t-388 -148t-408 150
q-164 151 -210 410h-117v125h102q-2 25 -2 71t2 64h-102z" />
    <glyph glyph-name="sterling.cap" horiz-adv-x="1232" 
d="M66 623v184h96q-66 131 -66 246q0 195 142 317t395 123q251 0 397 -127t152 -395h-289q-2 147 -71 217q-68 70 -182 70t-175 -59q-61 -57 -61 -147t75 -245h318v-184h-254q4 -37 4 -60q0 -174 -166 -297l4 -6q100 39 174 39t164 -32t145 -31q104 0 209 92l133 -226
q-156 -133 -340 -133q-110 0 -238 50q-128 51 -211 51t-214 -86l-148 217q203 135 203 317q0 47 -14 105h-182z" />
    <glyph glyph-name="yen.cap" horiz-adv-x="1286" 
d="M133 563v125h313l-430 776h332l211 -426l88 -188h4q47 109 86 188l209 426h324l-434 -776h321v-125h-373v-135h373v-125h-373v-303h-278v303h-373v125h373v135h-373z" />
    <glyph glyph-name="zero.cap" horiz-adv-x="1345" 
d="M676 211q305 0 305 520q0 244 -75 381q-76 137 -232 137t-233 -137t-77 -381t78 -382q76 -138 234 -138zM678 1493q282 0 444 -204t162 -557t-162 -559t-446 -206q-283 0 -449 207t-166 557t167 556t450 206z" />
    <glyph glyph-name="one.cap" horiz-adv-x="837" 
d="M389 0v1026h-323v188q324 12 362 254h254v-1468h-293z" />
    <glyph glyph-name="two.cap" horiz-adv-x="1157" 
d="M788 1018q0 106 -52 168t-158 63q-106 0 -170 -78t-66 -221h-270q0 256 132 398t376 143q244 0 376 -133q131 -133 131 -342t-162 -359q-59 -53 -97 -79t-109 -76q-238 -152 -297 -264h674v-238h-1045q5 188 101 324t251 258q35 27 109 80q215 154 257 254q19 48 19 102z
" />
    <glyph glyph-name="three.cap" horiz-adv-x="1210" 
d="M1153 424q1 -219 -153 -335t-412 -116q-258 1 -404 139t-151 382h274q20 -292 279 -292q134 0 200 64q66 63 66 176q0 223 -264 224h-90v217h84q106 0 171 53t65 141q0 87 -57 141q-56 54 -164 54q-107 0 -173 -71t-70 -189h-274q8 221 144 351t376 130t374 -105
q136 -105 136 -288q0 -227 -252 -309v-5q295 -72 295 -362z" />
    <glyph glyph-name="four.cap" horiz-adv-x="1265" 
d="M283 551h444v569h-4l-440 -563v-6zM727 0v322h-676v303l666 850h291v-924h219v-229h-219v-322h-281z" />
    <glyph glyph-name="five.cap" horiz-adv-x="1228" 
d="M1171 490q1 -230 -157 -376t-402 -147q-244 0 -404 123t-179 334h282q19 -106 99 -160t200 -55q120 0 191 79q71 80 71 204t-70 195q-72 71 -212 71t-217 -92h-279l142 798h856v-239h-656l-55 -320h4q104 90 305 90t341 -138q140 -137 140 -367z" />
    <glyph glyph-name="six.cap" horiz-adv-x="1265" 
d="M375 481q0 -127 80 -207t203 -79q122 -1 202 81t80 204t-79 206t-205 84t-204 -81q-77 -81 -77 -208zM702 1004q216 0 366 -148t149 -372q0 -226 -157 -372t-373 -145t-356 105q-262 195 -267 621t180 632q150 168 426 168q217 0 344 -102t155 -275h-278
q-35 154 -202 154t-250 -111t-83 -309h4q126 154 342 154z" />
    <glyph glyph-name="seven.cap" horiz-adv-x="1132" 
d="M768 1219h-727v245h1042v-235q-217 -221 -365 -539t-165 -690h-313q12 368 170 688t358 526v5z" />
    <glyph glyph-name="eight.cap" horiz-adv-x="1275" 
d="M638 885q112 0 175 54t64 142q-1 89 -63 141t-176 52t-176 -52t-62 -140t62 -143q64 -54 176 -54zM637 201q131 -1 209 65t78 176t-74 176t-207 66t-211 -68t-78 -178t76 -174q76 -63 207 -63zM644 -33q-257 0 -423 121t-166 336q0 133 72 232t195 149v6
q-205 90 -205 295q0 182 143 284t383 103q240 0 378 -100t138 -290t-203 -286v-6q123 -45 194 -143t71 -232q0 -221 -160 -345t-417 -124z" />
    <glyph glyph-name="nine.cap" horiz-adv-x="1267" 
d="M616 1268q-130 0 -210 -81t-80 -205t76 -204t209 -80q132 0 216 79t84 204t-83 206t-212 81zM616 -33q-221 1 -357 107t-161 276h281q21 -72 79 -117t150 -45q139 0 213 95q92 117 97 346h-5q-137 -160 -352 -160t-363 141q-148 142 -148 368t156 370q157 144 394 145
q295 0 451 -186t155 -555q0 -785 -590 -785z" />
    <glyph glyph-name="percent.cap" horiz-adv-x="1738" 
d="M418 842q70 0 106 66t35 180q0 114 -36 182q-35 68 -105 68t-106 -68q-36 -66 -36 -181t36 -181t106 -66zM1323 125q69 -1 105 65t36 181t-36 183t-106 67q-70 0 -104 -67q-36 -68 -36 -182t36 -180t105 -67zM362 0l842 1464h174l-841 -1464h-175zM1323 -33
q-160 0 -260 110t-100 294t101 295q101 110 260 110t258 -110t99 -294q0 -185 -99 -295t-259 -110zM418 684q-160 0 -260 110t-100 294t100 294q102 111 261 111t258 -110t99 -295q0 -184 -99 -294t-259 -110z" />
    <glyph glyph-name="perthousand.cap" horiz-adv-x="2539" 
d="M2124 125q70 -1 106 65t35 181q0 115 -36 183q-35 68 -105 67q-70 0 -106 -67q-36 -68 -36 -182t36 -180t106 -67zM2124 -33q-160 0 -260 110t-101 294t101 295q102 110 261 110t258 -110t99 -294q0 -185 -99 -295t-259 -110zM418 842q70 0 106 66t35 180q0 114 -36 182
q-35 68 -105 68t-106 -68q-36 -66 -36 -181t36 -181t106 -66zM1323 125q69 -1 105 65t36 181t-36 183t-106 67q-70 0 -104 -67q-36 -68 -36 -182t36 -180t105 -67zM362 0l842 1464h174l-841 -1464h-175zM1323 -33q-160 0 -260 110t-100 294t101 295q101 110 260 110
t258 -110t99 -294q0 -185 -99 -295t-259 -110zM418 684q-160 0 -260 110t-100 294t100 294q102 111 261 111t258 -110t99 -295q0 -184 -99 -294t-259 -110z" />
    </font>
</defs>
</svg>
