<?xml version="1.0" standalone="no"?>
<!DOCTYPE svg PUBLIC "-//W3C//DTD SVG 1.1//EN" "http://www.w3.org/Graphics/SVG/1.1/DTD/svg11.dtd" >
<svg xmlns="http://www.w3.org/2000/svg">
<metadata>
Created by FontPrep 20130207 at Wed Jan 27 12:30:19 2016
 By Alexander Larson
Copyright (c) 2013 Monotype Imaging Inc. All rights reserved.
</metadata>
<defs>
<font id="37cb66f90a3cadaa44777d0da7e0e268" horiz-adv-x='1024' >
  <font-face 
    font-family="NHaasGroteskTXStd-65Md"
    font-weight="500"
    font-stretch="normal"
    units-per-em="2048"
    panose-1="2 11 6 4 2 2 2 2 2 4"
    ascent="1599"
    descent="-449"
    x-height="1094"
    cap-height="1524"
    bbox="-565 -522 2746 2023"
    underline-thickness="102"
    underline-position="255"
    unicode-range="U+0020-FB04"
  />
<missing-glyph 
 />
    <glyph glyph-name="f_f" unicode="ff" horiz-adv-x="1409" 
d="M862 0v913h-383v-913h-260v913h-168v181h168v110q0 225 199 271q84 55 284 38v-196q-131 6 -177 -19t-46 -110v-94h383v120q0 225 199 271q92 59 289 37v-195q-133 6 -181 -18q-47 -25 -47 -111v-104h226v-181h-226v-913h-260z" />
    <glyph glyph-name="fi" unicode="fi" horiz-adv-x="1239" 
d="M858 1272v252h266v-252h-266zM862 0v1094h258v-1094h-258zM51 913v181h168v120q0 174 103 244q84 70 268 70q55 0 117 -6v-195q-133 6 -181 -18q-47 -25 -47 -111v-104h226v-181h-226v-913h-260v913h-168z" />
    <glyph glyph-name="fl" unicode="fl" horiz-adv-x="1245" 
d="M862 0v1524h260v-1524h-260zM51 913v181h168v120q0 174 103 244q88 74 268 70q55 0 117 -6v-195q-133 6 -181 -18q-47 -25 -47 -111v-104h226v-181h-226v-913h-260v913h-168z" />
    <glyph glyph-name="f_f_i" unicode="ffi" horiz-adv-x="1882" 
d="M1501 1272v252h266v-252h-266zM1505 0v1094h258v-1094h-258zM862 0v913h-383v-913h-260v913h-168v181h168v110q0 225 199 271q84 55 284 38v-196q-131 6 -177 -19t-46 -110v-94h383v120q0 225 199 271q92 59 289 37v-195q-133 6 -181 -18q-47 -25 -47 -111v-104h226v-181
h-226v-913h-260z" />
    <glyph glyph-name="f_f_l" unicode="ffl" horiz-adv-x="1888" 
d="M1505 0v1524h260v-1524h-260zM862 0v913h-383v-913h-260v913h-168v181h168v110q0 225 199 271q84 55 284 38v-196q-131 6 -177 -19t-46 -110v-94h383v120q0 225 199 271q92 59 289 37v-195q-133 6 -181 -18q-47 -25 -47 -111v-104h226v-181h-226v-913h-260z" />
    <glyph glyph-name=".notdef" 
 />
    <glyph glyph-name=".null" horiz-adv-x="0" 
 />
    <glyph glyph-name=".null" horiz-adv-x="0" 
 />
    <glyph glyph-name="nonmarkingreturn" horiz-adv-x="681" 
 />
    <glyph glyph-name="space" unicode=" " horiz-adv-x="518" 
 />
    <glyph glyph-name="exclam" unicode="!" horiz-adv-x="567" 
d="M141 0v285h287v-285h-287zM145 1524h275v-426l-68 -609h-137l-70 609v426z" />
    <glyph glyph-name="quotedbl" unicode="&#x22;" horiz-adv-x="829" 
d="M106 975v549h232v-549h-232zM496 975v549h227v-549h-227z" />
    <glyph glyph-name="numbersign" unicode="#" horiz-adv-x="1292" 
d="M539 881l-43 -279h258l43 279h-258zM150 881l34 204h205l57 375h181l-58 -375h258l58 375h178l-57 -375h211l-35 -204h-207l-43 -279h209l-35 -207h-205l-59 -395h-180l59 395h-256l-59 -395h-181l60 395h-209l35 207h204l43 279h-208z" />
    <glyph glyph-name="dollar" unicode="$" horiz-adv-x="1335" 
d="M379 1086q0 -80 54 -122t179 -75v389q-109 -10 -171 -62t-62 -130zM985 407q0 87 -57 130t-189 77v-419q106 13 176 69t70 143zM612 -240v226q-262 18 -402 148t-149 331h269q29 -240 282 -268v448l-4 2q-313 74 -404 170q-91 97 -89 254q0 185 137 291t360 117v157h127
v-159q219 -17 342 -121t140 -283h-258q-25 170 -224 201v-414q98 -23 165 -42q170 -48 261 -141q90 -92 88 -253q0 -196 -143 -312t-371 -126v-226h-127z" />
    <glyph glyph-name="percent" unicode="%" horiz-adv-x="1873" 
d="M1282 391q0 -121 40 -193t117 -73q77 0 115 73q38 72 39 192q0 120 -41 196q-42 76 -116 76t-114 -75t-40 -196zM283 1068q1 -122 39 -194t115 -73q77 1 117 73t40 193t-41 196t-117 75t-114 -74t-39 -196zM1804 390q0 -192 -102 -308t-265 -117q-163 0 -266 117
q-102 117 -102 308t103 308q104 117 266 117t264 -116q102 -117 102 -309zM444 0l811 1458h175l-814 -1458h-172zM436 643q-162 0 -264 117t-102 307t103 307t264 117t262 -115q101 -114 101 -308t-100 -310q-102 -116 -264 -115z" />
    <glyph glyph-name="ampersand" unicode="&#x26;" horiz-adv-x="1421" 
d="M516 1204q0 -104 117 -225l12 -16q160 96 160 235q0 68 -39 110t-102 42t-106 -41q-42 -42 -42 -105zM596 188q152 0 270 101l-327 418q-199 -123 -199 -297q0 -96 75 -159t181 -63zM588 -29q-225 0 -371 119q-145 119 -145 316q0 162 89 263t257 191l-4 6
q-140 162 -140 322t109 256q109 98 276 98t277 -92t108 -238q0 -146 -76 -232q-76 -87 -210 -161l24 -28q14 -19 108 -143q95 -124 120 -154q47 113 59 260h227q-12 -246 -135 -439l252 -315h-317l-97 123q-186 -152 -411 -152z" />
    <glyph glyph-name="quotesingle" unicode="'" horiz-adv-x="444" 
d="M106 975v549h232v-549h-232z" />
    <glyph glyph-name="parenleft" unicode="(" horiz-adv-x="722" 
d="M143 670q0 274 91 517t237 419h213q-262 -422 -262 -927t262 -953h-213q-328 430 -328 944z" />
    <glyph glyph-name="parenright" unicode=")" horiz-adv-x="722" 
d="M305 682q0 506 -266 924h215q145 -176 236 -419t92 -517q0 -514 -328 -944h-215q266 450 266 956z" />
    <glyph glyph-name="asterisk" unicode="*" horiz-adv-x="907" 
d="M373 1524h164v-262l227 75l53 -141l-235 -78l153 -213l-127 -90l-151 225l-156 -225l-127 90l152 213l-240 78l57 141l230 -75v262z" />
    <glyph glyph-name="plus" unicode="+" horiz-adv-x="1236" 
d="M119 594v207h389v409h221v-409h389v-207h-389v-410h-221v410h-389z" />
    <glyph glyph-name="comma" unicode="," horiz-adv-x="483" 
d="M233 -12v12h-133v285h285v-283q0 -162 -76 -248t-207 -100v127q131 39 131 207z" />
    <glyph glyph-name="hyphen" unicode="-" horiz-adv-x="753" 
d="M90 446v230h574v-230h-574z" />
    <glyph glyph-name="period" unicode="." horiz-adv-x="483" 
d="M100 0v285h285v-285h-285z" />
    <glyph glyph-name="slash" unicode="/" horiz-adv-x="927" 
d="M-43 -274l711 1880h245l-710 -1880h-246z" />
    <glyph glyph-name="zero" unicode="0" horiz-adv-x="1392" 
d="M696 186q328 0 328 543q0 256 -81 400q-81 145 -246 145t-247 -144t-81 -400q-1 -256 81 -400t246 -144zM698 -35q-278 0 -443 208t-165 556t166 555t442 207t441 -205q164 -205 164 -556t-164 -558q-163 -207 -441 -207z" />
    <glyph glyph-name="one" unicode="1" horiz-adv-x="854" 
d="M414 0v997h-338v181q352 10 397 292h211v-1470h-270z" />
    <glyph glyph-name="two" unicode="2" horiz-adv-x="1236" 
d="M626 1270q-120 0 -188 -78q-74 -80 -73 -238h-265q0 217 115 361q141 174 432 174q236 0 373 -128t137 -329q0 -147 -70 -238t-213 -186q-44 -34 -154 -106t-184 -132t-112 -126v-11h721v-233h-1073q8 236 155 403q77 86 162 147t176 120t103 67q114 72 164 134t50 164
q0 103 -67 169q-69 66 -189 66z" />
    <glyph glyph-name="three" unicode="3" horiz-adv-x="1280" 
d="M1204 414q0 -213 -156 -331t-407 -118q-250 0 -414 129q-170 139 -174 383h258q6 -137 91 -217q86 -80 230 -80t221 66t77 184t-82 179q-82 60 -234 61h-90v194h84q135 0 209 56t74 153t-71 155q-70 58 -192 58t-196 -76t-78 -190h-256q4 209 150 340t384 131t382 -110
t143 -296q0 -217 -246 -299v-4q293 -82 293 -368z" />
    <glyph glyph-name="four" unicode="4" horiz-adv-x="1310" 
d="M504 545h289v418l10 219h-4q-76 -121 -135 -197l-209 -264l-164 -182v-4q131 10 213 10zM793 0v342h-695v240l711 893h246v-930h225v-203h-225v-342h-262z" />
    <glyph glyph-name="five" unicode="5" horiz-adv-x="1251" 
d="M623 -33q-242 0 -397 121t-171 315h267q20 -98 94 -155q74 -58 200 -58t207 81q80 81 80 214t-80 212t-200 79q-178 0 -271 -114h-256l156 796h835v-223h-643l-79 -375h4q119 125 319 125t345 -137q145 -138 145 -368t-156 -372t-399 -141z" />
    <glyph glyph-name="six" unicode="6" horiz-adv-x="1310" 
d="M683 172q128 0 211 85t83 216t-84 215t-215 84t-216 -83t-85 -215t89 -217t217 -85zM676 -35q-246 0 -402 172q-182 195 -182 592q-4 362 156 562t444 200q213 0 341 -108t157 -269h-262q-14 72 -72 123t-160 51q-330 0 -348 -512h4q133 205 377 205q207 0 353 -144
q146 -143 148 -361t-152 -364q-156 -146 -402 -147z" />
    <glyph glyph-name="seven" unicode="7" horiz-adv-x="1159" 
d="M537 1227h-476v231h1051v-211q-229 -215 -388 -541t-175 -706h-285q18 371 188 706q169 335 396 527v4q-152 -10 -311 -10z" />
    <glyph glyph-name="eight" unicode="8" horiz-adv-x="1306" 
d="M346 429q0 -119 83 -187t225 -68t226 69q83 69 83 189t-82 190q-81 70 -225 70t-227 -72t-83 -191zM653 879q121 0 189 55t67 151q0 96 -67 153q-68 56 -189 56t-189 -56t-69 -152q1 -96 69 -152q68 -55 189 -55zM657 -35q-249 0 -417 118t-168 333q0 139 81 235t222 137
v7q-236 78 -236 303q1 178 143 286t372 107q230 1 372 -105t141 -284q0 -106 -59 -186t-174 -117v-6q141 -37 221 -135t80 -236q0 -221 -164 -339t-414 -118z" />
    <glyph glyph-name="nine" unicode="9" horiz-adv-x="1312" 
d="M638 684q134 0 219 84t85 216t-87 216t-219 84t-216 -84t-84 -215t84 -216t218 -85zM658 -35q-236 0 -379 112t-164 277h264q14 -76 81 -130t175 -54q154 0 233 111q88 111 101 385h-4q-145 -188 -367 -188t-368 144q-148 144 -148 362t156 362t389 145q233 0 385 -129
q211 -174 211 -618t-185 -627q-144 -152 -380 -152z" />
    <glyph glyph-name="colon" unicode=":" horiz-adv-x="497" 
d="M106 0v285h285v-285h-285zM106 653v283h285v-283h-285z" />
    <glyph glyph-name="semicolon" unicode=";" horiz-adv-x="497" 
d="M240 -12v12h-134v285h285v-283q1 -162 -75 -248t-207 -100v127q131 39 131 207zM106 653v283h285v-283h-285z" />
    <glyph glyph-name="less" unicode="&#x3c;" horiz-adv-x="1114" 
d="M987 170l-870 369v243l870 369v-231l-403 -160l-285 -98v-5q174 -51 285 -92l403 -157v-238z" />
    <glyph glyph-name="equal" unicode="=" horiz-adv-x="1232" 
d="M127 356v203h983v-203h-983zM127 768v203h983v-203h-983z" />
    <glyph glyph-name="greater" unicode="&#x3e;" horiz-adv-x="1114" 
d="M127 1151l870 -369v-243l-870 -369v229l405 162l285 98v5q-174 51 -285 92l-405 157v238z" />
    <glyph glyph-name="question" unicode="?" horiz-adv-x="1157" 
d="M813 1141q0 84 -62 136t-178 52t-189 -75t-77 -195h-260q7 209 149 350t382 141t374 -112q135 -112 135 -296q0 -183 -169 -323q-31 -25 -100 -76t-107 -94q-45 -55 -47 -160h-236q2 137 46 226t194 207q114 92 135 152q10 30 10 67zM401 0v285h285v-285h-285z" />
    <glyph glyph-name="at" unicode="@" horiz-adv-x="1929" 
d="M772 590q0 -215 169 -215q91 0 149 88q57 87 57 207q0 232 -168 233q-99 0 -153 -87t-54 -226zM868 199q-154 0 -244 105t-92 303q0 198 114 336t288 138t237 -151h5l14 131h229l-67 -553q-18 -154 94 -154q92 0 159 86t66 281q0 311 -184 475q-183 164 -491 164
t-518 -205t-210 -551q0 -301 178 -489t498 -189q203 0 393 78l58 -141q-197 -94 -447 -94q-380 0 -622 230t-242 605q0 283 133 496t338 317q205 105 439 105t424 -89t309 -275q120 -186 120 -436q1 -251 -115 -389t-300 -138q-106 0 -181 45q-74 45 -98 129h-4
q-93 -170 -281 -170z" />
    <glyph glyph-name="A" unicode="A" horiz-adv-x="1470" 
d="M629 924l-121 -353h438l-117 353q-53 157 -84 315l-12 51h-4q-51 -221 -100 -366zM29 0l553 1524h303l555 -1524h-303l-121 362h-578l-123 -362h-286z" />
    <glyph glyph-name="B" unicode="B" horiz-adv-x="1435" 
d="M424 231h407q127 -1 191 61t63 168q0 106 -71 165q-72 59 -191 59h-399v-453zM424 895h369q113 0 176 53q63 52 63 148t-60 148t-165 52h-383v-401zM143 0v1524h691q240 0 358 -117q117 -106 117 -279q0 -236 -250 -311v-6q145 -35 228 -131t83 -238q0 -199 -135 -315
q-137 -127 -379 -127h-713z" />
    <glyph glyph-name="C" unicode="C" horiz-adv-x="1540" 
d="M802 -33q-316 0 -518 222q-202 223 -202 569t201 570t534 224q258 0 422 -125q186 -145 215 -393h-283q-20 125 -114 202t-242 77q-211 0 -328 -155q-117 -154 -117 -400t123 -399q122 -153 324 -152q164 0 260 95t109 241h284q-4 -113 -54 -221q-163 -355 -614 -355z
" />
    <glyph glyph-name="D" unicode="D" horiz-adv-x="1517" 
d="M430 242h281q221 0 329 133t107 380q1 247 -105 387t-323 140h-289v-1040zM145 0v1524h600q326 0 509 -209q184 -209 184 -559t-184 -553t-525 -203h-584z" />
    <glyph glyph-name="E" unicode="E" horiz-adv-x="1368" 
d="M143 0v1524h1114v-242h-831v-377h735v-227h-735v-430h850v-248h-1133z" />
    <glyph glyph-name="F" unicode="F" horiz-adv-x="1294" 
d="M143 0v1524h1082v-244h-799v-391h666v-236h-666v-653h-283z" />
    <glyph glyph-name="G" unicode="G" horiz-adv-x="1603" 
d="M798 -35q-312 0 -513 217t-201 587t231 591q197 193 508 192q271 0 437 -131t208 -354h-286q-33 113 -121 181t-234 67q-223 0 -339 -155q-116 -154 -116 -402t126 -402q125 -154 319 -154t298 107q103 106 106 262v19h-369v221h641v-811h-190l-39 209h-9
q-145 -244 -457 -244z" />
    <glyph glyph-name="H" unicode="H" horiz-adv-x="1525" 
d="M143 0v1524h283v-613h674v613h284v-1524h-284v676h-674v-676h-283z" />
    <glyph glyph-name="I" unicode="I" horiz-adv-x="573" 
d="M143 0v1524h285v-1524h-285z" />
    <glyph glyph-name="J" unicode="J" horiz-adv-x="1146" 
d="M553 -29q-244 0 -370 126t-126 368v78h267v-70q0 -145 52 -207t163 -61q201 0 200 225v1094h285v-1104q0 -193 -102 -303q-125 -146 -369 -146z" />
    <glyph glyph-name="K" unicode="K" horiz-adv-x="1460" 
d="M143 0v1524h283v-353q0 -123 -10 -323l647 676h344l-598 -611l641 -913h-332l-512 731l-180 -182v-549h-283z" />
    <glyph glyph-name="L" unicode="L" horiz-adv-x="1228" 
d="M143 0v1524h283v-1276h741v-248h-1024z" />
    <glyph glyph-name="M" unicode="M" horiz-adv-x="1808" 
d="M143 0v1524h375l250 -725q40 -120 113 -424l20 -88h6q74 332 131 512l246 725h383v-1524h-264v795l18 475h-4q-63 -281 -112 -432l-289 -838h-230l-290 838q-50 149 -95 358l-18 74h-4q18 -309 18 -475v-795h-254z" />
    <glyph glyph-name="N" unicode="N" horiz-adv-x="1529" 
d="M143 0v1524h291l506 -799q54 -87 162 -295l28 -59h7q-16 238 -17 389v764h269v-1524h-291l-504 795q-60 96 -164 297l-29 59h-4q14 -238 15 -389v-762h-269z" />
    <glyph glyph-name="O" unicode="O" horiz-adv-x="1662" 
d="M371 758q0 -246 121 -400t341 -153q221 -1 339 153t118 401t-119 403t-337 157q-218 0 -341 -157q-122 -158 -122 -404zM831 -35q-341 0 -545 223q-204 222 -204 570t205 571t545 223t544 -223q205 -223 205 -570t-205 -571t-545 -223z" />
    <glyph glyph-name="P" unicode="P" horiz-adv-x="1368" 
d="M430 1280v-479h340q129 1 197 65q67 64 67 178t-67 175q-68 61 -193 61h-344zM143 0v1524h660q256 0 386 -142t130 -346q0 -206 -133 -334t-371 -129h-385v-573h-287z" />
    <glyph glyph-name="Q" unicode="Q" horiz-adv-x="1660" 
d="M831 199q106 0 191 37l-188 165l129 148l215 -189q110 152 110 399t-119 403t-338 157q-219 0 -339 -157q-120 -158 -121 -404q1 -246 121 -402t339 -157zM831 -35q-341 0 -545 222q-204 223 -204 571t204 571t544 223t545 -223q204 -223 204 -571t-203 -570l201 -174
l-131 -145l-225 194q-168 -98 -390 -98z" />
    <glyph glyph-name="R" unicode="R" horiz-adv-x="1449" 
d="M426 1292v-469h369q131 -1 201 61t71 171q0 238 -262 237h-379zM143 0v1524h719q217 0 353 -116t137 -312q0 -287 -281 -377v-6q119 -37 172 -112t66 -218q4 -39 16 -163t23 -160q10 -35 28 -46v-14h-286q-32 24 -38 115q-5 90 -11 144q-5 54 -7 89q-12 134 -79 196
t-203 62h-326v-606h-283z" />
    <glyph glyph-name="S" unicode="S" horiz-adv-x="1396" 
d="M700 -35q-284 1 -458 143t-185 379h285q31 -295 383 -294q131 0 217 57t86 156t-62 151t-297 107q-236 55 -324 97q-89 42 -132 86q-102 104 -100 269q0 211 154 323q155 111 413 111t410 -118t174 -332h-277q-16 113 -98 173t-214 60t-209 -51t-77 -144q0 -94 87 -138
t296 -87q98 -23 166 -42t146 -56q232 -111 231 -377q0 -221 -166 -347q-165 -126 -449 -126z" />
    <glyph glyph-name="T" unicode="T" horiz-adv-x="1353" 
d="M59 1280v244h1237v-244h-477v-1280h-284v1280h-476z" />
    <glyph glyph-name="U" unicode="U" horiz-adv-x="1464" 
d="M1343 514q1 -264 -161 -402t-451 -139t-449 137t-159 404v1010h283v-1006q0 -309 329 -309q156 0 240 80t84 233v1002h284v-1010z" />
    <glyph glyph-name="V" unicode="V" horiz-adv-x="1388" 
d="M541 0l-514 1524h299l276 -865q52 -183 82 -323l14 -68h4q53 252 97 391l272 865h291l-518 -1524h-303z" />
    <glyph glyph-name="W" unicode="W" horiz-adv-x="2013" 
d="M432 0l-405 1524h290l181 -738q37 -153 69 -413l11 -84h4q49 324 92 506l186 729h279l184 -727q47 -214 76 -422l12 -86h4q41 313 88 499l180 736h291l-422 -1524h-276l-195 797q-28 111 -69 379l-11 77h-4q-41 -295 -77 -456l-205 -797h-283z" />
    <glyph glyph-name="X" unicode="X" horiz-adv-x="1435" 
d="M39 0l518 791l-477 733h326l172 -281q50 -85 122 -235l23 -45h4q84 172 152 280l172 281h311l-477 -733l510 -791h-336l-195 328q-51 86 -123 237l-22 47h-4q-86 -174 -154 -284l-201 -328h-321z" />
    <glyph glyph-name="Y" unicode="Y" horiz-adv-x="1417" 
d="M563 0v602l-534 922h313l215 -385q63 -111 129 -271l23 -55h4q86 201 153 326l217 385h301l-536 -926v-598h-285z" />
    <glyph glyph-name="Z" unicode="Z" horiz-adv-x="1390" 
d="M76 0v242l647 807q47 57 182 200l39 37v6q-186 -8 -299 -8h-514v240h1141v-224l-631 -796q-98 -118 -201 -221l-41 -41v-6q195 10 314 10h590v-246h-1227z" />
    <glyph glyph-name="bracketleft" unicode="[" horiz-adv-x="806" 
d="M160 -274v1880h559v-205h-305v-1469h305v-206h-559z" />
    <glyph glyph-name="backslash" unicode="\" horiz-adv-x="927" 
d="M971 -274h-246l-709 1880h246z" />
    <glyph glyph-name="bracketright" unicode="]" horiz-adv-x="806" 
d="M86 -274v206h303v1469h-303v205h559v-1880h-559z" />
    <glyph glyph-name="asciicircum" unicode="^" horiz-adv-x="1017" 
d="M35 903l358 621h232l358 -621h-254l-217 387h-4l-221 -387h-252z" />
    <glyph glyph-name="underscore" unicode="_" horiz-adv-x="894" 
d="M-4 -358v174h903v-174h-903z" />
    <glyph glyph-name="grave" unicode="`" horiz-adv-x="1101" 
d="M473 1266l-217 315h309l109 -315h-201z" />
    <glyph glyph-name="a" unicode="a" horiz-adv-x="1159" 
d="M518 152q127 0 202 74t75 171v162q-63 -41 -205 -70t-202 -65q-58 -37 -58 -121q0 -151 188 -151zM590 1122q450 0 448 -374v-576q0 -127 41 -154v-18h-252q-31 41 -36 141h-5q-125 -168 -344 -168q-166 0 -269 84t-103 252t122 235q122 66 296 88q175 21 238 52
q62 32 62 102t-50 113t-146 43q-213 0 -223 -176h-246q6 152 126 254t341 102z" />
    <glyph glyph-name="b" unicode="b" horiz-adv-x="1245" 
d="M652 178q132 0 200 100t68 268q0 169 -68 271q-68 103 -203 103t-208 -104t-73 -270q0 -164 76 -266t208 -102zM702 -35q-228 0 -325 193h-6v-158h-252v1524h260v-361q0 -117 -8 -231h6q119 190 334 190t344 -158t129 -423q0 -264 -127 -420t-355 -156z" />
    <glyph glyph-name="c" unicode="c" horiz-adv-x="1165" 
d="M602 -33q-232 0 -386 165t-153 414q0 248 152 412t399 164q205 0 334 -106t160 -287h-254q-18 90 -80 142t-158 53q-139 0 -214 -104q-74 -104 -74 -273q0 -170 74 -274q75 -103 214 -103q106 0 170 59q63 59 74 168h254q-12 -193 -146 -311t-366 -119z" />
    <glyph glyph-name="d" unicode="d" horiz-adv-x="1249" 
d="M598 178q135 0 209 100t74 269q0 168 -75 270q-75 103 -208 103t-202 -102q-68 -102 -68 -272q0 -168 68 -268t202 -100zM546 -35q-224 0 -353 157t-129 420t132 422q132 158 347 158t331 -186h5q-8 119 -9 227v361h260v-1524h-251v160h-5q-104 -195 -328 -195z" />
    <glyph glyph-name="e" unicode="e" horiz-adv-x="1202" 
d="M603 934q-119 0 -189 -77t-88 -212h544q-8 135 -77 212q-70 77 -190 77zM621 -33q-254 0 -406 164t-152 413q0 250 152 414t388 164t380 -153q160 -168 156 -488h-817q14 -145 91 -230t210 -85q186 0 241 143h254q-42 -154 -172 -248t-325 -94z" />
    <glyph glyph-name="f" unicode="f" horiz-adv-x="765" 
d="M51 913v181h168v120q0 162 87 240t284 74q55 0 117 -6v-195q-133 6 -181 -18q-47 -25 -47 -111v-104h226v-181h-226v-913h-260v913h-168z" />
    <glyph glyph-name="g" unicode="g" horiz-adv-x="1239" 
d="M603 920q-130 0 -200 -88q-69 -88 -69 -242q0 -152 70 -241t203 -89q134 0 201 90q66 90 66 243t-70 240q-71 87 -201 87zM618 -381q-232 0 -363 85q-130 85 -151 241h250q27 -135 246 -135q264 0 264 239v27q0 78 4 151h-6q-104 -168 -309 -168q-205 -1 -341 143
t-136 385t131 388t345 147t310 -170h4v142h252v-1022q0 -221 -137 -342q-131 -111 -363 -111z" />
    <glyph glyph-name="h" unicode="h" horiz-adv-x="1206" 
d="M379 1114q0 -51 -4 -178h6q117 186 338 186q176 0 276 -102t101 -279v-741h-260v698q0 98 -56 154t-158 55q-104 -1 -174 -75t-69 -191v-641h-260v1524h260v-410z" />
    <glyph glyph-name="i" unicode="i" horiz-adv-x="495" 
d="M119 0v1094h260v-1094h-260zM115 1272v252h266v-252h-266z" />
    <glyph glyph-name="j" unicode="j" horiz-adv-x="497" 
d="M115 1272v252h266v-252h-266zM86 -360q-80 0 -147 14v190h77q53 4 78 28t25 81v1141h260v-1151q0 -163 -77 -233t-216 -70z" />
    <glyph glyph-name="k" unicode="k" horiz-adv-x="1163" 
d="M377 0h-258v1524h258v-590q0 -14 -8 -268l411 428h310l-402 -400l449 -694h-303l-328 524l-129 -129v-395z" />
    <glyph glyph-name="l" unicode="l" horiz-adv-x="505" 
d="M123 0v1524h262v-1524h-262z" />
    <glyph glyph-name="m" unicode="m" horiz-adv-x="1808" 
d="M119 0v1094h252v-166h6q111 194 328 194t290 -204h4q125 205 344 204q167 0 261 -101t94 -280v-741h-260v707q0 92 -49 146t-137 54t-151 -72q-62 -73 -63 -188v-647h-260v707q0 94 -45 147t-132 53q-87 1 -155 -73t-67 -187v-647h-260z" />
    <glyph glyph-name="n" unicode="n" horiz-adv-x="1206" 
d="M373 1094v-160h6q113 188 340 188q176 0 276 -102t101 -279v-741h-260v698q0 98 -56 154t-158 55q-104 -1 -174 -75t-69 -191v-641h-260v1094h254z" />
    <glyph glyph-name="o" unicode="o" horiz-adv-x="1241" 
d="M621 164q139 0 216 105t77 277t-77 277q-77 107 -216 107t-217 -106t-76 -278q0 -171 76 -277q78 -105 217 -105zM623 -33q-250 0 -405 165t-155 413q0 249 155 413t405 164q251 0 403 -164t152 -412t-152 -414q-152 -165 -403 -165z" />
    <glyph glyph-name="p" unicode="p" horiz-adv-x="1251" 
d="M651 172q135 0 204 100t69 268t-69 269q-69 102 -204 102t-209 -104t-74 -268t74 -266q74 -101 209 -101zM119 -367v1461h252v-162h6q119 190 336 190t346 -158t129 -420q0 -263 -129 -421t-352 -158t-330 174h-6q8 -82 8 -213v-293h-260z" />
    <glyph glyph-name="q" unicode="q" horiz-adv-x="1251" 
d="M603 172q136 0 209 100t73 268t-74 269q-74 102 -210 102t-204 -101q-67 -101 -67 -269t68 -269q69 -100 205 -100zM874 -367v293q0 53 7 213h-4q-117 -174 -334 -174t-346 158t-129 420t130 421q130 158 349 158t327 -186h7v158h252v-1461h-259z" />
    <glyph glyph-name="r" unicode="r" horiz-adv-x="811" 
d="M371 1094v-197h6q104 213 313 213q47 0 70 -10v-234h-8q-33 8 -72 8q-133 2 -217 -84t-84 -241v-549h-260v1094h252z" />
    <glyph glyph-name="s" unicode="s" horiz-adv-x="1087" 
d="M547 -35q-219 1 -352 101t-146 270h250q29 -186 260 -186q104 0 158 39q53 40 53 105t-43 97t-190 60q-146 27 -201 45q-170 54 -217 151q-31 61 -31 150q0 153 119 239t321 86t319 -86q116 -86 136 -235h-248q-29 145 -217 145q-88 0 -136 -36t-48 -97t60 -88t137 -41
t150 -27t148 -46q76 -33 111 -67q84 -80 84 -239q0 -158 -129 -249t-348 -91z" />
    <glyph glyph-name="t" unicode="t" horiz-adv-x="759" 
d="M53 915v179h168v348h256v-348h219v-179h-219v-612q0 -57 29 -80q48 -38 172 -14h12v-203q-86 -16 -172 -16q-297 0 -297 256v669h-168z" />
    <glyph glyph-name="u" unicode="u" horiz-adv-x="1193" 
d="M1075 0h-252v156h-4q-125 -184 -317 -184t-291 102q-100 104 -100 282v738h260v-701q0 -96 53 -150q52 -55 156 -55t171 75t66 190v641h258v-1094z" />
    <glyph glyph-name="v" unicode="v" horiz-adv-x="1071" 
d="M389 0l-379 1094h273l159 -510q54 -179 80 -308l13 -59h6q43 219 90 367l166 510h264l-387 -1094h-285z" />
    <glyph glyph-name="w" unicode="w" horiz-adv-x="1644" 
d="M358 0l-342 1094h271l141 -510q25 -87 59 -277l9 -53h4q35 199 71 330l136 510h229l139 -510l70 -332h4q31 199 70 332l145 510h262l-348 -1094h-250l-137 520l-68 322h-4q-41 -207 -69 -322l-142 -520h-250z" />
    <glyph glyph-name="x" unicode="x" horiz-adv-x="1179" 
d="M37 0l397 573l-354 521h299l108 -172l103 -195h4q59 123 102 195l111 172h278l-346 -508l402 -586h-301l-144 219l-110 207h-4q-66 -129 -113 -207l-145 -219h-287z" />
    <glyph glyph-name="y" unicode="y" horiz-adv-x="1103" 
d="M298 -373q-146 0 -181 13v210h14q16 -10 109 -10q129 0 159 121l2 78q0 69 -14 104l-377 951h277l180 -508q50 -147 80 -285l12 -55h4q49 207 94 340l174 508h263l-424 -1155q-66 -178 -146 -245t-226 -67z" />
    <glyph glyph-name="z" unicode="z" horiz-adv-x="1077" 
d="M82 0v197l436 534q59 68 129 133l29 27v6q-137 -12 -221 -12h-332v209h858v-179l-434 -532q-73 -84 -146 -145l-28 -29v-6q147 10 237 10h398v-213h-926z" />
    <glyph glyph-name="braceleft" unicode="{" horiz-adv-x="786" 
d="M659 -274q-213 0 -312 85t-99 293v316q0 76 -42 112t-143 39v201q100 2 143 39q42 37 42 113v309q0 209 99 291t312 82h60v-205h-51q-92 0 -129 -35t-37 -135v-336q0 -178 -150 -219v-6q78 -25 114 -76t36 -143v-347q0 -98 38 -135t128 -37h51v-206h-60z" />
    <glyph glyph-name="bar" unicode="|" horiz-adv-x="503" 
d="M160 -274v1880h182v-1880h-182z" />
    <glyph glyph-name="braceright" unicode="}" horiz-adv-x="786" 
d="M86 -274v206h39q92 0 129 35t37 135v344q0 92 36 144t115 76v6q-80 22 -116 74t-35 145v338q0 100 -38 136t-128 36h-39v205h47q215 0 313 -84t99 -293v-309q0 -76 40 -113t136 -39v-199q-94 -4 -135 -40t-41 -111v-316q-1 -208 -99 -292t-313 -84h-47z" />
    <glyph glyph-name="asciitilde" unicode="~" horiz-adv-x="927" 
d="M631 549q-61 0 -167 45t-132 45q-66 0 -72 -92h-178q2 151 64 231t165 80q74 0 163 -46t126 -46q70 0 74 90h178q-2 -143 -57 -225t-164 -82z" />
    <glyph glyph-name="uni00A0" unicode="&#xa0;" horiz-adv-x="493" 
 />
    <glyph glyph-name="exclamdown" unicode="&#xa1;" horiz-adv-x="567" 
d="M428 1253v-284h-287v284h287zM422 -270h-275v426l68 608h137l70 -608v-426z" />
    <glyph glyph-name="cent" unicode="&#xa2;" horiz-adv-x="1169" 
d="M324 546q0 -146 58 -246t169 -126v744q-111 -26 -169 -126t-58 -246zM551 -254v225q-223 25 -355 185t-132 390t132 391t355 183v180h125v-180q182 -14 297 -122t141 -275h-252q-33 168 -186 197v-748q84 16 134 74t58 153h248q-10 -182 -128 -299t-312 -131v-223h-125z
" />
    <glyph glyph-name="sterling" unicode="&#xa3;" horiz-adv-x="1253" 
d="M90 629v166h111q-68 152 -68 260q0 190 140 312q141 122 377 122t372 -115q158 -131 160 -383h-262q-2 143 -73 213t-189 70t-180 -60t-62 -153q0 -92 67 -266h297v-166h-250q6 -39 6 -105q1 -147 -190 -295l4 -6q109 55 194 55t179 -33q94 -34 149 -34q111 0 209 94
l127 -203q-150 -131 -336 -131q-104 1 -233 55t-213 54t-213 -92l-139 200q104 72 159 146q90 121 35 295h-178z" />
    <glyph glyph-name="currency" unicode="&#xa4;" horiz-adv-x="1073" 
d="M538 301q-132 0 -229 61l-141 -143l-129 127l139 141q-68 109 -68 243t68 243l-139 143l129 125l139 -143q103 66 229 66t228 -66l139 143l131 -125l-143 -143q67 -105 67 -241t-67 -243l143 -143l-131 -127l-141 143q-92 -61 -224 -61zM536 465q101 0 158 74
q58 75 58 193t-58 193t-158 75q-101 0 -161 -75q-59 -75 -59 -194t59 -193q60 -74 161 -73z" />
    <glyph glyph-name="yen" unicode="&#xa5;" horiz-adv-x="1323" 
d="M162 561v125h323l-452 774h301l162 -303q50 -89 143 -303l25 -61h4q98 231 170 364l161 303h293l-452 -774h327v-125h-370v-155h370v-125h-370v-281h-265v281h-370v125h370v155h-370z" />
    <glyph glyph-name="brokenbar" unicode="&#xa6;" horiz-adv-x="503" 
d="M160 -274v849h182v-849h-182zM160 791v815h182v-815h-182z" />
    <glyph glyph-name="section" unicode="&#xa7;" horiz-adv-x="1323" 
d="M997 467q0 70 -63 118q-64 48 -248 138q-143 66 -223 111q-68 -14 -105 -54q-36 -40 -36 -98q0 -60 64 -111t246 -143q181 -92 224 -117q141 41 141 156zM1122 -54q0 -149 -120 -242t-331 -93q-212 0 -345 116t-140 289h248q4 -88 66 -143t164 -55t151 40t49 98t-36 92
q-36 35 -101 67q-65 33 -133 66q-68 32 -100 48q-218 105 -316 195t-98 217q0 243 258 307q-109 96 -109 234t121 232q121 93 321 93q199 0 319 -102t130 -275h-239q-18 172 -211 173q-90 0 -138 -36q-48 -37 -47 -83t15 -72t69 -59q55 -34 142 -75q202 -94 268 -131
q187 -105 236 -206q32 -63 32 -143q0 -231 -252 -297q127 -106 127 -255z" />
    <glyph glyph-name="dieresis" unicode="&#xa8;" 
d="M160 1272v252h250v-252h-250zM614 1272v252h250v-252h-250z" />
    <glyph glyph-name="copyright" unicode="&#xa9;" horiz-adv-x="1771" 
d="M886 297q-184 0 -306 130t-121 334q0 204 121 336t317 132q152 0 248 -78q117 -82 133 -238h-207q-10 61 -56 101t-120 39q-105 0 -163 -82t-58 -210t61 -208t153 -80t138 45q47 45 55 115h203q-6 -147 -110 -241t-288 -95zM887 57q287 0 477 200t190 500q0 299 -190 499
t-477 200t-479 -200t-193 -500q1 -300 193 -499q192 -200 479 -200zM887 -37q-330 0 -556 226q-227 227 -227 567t226 567t557 227q330 0 556 -227t226 -567t-226 -566t-556 -227z" />
    <glyph glyph-name="ordfeminine" unicode="&#xaa;" horiz-adv-x="1089" 
d="M487 643q111 1 176 63t64 148v131q-57 -33 -180 -53t-172 -53t-49 -105q-1 -131 161 -131zM553 1491q401 0 401 -330v-512q0 -109 35 -133v-14h-235q-27 37 -33 127h-2q-102 -147 -295 -148q-145 0 -241 76q-95 77 -95 219t103 208t266 82q163 17 215 43q51 26 51 85
q0 133 -173 133t-194 -151h-225q10 135 119 225t303 90z" />
    <glyph glyph-name="guillemotleft" unicode="&#xab;" horiz-adv-x="1050" 
d="M465 123l-326 309v252l326 309v-243l-199 -193v-4l199 -193v-237zM911 123l-327 309v252l327 309v-243l-200 -193v-4l200 -193v-237z" />
    <glyph glyph-name="logicalnot" unicode="&#xac;" horiz-adv-x="1136" 
d="M119 690v211h872v-561h-223v350h-649z" />
    <glyph glyph-name="uni00AD" unicode="&#xad;" horiz-adv-x="753" 
d="M90 446v230h574v-230h-574z" />
    <glyph glyph-name="registered" unicode="&#xae;" horiz-adv-x="1345" 
d="M582 1151v-158h120q98 0 99 80q0 78 -96 78h-123zM434 645v623h297q91 0 153 -48t62 -130q0 -115 -123 -150v-4q92 -24 101 -102q4 -36 7 -62q3 -25 4 -42q4 -64 21 -73v-12h-143q-13 7 -19 70q-5 63 -8 76q-6 92 -104 92h-100v-238h-148zM674 436q211 0 351 146t140 369
t-139 369t-352 146t-352 -146q-140 -146 -140 -368t140 -370q140 -146 352 -146zM674 352q-248 0 -420 172t-172 428t171 427t421 171t420 -171t170 -428t-171 -428t-419 -171z" />
    <glyph glyph-name="macron" unicode="&#xaf;" 
d="M213 1303v192h602v-192h-602z" />
    <glyph glyph-name="degree" unicode="&#xb0;" horiz-adv-x="843" 
d="M422 981q76 0 123 52t47 131t-47 132q-47 54 -123 54t-123 -54t-47 -132q0 -79 47 -131t123 -52zM423 840q-138 0 -238 94q-99 94 -99 229t99 231t237 97q138 0 238 -96q100 -95 100 -231t-100 -230t-237 -94z" />
    <glyph glyph-name="plusminus" unicode="&#xb1;" horiz-adv-x="1236" 
d="M119 0v201h999v-201h-999zM119 700v205h389v348h221v-348h389v-205h-389v-350h-221v350h-389z" />
    <glyph glyph-name="twosuperior" unicode="&#xb2;" horiz-adv-x="851" 
d="M431 1374q-69 0 -111 -48t-41 -128h-205q0 162 99 253t263 91t257 -85t93 -210q0 -72 -30 -130t-78 -99q-47 -41 -146 -103q-100 -61 -141 -93t-61 -62h456v-172h-729q2 133 68 222t180 169q31 20 99 63q68 42 94 62q25 20 50 57q26 37 26 88t-37 88t-106 37z" />
    <glyph glyph-name="threesuperior" unicode="&#xb3;" horiz-adv-x="870" 
d="M811 858q-1 -141 -105 -217t-277 -76t-278 91t-108 235h205q4 -72 49 -117t128 -45t126 37t43 104q0 133 -178 134h-58v149h52q162 0 161 119q0 55 -39 87q-38 32 -106 32t-108 -41t-44 -105h-202q4 131 102 215t257 84t253 -70t94 -199q0 -128 -166 -183v-2
q199 -49 199 -232z" />
    <glyph glyph-name="acute" unicode="&#xb4;" 
d="M389 1266l109 315h307l-215 -315h-201z" />
    <glyph glyph-name="mu" unicode="&#xb5;" horiz-adv-x="1202" 
d="M119 -367v1461h260v-701q0 -96 53 -150q53 -55 157 -55q105 0 171 75t65 190v641h258v-1094h-252v156h-4q-111 -176 -305 -176q-100 0 -145 49h-4q6 -94 6 -205v-191h-260z" />
    <glyph glyph-name="paragraph" unicode="&#xb6;" horiz-adv-x="1206" 
d="M569 733h-75q-195 1 -307 107q-111 106 -111 283t112 289t320 112h557v-1811h-166v1626h-166v-1626h-164v1020z" />
    <glyph glyph-name="periodcentered" unicode="&#xb7;" horiz-adv-x="503" 
d="M109 528v287h286v-287h-286z" />
    <glyph glyph-name="cedilla" unicode="&#xb8;" 
d="M713 -259q-1 -81 -69 -125t-191 -44t-217 61l36 74q70 -33 148 -33q113 0 112 70q0 61 -77 61q-39 0 -78 -14l-35 53l147 156h132l-129 -113v-4q86 11 154 -25t67 -117z" />
    <glyph glyph-name="onesuperior" unicode="&#xb9;" horiz-adv-x="643" 
d="M293 588v610h-234v145q242 6 273 191h178v-946h-217z" />
    <glyph glyph-name="ordmasculine" unicode="&#xba;" horiz-adv-x="1132" 
d="M565 651q119 0 183 91q63 91 63 240t-63 241q-62 92 -182 92t-182 -91t-62 -242t62 -241t181 -90zM567 475q-221 1 -356 145t-135 362t135 364t356 145q221 0 355 -145q134 -144 135 -364q0 -220 -134 -364q-135 -143 -356 -143z" />
    <glyph glyph-name="guillemotright" unicode="&#xbb;" horiz-adv-x="1050" 
d="M584 993l327 -311v-252l-327 -307v242l200 192v4l-200 193v239zM139 993l326 -311v-252l-326 -307v242l201 192v4l-201 193v239z" />
    <glyph glyph-name="onequarter" unicode="&#xbc;" horiz-adv-x="1789" 
d="M1227 135h162v227l14 156h-4q-55 -86 -96 -133l-113 -139q-25 -32 -96 -99l-21 -18v-4q94 10 154 10zM299 588v610h-233v145q242 6 272 191h178v-946h-217zM115 -266l1304 1790h197l-1307 -1790h-194zM1389 -225v205h-455v188l457 553h213v-586h141v-155h-141v-205h-215z
" />
    <glyph glyph-name="onehalf" unicode="&#xbd;" horiz-adv-x="1884" 
d="M106 -266l1305 1790h197l-1307 -1790h-195zM299 588v610h-233v145q242 6 272 191h178v-946h-217zM1455 561q-69 0 -111 -48t-41 -128h-205q0 160 100 252t263 92t256 -85t93 -210q0 -72 -30 -130t-78 -99q-47 -41 -146 -103q-100 -61 -141 -93t-61 -62h456v-172h-729
q2 133 76 233t270 220q68 42 94 62q77 61 77 146q0 51 -37 88t-106 37z" />
    <glyph glyph-name="threequarters" unicode="&#xbe;" horiz-adv-x="1970" 
d="M1407 135h162v227l14 156h-4q-55 -86 -96 -133l-113 -139q-25 -32 -96 -99l-21 -18v-4q94 10 154 10zM287 -266l1304 1790h197l-1307 -1790h-194zM436 565q-173 0 -279 91q-105 91 -108 235h205q4 -72 49 -117t128 -45t126 37t43 104q0 133 -178 134h-57v149h51
q162 0 162 119q0 55 -39 87t-107 32t-108 -41t-43 -105h-203q4 131 102 215t257 84t253 -70t94 -199q0 -128 -166 -183v-2q199 -49 199 -232q0 -141 -104 -217t-277 -76zM1569 -225v205h-455v188l457 553h213v-586h141v-155h-141v-205h-215z" />
    <glyph glyph-name="questiondown" unicode="&#xbf;" horiz-adv-x="1157" 
d="M727 764q0 -135 -44 -225t-196 -207q-115 -91 -135 -154q-10 -31 -10 -65q0 -85 64 -137t178 -52t188 75t78 196h258q-6 -209 -147 -351t-381 -141q-240 0 -375 113t-135 298t170 320q40 31 111 86q71 54 93 84q47 57 48 160h235zM756 1253v-284h-287v284h287z" />
    <glyph glyph-name="Agrave" unicode="&#xc0;" horiz-adv-x="1470" 
d="M627 1608l-205 262h315l97 -262h-207zM629 924l-121 -353h438l-117 353q-53 157 -84 315l-12 51h-4q-51 -221 -100 -366zM29 0l553 1524h303l555 -1524h-303l-121 362h-578l-123 -362h-286z" />
    <glyph glyph-name="Aacute" unicode="&#xc1;" horiz-adv-x="1470" 
d="M616 1608l99 262h315l-205 -262h-209zM629 924l-121 -353h438l-117 353q-53 157 -84 315l-12 51h-4q-51 -221 -100 -366zM29 0l553 1524h303l555 -1524h-303l-121 362h-578l-123 -362h-286z" />
    <glyph glyph-name="Acircumflex" unicode="&#xc2;" horiz-adv-x="1470" 
d="M385 1608l215 252h264l213 -252h-239l-103 121h-4l-106 -121h-240zM629 924l-121 -353h438l-117 353q-53 157 -84 315l-12 51h-4q-51 -221 -100 -366zM29 0l553 1524h303l555 -1524h-303l-121 362h-578l-123 -362h-286z" />
    <glyph glyph-name="Atilde" unicode="&#xc3;" horiz-adv-x="1470" 
d="M890 1610q-79 0 -165 41t-110 41t-43 -23t-21 -59h-154q3 124 57 190t132 66t156 -40t110 -40q53 0 63 76h156q-4 -120 -53 -186t-128 -66zM629 924l-121 -353h438l-117 353q-53 157 -84 315l-12 51h-4q-51 -221 -100 -366zM29 0l553 1524h303l555 -1524h-303l-121 362
h-578l-123 -362h-286z" />
    <glyph glyph-name="Adieresis" unicode="&#xc4;" horiz-adv-x="1470" 
d="M377 1608v250h256v-250h-256zM838 1608v250h256v-250h-256zM629 924l-121 -353h438l-117 353q-53 157 -84 315l-12 51h-4q-51 -221 -100 -366zM29 0l553 1524h303l555 -1524h-303l-121 362h-578l-123 -362h-286z" />
    <glyph glyph-name="Aring" unicode="&#xc5;" horiz-adv-x="1470" 
d="M736 1694q48 0 79 32t31 82q0 49 -31 82t-79 33t-80 -33t-32 -82t32 -82q32 -32 80 -32zM629 924l-121 -353h438l-117 353q-53 157 -84 315l-12 51h-4q-51 -221 -100 -366zM736 1591q-92 1 -158 63t-66 153t66 153t158 63q92 0 157 -63q65 -64 65 -154t-64 -152t-158 -63
zM29 0l553 1524h303l555 -1524h-303l-121 362h-578l-123 -362h-286z" />
    <glyph glyph-name="AE" unicode="&#xc6;" horiz-adv-x="2107" 
d="M942 575v707h-188l-240 -707h428zM1991 1524v-242h-762v-379h667v-227h-667v-422h786v-254h-1073v367h-500l-125 -367h-282l534 1524h1422z" />
    <glyph glyph-name="Ccedilla" unicode="&#xc7;" horiz-adv-x="1540" 
d="M983 -259q-1 -81 -69 -125t-191 -44t-217 61l37 74q70 -33 147 -33q113 0 113 70q0 61 -78 61q-39 0 -78 -14l-35 53l119 127q-293 29 -471 246t-178 552t201 559t534 224q258 0 422 -125q186 -145 215 -393h-283q-20 125 -114 202t-242 77q-211 0 -328 -155
q-117 -154 -117 -400t123 -399q122 -153 324 -152q164 0 260 95t109 241h284q-4 -113 -54 -221q-157 -341 -562 -353l-92 -82v-4q86 11 154 -25t67 -117z" />
    <glyph glyph-name="Egrave" unicode="&#xc8;" horiz-adv-x="1368" 
d="M614 1608l-204 262h315l96 -262h-207zM143 0v1524h1114v-242h-831v-377h735v-227h-735v-430h850v-248h-1133z" />
    <glyph glyph-name="Eacute" unicode="&#xc9;" horiz-adv-x="1368" 
d="M604 1608l98 262h316l-205 -262h-209zM143 0v1524h1114v-242h-831v-377h735v-227h-735v-430h850v-248h-1133z" />
    <glyph glyph-name="Ecircumflex" unicode="&#xca;" horiz-adv-x="1368" 
d="M371 1608l215 252h264l213 -252h-240l-102 121h-4l-107 -121h-239zM143 0v1524h1114v-242h-831v-377h735v-227h-735v-430h850v-248h-1133z" />
    <glyph glyph-name="Edieresis" unicode="&#xcb;" horiz-adv-x="1368" 
d="M825 1608v250h256v-250h-256zM365 1608v250h256v-250h-256zM143 0v1524h1114v-242h-831v-377h735v-227h-735v-430h850v-248h-1133z" />
    <glyph glyph-name="Igrave" unicode="&#xcc;" horiz-adv-x="573" 
d="M180 1608l-205 262h316l96 -262h-207zM143 0v1524h285v-1524h-285z" />
    <glyph glyph-name="Iacute" unicode="&#xcd;" horiz-adv-x="573" 
d="M170 1608l98 262h316l-205 -262h-209zM143 0v1524h285v-1524h-285z" />
    <glyph glyph-name="Icircumflex" unicode="&#xce;" horiz-adv-x="573" 
d="M-63 1608l215 252h264l213 -252h-240l-102 121h-4l-107 -121h-239zM143 0v1524h285v-1524h-285z" />
    <glyph glyph-name="Idieresis" unicode="&#xcf;" horiz-adv-x="573" 
d="M-41 1608v250h246v-250h-246zM369 1608v250h243v-250h-243zM143 0v1524h285v-1524h-285z" />
    <glyph glyph-name="Eth" unicode="&#xd0;" horiz-adv-x="1529" 
d="M442 242h283q221 0 329 133t108 380t-106 387q-105 140 -323 140h-291v-399h387v-228h-387v-413zM23 655v228h135v641h602q328 0 510 -209t182 -559t-184 -553t-527 -203h-583v655h-135z" />
    <glyph glyph-name="Ntilde" unicode="&#xd1;" horiz-adv-x="1529" 
d="M143 0v1524h291l506 -799q54 -87 162 -295l28 -59h7q-16 238 -17 389v764h269v-1524h-291l-504 795q-60 96 -164 297l-29 59h-4q14 -238 15 -389v-762h-269zM937 1610q-79 0 -165 41t-110 41t-42 -23q-19 -23 -22 -59h-154q2 124 56 190t133 66q78 0 157 -40t109 -40
q53 0 64 76h155q-4 -120 -53 -186t-128 -66z" />
    <glyph glyph-name="Ograve" unicode="&#xd2;" horiz-adv-x="1662" 
d="M371 758q0 -246 121 -400t341 -153q221 -1 339 153t118 401t-119 403t-337 157q-218 0 -341 -157q-122 -158 -122 -404zM831 -35q-341 0 -545 223q-204 222 -204 570t205 571t545 223t544 -223q205 -223 205 -570t-205 -571t-545 -223zM723 1608l-205 262h316l96 -262
h-207z" />
    <glyph glyph-name="Oacute" unicode="&#xd3;" horiz-adv-x="1662" 
d="M371 758q0 -246 121 -400t341 -153q221 -1 339 153t118 401t-119 403t-337 157q-218 0 -341 -157q-122 -158 -122 -404zM831 -35q-341 0 -545 223q-204 222 -204 570t205 571t545 223t544 -223q205 -223 205 -570t-205 -571t-545 -223zM713 1608l98 262h315l-204 -262
h-209z" />
    <glyph glyph-name="Ocircumflex" unicode="&#xd4;" horiz-adv-x="1662" 
d="M479 1608l215 252h264l213 -252h-239l-103 121h-4l-106 -121h-240zM371 758q0 -246 121 -400t341 -153q221 -1 339 153t118 401t-119 403t-337 157q-218 0 -341 -157q-122 -158 -122 -404zM831 -35q-341 0 -545 223q-204 222 -204 570t205 571t545 223t544 -223
q205 -223 205 -570t-205 -571t-545 -223z" />
    <glyph glyph-name="Otilde" unicode="&#xd5;" horiz-adv-x="1662" 
d="M371 758q0 -246 121 -400t341 -153q221 -1 339 153t118 401t-119 403t-337 157q-218 0 -341 -157q-122 -158 -122 -404zM831 -35q-341 0 -545 223q-204 222 -204 570t205 571t545 223t544 -223q205 -223 205 -570t-205 -571t-545 -223zM986 1610q-79 0 -165 41
q-85 41 -109 41t-43 -23t-22 -59h-153q2 124 56 190t132 66t157 -40t109 -40q53 0 64 76h155q-4 -120 -53 -186t-128 -66z" />
    <glyph glyph-name="Odieresis" unicode="&#xd6;" horiz-adv-x="1662" 
d="M371 758q0 -246 121 -400t341 -153q221 -1 339 153t118 401t-119 403t-337 157q-218 0 -341 -157q-122 -158 -122 -404zM831 -35q-341 0 -545 223q-204 222 -204 570t205 571t545 223t544 -223q205 -223 205 -570t-205 -571t-545 -223zM473 1608v250h256v-250h-256z
M934 1608v250h256v-250h-256z" />
    <glyph glyph-name="multiply" unicode="&#xd7;" horiz-adv-x="1234" 
d="M281 213l-144 141l338 340l-336 338l144 144l333 -338l336 338l146 -144l-338 -338l338 -338l-146 -143l-336 338z" />
    <glyph glyph-name="Oslash" unicode="&#xd8;" horiz-adv-x="1662" 
d="M848 205q204 -1 324 153q118 154 118 400q0 188 -67 325l-699 -766q120 -112 324 -112zM371 758q0 -193 69 -326l701 768q-115 119 -321 119q-206 -1 -327 -157q-122 -156 -122 -404zM82 772q0 334 205 557t544 223q285 0 482 -163l180 198l106 -92l-188 -207
q170 -216 170 -546t-205 -554t-545 -223q-285 0 -481 162l-192 -213l-105 94l199 219q-170 211 -170 545z" />
    <glyph glyph-name="Ugrave" unicode="&#xd9;" horiz-adv-x="1464" 
d="M1343 514q1 -264 -161 -402t-451 -139t-449 137t-159 404v1010h283v-1006q0 -309 329 -309q156 0 240 80t84 233v1002h284v-1010zM633 1608l-205 262h315l97 -262h-207z" />
    <glyph glyph-name="Uacute" unicode="&#xda;" horiz-adv-x="1464" 
d="M1343 514q1 -264 -161 -402t-451 -139t-449 137t-159 404v1010h283v-1006q0 -309 329 -309q156 0 240 80t84 233v1002h284v-1010zM621 1608l98 262h315l-205 -262h-208z" />
    <glyph glyph-name="Ucircumflex" unicode="&#xdb;" horiz-adv-x="1464" 
d="M381 1608l215 252h264l213 -252h-239l-103 121h-4l-106 -121h-240zM1343 514q1 -264 -161 -402t-451 -139t-449 137t-159 404v1010h283v-1006q0 -309 329 -309q156 0 240 80t84 233v1002h284v-1010z" />
    <glyph glyph-name="Udieresis" unicode="&#xdc;" horiz-adv-x="1464" 
d="M1343 514q1 -264 -161 -402t-451 -139t-449 137t-159 404v1010h283v-1006q0 -309 329 -309q156 0 240 80t84 233v1002h284v-1010zM373 1608v250h256v-250h-256zM834 1608v250h256v-250h-256z" />
    <glyph glyph-name="Yacute" unicode="&#xdd;" horiz-adv-x="1417" 
d="M592 1608l98 262h316l-205 -262h-209zM563 0v602l-534 922h313l215 -385q63 -111 129 -271l23 -55h4q86 201 153 326l217 385h301l-536 -926v-598h-285z" />
    <glyph glyph-name="Thorn" unicode="&#xde;" horiz-adv-x="1368" 
d="M774 1038h-344v-479h340q127 0 196 65q68 64 68 178t-67 175q-68 61 -193 61zM143 0v1524h287v-240h373q256 0 387 -147q129 -133 129 -341t-133 -336t-371 -128h-385v-332h-287z" />
    <glyph glyph-name="germandbls" unicode="&#xdf;" horiz-adv-x="1185" 
d="M641 -20q-68 0 -125 14v196h6q158 -24 250 52t92 225t-73 225q-74 76 -216 76h-51v166h39q109 0 175 56t67 150q0 94 -54 149q-55 54 -155 54t-158 -60t-59 -167v-1116h-260v1126q0 193 129 307q129 113 340 113t337 -105t126 -276q0 -223 -234 -297v-6q147 -37 226 -138
t79 -259q0 -227 -132 -356t-349 -129z" />
    <glyph glyph-name="agrave" unicode="&#xe0;" horiz-adv-x="1159" 
d="M498 1266l-217 315h309l108 -315h-200zM518 152q127 0 202 74t75 171v162q-63 -41 -205 -70t-202 -65q-58 -37 -58 -121q0 -151 188 -151zM590 1122q450 0 448 -374v-576q0 -127 41 -154v-18h-252q-31 41 -36 141h-5q-125 -168 -344 -168q-166 0 -269 84t-103 252
t122 235q122 66 296 88q175 21 238 52q62 32 62 102t-50 113t-146 43q-213 0 -223 -176h-246q6 152 126 254t341 102z" />
    <glyph glyph-name="aacute" unicode="&#xe1;" horiz-adv-x="1159" 
d="M477 1266l109 315h307l-215 -315h-201zM518 152q127 0 202 74t75 171v162q-63 -41 -205 -70t-202 -65q-58 -37 -58 -121q0 -151 188 -151zM590 1122q450 0 448 -374v-576q0 -127 41 -154v-18h-252q-31 41 -36 141h-5q-125 -168 -344 -168q-166 0 -269 84t-103 252
t122 235q122 66 296 88q175 21 238 52q62 32 62 102t-50 113t-146 43q-213 0 -223 -176h-246q6 152 126 254t341 102z" />
    <glyph glyph-name="acircumflex" unicode="&#xe2;" horiz-adv-x="1159" 
d="M240 1272l211 278h264l209 -278h-238l-100 158h-4l-105 -158h-237zM518 152q127 0 202 74t75 171v162q-63 -41 -205 -70t-202 -65q-58 -37 -58 -121q0 -151 188 -151zM590 1122q450 0 448 -374v-576q0 -127 41 -154v-18h-252q-31 41 -36 141h-5q-125 -168 -344 -168
q-166 0 -269 84t-103 252t122 235q122 66 296 88q175 21 238 52q62 32 62 102t-50 113t-146 43q-213 0 -223 -176h-246q6 152 126 254t341 102z" />
    <glyph glyph-name="atilde" unicode="&#xe3;" horiz-adv-x="1159" 
d="M742 1272q-78 0 -164 41t-111 41t-44 -23t-22 -59h-151q2 124 56 190t132 66t158 -41t111 -41q53 0 63 78h154q-4 -120 -54 -186t-128 -66zM518 152q127 0 202 74t75 171v162q-63 -41 -205 -70t-202 -65q-58 -37 -58 -121q0 -151 188 -151zM590 1122q450 0 448 -374v-576
q0 -127 41 -154v-18h-252q-31 41 -36 141h-5q-125 -168 -344 -168q-166 0 -269 84t-103 252t122 235q122 66 296 88q175 21 238 52q62 32 62 102t-50 113t-146 43q-213 0 -223 -176h-246q6 152 126 254t341 102z" />
    <glyph glyph-name="adieresis" unicode="&#xe4;" horiz-adv-x="1159" 
d="M233 1272v252h250v-252h-250zM688 1272v252h250v-252h-250zM518 152q127 0 202 74t75 171v162q-63 -41 -205 -70t-202 -65q-58 -37 -58 -121q0 -151 188 -151zM590 1122q450 0 448 -374v-576q0 -127 41 -154v-18h-252q-31 41 -36 141h-5q-125 -168 -344 -168
q-166 0 -269 84t-103 252t122 235q122 66 296 88q175 21 238 52q62 32 62 102t-50 113t-146 43q-213 0 -223 -176h-246q6 152 126 254t341 102z" />
    <glyph glyph-name="aring" unicode="&#xe5;" horiz-adv-x="1159" 
d="M587 1325q48 0 79 33t30 82q0 49 -30 83q-31 33 -79 33t-80 -34t-32 -82q0 -49 32 -82t80 -33zM518 152q127 0 202 74t75 171v162q-63 -41 -205 -70t-202 -65q-58 -37 -58 -121q0 -151 188 -151zM809 1438q-1 -90 -65 -152t-157 -63q-93 0 -159 62q-66 61 -66 153t66 155
t158 63t158 -64t65 -154zM590 1122q450 0 448 -374v-576q0 -127 41 -154v-18h-252q-31 41 -36 141h-5q-125 -168 -344 -168q-166 0 -269 84t-103 252t122 235q122 66 296 88q175 21 238 52q62 32 62 102t-50 113t-146 43q-213 0 -223 -176h-246q6 152 126 254t341 102z" />
    <glyph glyph-name="ae" unicode="&#xe6;" horiz-adv-x="1896" 
d="M1315 934q-231 0 -268 -289h518q-5 135 -73 212t-177 77zM520 152q129 0 204 74t75 171v160q-66 -41 -207 -69t-200 -64q-58 -37 -58 -121q0 -151 186 -151zM456 -29q-168 0 -275 84t-107 253t122 236q122 66 296 88q175 21 238 52q62 32 62 102t-50 113t-146 43
q-213 0 -225 -176h-244q6 152 126 254t341 102q272 0 369 -155q133 155 356 155t362 -151q156 -164 152 -490h-789q12 -147 86 -231t207 -84q172 0 226 143h254q-39 -156 -165 -249t-317 -93q-293 0 -424 228q-83 -117 -185 -171t-270 -53z" />
    <glyph glyph-name="ccedilla" unicode="&#xe7;" horiz-adv-x="1165" 
d="M791 -259q-1 -81 -69 -125t-191 -44t-218 61l37 74q70 -33 148 -33q113 0 112 70q0 61 -78 61q-39 0 -77 -14l-35 53l121 129q-217 27 -347 186t-130 397t151 402q152 164 399 164q205 0 334 -106t160 -287h-254q-18 90 -80 142t-158 53q-139 0 -214 -104
q-74 -104 -74 -273q0 -170 74 -274q75 -103 214 -103q106 0 170 59q63 59 74 168h254q-12 -184 -133 -300t-319 -128l-93 -82v-4q86 11 154 -25t68 -117z" />
    <glyph glyph-name="egrave" unicode="&#xe8;" horiz-adv-x="1202" 
d="M520 1266l-217 315h309l109 -315h-201zM603 934q-119 0 -189 -77t-88 -212h544q-8 135 -77 212q-70 77 -190 77zM621 -33q-254 0 -406 164t-152 413q0 250 152 414t388 164t380 -153q160 -168 156 -488h-817q14 -145 91 -230t210 -85q186 0 241 143h254
q-42 -154 -172 -248t-325 -94z" />
    <glyph glyph-name="eacute" unicode="&#xe9;" horiz-adv-x="1202" 
d="M500 1266l108 315h307l-215 -315h-200zM603 934q-119 0 -189 -77t-88 -212h544q-8 135 -77 212q-70 77 -190 77zM621 -33q-254 0 -406 164t-152 413q0 250 152 414t388 164t380 -153q160 -168 156 -488h-817q14 -145 91 -230t210 -85q186 0 241 143h254
q-42 -154 -172 -248t-325 -94z" />
    <glyph glyph-name="ecircumflex" unicode="&#xea;" horiz-adv-x="1202" 
d="M262 1272l211 278h264l209 -278h-237l-101 158h-4l-104 -158h-238zM603 934q-119 0 -189 -77t-88 -212h544q-8 135 -77 212q-70 77 -190 77zM621 -33q-254 0 -406 164t-152 413q0 250 152 414t388 164t380 -153q160 -168 156 -488h-817q14 -145 91 -230t210 -85
q186 0 241 143h254q-42 -154 -172 -248t-325 -94z" />
    <glyph glyph-name="edieresis" unicode="&#xeb;" horiz-adv-x="1202" 
d="M711 1272v252h250v-252h-250zM256 1272v252h250v-252h-250zM603 934q-119 0 -189 -77t-88 -212h544q-8 135 -77 212q-70 77 -190 77zM621 -33q-254 0 -406 164t-152 413q0 250 152 414t388 164t380 -153q160 -168 156 -488h-817q14 -145 91 -230t210 -85q186 0 241 143
h254q-42 -154 -172 -248t-325 -94z" />
    <glyph glyph-name="igrave" unicode="&#xec;" horiz-adv-x="495" 
d="M162 1266l-217 315h309l108 -315h-200zM119 0v1094h260v-1094h-260z" />
    <glyph glyph-name="iacute" unicode="&#xed;" horiz-adv-x="495" 
d="M119 0v1094h260v-1094h-260zM141 1266l109 315h307l-215 -315h-201z" />
    <glyph glyph-name="icircumflex" unicode="&#xee;" horiz-adv-x="495" 
d="M119 0v1094h260v-1094h-260zM-96 1272l211 278h264l209 -278h-238l-100 158h-4l-105 -158h-237z" />
    <glyph glyph-name="idieresis" unicode="&#xef;" horiz-adv-x="495" 
d="M-41 1272v252h227v-252h-227zM309 1272v252h228v-252h-228zM119 0v1094h260v-1094h-260z" />
    <glyph glyph-name="eth" unicode="&#xf0;" horiz-adv-x="1243" 
d="M620 164q140 0 216 106t76 278t-77 273q-77 103 -217 103t-216 -104q-74 -104 -74 -275q0 -172 75 -277q77 -104 217 -104zM362 1524h322q63 -43 121 -92l215 65l49 -113l-166 -51q274 -309 275 -715q0 -291 -142 -471t-402 -180q-261 0 -416 166t-155 412
q-1 247 137 405t363 158q182 0 283 -119h6q-63 143 -186 271l-293 -91l-47 115l235 72q-70 57 -199 153v15z" />
    <glyph glyph-name="ntilde" unicode="&#xf1;" horiz-adv-x="1206" 
d="M767 1272q-79 0 -165 41t-110 41t-44 -23t-22 -59h-152q2 124 56 190t133 66q78 0 158 -41t110 -41q53 0 64 78h153q-4 -120 -53 -186t-128 -66zM373 1094v-160h6q113 188 340 188q176 0 276 -102t101 -279v-741h-260v698q0 98 -56 154t-158 55q-104 -1 -174 -75
t-69 -191v-641h-260v1094h254z" />
    <glyph glyph-name="ograve" unicode="&#xf2;" horiz-adv-x="1241" 
d="M532 1266l-217 315h310l108 -315h-201zM621 164q139 0 216 105t77 277t-77 277q-77 107 -216 107t-217 -106t-76 -278q0 -171 76 -277q78 -105 217 -105zM623 -33q-250 0 -405 165t-155 413q0 249 155 413t405 164q251 0 403 -164t152 -412t-152 -414
q-152 -165 -403 -165z" />
    <glyph glyph-name="oacute" unicode="&#xf3;" horiz-adv-x="1241" 
d="M621 164q139 0 216 105t77 277t-77 277q-77 107 -216 107t-217 -106t-76 -278q0 -171 76 -277q78 -105 217 -105zM623 -33q-250 0 -405 165t-155 413q0 249 155 413t405 164q251 0 403 -164t152 -412t-152 -414q-152 -165 -403 -165zM512 1266l109 315h307l-215 -315
h-201z" />
    <glyph glyph-name="ocircumflex" unicode="&#xf4;" horiz-adv-x="1241" 
d="M621 164q139 0 216 105t77 277t-77 277q-77 107 -216 107t-217 -106t-76 -278q0 -171 76 -277q78 -105 217 -105zM623 -33q-250 0 -405 165t-155 413q0 249 155 413t405 164q251 0 403 -164t152 -412t-152 -414q-152 -165 -403 -165zM274 1272l211 278h265l208 -278h-237
l-100 158h-5l-104 -158h-238z" />
    <glyph glyph-name="otilde" unicode="&#xf5;" horiz-adv-x="1241" 
d="M777 1272q-79 0 -165 41t-110 41t-44 -23q-19 -23 -22 -59h-151q2 124 56 190t132 66t158 -41t110 -41q53 0 64 78h153q-4 -120 -53 -186t-128 -66zM621 164q139 0 216 105t77 277t-77 277q-77 107 -216 107t-217 -106t-76 -278q0 -171 76 -277q78 -105 217 -105z
M623 -33q-250 0 -405 165t-155 413q0 249 155 413t405 164q251 0 403 -164t152 -412t-152 -414q-152 -165 -403 -165z" />
    <glyph glyph-name="odieresis" unicode="&#xf6;" horiz-adv-x="1241" 
d="M621 164q139 0 216 105t77 277t-77 277q-77 107 -216 107t-217 -106t-76 -278q0 -171 76 -277q78 -105 217 -105zM623 -33q-250 0 -405 165t-155 413q0 249 155 413t405 164q251 0 403 -164t152 -412t-152 -414q-152 -165 -403 -165zM268 1272v252h250v-252h-250z
M723 1272v252h250v-252h-250z" />
    <glyph glyph-name="divide" unicode="&#xf7;" horiz-adv-x="1232" 
d="M475 164v264h285v-264h-285zM125 594v209h983v-209h-983zM475 967v266h285v-266h-285z" />
    <glyph glyph-name="oslash" unicode="&#xf8;" horiz-adv-x="1241" 
d="M630 164q130 0 208 105t77 276q0 111 -30 196l-459 -503q74 -74 204 -74zM324 545q0 -117 34 -205l463 508q-73 84 -207 84t-212 -108t-78 -279zM623 1122q203 0 346 -114l143 157l88 -78l-147 -161q125 -158 125 -394t-153 -400q-153 -165 -402 -165q-197 0 -344 109
l-152 -166l-88 78l156 170q-131 160 -131 398t154 402q155 164 405 164z" />
    <glyph glyph-name="ugrave" unicode="&#xf9;" horiz-adv-x="1193" 
d="M504 1266l-217 315h309l109 -315h-201zM1075 0h-252v156h-4q-125 -184 -317 -184t-291 102q-100 104 -100 282v738h260v-701q0 -96 53 -150q52 -55 156 -55t171 75t66 190v641h258v-1094z" />
    <glyph glyph-name="uacute" unicode="&#xfa;" horiz-adv-x="1193" 
d="M483 1266l109 315h307l-215 -315h-201zM1075 0h-252v156h-4q-125 -184 -317 -184t-291 102q-100 104 -100 282v738h260v-701q0 -96 53 -150q52 -55 156 -55t171 75t66 190v641h258v-1094z" />
    <glyph glyph-name="ucircumflex" unicode="&#xfb;" horiz-adv-x="1193" 
d="M246 1272l211 278h264l209 -278h-238l-100 158h-4l-105 -158h-237zM1075 0h-252v156h-4q-125 -184 -317 -184t-291 102q-100 104 -100 282v738h260v-701q0 -96 53 -150q52 -55 156 -55t171 75t66 190v641h258v-1094z" />
    <glyph glyph-name="udieresis" unicode="&#xfc;" horiz-adv-x="1193" 
d="M694 1272v252h250v-252h-250zM240 1272v252h249v-252h-249zM1075 0h-252v156h-4q-125 -184 -317 -184t-291 102q-100 104 -100 282v738h260v-701q0 -96 53 -150q52 -55 156 -55t171 75t66 190v641h258v-1094z" />
    <glyph glyph-name="yacute" unicode="&#xfd;" horiz-adv-x="1103" 
d="M451 1266l108 315h307l-215 -315h-200zM298 -373q-146 0 -181 13v210h14q16 -10 109 -10q129 0 159 121l2 78q0 69 -14 104l-377 951h277l180 -508q50 -147 80 -285l12 -55h4q49 207 94 340l174 508h263l-424 -1155q-66 -178 -146 -245t-226 -67z" />
    <glyph glyph-name="thorn" unicode="&#xfe;" horiz-adv-x="1249" 
d="M651 172q135 0 204 100t69 268t-69 269q-69 102 -204 102t-209 -104t-74 -268t74 -266q74 -101 209 -101zM707 -35q-223 0 -330 174h-6q8 -82 8 -213v-284h-260v1882h260v-361q0 -117 -8 -231h6q119 190 336 190t346 -158t129 -420q0 -263 -129 -421t-352 -158z" />
    <glyph glyph-name="ydieresis" unicode="&#xff;" horiz-adv-x="1103" 
d="M207 1272v252h250v-252h-250zM662 1272v252h249v-252h-249zM298 -373q-146 0 -181 13v210h14q16 -10 109 -10q129 0 159 121l2 78q0 69 -14 104l-377 951h277l180 -508q50 -147 80 -285l12 -55h4q49 207 94 340l174 508h263l-424 -1155q-66 -178 -146 -245t-226 -67z" />
    <glyph glyph-name="dotlessi" unicode="&#x131;" horiz-adv-x="495" 
d="M119 0v1094h260v-1094h-260z" />
    <glyph glyph-name="IJ" unicode="&#x132;" horiz-adv-x="1675" 
d="M1079 -29q-243 0 -369 126t-126 368v78h266v-70q0 -145 52 -207t163 -61q201 0 201 225v1094h284v-1104q0 -193 -102 -303q-125 -146 -369 -146zM143 0v1524h285v-1524h-285z" />
    <glyph glyph-name="ij" unicode="&#x133;" horiz-adv-x="993" 
d="M115 1272v252h266v-252h-266zM610 1272v252h267v-252h-267zM119 0v1094h260v-1094h-260zM582 -360q-80 0 -148 14v190h78q53 4 78 28t24 81v1141h260v-1151q0 -163 -76 -233t-216 -70z" />
    <glyph glyph-name="Lslash" unicode="&#x141;" horiz-adv-x="1234" 
d="M150 1524h282v-682l471 250v-207l-471 -250v-387h744v-248h-1026v485l-140 -73v206l140 74v832z" />
    <glyph glyph-name="lslash" unicode="&#x142;" horiz-adv-x="600" 
d="M168 1524h262v-557l168 127v-207l-168 -127v-760h-262v561l-150 -112v206l150 113v756z" />
    <glyph glyph-name="napostrophe" unicode="&#x149;" horiz-adv-x="1206" 
d="M166 1524v-150q0 -227 -240 -241v96q106 14 111 104h-109v191h238zM373 1094v-160h6q113 188 340 188q176 0 276 -102t101 -279v-741h-260v698q0 98 -56 154t-158 55q-104 -1 -174 -75t-69 -191v-641h-260v1094h254z" />
    <glyph glyph-name="OE" unicode="&#x152;" horiz-adv-x="2324" 
d="M807 203q160 0 259 104t99 279v332q0 180 -100 290t-258 111q-203 0 -320 -158q-117 -159 -117 -403t116 -400q116 -155 321 -155zM795 -35q-313 0 -513 224q-200 225 -200 569t201 569t512 225q246 0 383 -184v156h1030v-242h-770v-379h673v-227h-673v-422h794v-254
h-1054v143q-135 -178 -383 -178z" />
    <glyph glyph-name="oe" unicode="&#x153;" horiz-adv-x="1990" 
d="M1409 934q-115 0 -183 -77t-85 -212h518q-7 137 -71 213t-179 76zM605 164q136 0 209 105t73 277t-73 277q-73 107 -209 107t-207 -106q-70 -106 -70 -278q0 -173 70 -278q71 -104 207 -104zM1425 -33q-276 0 -411 219q-135 -219 -410 -219q-244 0 -392 165t-148 414
q0 248 148 412t392 164q279 0 412 -221q133 221 397 221q227 0 361 -151q156 -168 155 -490h-792q14 -145 90 -230t200 -85q168 0 228 143h252q-39 -154 -167 -248t-315 -94z" />
    <glyph glyph-name="Scaron" unicode="&#x160;" horiz-adv-x="1396" 
d="M1018 1860l-215 -252h-264l-213 252h239l103 -121h4l106 121h240zM700 -35q-284 1 -458 143t-185 379h285q31 -295 383 -294q131 0 217 57t86 156t-62 151t-297 107q-236 55 -324 97q-89 42 -132 86q-102 104 -100 269q0 211 154 323q155 111 413 111t410 -118t174 -332
h-277q-16 113 -98 173t-214 60t-209 -51t-77 -144q0 -94 87 -138t296 -87q98 -23 166 -42t146 -56q232 -111 231 -377q0 -221 -166 -347q-165 -126 -449 -126z" />
    <glyph glyph-name="scaron" unicode="&#x161;" horiz-adv-x="1087" 
d="M547 -35q-219 1 -352 101t-146 270h250q29 -186 260 -186q104 0 158 39q53 40 53 105t-43 97t-190 60q-146 27 -201 45q-170 54 -217 151q-31 61 -31 150q0 153 119 239t321 86t319 -86q116 -86 136 -235h-248q-29 145 -217 145q-88 0 -136 -36t-48 -97t60 -88t137 -41
t150 -27t148 -46q76 -33 111 -67q84 -80 84 -239q0 -158 -129 -249t-348 -91zM872 1546l-210 -280h-265l-209 280h238l100 -157h4l105 157h237z" />
    <glyph glyph-name="Ydieresis" unicode="&#x178;" horiz-adv-x="1417" 
d="M811 1608v250h256v-250h-256zM350 1608v250h256v-250h-256zM563 0v602l-534 922h313l215 -385q63 -111 129 -271l23 -55h4q86 201 153 326l217 385h301l-536 -926v-598h-285z" />
    <glyph glyph-name="Zcaron" unicode="&#x17d;" horiz-adv-x="1390" 
d="M76 0v242l647 807q47 57 182 200l39 37v6q-186 -8 -299 -8h-514v240h1141v-224l-631 -796q-98 -118 -201 -221l-41 -41v-6q195 10 314 10h590v-246h-1227zM1044 1860l-215 -252h-264l-213 252h240l102 -121h4l107 121h239z" />
    <glyph glyph-name="zcaron" unicode="&#x17e;" horiz-adv-x="1077" 
d="M82 0v197l436 534q59 68 129 133l29 27v6q-137 -12 -221 -12h-332v209h858v-179l-434 -532q-73 -84 -146 -145l-28 -29v-6q147 10 237 10h398v-213h-926zM899 1546l-211 -280h-264l-209 280h238l100 -157h4l105 157h237z" />
    <glyph glyph-name="florin" unicode="&#x192;" horiz-adv-x="886" 
d="M78 698v179h215l47 319q23 145 96 213q115 104 402 70v-195q-119 10 -172 -14t-66 -105l-41 -288h234v-179h-261l-104 -743q-27 -152 -94 -215q-98 -92 -344 -59v184q84 -6 123 14t51 98l104 721h-190z" />
    <glyph glyph-name="circumflex" unicode="&#x2c6;" 
d="M170 1272l211 278h264l209 -278h-238l-100 158h-4l-104 -158h-238z" />
    <glyph glyph-name="caron" unicode="&#x2c7;" 
d="M854 1546l-211 -280h-264l-209 280h238l100 -157h4l104 157h238z" />
    <glyph glyph-name="uni02C9" unicode="&#x2c9;" 
d="M213 1303v192h602v-192h-602z" />
    <glyph glyph-name="breve" unicode="&#x2d8;" 
d="M556 1255q-132 0 -219 79t-93 212h162q16 -121 147 -121q61 0 100 33t47 88h158q-4 -129 -87 -210t-215 -81z" />
    <glyph glyph-name="dotaccent" unicode="&#x2d9;" 
d="M379 1272v252h266v-252h-266z" />
    <glyph glyph-name="ring" unicode="&#x2da;" 
d="M513 1325q48 0 79 33t31 82t-31 83q-31 33 -79 33t-80 -34t-32 -82q0 -49 32 -82t80 -33zM513 1223q-93 0 -159 62q-66 61 -66 153t66 155t158 63t158 -64t66 -154t-65 -153q-65 -62 -158 -62z" />
    <glyph glyph-name="ogonek" unicode="&#x2db;" 
d="M460 -383q-102 0 -163 47t-61 129q0 129 163 207h172q-115 -90 -114 -164q0 -63 78 -63q39 0 69 10h6v-148q-48 -18 -150 -18z" />
    <glyph glyph-name="tilde" unicode="&#x2dc;" 
d="M670 1272q-78 0 -164 41t-111 41t-44 -23t-21 -59h-152q2 124 56 190t132 66t158 -41t111 -41q53 0 63 78h154q-4 -119 -53 -186q-50 -66 -129 -66z" />
    <glyph glyph-name="hungarumlaut" unicode="&#x2dd;" 
d="M225 1266l86 315h258l-170 -315h-174zM575 1266l84 315h256l-167 -315h-173z" />
    <glyph glyph-name="uni0394" unicode="&#x394;" horiz-adv-x="1466" 
d="M621 948l-277 -725h764l-277 725q-61 158 -92 303l-10 47h-4q-36 -170 -104 -350zM57 0v207l514 1317h322l518 -1317v-207h-1354z" />
    <glyph glyph-name="uni03A9" unicode="&#x3a9;" horiz-adv-x="1587" 
d="M88 0v223h256v4q-268 172 -268 574q0 336 199 545q201 208 519 208t519 -210t200 -543q0 -399 -272 -574v-4h258v-223h-627v213q176 29 265 186q88 158 88 397t-115 381q-116 142 -316 142t-316 -142q-116 -143 -116 -381t88 -396t265 -187v-213h-627z" />
    <glyph glyph-name="uni03BC" unicode="&#x3bc;" horiz-adv-x="1202" 
d="M119 -367v1461h260v-701q0 -96 53 -150q53 -55 157 -55q105 0 171 75t65 190v641h258v-1094h-252v156h-4q-111 -176 -305 -176q-100 0 -145 49h-4q6 -94 6 -205v-191h-260z" />
    <glyph glyph-name="pi" unicode="&#x3c0;" horiz-adv-x="1382" 
d="M1128 289q0 -92 81 -92q37 0 81 10h8v-201q-70 -18 -151 -18q-276 0 -277 256v671h-389v-915h-260v915h-170v179h1264v-179h-187v-626z" />
    <glyph glyph-name="uni2009" unicode="&#x2009;" horiz-adv-x="225" 
 />
    <glyph glyph-name="endash" unicode="&#x2013;" 
d="M0 430v223h1024v-223h-1024z" />
    <glyph glyph-name="emdash" unicode="&#x2014;" horiz-adv-x="2048" 
d="M410 430v223h1228v-223h-1228z" />
    <glyph glyph-name="quoteleft" unicode="&#x2018;" horiz-adv-x="442" 
d="M94 958v254q0 150 73 227t187 91v-113q-123 -35 -123 -182v-14h119v-263h-256z" />
    <glyph glyph-name="quoteright" unicode="&#x2019;" horiz-adv-x="442" 
d="M350 1524v-254q0 -150 -74 -228t-186 -90v111q121 37 121 184v15h-117v262h256z" />
    <glyph glyph-name="quotesinglbase" unicode="&#x201a;" horiz-adv-x="442" 
d="M350 262v-254q0 -147 -74 -226t-186 -91v110q121 37 121 185v14h-117v262h256z" />
    <glyph glyph-name="quotedblleft" unicode="&#x201c;" horiz-adv-x="835" 
d="M94 958v254q0 150 73 227t187 91v-113q-123 -35 -123 -182v-14h119v-263h-256zM487 958v254q0 150 73 227t185 91v-113q-121 -35 -120 -182v-14h116v-263h-254z" />
    <glyph glyph-name="quotedblright" unicode="&#x201d;" horiz-adv-x="835" 
d="M741 1524v-254q1 -150 -73 -228t-187 -90v111q123 39 123 184v15h-117v262h254zM350 1524v-254q0 -150 -74 -228t-186 -90v111q121 37 121 184v15h-117v262h256z" />
    <glyph glyph-name="quotedblbase" unicode="&#x201e;" horiz-adv-x="835" 
d="M741 262v-254q1 -147 -73 -226t-187 -91v110q123 39 123 185v14h-117v262h254zM350 262v-254q0 -147 -74 -226t-186 -91v110q121 37 121 185v14h-117v262h256z" />
    <glyph glyph-name="dagger" unicode="&#x2020;" horiz-adv-x="1251" 
d="M90 891v219h397v414h273v-414h399v-219h-399v-1155h-273v1155h-397z" />
    <glyph glyph-name="daggerdbl" unicode="&#x2021;" horiz-adv-x="1251" 
d="M90 891v219h397v414h273v-414h399v-219h-399v-522h399v-222h-399v-411h-273v411h-397v222h397v522h-397z" />
    <glyph glyph-name="bullet" unicode="&#x2022;" horiz-adv-x="759" 
d="M380 401q-118 0 -202 83t-84 202t84 204t202 85t202 -85t84 -204t-84 -202t-202 -83z" />
    <glyph glyph-name="ellipsis" unicode="&#x2026;" horiz-adv-x="1574" 
d="M1192 0v285h285v-285h-285zM645 0v285h287v-285h-287zM100 0v285h285v-285h-285z" />
    <glyph glyph-name="perthousand" unicode="&#x2030;" horiz-adv-x="2699" 
d="M2265 125q78 0 117 73q39 72 39 192t-41 196t-117 76t-115 -74t-39 -196t39 -194t117 -73zM2264 -35q-163 0 -265 117q-103 117 -103 308t104 308t266 117q161 0 263 -116q103 -117 103 -309t-102 -308t-266 -117zM1419 662q-77 0 -115 -74t-38 -196t38 -194t116 -73
q77 0 116 73q39 74 39 194t-40 195t-116 75zM283 1068q1 -122 39 -194t115 -73q77 1 117 73t40 193t-41 196t-117 75t-114 -74t-39 -196zM1420 -35q-163 0 -265 117t-102 308t103 308t265 117t263 -116q102 -117 102 -309t-102 -308t-264 -117zM436 643q-162 0 -264 117
t-102 307t103 307t264 117t262 -115q101 -114 101 -308t-100 -310q-102 -116 -264 -115zM436 0l811 1458h172l-811 -1458h-172z" />
    <glyph glyph-name="uni2032" unicode="&#x2032;" horiz-adv-x="450" 
d="M63 989l95 535h229l-92 -535h-232z" />
    <glyph glyph-name="uni2033" unicode="&#x2033;" horiz-adv-x="827" 
d="M63 989l95 535h229l-92 -535h-232zM440 989l92 535h230l-90 -535h-232z" />
    <glyph glyph-name="guilsinglleft" unicode="&#x2039;" horiz-adv-x="636" 
d="M496 104l-357 324v258l357 322v-252l-222 -199v-4l222 -197v-252z" />
    <glyph glyph-name="guilsinglright" unicode="&#x203a;" horiz-adv-x="636" 
d="M139 1008l357 -324v-256l-357 -324v252l223 199v4l-223 199v250z" />
    <glyph glyph-name="fraction" unicode="&#x2044;" horiz-adv-x="518" 
d="M-565 -266l1304 1790h197l-1307 -1790h-194z" />
    <glyph glyph-name="zero.superior" unicode="&#x2070;" horiz-adv-x="980" 
d="M492 733q197 0 196 324q0 147 -49 235t-147 88t-148 -87t-49 -237q-1 -150 49 -236q50 -87 148 -87zM492 565q-186 0 -305 134q-117 133 -117 355t118 356t304 134t303 -133t117 -355t-117 -357q-117 -134 -303 -134z" />
    <glyph glyph-name="four.superior" unicode="&#x2074;" horiz-adv-x="913" 
d="M356 948h162v228l14 155h-4q-55 -86 -96 -133l-113 -139q-24 -31 -98 -101l-18 -16v-4q94 10 153 10zM518 588v205h-455v188l457 553h213v-586h141v-155h-141v-205h-215z" />
    <glyph glyph-name="five.superior" unicode="&#x2075;" horiz-adv-x="860" 
d="M482 1219q134 0 226 -85t93 -234t-105 -242t-268 -93t-265 77t-120 204h203q14 -51 59 -83t117 -32t119 47t47 125t-47 121t-135 43t-144 -66h-188l96 523h571v-168h-428l-39 -213h5q69 76 203 76z" />
    <glyph glyph-name="six.superior" unicode="&#x2076;" horiz-adv-x="909" 
d="M470 727q75 0 122 48t47 122t-47 122t-123 48t-124 -47t-48 -122t49 -123t124 -48zM506 1225q144 0 242 -92q98 -93 99 -237t-103 -236t-274 -93q-171 0 -277 111q-123 126 -123 368t108 371t303 129q141 0 230 -68q88 -69 110 -182h-211q-23 96 -131 97
q-184 0 -200 -281h4q78 113 223 113z" />
    <glyph glyph-name="seven.superior" unicode="&#x2077;" horiz-adv-x="794" 
d="M49 1343v181h705v-164q-138 -134 -230 -334t-100 -438h-231q8 231 108 429t254 331v6q-74 -10 -225 -11h-281z" />
    <glyph glyph-name="eight.superior" unicode="&#x2078;" horiz-adv-x="905" 
d="M454 721q83 0 131 39q48 40 48 108t-47 110t-130 42t-132 -42q-50 -42 -50 -111t48 -107t132 -39zM454 1157q72 0 110 33t38 89t-39 89t-109 33t-109 -33q-38 -33 -38 -89t38 -89t109 -33zM850 860q0 -141 -110 -218t-284 -77q-175 0 -287 77t-112 212q0 176 197 238v6
q-152 57 -152 182t98 195q98 69 255 69q158 0 254 -68t96 -182q0 -137 -150 -192v-6q95 -27 145 -89t50 -147z" />
    <glyph glyph-name="nine.superior" unicode="&#x2079;" horiz-adv-x="907" 
d="M270 1213q0 -75 49 -123t126 -48t124 48t47 124q0 74 -48 123t-124 49t-125 -49t-49 -124zM460 565q-160 0 -259 72q-98 72 -115 184h207q29 -100 145 -100q88 0 131 61q53 66 60 211h-4q-87 -109 -225 -109t-236 93q-98 92 -98 237q0 146 105 238t263 92t266 -86
q140 -111 140 -386t-115 -398q-105 -109 -265 -109z" />
    <glyph glyph-name="zero.inferior" unicode="&#x2080;" horiz-adv-x="980" 
d="M492 -184q197 0 196 325q0 147 -49 235t-147 89q-98 0 -148 -87t-49 -237q-1 -149 49 -237t148 -88zM492 -350q-186 0 -305 134q-117 134 -117 355t118 356q118 134 304 134t303 -133q117 -134 117 -356t-118 -356q-116 -134 -302 -134z" />
    <glyph glyph-name="one.inferior" unicode="&#x2081;" horiz-adv-x="643" 
d="M293 -328v611h-234v145q242 6 273 188h178v-944h-217z" />
    <glyph glyph-name="two.inferior" unicode="&#x2082;" horiz-adv-x="851" 
d="M431 459q-69 0 -111 -48t-41 -128h-205q0 160 100 252t263 92t256 -85t93 -210q0 -72 -30 -130t-76 -98q-45 -40 -146 -103q-102 -63 -143 -95t-61 -62h456v-172h-729q2 132 68 222t180 167q31 23 99 65t93 62t51 58t26 88q0 51 -37 88t-106 37z" />
    <glyph glyph-name="three.inferior" unicode="&#x2083;" horiz-adv-x="870" 
d="M811 -57q-1 -141 -105 -217t-277 -76t-278 91t-108 234h205q4 -73 49 -117t128 -44t126 36t43 105q0 133 -178 133h-58v150h52q162 0 161 118q0 55 -39 87q-38 32 -106 32t-108 -41t-44 -104h-202q4 131 102 215t257 84t253 -71q94 -70 94 -198t-166 -184v-2
q199 -49 199 -231z" />
    <glyph glyph-name="four.inferior" unicode="&#x2084;" horiz-adv-x="913" 
d="M356 33h162v227l14 156h-4q-55 -86 -96 -133l-113 -140q-41 -52 -98 -98l-18 -18v-4q94 10 153 10zM518 -328v205h-455v189l457 552h213v-585h141v-156h-141v-205h-215z" />
    <glyph glyph-name="five.inferior" unicode="&#x2085;" horiz-adv-x="860" 
d="M482 303q134 0 226 -85q92 -86 93 -234t-105 -241t-268 -93t-265 77t-120 203h203q14 -51 59 -83q45 -31 117 -31t119 47t47 125t-47 121t-135 43t-144 -66h-188l96 522h571v-168h-428l-39 -213h5q69 76 203 76z" />
    <glyph glyph-name="six.inferior" unicode="&#x2086;" horiz-adv-x="909" 
d="M470 -188q75 0 122 48t47 122t-47 122t-123 48t-124 -48t-48 -122t49 -122t124 -48zM470 -350q-169 0 -277 112q-123 122 -123 366t108 374t303 129q141 0 229 -69t111 -181h-211q-23 96 -131 96q-184 0 -200 -280h4q78 113 223 113q144 0 242 -93q98 -92 99 -236
q1 -143 -103 -237t-274 -94z" />
    <glyph glyph-name="seven.inferior" unicode="&#x2087;" horiz-adv-x="794" 
d="M330 428h-281v180h705v-166q-138 -132 -230 -332t-100 -438h-231q8 231 108 429t254 331v6q-74 -10 -225 -10z" />
    <glyph glyph-name="eight.inferior" unicode="&#x2088;" horiz-adv-x="905" 
d="M454 -195q83 0 131 40t48 108q0 67 -47 109t-130 42t-132 -42q-50 -42 -50 -110t48 -108q48 -39 132 -39zM307 364q0 -56 38 -89t109 -33q72 0 110 32t38 90q0 56 -39 89t-109 33t-109 -34q-38 -32 -38 -88zM850 -55q0 -141 -110 -218t-284 -77q-175 0 -287 77t-112 212
q0 176 197 237v6q-152 56 -152 182t98 196t255 69q158 0 254 -68t96 -182q0 -137 -150 -193v-6q95 -27 145 -89t50 -146z" />
    <glyph glyph-name="nine.inferior" unicode="&#x2089;" horiz-adv-x="907" 
d="M445 127q77 0 124 48t47 123t-48 124t-124 49t-125 -49t-49 -124t49 -123t126 -48zM460 -350q-160 0 -259 72q-98 72 -115 184h207q29 -100 145 -101q88 0 131 62q53 66 60 211h-4q-83 -109 -223 -109t-238 92q-98 91 -98 237t105 238t263 93q158 0 266 -86
q140 -111 140 -387t-115 -398q-105 -108 -265 -108z" />
    <glyph glyph-name="Euro" unicode="&#x20ac;" horiz-adv-x="1378" 
d="M59 801v127h121q47 256 207 410t388 153q227 0 367 -129t163 -338h-265q-47 248 -268 248q-127 0 -206 -90t-107 -254h375v-127h-390q-2 -25 -2 -77t2 -79h390v-127h-373q63 -328 325 -328q123 0 194 81t85 216h256q-9 -227 -153 -373t-378 -146t-396 146
q-163 148 -214 404h-121v127h105q-2 27 -2 79t2 77h-105z" />
    <glyph glyph-name="afii61289" unicode="&#x2113;" horiz-adv-x="854" 
d="M594 1196q0 164 -94 164t-94 -131v-547q57 54 92 113q96 143 96 401zM156 1223q0 161 89 239t239 78t226 -82q77 -82 76 -268q0 -260 -98 -424t-282 -268v-146q0 -82 32 -114t100 -33q68 0 154 33h6v-207q-90 -41 -232 -41t-226 75t-84 250v76q-72 -25 -121 -37v162
q94 31 121 43v664z" />
    <glyph glyph-name="trademark" unicode="&#x2122;" horiz-adv-x="1884" 
d="M92 1364v160h666v-160h-236v-623h-192v623h-238zM895 741v783h264l86 -285l72 -295h4q39 188 72 295l86 285h268v-783h-174v258l6 342h-6q-45 -188 -90 -325l-84 -275h-162l-86 275l-88 325h-4q6 -209 6 -342v-258h-170z" />
    <glyph glyph-name="Omega" unicode="&#x2126;" horiz-adv-x="1587" 
d="M88 0v223h256v4q-268 172 -268 574q0 336 199 545q201 208 519 208t519 -210t200 -543q0 -399 -272 -574v-4h258v-223h-627v213q176 29 265 186q88 158 88 397t-115 381q-116 142 -316 142t-316 -142q-116 -143 -116 -381t88 -396t265 -187v-213h-627z" />
    <glyph glyph-name="estimated" unicode="&#x212e;" horiz-adv-x="1474" 
d="M748 1331q-198 0 -334 -117v-434h651v463q-119 88 -317 88zM414 686v-496q139 -113 360 -112q377 0 496 346h112q-48 -205 -204 -328t-404 -123q-324 0 -508 202t-184 524q0 321 191 525t491 203q248 0 405 -135q226 -186 222 -606h-977z" />
    <glyph glyph-name="onethird" unicode="&#x2153;" horiz-adv-x="1918" 
d="M1470 -248q-173 0 -279 91q-105 91 -108 235h205q4 -72 49 -117t128 -45t126 37t43 104q0 133 -178 133h-57v150h51q162 0 162 119q0 55 -39 87t-107 32t-107 -41q-40 -41 -44 -105h-203q4 131 102 215t258 84t252 -71q94 -70 94 -198t-165 -183v-3q199 -49 198 -231
q0 -141 -104 -217t-277 -76zM104 -266l1305 1790h197l-1307 -1790h-195zM299 588v610h-233v145q242 6 272 191h178v-946h-217z" />
    <glyph glyph-name="twothirds" unicode="&#x2154;" horiz-adv-x="2086" 
d="M1640 -248q-173 0 -279 91q-105 91 -108 235h205q4 -72 49 -117t128 -45t126 37t43 104q0 133 -178 133h-57v150h51q162 0 162 119q0 55 -39 87t-107 32t-108 -41t-43 -105h-203q4 131 102 215t258 84t252 -71q94 -70 94 -198t-165 -183v-3q199 -49 198 -231
q0 -141 -104 -217t-277 -76zM305 -266l1305 1790h196l-1306 -1790h-195zM580 1249q0 51 -37 88t-106 37t-111 -48t-41 -128h-205q0 162 99 253t263 91t258 -85q92 -85 93 -210q0 -72 -31 -130t-78 -99t-146 -103q-100 -61 -141 -93t-61 -62h457v-172h-730q2 133 68 222
t180 169q31 20 100 63q69 42 93 62t50 57t26 88z" />
    <glyph glyph-name="oneeighth" unicode="&#x215b;" horiz-adv-x="1902" 
d="M1266 54q0 -70 48 -108t131 -38t131 39t48 107t-47 111q-47 42 -130 42t-132 -42t-49 -111zM1445 344q71 0 109 33t39 89q0 56 -39 89q-40 33 -110 33t-108 -33t-38 -89t38 -89t109 -33zM1841 47q1 -141 -109 -218t-285 -77t-287 77t-111 212q0 176 196 238v6
q-151 57 -151 182t97 195t255 70t254 -68t96 -183q0 -137 -149 -192v-6q94 -27 144 -89t50 -147zM92 -266l1305 1790h196l-1306 -1790h-195zM299 588v610h-233v145q242 6 272 191h178v-946h-217z" />
    <glyph glyph-name="threeeighths" unicode="&#x215c;" horiz-adv-x="2045" 
d="M1407 54q0 -70 48 -108t131 -38t131 39t48 107t-47 111q-47 42 -130 42t-132 -42t-49 -111zM1586 588q-70 0 -108 -33t-38 -89t38 -89t108 -33q71 0 110 33t39 89t-39 89t-110 33zM1982 47q0 -141 -110 -218t-284 -77t-286 77t-112 212q0 176 196 238v6q-152 57 -152 182
t98 195q97 70 255 70t254 -68t96 -183q0 -137 -149 -192v-6q94 -27 144 -89t50 -147zM254 -266l1305 1790h196l-1306 -1790h-195zM436 565q-173 0 -279 91q-105 91 -108 235h205q4 -72 49 -117t128 -45t126 37t43 104q0 133 -178 134h-57v149h51q162 0 162 119q0 55 -39 87
t-107 32t-108 -41t-43 -105h-203q4 131 102 215t257 84t253 -70t94 -199q0 -128 -166 -183v-2q199 -49 199 -232q0 -141 -104 -217t-277 -76z" />
    <glyph glyph-name="fiveeighths" unicode="&#x215d;" horiz-adv-x="2013" 
d="M1374 54q0 -70 48 -108t131 -38t131 39t48 107t-46 111q-46 42 -130 42t-133 -42t-49 -111zM1553 588q-71 0 -109 -33t-37 -89q-1 -56 37 -89t109 -33t110 33t39 89t-39 89t-110 33zM1555 -248q-175 0 -287 77t-111 212q0 176 197 238v6q-152 57 -152 182t97 195t255 70
t254 -68t97 -183q0 -137 -150 -192v-6q95 -27 145 -89t50 -147q0 -141 -110 -218t-285 -77zM225 -266l1305 1790h196l-1306 -1790h-195zM488 1219q134 0 226 -85t93 -234t-105 -242t-268 -93t-265 77t-120 204h203q14 -51 59 -83t117 -32t119 47t47 125t-47 121t-135 43
t-144 -66h-188l96 523h572v-168h-429l-38 -213h4q69 76 203 76z" />
    <glyph glyph-name="seveneighths" unicode="&#x215e;" horiz-adv-x="1935" 
d="M1476 344q72 0 110 33t38 89t-39 89t-109 33t-109 -33q-38 -33 -38 -89t38 -89t109 -33zM1476 -92q83 0 131 39t48 107t-47 111q-47 42 -130 42t-132 -42q-50 -42 -50 -111q0 -70 48 -108t132 -38zM55 1343v181h705v-164q-138 -134 -230 -334t-100 -438h-231
q8 231 108 429t254 331v6q-74 -10 -225 -11h-281zM90 -266l1305 1790h196l-1306 -1790h-195zM1872 47q0 -141 -110 -218t-284 -77q-175 0 -287 77t-112 212q0 176 197 238v6q-152 57 -152 182t98 195t255 70q158 0 254 -68t96 -183q0 -137 -150 -192v-6q95 -27 145 -89
t50 -147z" />
    <glyph glyph-name="partialdiff" unicode="&#x2202;" horiz-adv-x="1241" 
d="M340 454q0 -292 249 -292q126 0 207 114t81 250q0 276 -249 275q-126 1 -207 -101t-81 -246zM78 432q0 242 148 401t382 158q183 0 271 -106q-37 191 -163 293t-364 139v221q416 -41 607 -269t192 -630q0 -291 -147 -481t-431 -191q-227 0 -361 131t-134 334z" />
    <glyph glyph-name="Delta" unicode="&#x2206;" horiz-adv-x="1466" 
d="M621 948l-277 -725h764l-277 725q-61 158 -92 303l-10 47h-4q-36 -170 -104 -350zM57 0v207l514 1317h322l518 -1317v-207h-1354z" />
    <glyph glyph-name="product" unicode="&#x220f;" horiz-adv-x="1550" 
d="M154 1524h1243v-1737h-287v1493h-672v-1493h-284v1737z" />
    <glyph glyph-name="summation" unicode="&#x2211;" horiz-adv-x="1374" 
d="M1282 -213h-1180v250l562 635v4l-562 610v238h1160v-230h-832v-4l518 -555v-112l-532 -592v-4h866v-240z" />
    <glyph glyph-name="minus" unicode="&#x2212;" horiz-adv-x="1236" 
d="M119 594v207h999v-207h-999z" />
    <glyph glyph-name="uni2215" unicode="&#x2215;" horiz-adv-x="518" 
d="M-565 -266l1304 1790h197l-1307 -1790h-194z" />
    <glyph glyph-name="uni2219" unicode="&#x2219;" horiz-adv-x="503" 
d="M109 528v287h286v-287h-286z" />
    <glyph glyph-name="radical" unicode="&#x221a;" horiz-adv-x="1359" 
d="M47 459v229h348l129 -334q39 -106 90 -270l13 -45h4q37 164 84 315l358 1170h268l-559 -1737h-293l-276 672h-166z" />
    <glyph glyph-name="infinity" unicode="&#x221e;" horiz-adv-x="1529" 
d="M1120 467q66 0 102 51t35 131q0 80 -35 130q-36 50 -102 50t-114 -48q-49 -48 -101 -134q53 -86 101 -133t114 -47zM414 829q-70 0 -105 -50t-35 -130t35 -131t105 -51q111 0 219 180q-104 182 -219 182zM397 268q-157 0 -245 110t-88 272t88 270q90 109 245 108
q121 0 208 -62t167 -175q76 113 160 175t198 62q150 0 242 -103t92 -275t-92 -277t-224 -105t-216 64t-160 178q-78 -114 -166 -178t-209 -64z" />
    <glyph glyph-name="integral" unicode="&#x222b;" horiz-adv-x="757" 
d="M240 -31v1252q0 328 335 327q100 0 175 -20v-203h-7q-41 12 -107 12q-66 1 -102 -31q-34 -32 -34 -104v-1253q0 -328 -334 -328q-94 0 -176 21v204h6q74 -12 125 -12t85 32t34 103z" />
    <glyph glyph-name="approxequal" unicode="&#x2248;" horiz-adv-x="1236" 
d="M872 317q-88 0 -264 39t-225 39q-80 0 -90 -92h-180q3 151 71 227t172 76t276 -40q173 -40 216 -40q88 0 94 88h182q-4 -297 -252 -297zM872 731q-88 0 -264 39t-225 39q-80 0 -90 -92h-180q1 151 71 227t172 76t276 -40q173 -40 216 -40q88 0 94 88h182
q-4 -297 -252 -297z" />
    <glyph glyph-name="notequal" unicode="&#x2260;" horiz-adv-x="1232" 
d="M127 772v199h557l119 231h180l-119 -231h246v-199h-346l-111 -217h457v-199h-557l-117 -231h-180l117 231h-246v199h346l111 217h-457z" />
    <glyph glyph-name="lessequal" unicode="&#x2264;" horiz-adv-x="1114" 
d="M987 274l-870 318v258l870 317v-223l-409 -137l-291 -86v-4q180 -43 291 -78l409 -137v-228zM117 0v201h870v-201h-870z" />
    <glyph glyph-name="greaterequal" unicode="&#x2265;" horiz-adv-x="1114" 
d="M997 592l-870 -318v224l412 139l288 84v4q-178 45 -288 80l-412 137v225l870 -317v-258zM997 201v-201h-870v201h870z" />
    <glyph glyph-name="uni24C5" unicode="&#x24c5;" horiz-adv-x="1771" 
d="M776 1034v-246h168q66 0 102 32t36 90t-35 91t-101 33h-170zM582 334v860h385q145 0 229 -80q78 -82 78 -204t-77 -198t-210 -75h-211v-303h-194zM887 57q287 0 477 200t190 500q0 299 -190 499t-477 200t-479 -200t-193 -500q1 -300 193 -499q192 -200 479 -200z
M887 -37q-330 0 -556 226q-227 227 -227 567t226 567t557 227q330 0 556 -227t226 -567t-226 -566t-556 -227z" />
    <glyph glyph-name="lozenge" unicode="&#x25ca;" horiz-adv-x="1249" 
d="M330 766l186 -350q80 -152 98 -207l11 -27h4q29 90 106 234l180 338l-184 350q-76 152 -98 207l-10 26h-5q-31 -88 -106 -233zM766 1524l430 -764l-428 -760h-285l-430 762l428 762h285z" />
    <glyph glyph-name="f_i" unicode="&#xf001;" horiz-adv-x="1239" 
d="M858 1272v252h266v-252h-266zM862 0v1094h258v-1094h-258zM51 913v181h168v120q0 174 103 244q84 70 268 70q55 0 117 -6v-195q-133 6 -181 -18q-47 -25 -47 -111v-104h226v-181h-226v-913h-260v913h-168z" />
    <glyph glyph-name="f_l" unicode="&#xf002;" horiz-adv-x="1245" 
d="M862 0v1524h260v-1524h-260zM51 913v181h168v120q0 174 103 244q88 74 268 70q55 0 117 -6v-195q-133 6 -181 -18q-47 -25 -47 -111v-104h226v-181h-226v-913h-260v913h-168z" />
    <glyph glyph-name="uniF8FF" unicode="&#xf8ff;" horiz-adv-x="1802" 
d="M389 918v-306h359v-360h307v360h358v306h-358v348h-307v-348h-359zM139 0v1526h1526v-1526h-1526z" />
    <glyph glyph-name="commaaccent" 
d="M649 -104v-164q0 -122 -74 -184t-198 -70v100q129 23 129 113h-125v205h268z" />
    <glyph glyph-name="zero.denominator" horiz-adv-x="980" 
d="M492 -82q197 0 196 326q0 147 -49 235t-147 88t-148 -87q-50 -86 -49 -236q-1 -150 49 -238t148 -88zM492 -248q-186 0 -305 134q-117 134 -117 356t118 355q118 134 304 134t303 -133t117 -355t-117 -357q-117 -134 -303 -134z" />
    <glyph glyph-name="one.denominator" horiz-adv-x="643" 
d="M293 -225v610h-234v145q242 6 273 189h178v-944h-217z" />
    <glyph glyph-name="two.denominator" horiz-adv-x="851" 
d="M431 561q-69 0 -111 -48t-41 -128h-205q0 160 100 252t263 92t256 -85t93 -210q0 -72 -30 -130t-78 -99q-47 -41 -146 -103q-100 -61 -141 -93t-61 -62h456v-172h-729q2 133 76 233t270 220q68 42 94 62q77 61 77 146q0 51 -37 88t-106 37z" />
    <glyph glyph-name="three.denominator" horiz-adv-x="870" 
d="M811 45q-1 -141 -105 -217t-277 -76t-278 91t-108 235h205q4 -72 49 -117t128 -45t126 37t43 104q0 133 -178 133h-58v150h52q162 0 161 119q0 55 -39 87q-38 32 -106 32t-108 -41t-44 -105h-202q4 131 102 215t257 84t253 -71q94 -70 94 -198t-166 -183v-3
q199 -49 199 -231z" />
    <glyph glyph-name="four.denominator" horiz-adv-x="913" 
d="M356 135h162v227l14 156h-4q-55 -86 -96 -133l-113 -139q-37 -47 -98 -99l-18 -18v-4q94 10 153 10zM518 -225v205h-455v188l457 553h213v-586h141v-155h-141v-205h-215z" />
    <glyph glyph-name="five.denominator" horiz-adv-x="860" 
d="M482 406q134 0 226 -85t93 -234t-105 -242t-268 -93t-265 77t-120 204h203q14 -51 59 -83t117 -32t119 47t47 125t-47 121t-135 43t-144 -66h-188l96 523h571v-168h-428l-39 -213h5q69 76 203 76z" />
    <glyph glyph-name="six.denominator" horiz-adv-x="909" 
d="M470 -86q75 0 122 48t47 122t-47 122t-123 48t-124 -47t-48 -122t49 -123t124 -48zM506 412q144 0 242 -92t99 -237q1 -143 -103 -237t-274 -94q-169 0 -277 113q-123 123 -123 367t108 372q108 129 303 129q141 0 230 -68q88 -69 110 -182h-211q-23 96 -131 97
q-184 0 -200 -281h4q78 113 223 113z" />
    <glyph glyph-name="seven.denominator" horiz-adv-x="794" 
d="M49 530v181h705v-166q-138 -133 -230 -333t-100 -437h-231q8 231 108 429t254 331v6q-74 -10 -225 -11h-281z" />
    <glyph glyph-name="eight.denominator" horiz-adv-x="905" 
d="M454 -92q83 0 131 39t48 107t-47 111q-47 42 -130 42t-132 -42q-50 -42 -50 -111q0 -70 48 -108t132 -38zM454 344q72 0 110 33t38 89t-39 89t-109 33t-109 -33q-38 -33 -38 -89t38 -89t109 -33zM850 47q0 -141 -110 -218t-284 -77q-175 0 -287 77t-112 212
q0 176 197 238v6q-152 57 -152 182t98 195t255 70q158 0 254 -68t96 -183q0 -137 -150 -192v-6q95 -27 145 -89t50 -147z" />
    <glyph glyph-name="nine.denominator" horiz-adv-x="907" 
d="M270 400q0 -75 49 -123t126 -48q77 1 124 49t47 122t-48 124q-48 49 -124 49t-125 -49t-49 -124zM460 -248q-160 0 -259 72q-98 72 -115 184h207q29 -100 145 -100q88 0 131 61q53 66 60 211h-4q-83 -108 -223 -108t-238 92t-98 237t105 237t263 93q158 0 266 -86
q140 -111 140 -386t-115 -398q-105 -109 -265 -109z" />
    <glyph glyph-name="zero.numerator" horiz-adv-x="980" 
d="M492 733q197 0 196 324q0 147 -49 235t-147 88t-148 -87t-49 -237q-1 -150 49 -236q50 -87 148 -87zM492 565q-186 0 -305 134q-117 133 -117 355t118 356t304 134t303 -133t117 -355t-117 -357q-117 -134 -303 -134z" />
    <glyph glyph-name="one.numerator" horiz-adv-x="643" 
d="M293 588v610h-234v145q242 6 273 191h178v-946h-217z" />
    <glyph glyph-name="two.numerator" horiz-adv-x="851" 
d="M431 1374q-69 0 -111 -48t-41 -128h-205q0 162 99 253t263 91t257 -85t93 -210q0 -72 -30 -130t-78 -99q-47 -41 -146 -103q-100 -61 -141 -93t-61 -62h456v-172h-729q2 133 68 222t180 169q31 20 99 63q68 42 94 62q25 20 50 57q26 37 26 88t-37 88t-106 37z" />
    <glyph glyph-name="three.numerator" horiz-adv-x="870" 
d="M811 858q-1 -141 -105 -217t-277 -76t-278 91t-108 235h205q4 -72 49 -117t128 -45t126 37t43 104q0 133 -178 134h-58v149h52q162 0 161 119q0 55 -39 87q-38 32 -106 32t-108 -41t-44 -105h-202q4 131 102 215t257 84t253 -70t94 -199q0 -128 -166 -183v-2
q199 -49 199 -232z" />
    <glyph glyph-name="four.numerator" horiz-adv-x="913" 
d="M356 948h162v228l14 155h-4q-55 -86 -96 -133l-113 -139q-24 -31 -98 -101l-18 -16v-4q94 10 153 10zM518 588v205h-455v188l457 553h213v-586h141v-155h-141v-205h-215z" />
    <glyph glyph-name="five.numerator" horiz-adv-x="860" 
d="M482 1219q134 0 226 -85t93 -234t-105 -242t-268 -93t-265 77t-120 204h203q14 -51 59 -83t117 -32t119 47t47 125t-47 121t-135 43t-144 -66h-188l96 523h571v-168h-428l-39 -213h5q69 76 203 76z" />
    <glyph glyph-name="six.numerator" horiz-adv-x="909" 
d="M470 727q75 0 122 48t47 122t-47 122t-123 48t-124 -47t-48 -122t49 -123t124 -48zM506 1225q144 0 242 -92q98 -93 99 -237t-103 -236t-274 -93q-171 0 -277 111q-123 126 -123 368t108 371t303 129q141 0 230 -68q88 -69 110 -182h-211q-23 96 -131 97
q-184 0 -200 -281h4q78 113 223 113z" />
    <glyph glyph-name="seven.numerator" horiz-adv-x="794" 
d="M49 1343v181h705v-164q-138 -134 -230 -334t-100 -438h-231q8 231 108 429t254 331v6q-74 -10 -225 -11h-281z" />
    <glyph glyph-name="eight.numerator" horiz-adv-x="905" 
d="M454 721q83 0 131 39q48 40 48 108t-47 110t-130 42t-132 -42q-50 -42 -50 -111t48 -107t132 -39zM454 1157q72 0 110 33t38 89t-39 89t-109 33t-109 -33q-38 -33 -38 -89t38 -89t109 -33zM850 860q0 -141 -110 -218t-284 -77q-175 0 -287 77t-112 212q0 176 197 238v6
q-152 57 -152 182t98 195q98 69 255 69q158 0 254 -68t96 -182q0 -137 -150 -192v-6q95 -27 145 -89t50 -147z" />
    <glyph glyph-name="nine.numerator" horiz-adv-x="907" 
d="M270 1213q0 -75 49 -123t126 -48t124 48t47 124q0 74 -48 123t-124 49t-125 -49t-49 -124zM460 565q-160 0 -259 72q-98 72 -115 184h207q29 -100 145 -100q88 0 131 61q53 66 60 211h-4q-87 -109 -225 -109t-236 93q-98 92 -98 237q0 146 105 238t263 92t266 -86
q140 -111 140 -386t-115 -398q-105 -109 -265 -109z" />
    <glyph glyph-name="acute.cap" 
d="M385 1608l98 262h316l-205 -262h-209z" />
    <glyph glyph-name="breve.cap" 
d="M555 1595q-131 0 -217 77t-92 202h162q24 -106 144 -106t146 106h158q-4 -121 -87 -200t-214 -79z" />
    <glyph glyph-name="caron.alt" 
d="M623 1524v-150q0 -227 -240 -241v96q106 14 111 104h-109v191h238z" />
    <glyph glyph-name="caron.cap" 
d="M858 1860l-215 -252h-264l-213 252h240l102 -121h4l106 121h240z" />
    <glyph glyph-name="circumflex.cap" 
d="M166 1608l215 252h264l213 -252h-240l-102 121h-4l-106 -121h-240z" />
    <glyph glyph-name="commaaccent.alt" 
d="M649 -104v-164q0 -122 -74 -184t-198 -70v100q129 23 129 113h-125v205h268z" />
    <glyph glyph-name="dieresis.cap" 
d="M154 1608v250h256v-250h-256zM614 1608v250h256v-250h-256z" />
    <glyph glyph-name="dotaccent.cap" 
d="M379 1608v250h266v-250h-266z" />
    <glyph glyph-name="grave.cap" 
d="M430 1608l-205 262h316l96 -262h-207z" />
    <glyph glyph-name="hungarumlaut.cap" 
d="M219 1608l70 262h264l-154 -262h-180zM575 1608l68 262h262l-153 -262h-177z" />
    <glyph glyph-name="macron.cap" 
d="M209 1622v193h612v-193h-612z" />
    <glyph glyph-name="ring.cap" 
d="M513 1673q48 0 79 33t31 82t-31 82t-79 33t-80 -33t-32 -82t32 -82t80 -33zM513 1571q-93 0 -159 62q-66 61 -66 153t66 154t158 62t158 -62q66 -64 66 -154t-65 -153q-65 -62 -158 -62z" />
    <glyph glyph-name="tilde.cap" 
d="M670 1610q-78 0 -164 41t-110 41t-43 -23t-21 -59h-154q2 124 56 190t132 66t158 -40q78 -40 109 -40q53 0 63 76h156q-4 -119 -53 -186q-50 -66 -129 -66z" />
    <glyph glyph-name="space_uni0326" 
d="M647 -104v-164q0 -122 -74 -184t-198 -70v100q129 23 129 113h-125v205h268z" />
    <glyph glyph-name="space_uni0326.alt" 
d="M397 1272v162q0 121 74 184t199 70v-101q-129 -20 -129 -112h125v-203h-269z" />
    <glyph glyph-name="R.alt" horiz-adv-x="1441" 
d="M430 1280v-465h369q266 0 266 234q0 115 -68 173t-192 58h-375zM430 588v-588h-287v1524h688q257 0 387 -140t130 -314q0 -173 -81 -287t-225 -162l363 -621h-320l-327 588h-328z" />
    <glyph glyph-name="Ccedilla.alt" horiz-adv-x="1540" 
d="M782 -172h-125v156q-263 51 -419 262t-156 512q0 346 201 570t534 224q258 0 422 -125q186 -145 215 -393h-283q-20 125 -114 202t-242 77q-211 0 -328 -155q-117 -154 -117 -400t123 -399q122 -153 324 -152q164 0 260 95t109 241h284q-4 -113 -54 -221
q-141 -307 -490 -349v-116q0 -119 -69 -173t-206 -59v101q131 12 131 102z" />
    <glyph glyph-name="ccedilla.alt" horiz-adv-x="1165" 
d="M737 -143q-1 -119 -69 -173t-205 -59v101q131 12 131 102h-125v158q-186 48 -296 200t-110 359q0 249 152 413t399 164q205 0 334 -106t160 -287h-254q-18 90 -80 142t-158 53q-139 0 -214 -104q-74 -104 -74 -273q0 -170 74 -274q75 -103 214 -103q106 0 170 59
q63 59 74 168h254q-10 -165 -110 -277t-267 -143v-120z" />
    <glyph glyph-name="hyphen.cap" horiz-adv-x="786" 
d="M84 547v256h621v-256h-621z" />
    <glyph glyph-name="endash.cap" 
d="M0 563v223h1024v-223h-1024z" />
    <glyph glyph-name="emdash.cap" horiz-adv-x="2048" 
d="M410 565v223h1228v-223h-1228z" />
    <glyph glyph-name="questiondown.cap" horiz-adv-x="1157" 
d="M727 1034q0 -135 -44 -225t-196 -207q-114 -91 -135 -153q-10 -31 -10 -66q0 -84 64 -136t178 -52q114 1 188 75t78 195h258q-6 -209 -147 -350t-381 -141t-375 112t-135 298t170 321q40 31 110 85t94 84q47 57 48 160h235zM756 1524v-285h-287v285h287z" />
    <glyph glyph-name="exclamdown.cap" horiz-adv-x="567" 
d="M428 1524v-285h-287v285h287zM422 0h-275v426l68 608h137l70 -608v-426z" />
    <glyph glyph-name="parenleft.cap" horiz-adv-x="722" 
d="M143 741q0 274 91 517t237 419h213q-262 -422 -262 -929t262 -951h-213q-328 430 -328 944z" />
    <glyph glyph-name="parenright.cap" horiz-adv-x="722" 
d="M305 751q0 508 -266 926h215q145 -176 236 -419t92 -517q0 -514 -328 -944h-215q266 446 266 954z" />
    <glyph glyph-name="bracketleft.cap" horiz-adv-x="806" 
d="M160 -203v1880h559v-204h-305v-1469h305v-207h-559z" />
    <glyph glyph-name="bracketright.cap" horiz-adv-x="806" 
d="M86 -203v207h303v1469h-303v204h559v-1880h-559z" />
    <glyph glyph-name="braceleft.cap" horiz-adv-x="786" 
d="M659 -203q-213 0 -312 85t-99 294v316q0 76 -42 112t-143 39v201q100 2 143 38q42 36 42 111v310q0 211 99 293t312 81h60v-204h-51q-92 0 -129 -35t-37 -135v-336q0 -176 -150 -222v-6q78 -23 114 -75t36 -144v-344q0 -100 38 -136t128 -36h51v-207h-60z" />
    <glyph glyph-name="braceright.cap" horiz-adv-x="786" 
d="M86 -203v207h39q92 0 129 35t37 135v342q0 94 36 146t115 73v6q-80 25 -116 77t-35 145v337q0 100 -38 136t-128 37h-39v204h47q215 0 313 -84t99 -293v-309q0 -77 40 -113t136 -38v-201q-94 -2 -135 -38t-41 -112v-315q-1 -211 -99 -294t-313 -83h-47z" />
    <glyph glyph-name="guillemotleft.cap" horiz-adv-x="1048" 
d="M465 242l-326 309v252l326 309v-260l-180 -174v-4l180 -176v-256zM909 242l-325 309v252l325 309v-260l-180 -174v-4l180 -176v-256z" />
    <glyph glyph-name="guillemotright.cap" horiz-adv-x="1048" 
d="M909 551l-325 -309v256l182 176v4l-182 174v260l325 -309v-252zM465 551l-326 -309v256l183 176v4l-183 174v260l326 -309v-252z" />
    <glyph glyph-name="guilsinglleft.cap" horiz-adv-x="636" 
d="M496 225l-357 322v258l357 323v-270l-201 -180v-4l201 -180v-269z" />
    <glyph glyph-name="guilsinglright.cap" horiz-adv-x="636" 
d="M139 1128l357 -323v-258l-357 -322v269l203 178v4l-203 182v270z" />
    <glyph glyph-name="registered.alt" horiz-adv-x="1771" 
d="M745 1040v-235h179q68 0 102 32t35 85q0 119 -131 118h-185zM551 334v860h412q129 0 212 -66t82 -180q0 -160 -157 -211v-4q119 -33 133 -168q4 -33 9 -91q5 -59 9 -89t19 -39v-12h-193q-13 10 -21 88q-7 77 -12 110q-6 68 -40 99q-35 31 -107 31h-152v-328h-194zM887 57
q287 0 477 200t190 500q0 299 -190 499t-477 200t-479 -200t-193 -500q1 -300 193 -499q192 -200 479 -200zM887 -37q-330 0 -556 226q-227 227 -227 567t226 567t557 227q330 0 556 -227t226 -567t-226 -566t-556 -227z" />
    <glyph glyph-name="dollar.cap" horiz-adv-x="1394" 
d="M395 1136q1 -83 57 -128t187 -78v407q-113 -10 -179 -64t-65 -137zM1030 426q0 92 -59 136t-199 81v-440q110 11 184 71t74 152zM639 -252v240q-274 18 -420 153q-145 135 -156 344h281q29 -252 295 -280v469l-4 2q-102 25 -167 44q-177 52 -252 132q-97 104 -95 266
q0 194 143 306t375 122v164h133v-166q227 -18 355 -127t149 -295h-268q-29 180 -236 211v-436q338 -75 437 -180q100 -106 100 -275q0 -202 -151 -324t-386 -132v-238h-133z" />
    <glyph glyph-name="Euro.cap" horiz-adv-x="1439" 
d="M61 838v131h127q49 268 216 429t407 161q240 -1 384 -135t169 -353h-277q-47 260 -280 260q-266 0 -330 -362h393v-131h-407q-2 -27 -2 -82t2 -82h407v-131h-391q66 -346 342 -346q129 0 204 86t89 225h264q-10 -238 -158 -390t-394 -153q-246 0 -416 155t-222 423h-127
v131h111q-2 27 -2 82t2 82h-111z" />
    <glyph glyph-name="sterling.cap" horiz-adv-x="1308" 
d="M94 657v174h115q-70 152 -70 271q1 201 147 328q146 126 393 126t388 -120q162 -137 168 -400h-272q-2 150 -77 224t-199 74q-123 0 -189 -64q-66 -63 -66 -174q0 -65 16 -115q16 -49 30 -89t24 -61h311v-174h-260q8 -57 8 -86q0 -96 -48 -174t-153 -157l5 -7
q109 57 199 57t190 -35q100 -36 157 -36q113 0 219 98l132 -211q-160 -137 -351 -137q-111 -1 -245 57t-220 58q-87 0 -225 -96l-143 209q106 72 165 150q58 79 58 185q0 57 -20 125h-187z" />
    <glyph glyph-name="yen.cap" horiz-adv-x="1380" 
d="M170 588v129h338l-473 809h311l172 -318q45 -83 150 -315l26 -66h4q102 242 179 381l167 318h306l-476 -809h345v-129h-388v-164h388v-131h-388v-293h-274v293h-387v131h387v164h-387z" />
    <glyph glyph-name="zero.cap" horiz-adv-x="1454" 
d="M729 193q174 -1 259 149t85 418t-86 421t-259 153t-259 -152t-86 -419t86 -419t260 -151zM729 -37q-291 0 -464 217t-173 582q0 364 175 580t463 216t460 -214q172 -216 172 -582t-171 -582q-171 -217 -462 -217z" />
    <glyph glyph-name="one.cap" horiz-adv-x="892" 
d="M432 0v1044h-352v187q168 4 280 78t134 227h219v-1536h-281z" />
    <glyph glyph-name="two.cap" horiz-adv-x="1292" 
d="M654 1327q-128 0 -197 -82q-78 -84 -78 -246h-275q0 227 123 375q143 182 449 182q246 0 389 -134t143 -343q0 -156 -74 -251t-223 -195q-43 -33 -163 -112t-197 -143q-76 -64 -113 -134h756v-244h-1118q6 246 162 422q103 117 348 275q96 62 110 73q119 76 172 140
q54 64 54 172q0 106 -70 176t-198 69z" />
    <glyph glyph-name="three.cap" horiz-adv-x="1337" 
d="M1257 432q-1 -223 -163 -346t-424 -123t-436 140t-179 395h269q8 -144 97 -228t239 -84t232 70q81 70 81 194t-86 187t-244 63h-94v203h88q141 1 218 59t77 160t-74 162t-202 62q-128 0 -205 -79q-78 -79 -82 -202h-267q4 217 157 355t401 138t398 -114
q151 -115 150 -309q0 -227 -256 -314v-4q305 -84 305 -385z" />
    <glyph glyph-name="four.cap" horiz-adv-x="1368" 
d="M526 567h301v441l13 229h-4q-80 -127 -144 -205l-219 -278q-62 -80 -141 -162l-29 -31v-4q135 10 223 10zM827 0v356h-725v252l742 932h256v-973h237v-211h-237v-356h-273z" />
    <glyph glyph-name="five.cap" horiz-adv-x="1306" 
d="M717 1030q211 0 361 -144t151 -385q0 -241 -163 -389t-416 -147q-252 0 -414 127t-179 330h277q23 -104 100 -165q78 -60 210 -60t216 86t84 225t-84 222t-211 83q-188 0 -282 -121h-267l162 832h875v-234h-672l-84 -391h4q121 131 332 131z" />
    <glyph glyph-name="six.cap" horiz-adv-x="1368" 
d="M713 180q135 0 222 88t87 226t-88 226q-88 89 -225 89t-227 -87t-89 -226q0 -139 92 -228q93 -88 228 -88zM760 1024q216 0 370 -152t155 -378t-159 -378q-160 -153 -417 -153q-256 0 -420 180q-193 199 -193 619q-4 377 166 592q166 205 461 205q221 0 355 -114
t163 -280h-270q-15 74 -77 127t-165 54q-348 0 -367 -537h5q137 215 393 215z" />
    <glyph glyph-name="seven.cap" horiz-adv-x="1210" 
d="M561 1284h-498v240h1098v-219q-241 -225 -407 -567t-183 -738h-295q20 389 197 738q176 349 416 552v4q-160 -10 -328 -10z" />
    <glyph glyph-name="eight.cap" horiz-adv-x="1363" 
d="M684 182q150 0 237 72t87 197t-86 199t-237 75q-151 0 -238 -75q-87 -74 -87 -200t87 -197t237 -71zM683 918q126 0 198 58q71 58 71 158t-71 160q-72 60 -198 60t-198 -60q-71 -60 -71 -159q0 -100 71 -159q72 -58 198 -58zM687 -37q-261 0 -436 123t-175 348
q0 144 84 246t233 145v6q-248 80 -248 316q0 184 150 298q149 114 389 114t387 -111t148 -297q0 -233 -244 -315v-7q151 -39 233 -142t82 -247q0 -231 -171 -354t-432 -123z" />
    <glyph glyph-name="nine.cap" horiz-adv-x="1370" 
d="M350 1030q0 -137 88 -227t229 -90q140 0 229 88t89 227t-92 227t-230 88q-137 0 -225 -88t-88 -225zM686 -37q-244 0 -395 117q-150 117 -170 291h272q16 -81 86 -137t185 -56q160 0 248 119t102 399h-4q-154 -196 -384 -196t-386 150q-154 150 -155 378q-1 227 163 379
t406 152t401 -136q221 -182 221 -647t-193 -655q-153 -158 -397 -158z" />
    <glyph glyph-name="percent.cap" horiz-adv-x="1957" 
d="M1501 129q80 0 122 77t42 203q0 127 -43 205t-122 78t-120 -78t-41 -204t41 -204q41 -77 121 -77zM293 1116q0 -128 42 -204t122 -76t122 76t42 203q0 126 -43 205t-122 79t-121 -78t-42 -205zM1501 -37q-170 0 -276 123q-107 123 -107 323q0 199 109 321t277 122
t272 -121q106 -121 106 -321t-106 -324q-106 -123 -275 -123zM456 672q-169 0 -277 122q-107 122 -107 322t108 321q109 122 277 122t273 -120q106 -120 106 -322q0 -201 -106 -323t-274 -122zM463 0l850 1524h180l-850 -1524h-180z" />
    <glyph glyph-name="perthousand.cap" horiz-adv-x="2820" 
d="M2365 129q80 0 122 77t42 203q0 127 -43 205t-122 78q-80 0 -120 -78t-40 -204t40 -204q40 -77 121 -77zM2365 -37q-169 0 -277 123t-108 323q0 199 109 321t277 122t274 -121t106 -321t-106 -324q-106 -123 -275 -123zM1485 129q80 0 121 76t41 203q0 128 -43 206
t-121 78t-120 -78t-42 -204t42 -204q42 -77 122 -77zM293 1116q0 -128 42 -204t122 -76t122 76t42 203q0 126 -43 205t-122 79t-121 -78t-42 -205zM1483 -37q-170 0 -277 123q-106 123 -106 323q0 199 108 321t277 122q168 0 274 -121q107 -121 107 -321t-106 -324
q-106 -123 -277 -123zM456 672q-169 0 -277 122q-107 122 -107 322t108 321q109 122 277 122t273 -120q106 -120 106 -322q0 -201 -106 -323t-274 -122zM455 0l848 1524h180l-850 -1524h-178z" />
    <glyph glyph-name="dollar.tab" horiz-adv-x="1331" 
d="M389 1084q0 -80 51 -122t170 -73v389q-102 -10 -162 -62t-59 -132zM973 408q0 88 -54 131t-182 75v-419q102 13 169 69t67 144zM610 -240v226q-256 18 -393 148t-147 331h270q29 -240 270 -268v446q-202 50 -282 92q-80 41 -118 83q-86 97 -85 253q0 182 134 290t351 118
v157h127v-159q211 -17 333 -121t138 -283h-258q-25 170 -213 201v-414q260 -59 382 -149t122 -285q0 -196 -141 -312t-363 -128v-226h-127z" />
    <glyph glyph-name="Euro.tab" horiz-adv-x="1331" 
d="M49 801v127h121q47 256 205 410t380 153q222 0 358 -129t159 -338h-264q-43 248 -256 248q-125 0 -202 -90t-106 -254h357v-127h-369q-2 -25 -2 -77t2 -79h369v-127h-355q63 -328 320 -328q120 0 186 81t80 216h256q-10 -227 -150 -373t-370 -146t-389 146
q-160 148 -209 404h-121v127h105q-2 27 -2 79t2 77h-105z" />
    <glyph glyph-name="sterling.tab" horiz-adv-x="1331" 
d="M129 629v166h111q-68 152 -68 260q0 190 140 312t374 122t371 -115q156 -129 162 -383h-265q-2 143 -71 213q-70 70 -188 70t-179 -60t-61 -153q0 -92 67 -266h293v-166h-246q6 -39 6 -80q0 -92 -45 -167t-145 -153l4 -6q109 55 195 55t178 -33q92 -34 147 -34
q106 0 209 94l125 -203q-150 -131 -334 -131q-106 1 -233 55t-210 54t-212 -92l-139 200q102 72 157 146q90 121 35 295h-178z" />
    <glyph glyph-name="yen.tab" horiz-adv-x="1331" 
d="M168 561v125h344l-438 774h291l153 -295q64 -122 129 -293l23 -57h4q86 215 153 350l152 295h285l-439 -774h349v-125h-373v-155h373v-125h-373v-281h-262v281h-371v125h371v155h-371z" />
    <glyph glyph-name="cent.tab" horiz-adv-x="1331" 
d="M406 546q0 -148 58 -248t169 -124v744q-111 -25 -169 -124q-58 -100 -58 -248zM633 -254v225q-223 25 -357 185q-133 160 -133 390t133 391t357 183v180h125v-180q182 -14 297 -122t141 -275h-252q-33 168 -186 197v-748q170 31 192 227h248q-12 -182 -130 -299
t-310 -131v-223h-125z" />
    <glyph glyph-name="florin.tab" horiz-adv-x="1331" 
d="M272 698v179h242l47 319q23 145 98 213q115 104 400 70v-195q-119 10 -172 -14t-66 -105l-41 -288h260v-179h-286l-105 -743q-23 -150 -94 -215q-96 -92 -344 -59v184q84 -6 123 14t51 98l104 721h-217z" />
    <glyph glyph-name="currency.tab" horiz-adv-x="1331" 
d="M666 301q-133 0 -226 61l-141 -143l-131 127l141 141q-67 105 -67 243t67 243l-141 143l131 125l139 -143q98 66 228 66t227 -66l141 143l129 -125l-141 -143q66 -107 66 -241t-66 -243l141 -143l-129 -127l-141 143q-94 -61 -227 -61zM666 465q100 0 158 74
q58 75 58 193t-58 193t-158 75t-160 -75t-60 -194t60 -193t160 -73z" />
    <glyph glyph-name="zero.tab" horiz-adv-x="1331" 
d="M666 186q291 0 290 543q0 256 -71 400q-72 145 -219 145q-146 0 -220 -144t-74 -400t74 -400q73 -144 220 -144zM668 1491q258 0 412 -204t155 -557t-153 -559t-415 -206t-417 207t-156 557t158 556t416 206z" />
    <glyph glyph-name="one.tab" horiz-adv-x="1331" 
d="M643 0v979h-385v180q397 8 444 311h211v-1470h-270z" />
    <glyph glyph-name="two.tab" horiz-adv-x="1331" 
d="M928 1034q0 104 -67 170t-187 66t-189 -78q-74 -80 -73 -238h-265q0 217 115 361q141 174 430 174q236 0 374 -128t138 -329q0 -147 -70 -238t-212 -186q-45 -34 -155 -106q-109 -72 -183 -132t-113 -126q0 -8 -2 -11h721v-233h-1071q6 236 153 403q93 104 252 210
t232 151q72 45 122 106t50 164z" />
    <glyph glyph-name="three.tab" horiz-adv-x="1331" 
d="M1227 414q1 -215 -153 -332t-404 -117t-415 133t-169 379h258q6 -137 89 -217t227 -80t219 66q74 66 73 188q0 236 -309 236h-90v194h84q135 0 207 56t72 153q0 98 -69 156q-69 57 -191 57t-194 -75q-73 -75 -77 -191h-254q3 209 147 340t380 131t379 -110
q142 -110 143 -296q0 -217 -246 -299v-4q293 -82 293 -368z" />
    <glyph glyph-name="four.tab" horiz-adv-x="1331" 
d="M512 545h289v418l10 219h-4q-76 -121 -135 -197l-209 -264l-162 -182v-4q129 10 211 10zM801 0v342h-695v240l711 893h246v-930h192v-203h-192v-342h-262z" />
    <glyph glyph-name="five.tab" horiz-adv-x="1331" 
d="M662 -33q-244 0 -398 121t-170 315h266q20 -98 94 -155q74 -58 202 -58q126 0 207 81t81 214t-81 212t-201 79q-178 0 -271 -114h-254l154 796h835v-223h-643l-77 -375h4q114 125 316 125t346 -137q144 -138 144 -368t-155 -372q-156 -142 -399 -141z" />
    <glyph glyph-name="six.tab" horiz-adv-x="1331" 
d="M690 172q127 0 208 84t81 216t-81 216t-211 84t-213 -83t-83 -215t86 -217t213 -85zM686 -35q-242 0 -397 172q-182 190 -183 592q-4 362 155 562t439 200q213 0 341 -108t157 -269h-262q-14 72 -72 123t-159 51q-168 0 -251 -129t-94 -383h5q137 205 372 205
q207 0 350 -144q143 -143 145 -361t-150 -364q-154 -146 -396 -147z" />
    <glyph glyph-name="seven.tab" horiz-adv-x="1331" 
d="M616 1227h-466v231h1042v-211q-227 -215 -384 -541t-173 -706h-285q18 371 187 706q168 335 393 527v4q-154 -10 -314 -10z" />
    <glyph glyph-name="eight.tab" horiz-adv-x="1331" 
d="M373 430q0 -120 79 -188t216 -68t215 69t78 189t-78 190t-215 70t-216 -70t-79 -192zM667 879q115 0 181 55t65 151q0 96 -65 153q-66 56 -182 56t-183 -56t-67 -152t68 -152q68 -55 183 -55zM670 -35q-244 0 -408 118t-164 333q0 139 78 235t219 137v7q-236 78 -235 303
q0 176 143 284t365 109t363 -105q140 -106 140 -284q0 -106 -59 -186t-174 -117v-6q139 -37 216 -135t77 -236q-1 -221 -159 -339t-402 -118z" />
    <glyph glyph-name="nine.tab" horiz-adv-x="1331" 
d="M651 684q133 0 215 83t82 216t-85 217t-215 84t-212 -84t-82 -215t82 -216t215 -85zM670 -35q-234 0 -378 112t-163 277h264q14 -76 81 -130t175 -54q150 0 232 108t94 388h-4q-141 -188 -361 -188t-364 144t-146 362t154 362t386 145q230 0 382 -129q207 -170 207 -618
t-180 -627q-145 -152 -379 -152z" />
    <glyph glyph-name="percent.tab" horiz-adv-x="1843" 
d="M1249 386q0 -120 40 -192t116 -71q76 0 115 71q39 70 39 190t-41 194t-115 74t-114 -74q-40 -72 -40 -192zM442 809q76 0 116 72q40 73 40 191t-41 192t-116 74t-115 -74q-40 -72 -39 -191q-1 -119 39 -191t116 -73zM1403 -35q-160 0 -261 116t-102 304q0 188 102 304
t262 116q159 0 260 -115t101 -304t-101 -305t-261 -116zM428 0l813 1458h174l-813 -1458h-174zM442 651q-160 0 -262 116t-102 304t103 304t262 116t259 -114t100 -304t-100 -306t-260 -116z" />
    <glyph glyph-name="perthousand.tab" horiz-adv-x="2457" 
d="M410 821q135 0 135 258q0 117 -35 189q-34 72 -100 72t-100 -72q-34 -70 -34 -188t34 -188t100 -71zM410 666q-152 0 -247 114t-95 299q0 186 96 299t247 113t245 -112t96 -299q0 -186 -95 -300t-247 -114zM1282 123q137 0 137 256q0 117 -35 189t-102 71
q-131 0 -131 -258t131 -258zM1282 -35q-152 0 -247 114t-95 300t96 299t248 113t246 -111t94 -299t-95 -302t-247 -114zM2048 123q137 0 137 256q0 117 -35 189t-102 71q-131 0 -131 -258t131 -258zM2048 -35q-152 0 -247 114t-95 300t96 299t248 113t246 -111t94 -299
t-95 -302t-247 -114zM354 0l811 1458h172l-811 -1458h-172z" />
    <glyph glyph-name="minus.tab" horiz-adv-x="1331" 
d="M166 594v207h999v-207h-999z" />
    <glyph glyph-name="multiply.tab" horiz-adv-x="1331" 
d="M330 213l-144 141l338 340l-336 338l144 144l334 -338l335 338l146 -144l-338 -338l338 -338l-146 -143l-335 338z" />
    <glyph glyph-name="divide.tab" horiz-adv-x="1331" 
d="M524 164v264h285v-264h-285zM174 594v209h985v-209h-985zM524 967v266h285v-266h-285z" />
    <glyph glyph-name="plusminus.tab" horiz-adv-x="1331" 
d="M166 0v201h999v-201h-999zM166 700v205h391v348h219v-348h389v-205h-389v-350h-219v350h-391z" />
    <glyph glyph-name="notequal.tab" horiz-adv-x="1331" 
d="M178 772v199h555l119 231h180l-119 -231h248v-199h-348l-111 -217h459v-199h-559l-117 -231h-180l117 231h-244v199h344l111 217h-455z" />
    <glyph glyph-name="approxequal.tab" horiz-adv-x="1331" 
d="M922 317q-88 0 -266 39t-226 39q-82 0 -90 -92h-180q2 151 72 227t172 76q104 0 276 -40t217 -40q86 0 92 88h182q-3 -297 -249 -297zM922 731q-88 0 -266 39t-226 39q-82 0 -90 -92h-180q2 151 72 227t172 76q104 0 276 -40t217 -40q86 0 92 88h182q-3 -297 -249 -297z
" />
    <glyph glyph-name="lessequal.tab" horiz-adv-x="1331" 
d="M1118 274l-913 312v270l913 311v-223l-432 -139l-324 -84v-4q190 -37 324 -78l432 -137v-228zM205 0v201h913v-201h-913z" />
    <glyph glyph-name="greaterequal.tab" horiz-adv-x="1331" 
d="M1126 586l-913 -312v228l432 137q110 33 273 68l51 10v4q-190 43 -324 84l-432 139v223l913 -311v-270zM1126 201v-201h-913v201h913z" />
    <glyph glyph-name="less.tab" horiz-adv-x="1331" 
d="M1118 170l-913 367v247l913 367v-231l-444 -162l-297 -96v-5q184 -53 297 -92l444 -157v-238z" />
    <glyph glyph-name="equal.tab" horiz-adv-x="1331" 
d="M178 356v203h983v-203h-983zM178 768v203h983v-203h-983z" />
    <glyph glyph-name="greater.tab" horiz-adv-x="1331" 
d="M213 1151l913 -367v-247l-913 -367v231l446 162l295 96v5q-184 53 -295 92l-446 157v238z" />
    <glyph glyph-name="space.tab" horiz-adv-x="665" 
 />
    <glyph glyph-name="comma.tab" horiz-adv-x="665" 
d="M324 -12v12h-131v285h282v-283q-1 -162 -75 -248t-205 -100v127q129 37 129 207z" />
    <glyph glyph-name="period.tab" horiz-adv-x="665" 
d="M193 0v285h282v-285h-282z" />
    <glyph glyph-name="colon.tab" horiz-adv-x="665" 
d="M190 0v285h285v-285h-285zM190 653v283h285v-283h-285z" />
    <glyph glyph-name="semicolon.tab" horiz-adv-x="665" 
d="M324 -12v12h-134v285h285v-283q1 -162 -75 -248t-207 -100v127q131 39 131 207zM190 653v283h285v-283h-285z" />
    </font>
</defs>
</svg>
