<svg width="290px" height="330px" id="box" viewBox="0 0 29 33" version="1.1" xmlns="http://www.w3.org/2000/svg" xmlns:xlink="http://www.w3.org/1999/xlink">
    <!-- Generator: Sketch 3.6.1 (26313) - http://www.bohemiancoding.com/sketch -->
    <title>box</title>
    <desc>Created with Sketch.</desc>
    <defs></defs>
    <g id="box" stroke="none" stroke-width="1" fill="none" fill-rule="evenodd">
        <g id="box" transform="translate(1.000000, 0.000000)" stroke-width="0.4" stroke="#FFFFFF">
            <g id="Page-1">
                <g id="box">
                    <path d="M13.939,0.5765 C13.763,0.4745 13.552,0.4745 13.377,0.5765 L0.285,8.1375 C0.105,8.2415 0,8.4285 0,8.6275 L0,23.7445 C0,23.9475 0.105,24.1315 0.281,24.2325 L13.375,31.7935 C13.461,31.8465 13.559,31.8695 13.654,31.8695 C13.758,31.8695 13.853,31.8425 13.937,31.7935 L27.033,24.2325 C27.207,24.1305 27.314,23.9475 27.314,23.7445 L27.314,8.6275 C27.314,8.4285 27.207,8.2415 27.033,8.1375 L13.939,0.5765 Z" id="Box-2-path"></path>
                    <path d="M8.744,4.5555 L20.713,11.4615 L18.572,12.6975 L6.605,5.7855 L8.744,4.5555 L8.744,4.5555 L8.744,4.5555 L8.744,4.5555 Z" id="Box-2-path"></path>
                    <path d="M19.137,18.0435 L19.137,13.6745 L21.276,12.4425 L21.276,16.8095 L19.137,18.0435 L19.137,18.0435 L19.137,18.0435 L19.137,18.0435 Z" id="Box-2-path"></path>
                    <path d="M13.66,1.7155 L25.627,8.6275 L21.836,10.8115 L9.869,3.9055 L13.66,1.7155 L13.66,1.7155 L13.66,1.7155 L13.66,1.7155 Z" id="Box-2-path"></path>
                    <path d="M5.482,6.4365 L17.445,13.3485 L13.654,15.5375 L1.689,8.6275 L5.482,6.4365 L5.482,6.4365 L5.482,6.4365 L5.482,6.4365 Z" id="Box-2-path"></path>
                    <path d="M1.125,9.6025 L13.096,16.5125 L13.096,30.3345 L1.125,23.4205 L1.125,9.6025 L1.125,9.6025 L1.125,9.6025 L1.125,9.6025 Z" id="Box-2-path"></path>
                    <path d="M14.221,30.3305 L14.221,16.5125 L18.008,14.3245 L18.008,19.0175 C18.008,19.2205 18.117,19.4045 18.289,19.5055 C18.42,19.5815 18.564,19.5815 18.703,19.5465 C18.754,19.5365 18.807,19.5325 18.853,19.5055 L22.117,17.6205 C22.293,17.5185 22.4,17.3355 22.4,17.1325 L22.4,11.7905 L26.189,9.6015 L26.189,23.4195 L14.221,30.3305 L14.221,30.3305 L14.221,30.3305 L14.221,30.3305 Z" id="Box-2-path"></path>
                </g>
            </g>
        </g>
    </g>
</svg>