<?xml version="1.0" encoding="UTF-8" standalone="no"?>
<svg width="107px" height="116px" viewBox="0 0 107 116" version="1.1" xmlns="http://www.w3.org/2000/svg" xmlns:xlink="http://www.w3.org/1999/xlink">
    <!-- Generator: Sketch 3.6.1 (26313) - http://www.bohemiancoding.com/sketch -->
    <title>Group</title>
    <desc>Created with Sketch.</desc>
    <defs></defs>
    <g id="ghost" stroke="none" stroke-width="1" fill="none" fill-rule="evenodd">
        <g id="Group" transform="translate(-2.000000, -2.000000)">
            <g id="ghost">
                <path d="M109.614,114.317 L109.614,47.76 C109.614,47.76 104.989,12.885 73.489,3.385 C41.989,-6.115 7.489,10.01 1.364,47.385 L0.583,110.604 C0.645,114.801 1.688,116.781 2.391,117.61 C4.331,119.421 7.799,121.075 12.49,117.01 C19.99,110.51 20.865,107.01 25.24,110.135 C29.615,113.26 31.115,119.885 38.865,119.385 C46.615,118.885 51.615,110.385 52.615,109.76 C53.615,109.135 56.99,107.885 59.615,111.01 C62.24,114.135 64.99,119.26 72.49,118.885 C79.99,118.51 85.115,110.51 85.115,110.51 C85.115,110.51 87.365,106.635 92.365,110.885 C97.365,115.135 99.99,120.635 106.74,119.01 C106.739,119.01 107.412,118.902 108.223,118.064 C109.255,116.881 109.546,115.334 109.614,114.317 L109.614,114.317 Z" id="Shape"></path>
                <path d="M78.238,57.552 C81.9200824,57.552 84.905,54.5670824 84.905,50.885 C84.905,47.2029176 81.9200824,44.218 78.238,44.218 C74.5559176,44.218 71.571,47.2029176 71.571,50.885 C71.571,54.5670824 74.5559176,57.552 78.238,57.552 Z" id="Oval" fill="#BFC0C0" opacity="0.652635261"></path>
                <circle id="Oval" fill="#BFC0C0" opacity="0.652635261" cx="32.072" cy="50.885" r="6.667"></circle>
                <path d="M63.916,55.782 C63.966,54.674 63.107,53.736 61.999,53.687 C61.326,53.657 60.719,53.966 60.332,54.458 C59.574,55.224 57.849,56.693 55.636,56.816 C53.94,56.91 52.198,56.191 50.445,54.679 C50.442,54.676 50.438,54.673 50.434,54.67 L50.436,54.675 C50.104,54.381 49.679,54.187 49.201,54.166 C48.093,54.117 47.155,54.975 47.106,56.083 C47.074,56.807 47.433,57.453 47.993,57.832 C47.992,57.832 47.991,57.831 47.99,57.831 C50.211,59.702 52.526,60.711 54.902,60.817 C55.235,60.831 55.572,60.829 55.909,60.807 C59.072,60.616 61.481,58.865 62.797,57.641 L63.249,57.188 C63.27,57.169 63.289,57.147 63.309,57.127 L63.343,57.093 C63.336,57.1 63.328,57.107 63.322,57.113 C63.666,56.771 63.892,56.307 63.916,55.782 L63.916,55.782 L63.916,55.782 L63.916,55.782 Z" id="Shape" fill="#BFC0C0" opacity="0.652635261"></path>
                <path d="M108.279,48.814 C108.258,48.528 105.956,20.07 78.058,7.802 C70.252,4.369 62.281,2.629 54.367,2.629 C37.478,2.629 24.084,10.412 17.18,17.696 C7.951,27.432 3.34,44.408 2.989,47.955 L2.241,110.287 C2.39,112.42 3.63,116.454 7.26,116.454 C9.151,116.454 11.334,115.371 13.932,113.143 C18.892,108.892 21.356,106.848 23.158,106.848 C24.497,106.848 25.87,108.061 28.26,110.61 C32.381,115.006 35.721,116.965 39.093,116.965 C41.806,116.965 44.404,115.669 47.035,113.003 C50.139,109.858 52.736,107.764 55.32,107.764 C57.436,107.764 59.761,109.185 62.637,112.237 C65.275,115.037 68.311,116.456 71.659,116.456 C76.494,116.456 80.65,113.497 82.929,110.728 L83.015,110.624 C84.824,108.424 86.252,106.686 88.327,106.686 C90.535,106.686 93.598,108.628 97.686,112.622 C98.226,113.365 101.238,117.296 104.546,117.296 C105.916,117.296 107.105,116.646 108.077,115.364 L108.28,115.096 L108.279,48.814 L108.279,48.814 L108.279,48.814 L108.279,48.814 Z M88.328,104.687 C85.307,104.687 83.444,106.954 81.471,109.354 C79.489,111.765 75.803,114.457 71.66,114.457 C68.885,114.457 66.338,113.249 64.093,110.867 C60.768,107.339 58.063,105.765 55.321,105.765 C52.043,105.765 49.07,108.097 45.613,111.6 C43.377,113.865 41.245,114.966 39.095,114.966 C36.323,114.966 33.431,113.201 29.721,109.243 C27.233,106.589 25.431,104.848 23.16,104.848 C20.645,104.848 18.115,106.925 12.633,111.625 C9.906,113.962 8.207,114.453 7.263,114.453 C4.601,114.453 4.246,110.228 4.242,110.228 L4.987,48.065 C5.319,44.744 9.754,28.44 18.634,19.07 C22.527,14.964 26.6398635,10.8354238 34.8548635,7.9634238 C38.7009119,6.46553691 39.0950006,6.4775681 41.7342333,6.10750432 C46.2971758,5.55178632 49.201,4.626 54.369,4.626 C62.005,4.626 69.705,6.31 77.256,9.63 C104.022,21.401 106.267,48.677 106.283,48.881 L106.283,114.405 C105.755,115.004 105.185,115.296 104.547,115.296 C104.547,115.296 100.037,112.476 99.264,111.389 C94.51,106.712 91.173,104.687 88.328,104.687 Z" id="Shape" fill="#BFC0C0" opacity="0.356110075"></path>
            </g>
        </g>
    </g>
</svg>